<svg width="313" height="409" viewBox="0 0 313 409" fill="none" xmlns="http://www.w3.org/2000/svg">
<g filter="url(#filter0_d)">
<rect x="23" y="53" width="272" height="333" rx="34" fill="white"/>
</g>
<path d="M258.338 387.796L259.185 387.773C258.857 374.516 257.853 361.309 256.178 348.256C252.515 320.307 246.424 301.952 238.074 293.7L237.588 294.676C257.093 313.952 258.328 387.06 258.338 387.796Z" fill="#2F2E41"/>
<path d="M246.479 388.064L247.326 388.04C247.308 386.72 246.778 355.601 238.074 347L237.588 347.976C245.941 356.23 246.475 387.746 246.479 388.064Z" fill="#2F2E41"/>
<path d="M233.823 297.923C236.163 297.923 238.059 295.254 238.059 291.962C238.059 288.669 236.163 286 233.823 286C231.484 286 229.588 288.669 229.588 291.962C229.588 295.254 231.484 297.923 233.823 297.923Z" fill="#005792"/>
<path d="M233.823 350.923C236.163 350.923 238.059 348.254 238.059 344.962C238.059 341.669 236.163 339 233.823 339C231.484 339 229.588 341.669 229.588 344.962C229.588 348.254 231.484 350.923 233.823 350.923Z" fill="#005792"/>
<path d="M249.724 298.358C248.928 305.514 251.002 311.915 251.002 311.915C251.002 311.915 254.367 306.713 255.163 299.557C255.959 292.401 253.885 286 253.885 286C253.885 286 250.52 291.202 249.724 298.358Z" fill="#2F2E41"/>
<path d="M237.088 315C241.956 317.35 246.795 315.59 246.795 315.59C246.795 315.59 243.742 310.019 238.874 307.669C234.007 305.319 229.167 307.079 229.167 307.079C229.167 307.079 232.22 312.65 237.088 315Z" fill="#2F2E41"/>
<path d="M236.336 362.638C238.539 363.612 240.885 363.755 243.14 363.052C241.708 360.486 239.78 358.558 237.588 357.5C235.396 356.442 233.033 356.298 230.784 357.087C232.257 359.589 234.172 361.504 236.336 362.638Z" fill="#2F2E41"/>
<path d="M135.281 222.521L107.974 202.535C107.974 202.535 98.8039 188.321 93.0448 181.9C87.2858 175.48 85.5131 180.197 85.5131 180.197L83.0922 185.876L88.9427 197.329L104.746 216.165L132.984 231.733C133.425 232.751 134.063 233.571 134.823 234.099C135.583 234.627 136.433 234.841 137.276 234.715C138.119 234.59 138.919 234.131 139.583 233.391C140.248 232.651 140.749 231.661 141.03 230.535C141.311 229.41 141.359 228.196 141.169 227.034C140.979 225.871 140.558 224.809 139.956 223.97C139.354 223.13 138.595 222.549 137.768 222.293C136.94 222.036 136.078 222.116 135.281 222.521Z" fill="#9F616A"/>
<path d="M64.2527 205.236L62.6359 191.314L58.071 189.708C58.071 189.708 54.4481 188.137 53.6012 198.409C52.7544 208.681 53.4109 227.858 53.4109 227.858L44.1426 269.169C43.3716 269.674 42.7184 270.476 42.259 271.483C41.7996 272.49 41.5529 273.66 41.5476 274.857C41.5423 276.054 41.7787 277.228 42.2292 278.243C42.6797 279.258 43.3258 280.072 44.0922 280.59C44.8587 281.108 45.7139 281.31 46.5584 281.17C47.4029 281.031 48.2019 280.556 48.8622 279.802C49.5226 279.049 50.0173 278.046 50.2886 276.912C50.5599 275.778 50.5967 274.558 50.3947 273.396L62.5409 234.283L64.2527 205.236Z" fill="#9F616A"/>
<path d="M102.011 400.603H107.984L110.826 368.172L102.01 368.173L102.011 400.603Z" fill="#9F616A"/>
<path d="M100.487 397.858L112.251 397.857H112.252C114.24 397.858 116.147 398.969 117.553 400.948C118.959 402.927 119.748 405.611 119.749 408.409V408.752L100.488 408.753L100.487 397.858Z" fill="#2F2E41"/>
<path d="M36.8573 400.603H42.831L45.6726 368.172L36.8565 368.173L36.8573 400.603Z" fill="#9F616A"/>
<path d="M35.3337 397.858L47.0978 397.857H47.0982C49.0865 397.858 50.9933 398.969 52.3992 400.948C53.8051 402.927 54.5951 405.611 54.5952 408.409V408.752L35.3341 408.753L35.3337 397.858Z" fill="#2F2E41"/>
<path d="M66.3475 177.426L56.4396 189.331L64.5708 225.549L66.4055 233.637C66.4055 233.637 55.2026 248.175 48.271 288.788C41.3394 329.401 30 383.366 30 383.366L53.9354 393.01L73.4085 301.139L96.3134 373.214L98.9579 394.532L119.341 386.073L114.533 332.609L90.4923 240.061L92.9896 215.528C92.9896 215.528 96.7397 203.283 90.2249 190.319L88.1814 178.137L80.8611 175.599L66.3475 177.426Z" fill="#00204A"/>
<path d="M82.8075 170.954H56.0202C55.4692 170.953 54.9409 170.645 54.5513 170.097C54.1616 169.548 53.9425 168.805 53.9418 168.029V151.777C53.9418 146.002 55.5719 140.462 58.4735 136.378C61.375 132.294 65.3104 130 69.4138 130C73.5173 130 77.4526 132.294 80.3542 136.378C83.2557 140.462 84.8858 146.002 84.8858 151.777V168.029C84.8852 168.805 84.666 169.548 84.2764 170.097C83.8868 170.645 83.3585 170.953 82.8075 170.954Z" fill="#2F2E41"/>
<path d="M82.5466 162.268C85.5516 154.531 83.5313 144.83 78.0342 140.6C72.5371 136.37 65.6448 139.214 62.6398 146.951C59.6348 154.689 61.655 164.39 67.1522 168.619C72.6493 172.849 79.5416 170.006 82.5466 162.268Z" fill="#9F616A"/>
<path d="M88.5461 153.402H72.1663L71.9983 150.092L71.1585 153.402H68.6364L68.3035 146.842L66.639 153.402H61.7588V153.077C61.7624 148.51 63.0531 144.131 65.3475 140.902C67.642 137.672 70.7529 135.856 73.9977 135.851H76.3071C79.552 135.856 82.6629 137.672 84.9573 140.902C87.2518 144.131 88.5425 148.51 88.5461 153.077V153.402Z" fill="#2F2E41"/>
<path d="M72.0323 173.988C71.909 173.988 71.7859 173.973 71.6645 173.942L59.6705 170.964V143.063H72.8736L72.5467 143.599C67.9988 151.065 71.4251 163.17 73.8723 169.722C74.0527 170.202 74.1331 170.744 74.1043 171.285C74.0755 171.826 73.9387 172.345 73.7096 172.782C73.5177 173.155 73.2656 173.459 72.9741 173.669C72.6825 173.879 72.3597 173.988 72.0323 173.988Z" fill="#2F2E41"/>
<path d="M171.222 320.26L66.106 372.57C63.507 373.859 60.651 373.644 58.1644 371.973C55.6779 370.301 53.764 367.31 52.8425 363.655L34.7851 291.767C33.8695 288.109 34.0222 284.089 35.2098 280.589C36.3973 277.089 38.5226 274.395 41.1195 273.098L146.236 220.788C148.835 219.499 151.691 219.714 154.177 221.386C156.664 223.057 158.578 226.049 159.499 229.704L177.556 301.591C178.472 305.249 178.319 309.269 177.132 312.769C175.944 316.269 173.819 318.963 171.222 320.26Z" fill="white"/>
<path d="M177.556 301.591L177.652 301.972C178.529 305.465 178.384 309.306 177.249 312.649C176.115 315.992 174.083 318.564 171.601 319.799L65.959 372.371C63.4775 373.605 60.7493 373.402 58.3743 371.806C55.9993 370.209 54.1721 367.35 53.2945 363.858L53.199 363.477L177.556 301.591Z" fill="#F2F2F2"/>
<path d="M59.5462 289.789C52.5786 296.242 43.6487 291.386 40.5256 284.312L41.0235 283.914C46.9553 278.71 55.7644 281.609 59.5462 289.789Z" fill="#005792"/>
<path d="M146.86 308.098C145.155 308.947 143.619 308.908 142.296 307.982C139.305 305.89 137.901 299.687 136.773 294.703C136.445 293.253 136.135 291.883 135.819 290.763L135.815 290.746C135.266 288.526 135.361 286.09 136.081 283.967C136.8 281.845 138.086 280.208 139.658 279.413L153.797 272.376C155.5 271.529 157.034 271.567 158.356 272.491C161.347 274.581 162.752 280.782 163.881 285.764C164.21 287.217 164.521 288.59 164.837 289.711C165.39 291.934 165.296 294.374 164.576 296.5C163.857 298.626 162.57 300.266 160.996 301.063L146.86 308.098ZM136.407 290.445C136.73 291.591 137.042 292.972 137.373 294.434C138.465 299.258 139.824 305.263 142.576 307.188C143.758 308.014 145.09 308.038 146.65 307.262L160.785 300.228C162.201 299.511 163.359 298.038 164.007 296.126C164.655 294.215 164.742 292.021 164.248 290.021C163.927 288.888 163.613 287.502 163.28 286.033C162.188 281.21 160.828 275.208 158.076 273.286C156.896 272.461 155.565 272.437 154.007 273.212L139.869 280.248C138.454 280.964 137.298 282.437 136.65 284.346C136.002 286.255 135.914 288.446 136.407 290.445Z" fill="#3F3D56"/>
<path d="M56.6157 292.113C54.1312 293.326 51.4548 293.533 48.8908 292.711C45.1464 291.553 41.7482 288.407 40.0225 284.499L39.8495 284.107L40.6266 283.485C46.6476 278.207 55.6763 281.068 59.5735 289.496L59.7444 289.866L59.4827 290.108C58.5883 290.937 57.6255 291.611 56.6157 292.113ZM40.7356 284.418C42.4244 287.95 45.5671 290.775 49.0259 291.845C52.3881 292.95 55.9243 292.147 58.8688 289.609C55.0566 281.847 46.6108 279.273 40.9546 284.243L40.7356 284.418Z" fill="#00204A"/>
<path d="M60.3086 343.709C59.4259 344.201 58.4648 344.345 57.5282 344.126C56.5917 343.907 55.7152 343.334 54.9928 342.467C54.1473 341.426 53.5062 340.097 53.1316 338.607C52.7569 337.117 52.6612 335.516 52.8537 333.959C53.0324 332.619 53.4713 331.375 54.1216 330.364C54.7719 329.354 55.6083 328.617 56.538 328.234L75.3768 318.859C76.2709 318.338 77.2499 318.174 78.2059 318.385C79.162 318.597 80.0579 319.176 80.795 320.059C81.6401 321.1 82.2806 322.429 82.6548 323.919C83.029 325.409 83.1242 327.01 82.9314 328.567C82.5594 331.303 81.2469 333.319 79.2463 334.284L60.4071 343.659C60.3742 343.676 60.3414 343.693 60.3086 343.709ZM56.6552 329.115C55.8513 329.464 55.1303 330.115 54.5695 330.998C54.0088 331.881 53.6295 332.962 53.4724 334.125C53.299 335.528 53.3853 336.97 53.7228 338.313C54.0604 339.655 54.6379 340.853 55.3997 341.79C56.0527 342.568 56.8462 343.077 57.6923 343.26C58.5383 343.443 59.4037 343.292 60.1927 342.825L79.0408 333.446C79.8639 333.111 80.6051 332.463 81.1826 331.573C81.7601 330.682 82.1512 329.584 82.3127 328.4C82.4865 326.997 82.4006 325.555 82.0635 324.213C81.7263 322.871 81.1493 321.673 80.3878 320.736C79.7338 319.958 78.94 319.448 78.0936 319.264C77.2473 319.081 76.3813 319.229 75.591 319.693L56.7417 329.073C56.7128 329.087 56.6838 329.101 56.6552 329.115Z" fill="#3F3D56"/>
<path d="M146.986 286.947L141.048 289.902C140.654 290.098 140.221 290.066 139.844 289.813C139.467 289.559 139.177 289.106 139.038 288.551C138.899 287.997 138.922 287.388 139.102 286.857C139.282 286.327 139.604 285.919 139.998 285.723L145.937 282.767C146.33 282.571 146.763 282.604 147.14 282.857C147.517 283.11 147.807 283.564 147.946 284.118C148.085 284.673 148.063 285.282 147.883 285.812C147.703 286.343 147.38 286.751 146.986 286.947Z" fill="#005792"/>
<path d="M148.666 293.634L142.727 296.59C142.334 296.785 141.901 296.753 141.524 296.5C141.147 296.247 140.857 295.793 140.718 295.239C140.579 294.684 140.602 294.075 140.782 293.545C140.962 293.014 141.284 292.606 141.678 292.41L147.616 289.455C148.01 289.259 148.443 289.291 148.82 289.544C149.197 289.798 149.487 290.251 149.626 290.805C149.765 291.36 149.742 291.969 149.562 292.5C149.382 293.03 149.06 293.438 148.666 293.634Z" fill="#005792"/>
<path d="M150.346 300.321L144.407 303.277C144.212 303.374 144.006 303.416 143.799 303.4C143.593 303.385 143.39 303.312 143.204 303.187C143.017 303.062 142.85 302.886 142.712 302.669C142.573 302.453 142.467 302.2 142.398 301.926C142.329 301.651 142.299 301.36 142.31 301.07C142.321 300.779 142.372 300.494 142.461 300.232C142.55 299.969 142.675 299.734 142.829 299.539C142.983 299.344 143.162 299.194 143.357 299.097L149.296 296.142C149.491 296.045 149.698 296.003 149.904 296.018C150.111 296.033 150.313 296.106 150.5 296.231C150.686 296.357 150.854 296.533 150.992 296.749C151.13 296.966 151.237 297.218 151.306 297.493C151.375 297.767 151.405 298.058 151.394 298.349C151.383 298.639 151.331 298.924 151.242 299.187C151.153 299.449 151.028 299.685 150.874 299.879C150.72 300.074 150.541 300.224 150.346 300.321Z" fill="#005792"/>
<path d="M157.379 281.775L151.44 284.73C151.246 284.827 151.039 284.869 150.832 284.854C150.626 284.839 150.424 284.766 150.237 284.641C150.05 284.515 149.883 284.339 149.745 284.123C149.606 283.906 149.5 283.654 149.431 283.379C149.362 283.105 149.332 282.814 149.343 282.523C149.354 282.233 149.405 281.948 149.495 281.685C149.584 281.423 149.709 281.187 149.862 280.993C150.016 280.798 150.196 280.648 150.391 280.551L156.329 277.595C156.723 277.399 157.156 277.432 157.533 277.685C157.91 277.938 158.2 278.392 158.339 278.946C158.478 279.501 158.455 280.11 158.275 280.64C158.095 281.171 157.773 281.579 157.379 281.775Z" fill="#005792"/>
<path d="M159.059 288.462L153.12 291.418C152.925 291.515 152.719 291.557 152.512 291.541C152.306 291.526 152.103 291.453 151.917 291.328C151.73 291.202 151.563 291.027 151.425 290.81C151.286 290.594 151.18 290.341 151.111 290.067C151.042 289.792 151.012 289.501 151.023 289.211C151.034 288.92 151.085 288.635 151.174 288.373C151.263 288.11 151.388 287.875 151.542 287.68C151.696 287.485 151.875 287.335 152.07 287.238L158.009 284.283C158.204 284.186 158.411 284.144 158.617 284.159C158.824 284.174 159.026 284.247 159.213 284.372C159.399 284.498 159.567 284.674 159.705 284.89C159.843 285.106 159.95 285.359 160.019 285.634C160.088 285.908 160.118 286.199 160.107 286.489C160.096 286.78 160.044 287.065 159.955 287.328C159.866 287.59 159.741 287.826 159.587 288.02C159.433 288.215 159.254 288.365 159.059 288.462Z" fill="#005792"/>
<path d="M160.739 295.149L154.8 298.105C154.406 298.301 153.973 298.268 153.596 298.015C153.22 297.762 152.93 297.308 152.79 296.754C152.651 296.2 152.674 295.59 152.854 295.06C153.034 294.529 153.356 294.121 153.75 293.925L159.689 290.97C159.884 290.873 160.091 290.831 160.297 290.846C160.504 290.861 160.706 290.934 160.893 291.059C161.079 291.185 161.246 291.361 161.385 291.577C161.523 291.794 161.63 292.046 161.699 292.321C161.767 292.595 161.797 292.886 161.786 293.177C161.775 293.467 161.724 293.752 161.635 294.015C161.546 294.277 161.421 294.513 161.267 294.707C161.113 294.902 160.934 295.052 160.739 295.149Z" fill="#005792"/>
<path d="M163.431 245.352L39.073 307.239L39.283 308.075L163.641 246.188L163.431 245.352Z" fill="#3F3D56"/>
<path d="M171.222 320.26L66.106 372.57C63.507 373.859 60.651 373.644 58.1644 371.973C55.6779 370.301 53.764 367.31 52.8425 363.655L34.7851 291.767C33.8695 288.109 34.0222 284.089 35.2098 280.589C36.3973 277.089 38.5226 274.395 41.1195 273.098L146.236 220.788C148.835 219.499 151.691 219.714 154.177 221.386C156.664 223.057 158.578 226.049 159.499 229.704L177.556 301.591C178.472 305.249 178.319 309.269 177.132 312.769C175.944 316.269 173.819 318.963 171.222 320.26ZM41.3295 273.934C38.89 275.153 36.8935 277.683 35.7779 280.971C34.6624 284.259 34.5189 288.035 35.379 291.472L53.4364 363.359C54.302 366.793 56.1 369.603 58.4358 371.173C60.7716 372.743 63.4545 372.945 65.896 371.735L171.012 319.424C173.452 318.206 175.448 315.675 176.564 312.387C177.679 309.099 177.823 305.323 176.963 301.887L158.905 229.999C158.04 226.566 156.242 223.756 153.906 222.185C151.57 220.615 148.887 220.413 146.446 221.624L41.3295 273.934Z" fill="#3F3D56"/>
<path d="M66.048 35.432C63.48 35.432 61.152 34.88 59.064 33.776C57 32.648 55.368 31.1 54.168 29.132C52.992 27.14 52.404 24.896 52.404 22.4C52.404 19.904 52.992 17.672 54.168 15.704C55.368 13.712 57 12.164 59.064 11.06C61.152 9.932 63.492 9.368 66.084 9.368C68.268 9.368 70.236 9.752 71.988 10.52C73.764 11.288 75.252 12.392 76.452 13.832L72.708 17.288C71.004 15.32 68.892 14.336 66.372 14.336C64.812 14.336 63.42 14.684 62.196 15.38C60.972 16.052 60.012 17 59.316 18.224C58.644 19.448 58.308 20.84 58.308 22.4C58.308 23.96 58.644 25.352 59.316 26.576C60.012 27.8 60.972 28.76 62.196 29.456C63.42 30.128 64.812 30.464 66.372 30.464C68.892 30.464 71.004 29.468 72.708 27.476L76.452 30.932C75.252 32.396 73.764 33.512 71.988 34.28C70.212 35.048 68.232 35.432 66.048 35.432ZM85.3583 18.188C86.0303 17.252 86.9303 16.544 88.0583 16.064C89.2103 15.584 90.5303 15.344 92.0183 15.344V20.528C91.3943 20.48 90.9743 20.456 90.7583 20.456C89.1503 20.456 87.8903 20.912 86.9783 21.824C86.0663 22.712 85.6103 24.056 85.6103 25.856V35H79.9943V15.632H85.3583V18.188ZM114.154 25.388C114.154 25.46 114.118 25.964 114.046 26.9H99.3938C99.6578 28.1 100.282 29.048 101.266 29.744C102.25 30.44 103.474 30.788 104.938 30.788C105.946 30.788 106.834 30.644 107.602 30.356C108.394 30.044 109.126 29.564 109.798 28.916L112.786 32.156C110.962 34.244 108.298 35.288 104.794 35.288C102.61 35.288 100.678 34.868 98.9978 34.028C97.3178 33.164 96.0218 31.976 95.1098 30.464C94.1978 28.952 93.7418 27.236 93.7418 25.316C93.7418 23.42 94.1858 21.716 95.0738 20.204C95.9858 18.668 97.2218 17.48 98.7818 16.64C100.366 15.776 102.13 15.344 104.074 15.344C105.97 15.344 107.686 15.752 109.222 16.568C110.758 17.384 111.958 18.56 112.822 20.096C113.71 21.608 114.154 23.372 114.154 25.388ZM104.11 19.592C102.838 19.592 101.77 19.952 100.906 20.672C100.042 21.392 99.5138 22.376 99.3218 23.624H108.862C108.67 22.4 108.142 21.428 107.278 20.708C106.414 19.964 105.358 19.592 104.11 19.592ZM137.621 8.288V35H132.257V32.768C130.865 34.448 128.849 35.288 126.209 35.288C124.385 35.288 122.729 34.88 121.241 34.064C119.777 33.248 118.625 32.084 117.785 30.572C116.945 29.06 116.525 27.308 116.525 25.316C116.525 23.324 116.945 21.572 117.785 20.06C118.625 18.548 119.777 17.384 121.241 16.568C122.729 15.752 124.385 15.344 126.209 15.344C128.681 15.344 130.613 16.124 132.005 17.684V8.288H137.621ZM127.181 30.68C128.597 30.68 129.773 30.2 130.709 29.24C131.645 28.256 132.113 26.948 132.113 25.316C132.113 23.684 131.645 22.388 130.709 21.428C129.773 20.444 128.597 19.952 127.181 19.952C125.741 19.952 124.553 20.444 123.617 21.428C122.681 22.388 122.213 23.684 122.213 25.316C122.213 26.948 122.681 28.256 123.617 29.24C124.553 30.2 125.741 30.68 127.181 30.68ZM142.819 15.632H148.435V35H142.819V15.632ZM145.627 12.932C144.595 12.932 143.755 12.632 143.107 12.032C142.459 11.432 142.135 10.688 142.135 9.8C142.135 8.912 142.459 8.168 143.107 7.568C143.755 6.968 144.595 6.668 145.627 6.668C146.659 6.668 147.499 6.956 148.147 7.532C148.795 8.108 149.119 8.828 149.119 9.692C149.119 10.628 148.795 11.408 148.147 12.032C147.499 12.632 146.659 12.932 145.627 12.932ZM166.139 34.064C165.587 34.472 164.903 34.784 164.087 35C163.295 35.192 162.455 35.288 161.567 35.288C159.263 35.288 157.475 34.7 156.203 33.524C154.955 32.348 154.331 30.62 154.331 28.34V20.384H151.343V16.064H154.331V11.348H159.947V16.064H164.771V20.384H159.947V28.268C159.947 29.084 160.151 29.72 160.559 30.176C160.991 30.608 161.591 30.824 162.359 30.824C163.247 30.824 164.003 30.584 164.627 30.104L166.139 34.064ZM191.943 35.432C189.375 35.432 187.047 34.88 184.959 33.776C182.895 32.648 181.263 31.1 180.063 29.132C178.887 27.14 178.299 24.896 178.299 22.4C178.299 19.904 178.887 17.672 180.063 15.704C181.263 13.712 182.895 12.164 184.959 11.06C187.047 9.932 189.387 9.368 191.979 9.368C194.163 9.368 196.131 9.752 197.883 10.52C199.659 11.288 201.147 12.392 202.347 13.832L198.603 17.288C196.899 15.32 194.787 14.336 192.267 14.336C190.707 14.336 189.315 14.684 188.091 15.38C186.867 16.052 185.907 17 185.211 18.224C184.539 19.448 184.203 20.84 184.203 22.4C184.203 23.96 184.539 25.352 185.211 26.576C185.907 27.8 186.867 28.76 188.091 29.456C189.315 30.128 190.707 30.464 192.267 30.464C194.787 30.464 196.899 29.468 198.603 27.476L202.347 30.932C201.147 32.396 199.659 33.512 197.883 34.28C196.107 35.048 194.127 35.432 191.943 35.432ZM213.56 15.344C216.56 15.344 218.864 16.064 220.472 17.504C222.08 18.92 222.884 21.068 222.884 23.948V35H217.628V32.588C216.572 34.388 214.604 35.288 211.724 35.288C210.236 35.288 208.94 35.036 207.836 34.532C206.756 34.028 205.928 33.332 205.352 32.444C204.776 31.556 204.488 30.548 204.488 29.42C204.488 27.62 205.16 26.204 206.504 25.172C207.872 24.14 209.972 23.624 212.804 23.624H217.268C217.268 22.4 216.896 21.464 216.152 20.816C215.408 20.144 214.292 19.808 212.804 19.808C211.772 19.808 210.752 19.976 209.744 20.312C208.76 20.624 207.92 21.056 207.224 21.608L205.208 17.684C206.264 16.94 207.524 16.364 208.988 15.956C210.476 15.548 212 15.344 213.56 15.344ZM213.128 31.508C214.088 31.508 214.94 31.292 215.684 30.86C216.428 30.404 216.956 29.744 217.268 28.88V26.9H213.416C211.112 26.9 209.96 27.656 209.96 29.168C209.96 29.888 210.236 30.464 210.788 30.896C211.364 31.304 212.144 31.508 213.128 31.508ZM233.331 18.188C234.003 17.252 234.903 16.544 236.031 16.064C237.183 15.584 238.503 15.344 239.991 15.344V20.528C239.367 20.48 238.947 20.456 238.731 20.456C237.123 20.456 235.863 20.912 234.951 21.824C234.039 22.712 233.583 24.056 233.583 25.856V35H227.967V15.632H233.331V18.188ZM262.883 8.288V35H257.519V32.768C256.127 34.448 254.111 35.288 251.471 35.288C249.647 35.288 247.991 34.88 246.503 34.064C245.039 33.248 243.887 32.084 243.047 30.572C242.207 29.06 241.787 27.308 241.787 25.316C241.787 23.324 242.207 21.572 243.047 20.06C243.887 18.548 245.039 17.384 246.503 16.568C247.991 15.752 249.647 15.344 251.471 15.344C253.943 15.344 255.875 16.124 257.267 17.684V8.288H262.883ZM252.443 30.68C253.859 30.68 255.035 30.2 255.971 29.24C256.907 28.256 257.375 26.948 257.375 25.316C257.375 23.684 256.907 22.388 255.971 21.428C255.035 20.444 253.859 19.952 252.443 19.952C251.003 19.952 249.815 20.444 248.879 21.428C247.943 22.388 247.475 23.684 247.475 25.316C247.475 26.948 247.943 28.256 248.879 29.24C249.815 30.2 251.003 30.68 252.443 30.68Z" fill="url(#paint0_linear)"/>
<defs>
<filter id="filter0_d" x="19" y="53" width="280" height="341" filterUnits="userSpaceOnUse" color-interpolation-filters="sRGB">
<feFlood flood-opacity="0" result="BackgroundImageFix"/>
<feColorMatrix in="SourceAlpha" type="matrix" values="0 0 0 0 0 0 0 0 0 0 0 0 0 0 0 0 0 0 127 0" result="hardAlpha"/>
<feOffset dy="4"/>
<feGaussianBlur stdDeviation="2"/>
<feColorMatrix type="matrix" values="0 0 0 0 0 0 0 0 0 0 0 0 0 0 0 0 0 0 0.25 0"/>
<feBlend mode="normal" in2="BackgroundImageFix" result="effect1_dropShadow"/>
<feBlend mode="normal" in="SourceGraphic" in2="effect1_dropShadow" result="shape"/>
</filter>
<linearGradient id="paint0_linear" x1="168.837" y1="-6.63013e-07" x2="172.174" y2="43.9559" gradientUnits="userSpaceOnUse">
<stop stop-color="#005792"/>
<stop offset="1" stop-color="#4B8BDE" stop-opacity="0.57"/>
</linearGradient>
</defs>
</svg>
