<svg width="1920" height="300" viewBox="0 0 1920 300" fill="none" xmlns="http://www.w3.org/2000/svg">
<path d="M0 46.2176L64 53.223C128 60.7572 256 73.975 384 88.5147C512 103.054 640 116.272 768 95.5201C896 73.975 1024 18.4601 1152 3.92053C1280 -10.6191 1408 18.4601 1536 39.2121C1664 60.7572 1792 73.975 1856 81.5092L1920 88.5147V300H1856C1792 300 1664 300 1536 300C1408 300 1280 300 1152 300C1024 300 896 300 768 300C640 300 512 300 384 300C256 300 128 300 64 300H0V46.2176Z" fill="#005792"/>
</svg>
