<svg width="1920" height="462" viewBox="0 0 1920 462" fill="none" xmlns="http://www.w3.org/2000/svg">
<path d="M0 462L71.6667 423.333C143.333 384.667 286.667 307.333 430 255.858C573.333 203.417 716.667 179.25 860 217.192C1003.33 256.583 1146.67 358.083 1290 358.808C1433.33 358.083 1576.67 256.583 1720 204.142C1863.33 152.667 2006.67 152.667 2078.33 152.667H2150V-2H2078.33C2006.67 -2 1863.33 -2 1720 -2C1576.67 -2 1433.33 -2 1290 -2C1146.67 -2 1003.33 -2 860 -2C716.667 -2 573.333 -2 430 -2C286.667 -2 143.333 -2 71.6667 -2H0V462Z" fill="#005792"/>
</svg>
