<svg width="535" height="378" viewBox="0 0 535 378" fill="none" xmlns="http://www.w3.org/2000/svg">
<path opacity="0.1" d="M483.672 345.15C483.672 356.998 472.97 368.086 454.297 377.635H101.561C85.2406 377.635 69.9558 370.859 56.8558 359.042C53.5627 354.559 51.8275 349.914 51.8275 345.145C51.8275 332.551 63.9282 320.796 84.85 310.861L85.4405 310.59C91.3455 307.812 97.9454 305.19 105.159 302.724C105.34 302.662 105.526 302.604 105.708 302.531C111.431 300.603 117.52 298.775 123.973 297.048C124.177 296.996 124.377 296.938 124.581 296.896C127.071 296.219 129.61 295.588 132.203 294.957L133.203 294.718C152.076 290.224 173.529 286.659 196.795 284.24H196.822C200.08 283.893 203.373 283.582 206.701 283.307C210.403 282.968 214.151 282.682 217.939 282.416C220.833 282.202 223.762 282.02 226.701 281.853C226.712 281.848 226.724 281.845 226.735 281.845C226.747 281.845 226.759 281.848 226.769 281.853C240.028 281.087 253.728 280.685 267.736 280.685C302.376 280.685 335.117 283.125 364.128 287.462C364.155 287.456 364.183 287.456 364.21 287.462C368.67 288.129 373.049 288.833 377.319 289.583C378.541 289.802 379.758 290.021 380.953 290.245C385.771 291.138 390.464 292.082 395.034 293.076C448.769 304.799 483.672 323.768 483.672 345.15Z" fill="#6C63FF"/>
<path d="M395.861 126.813C395.861 126.813 391.055 124.577 375.765 132.62C360.476 140.663 358.568 139.647 354.612 138.437C350.656 137.228 348.448 136.915 344.206 130.196C344.206 130.196 341.212 111.582 338.301 108.694C335.389 105.806 323.098 110.341 323.098 110.341C323.098 110.341 308.34 114.225 305.528 91.5757C305.528 91.5757 307.522 74.5199 304.806 69.2865C304.806 69.2865 310.293 71.997 319.341 67.6184C328.389 63.2398 335.634 72.3359 335.634 72.3359C335.634 72.3359 337.905 79.1123 337.678 83.1573C337.451 87.2023 338.887 88.7192 343.202 86.7644C343.202 86.7644 345.323 83.3033 342.321 77.5798C339.318 71.8563 337.174 67.5976 338.01 63.1564C338.846 58.7152 341.258 52.5487 349.002 49.468C356.747 46.3873 367.262 45.8191 372.309 43.3848C377.355 40.9505 378.6 39.3972 378.6 39.3972C378.6 39.3972 375.493 42.9678 382.811 58.1105C390.128 73.2533 385.463 79.8212 385.463 79.8212C385.463 79.8212 381.571 90.4706 364.382 89.6053C364.382 89.6053 347.821 90.2986 356.851 98.3574C356.851 98.3574 362.634 97.0073 371.278 93.8536C379.922 90.7 386.163 103.716 387.712 112.77C389.261 121.825 395.861 126.813 395.861 126.813Z" fill="#6C63FF"/>
<path d="M373.599 50.865L373.69 50.8337C374.353 53.7215 366.953 65.3353 360.626 74.5668L360.553 74.4991C369.474 61.4987 374.112 53.1012 373.599 50.865Z" fill="#444053"/>
<path d="M360.681 74.3218L360.721 74.4365C355.666 81.8072 349.311 90.5957 344.224 97.1272C343.738 97.7475 343.256 98.399 342.793 99.0663L342.648 98.9307C343.102 98.2635 343.597 97.6067 344.083 96.9864C349.166 90.481 355.62 81.6977 360.681 74.3218Z" fill="#444053"/>
<path d="M342.77 98.7639L342.87 98.962C333.613 112.228 333 132.844 332.977 133.006L331.024 130.399C331.047 130.233 333.45 112.124 342.77 98.7639Z" fill="#444053"/>
<path d="M385.145 119.62C385.145 119.62 374.244 113.104 365.722 115.45C357.201 117.795 338.037 107.162 338.037 107.162C338.037 107.162 329.907 103.372 328.271 99.0506C328.271 99.0506 322.689 92.2742 322.366 88.7765C322.044 85.2788 316.616 76.4642 313.073 76.1254" stroke="#444053" stroke-miterlimit="10"/>
<path d="M383.542 125.891C383.542 125.891 378.046 121.637 378.686 116.685" stroke="#444053" stroke-miterlimit="10"/>
<path d="M375.111 131.379C375.111 131.379 367.249 128.106 366.481 115.262" stroke="#444053" stroke-miterlimit="10"/>
<path d="M362.434 134.705C362.434 134.705 354.921 127.553 357.415 115.053" stroke="#444053" stroke-miterlimit="10"/>
<path d="M347.176 131.213C347.176 131.213 342.18 119.171 346.627 111.337" stroke="#444053" stroke-miterlimit="10"/>
<path d="M385.25 111.681C385.25 111.681 379.567 113.766 380.785 117.185" stroke="#444053" stroke-miterlimit="10"/>
<path d="M378.391 99.8638C378.391 99.8638 370.783 102.632 370.605 114.98" stroke="#444053" stroke-miterlimit="10"/>
<path d="M367.78 96.9865C367.78 96.9865 360.853 106.797 361.362 115.71" stroke="#444053" stroke-miterlimit="10"/>
<path d="M355.652 100.833C355.652 100.833 348.775 108.381 349.652 112.577" stroke="#444053" stroke-miterlimit="10"/>
<path d="M351.505 98.1697C351.505 98.1697 345.055 99.4937 344.151 97.0646" stroke="#444053" stroke-miterlimit="10"/>
<path d="M343.125 89.2352C343.125 89.2352 346.381 94.1872 347.213 93.077" stroke="#444053" stroke-miterlimit="10"/>
<path d="M375.429 86.1024C375.429 86.1024 359.168 87.4577 355.489 81.8281" stroke="#444053" stroke-miterlimit="10"/>
<path d="M339.722 64.2771C339.722 64.2771 347.349 83.0687 352.895 85.4613" stroke="#444053" stroke-miterlimit="10"/>
<path d="M347.708 55.327C347.708 55.327 352.391 72.6122 358.196 78.0072" stroke="#444053" stroke-miterlimit="10"/>
<path d="M382.27 71.8354C382.27 71.8354 369.906 77.9238 362.484 71.7625" stroke="#444053" stroke-width="0.75" stroke-miterlimit="10"/>
<path d="M358.718 51.6417C358.718 51.6417 361.544 64.3449 365.35 67.4151" stroke="#444053" stroke-width="0.75" stroke-miterlimit="10"/>
<path d="M380.403 57.5997C380.403 57.5997 373.453 60.6231 370.864 58.3087" stroke="#444053" stroke-width="0.75" stroke-miterlimit="10"/>
<path d="M337.17 93.3845C337.17 93.3845 337.17 104.461 334.544 105.248" stroke="#444053" stroke-miterlimit="10"/>
<path d="M315.689 107.735C315.689 107.735 326.136 108.777 330.938 102.58" stroke="#444053" stroke-miterlimit="10"/>
<path d="M334.481 80.3008C334.481 80.3008 331.955 91.534 324.987 94.5626" stroke="#444053" stroke-miterlimit="10"/>
<path d="M309.43 95.9022C309.43 95.9022 316.816 98.8474 323.17 91.3464" stroke="#444053" stroke-miterlimit="10"/>
<path d="M326.264 70.6417C326.264 70.6417 325.569 80.1809 321.049 84.6481" stroke="#444053" stroke-miterlimit="10"/>
<path d="M309.711 81.3641C309.711 81.3641 315.839 81.4111 317.274 79.1175" stroke="#444053" stroke-miterlimit="10"/>
<path d="M354.031 117.587H179.516V218.681H354.031V117.587Z" fill="#33323D"/>
<path d="M408.947 249.394H125.154V315.938H408.947V249.394Z" fill="#33323D"/>
<path d="M192.897 266.027H338.419L367.412 378H162.232L192.897 266.027Z" fill="white"/>
<path d="M117.068 209.72V244.275V251.552V315.933H171.431V254.512H362.67V315.933H417.032V251.552V244.275V209.72H117.068Z" fill="#504F60"/>
<path opacity="0.1" d="M417.032 209.72H117.068V244.27H417.032V209.72Z" fill="#33323D"/>
<path opacity="0.8" d="M400.866 232.119C403.33 232.119 405.327 229.827 405.327 227C405.327 224.173 403.33 221.881 400.866 221.881C398.403 221.881 396.406 224.173 396.406 227C396.406 229.827 398.403 232.119 400.866 232.119Z" fill="#8CCF4D"/>
<path opacity="0.8" d="M380.794 232.119C383.257 232.119 385.254 229.827 385.254 227C385.254 224.173 383.257 221.881 380.794 221.881C378.33 221.881 376.333 224.173 376.333 227C376.333 229.827 378.33 232.119 380.794 232.119Z" fill="#FA5959"/>
<path d="M347.621 93.2698H185.93V203.319H347.621V93.2698Z" fill="white"/>
<path d="M372.218 253.892C372.559 258.151 369.756 262.285 370.574 266.455C370.746 267.346 371.082 268.19 371.205 269.061C371.541 271.537 370.256 273.883 369.025 275.957L358.473 293.774C358.05 294.556 357.543 295.274 356.965 295.911C354.944 297.996 351.918 297.757 349.27 298.372C347.408 298.805 345.65 299.694 344.115 300.978C344.048 301.039 344.004 301.126 343.991 301.223C343.978 301.32 343.998 301.419 344.047 301.499C344.483 302.186 345.063 302.737 345.732 303.102C346.402 303.466 347.14 303.632 347.88 303.584C348.157 304.001 347.88 304.627 347.499 304.919C346.931 305.367 346.136 305.487 346.041 306.592C346.001 306.976 346.068 307.364 346.231 307.702C346.658 308.449 347.321 308.976 348.08 309.172C351.714 310.455 355.679 308.203 358.414 305.138C361.148 302.073 363.111 298.205 365.795 295.082C367.28 293.357 368.975 291.877 370.501 290.203C373.553 286.867 375.952 282.807 378.223 278.736C378.973 277.555 379.538 276.234 379.894 274.831C380.176 273.445 380.049 271.98 380.376 270.604C380.803 268.806 381.952 267.372 382.906 265.86C384.782 262.9 386.031 259.282 385.781 255.633C385.531 251.984 383.569 248.393 380.571 247.152C379.642 246.727 378.618 246.656 377.651 246.949C376.42 247.382 375.516 248.549 374.675 249.665L372.672 252.318C372.173 252.905 371.777 253.597 371.505 254.356C371.376 254.739 371.346 255.156 371.419 255.557C371.493 255.959 371.666 256.328 371.918 256.618" fill="#FBBEBE"/>
<path opacity="0.05" d="M372.218 253.892C372.559 258.151 369.756 262.285 370.574 266.455C370.746 267.346 371.082 268.19 371.205 269.061C371.541 271.537 370.256 273.883 369.025 275.957L358.473 293.774C358.05 294.556 357.543 295.274 356.965 295.911C354.944 297.996 351.918 297.757 349.27 298.372C347.408 298.805 345.65 299.694 344.115 300.978C344.048 301.039 344.004 301.126 343.991 301.223C343.978 301.32 343.998 301.419 344.047 301.499C344.483 302.186 345.063 302.737 345.732 303.102C346.402 303.466 347.14 303.632 347.88 303.584C348.157 304.001 347.88 304.627 347.499 304.919C346.931 305.367 346.136 305.487 346.041 306.592C346.001 306.976 346.068 307.364 346.231 307.702C346.658 308.449 347.321 308.976 348.08 309.172C351.714 310.455 355.679 308.203 358.414 305.138C361.148 302.073 363.111 298.205 365.795 295.082C367.28 293.357 368.975 291.877 370.501 290.203C373.553 286.867 375.952 282.807 378.223 278.736C378.973 277.555 379.538 276.234 379.894 274.831C380.176 273.445 380.049 271.98 380.376 270.604C380.803 268.806 381.952 267.372 382.906 265.86C384.782 262.9 386.031 259.282 385.781 255.633C385.531 251.984 383.569 248.393 380.571 247.152C379.642 246.727 378.618 246.656 377.651 246.949C376.42 247.382 375.516 248.549 374.675 249.665L372.672 252.318C372.173 252.905 371.777 253.597 371.505 254.356C371.376 254.739 371.346 255.156 371.419 255.557C371.493 255.959 371.666 256.328 371.918 256.618" fill="black"/>
<path d="M380.208 363.509C377.9 365.12 375.03 365.224 372.35 364.843C371.895 364.786 371.409 364.75 371.132 365.13C370.733 365.688 371.205 366.501 371.691 366.949C373.274 368.309 375.133 369.186 377.092 369.498C378.84 369.778 380.604 369.912 382.37 369.9C387.185 369.993 392.027 370.087 396.796 369.29C397.072 369.266 397.34 369.175 397.582 369.024C397.89 368.777 398.103 368.404 398.177 367.981C398.509 366.563 397.877 365.031 396.928 364.046C395.979 363.061 394.757 362.508 393.562 361.961L389.374 360.089C388.388 359.646 386.812 358.484 385.74 358.572C383.783 358.755 381.87 362.393 380.208 363.509Z" fill="#3F3D56"/>
<path opacity="0.05" d="M380.208 363.509C377.9 365.12 375.03 365.224 372.35 364.843C371.895 364.786 371.409 364.75 371.132 365.13C370.733 365.688 371.205 366.501 371.691 366.949C373.274 368.309 375.133 369.186 377.092 369.498C378.84 369.778 380.604 369.912 382.37 369.9C387.185 369.993 392.027 370.087 396.796 369.29C397.072 369.266 397.34 369.175 397.582 369.024C397.89 368.777 398.103 368.404 398.177 367.981C398.509 366.563 397.877 365.031 396.928 364.046C395.979 363.061 394.757 362.508 393.562 361.961L389.374 360.089C388.388 359.646 386.812 358.484 385.74 358.572C383.783 358.755 381.87 362.393 380.208 363.509Z" fill="black"/>
<path d="M383.129 299.68C381.389 302.344 379.581 305.414 380.013 308.714C380.244 310.491 381.112 312.06 381.748 313.702C382.544 315.961 383.133 318.309 383.506 320.708C384.16 324.195 384.814 327.693 385.213 331.232C385.668 335.23 383.533 346.797 383.333 350.827C383.283 351.796 383.188 352.849 382.597 353.548C382.365 353.824 382.057 354.069 381.957 354.408C381.893 354.752 381.941 355.112 382.093 355.419C383.079 357.968 385.091 359.86 387.326 360.944C389.56 362.028 394.998 363.889 397.423 363.988C397.745 364.033 398.072 363.983 398.372 363.842C398.7 363.618 398.957 363.28 399.108 362.878C400.862 359.036 399.176 345.358 399.204 341.016C399.204 337.367 399.971 333.802 399.835 330.184C399.722 327.281 399.045 324.451 398.799 321.552C398.395 316.804 399.154 312.039 399.917 307.348C400.498 303.756 401.08 300.16 401.825 296.605C402.279 294.441 402.806 292.252 403.846 290.349C404.668 288.853 405.785 287.608 406.726 286.179C409.332 282.259 410.489 277.32 409.946 272.428C409.892 271.949 403.896 274.175 403.374 274.435C401.222 275.485 399.242 276.948 397.519 278.762C396.156 280.273 395.043 282.301 393.826 284C392.109 286.398 390.414 288.815 388.743 291.251C386.844 294.049 384.973 296.858 383.129 299.68Z" fill="#464353"/>
<path opacity="0.05" d="M383.129 299.508C381.389 302.172 379.581 305.242 380.013 308.547C380.244 310.319 381.112 311.888 381.748 313.53C382.543 315.789 383.132 318.137 383.506 320.536C384.16 324.023 384.814 327.521 385.213 331.06C385.668 335.058 383.533 346.63 383.333 350.66C383.283 351.624 383.188 352.682 382.597 353.376C382.365 353.652 382.057 353.897 381.957 354.236C381.888 354.591 381.936 354.962 382.093 355.278C383.079 357.822 385.091 359.719 387.326 360.798C389.56 361.877 394.998 362.883 397.423 362.972C397.745 363.017 398.072 362.966 398.372 362.826C398.7 362.601 398.957 362.264 399.108 361.862C400.862 358.02 399.176 345.213 399.204 340.876C399.204 337.227 399.971 333.656 399.835 330.039C399.722 327.135 399.045 324.305 398.799 321.406C398.395 316.658 399.154 311.893 399.917 307.207C400.498 303.61 401.08 300.014 401.825 296.459C402.279 294.295 402.806 292.106 403.846 290.204C404.668 288.713 405.785 287.462 406.726 286.065C409.329 282.143 410.485 277.205 409.946 272.314C409.892 271.829 403.896 274.055 403.374 274.321C401.22 275.371 399.24 276.838 397.519 278.657C396.156 280.174 395.043 282.197 393.826 283.87C392.109 286.268 390.414 288.687 388.743 291.126C386.844 293.906 384.973 296.7 383.129 299.508Z" fill="black"/>
<path d="M363.738 241.033C369.139 241.033 373.517 236.008 373.517 229.81C373.517 223.612 369.139 218.587 363.738 218.587C358.336 218.587 353.958 223.612 353.958 229.81C353.958 236.008 358.336 241.033 363.738 241.033Z" fill="#FBBEBE"/>
<path d="M372.54 229.341C373.444 230.996 374.628 232.426 376.022 233.545C377.417 234.664 378.993 235.45 380.658 235.857L379.922 238.916C378.65 244.197 377.196 249.779 373.667 253.439C374.053 251.651 373.553 249.727 372.672 248.19C371.73 246.694 370.612 245.354 369.352 244.207L363.724 238.588C363.556 238.446 363.413 238.269 363.301 238.067C363.165 237.671 363.165 237.232 363.301 236.836C364.019 234.277 366.068 232.666 367.726 230.946C368.56 230.05 369.306 229.052 369.951 227.97C371.105 226.13 371.8 227.97 372.54 229.341Z" fill="#FBBEBE"/>
<path d="M350.851 218.53L350.633 216.445C352.177 216.903 353.64 215.402 354.626 213.838C355.611 212.274 356.529 210.44 358.032 209.793C359.849 209.001 361.793 210.268 363.538 211.31C365.493 212.559 367.64 213.364 369.86 213.682C370.215 213.696 370.566 213.762 370.905 213.88C372.041 214.344 372.581 215.965 372.745 217.461C372.908 218.957 372.863 220.521 373.426 221.845C373.849 222.846 374.58 223.591 375.025 224.576C376.22 227.235 375.066 230.863 376.329 233.469L373.195 230.169C372.904 229.867 372.5 229.554 372.186 229.81C371.873 230.065 371.918 230.451 371.814 230.8C371.509 231.843 370.396 232.135 369.583 231.733C368.77 231.332 368.184 230.446 367.589 229.648C366.204 227.772 364.555 226.124 362.593 225.322C361.744 224.948 360.835 224.787 359.927 224.849C359.019 224.911 358.133 225.195 357.328 225.681C355.866 226.63 354.794 228.84 353.004 228.918C350.547 229.023 349.525 223.774 348.385 221.699C348.8 221.338 349.092 220.822 349.209 220.24C349.327 219.659 349.264 219.048 349.03 218.514C349.229 218.425 350.819 218.191 350.851 218.53Z" fill="#464353"/>
<path d="M391.614 363.42C389.681 365.398 387.171 366.471 384.582 366.428C383.923 366.428 383.01 366.574 383.006 367.33C383.017 367.555 383.084 367.771 383.197 367.955C384.017 369.519 385.311 370.681 386.831 371.218C388.239 371.708 389.747 371.625 391.218 371.542L395.511 371.286C396.319 371.234 397.132 371.187 397.941 371.072C398.749 370.958 399.622 370.765 400.466 370.624C402.536 370.285 404.629 370.171 406.717 370.285C407.271 370.311 407.911 370.285 408.256 369.806C408.602 369.326 408.415 368.461 408.288 367.768C408.034 366.339 408.288 364.843 408.052 363.41C407.639 360.892 405.754 358.969 403.673 358.056C401.743 357.212 398.318 356.248 396.487 357.65C394.525 359.162 393.344 361.622 391.614 363.42Z" fill="#3F3D56"/>
<path d="M395.865 279.179C396.247 281.264 397.986 282.828 398.041 284.913C398.082 286.602 397.028 288.04 396.274 289.474C395.554 290.976 394.946 292.545 394.457 294.165C393.024 298.37 391.247 302.411 389.152 306.232C388.143 308.062 387.017 310.053 387.248 312.206C387.407 313.211 387.714 314.177 388.157 315.063L391.178 321.948C391.841 323.324 392.359 324.785 392.722 326.301C392.981 327.609 393.008 328.965 393.176 330.299C393.653 334.521 395.379 338.775 394.362 342.867C394.271 343.221 393.953 343.649 393.712 343.388C394.707 345.525 395.529 347.683 395.434 350.107C395.393 351.379 395.052 352.714 395.465 353.892C395.699 354.35 395.854 354.856 395.92 355.382C395.92 355.726 395.779 356.055 395.747 356.425C395.665 357.4 396.442 358.213 397.255 358.51C398.068 358.807 398.945 358.797 399.762 359.078C401.339 359.599 402.456 361.163 403.805 362.247C405.171 363.335 406.785 363.938 408.447 363.983C408.683 364.012 408.921 363.957 409.129 363.827C409.248 363.708 409.343 363.562 409.409 363.397C409.475 363.233 409.509 363.054 409.51 362.873C409.583 362.01 409.469 361.139 409.179 360.338C408.889 359.538 408.432 358.831 407.848 358.281C407.594 358.095 407.383 357.841 407.234 357.54C407.158 357.273 407.138 356.989 407.175 356.712C407.421 352.922 407.362 349.115 406.998 345.338C406.835 344.142 406.781 342.929 406.839 341.72C406.93 340.714 407.194 339.713 407.094 338.707C406.994 337.701 406.553 336.794 406.29 335.825C405.835 334.104 405.954 332.259 405.904 330.456C405.822 327.328 405.2 324.263 404.577 321.219C404.337 320.025 404.064 318.769 403.324 317.883C402.697 317.132 401.684 316.407 401.92 315.407C402.049 315.036 402.244 314.701 402.492 314.421C402.785 314.001 403 313.517 403.125 312.998C403.249 312.479 403.279 311.936 403.215 311.403C403.48 311.484 403.762 311.456 404.011 311.322C404.26 311.189 404.461 310.959 404.577 310.674C409.487 308.02 413.457 302.703 415.206 296.803C415.304 296.368 415.457 295.951 415.66 295.567C416.115 294.838 416.905 294.525 417.605 294.118C419.803 292.851 421.325 290.469 422.719 288.139C423.532 286.784 424.341 285.387 424.691 283.797C424.882 282.769 424.973 281.72 424.963 280.67L425.086 275.238C425.11 274.887 425.08 274.534 424.995 274.195C424.879 273.871 424.706 273.578 424.486 273.335C423.154 271.708 421.403 270.612 419.49 270.208C418.2 269.942 416.882 269.994 415.579 269.869C413.049 269.629 410.55 268.733 408.02 268.941C404.041 269.275 400.503 272.439 398.627 276.479C397.968 277.922 397.278 279.179 395.865 279.179Z" fill="#464353"/>
<path d="M373.79 243.858C373.847 244.695 373.75 245.537 373.503 246.329C373.195 247.09 372.413 247.679 371.736 247.371C371.941 246.85 371.396 246.23 370.892 246.297C370.642 246.361 370.41 246.494 370.215 246.683C370.021 246.873 369.869 247.115 369.774 247.387C369.435 248.161 369.322 249.04 369.452 249.894C369.611 250.937 370.147 251.979 370.006 253.022C369.892 253.908 369.325 254.794 369.629 255.628C369.825 256.003 370.07 256.34 370.356 256.629C370.755 257.191 370.951 257.907 370.902 258.63C370.854 259.353 370.566 260.027 370.097 260.512L377.719 260.684C377.442 262.149 378.009 263.645 378.663 264.943C380.494 268.51 383.019 271.543 386.041 273.804C389.063 276.065 392.5 277.492 396.083 277.975C395.89 278.106 395.724 278.284 395.598 278.497C395.472 278.711 395.388 278.953 395.354 279.208C395.319 279.463 395.334 279.723 395.397 279.97C395.46 280.217 395.571 280.446 395.72 280.638C396.338 281.342 397.387 281.253 398.164 280.795C398.94 280.336 399.554 279.58 400.262 278.996C401.512 277.974 403.04 277.501 404.568 277.662C405.522 277.766 406.449 278.121 407.407 278.183C410.232 278.355 412.658 276.025 415.361 275.056C417.341 274.357 419.58 274.357 421.266 272.939C421.983 272.329 422.569 271.328 422.36 270.333C422.183 269.761 421.903 269.239 421.538 268.8C420.58 267.383 420.017 265.673 419.335 264.062C417.976 260.87 416.107 257.998 413.825 255.597C412.106 253.868 410.285 252.278 408.375 250.838C407.91 250.439 407.414 250.09 406.894 249.795C406.2 249.536 405.523 249.22 404.868 248.852C403.96 248.205 403.455 247.064 402.769 246.141C401.257 244.118 398.936 243.185 397.073 241.596C395.824 240.553 394.725 239.125 393.231 238.609C392.508 238.359 391.736 238.338 391.009 238.087C389.365 237.514 388.166 235.836 386.549 235.158C385.268 234.637 383.86 234.762 382.506 234.569C381.017 234.357 379.595 233.737 378.359 232.76C377.949 232.381 377.489 232.078 376.996 231.864C374.957 231.149 374.789 235.512 374.598 237.029C374.294 239.349 373.79 241.58 373.79 243.858Z" fill="#005792"/>
<path d="M375.779 258.505C376.12 262.764 373.317 266.893 374.135 271.068C374.307 271.959 374.644 272.804 374.766 273.674C375.107 276.15 373.817 278.496 372.586 280.565L362.034 298.34C361.611 299.122 361.104 299.84 360.526 300.478C358.505 302.563 355.48 302.323 352.831 302.938C350.97 303.372 349.212 304.261 347.676 305.544C347.609 305.605 347.565 305.693 347.552 305.789C347.54 305.886 347.559 305.985 347.608 306.066C348.043 306.754 348.623 307.305 349.293 307.67C349.963 308.034 350.701 308.199 351.442 308.151C351.719 308.573 351.442 309.193 351.06 309.485C350.492 309.939 349.697 310.058 349.602 311.163C349.562 311.547 349.629 311.936 349.793 312.274C350.221 313.019 350.883 313.545 351.641 313.744C355.275 315.026 359.241 312.774 361.975 309.709C364.71 306.644 366.672 302.776 369.361 299.654C370.846 297.929 372.54 296.448 374.062 294.775C377.119 291.439 379.49 287.378 381.784 283.307C382.533 282.126 383.099 280.805 383.456 279.403C383.737 278.016 383.61 276.552 383.937 275.175C384.364 273.377 385.513 271.938 386.467 270.432C388.343 267.471 389.592 263.854 389.342 260.205C389.093 256.556 387.13 252.964 384.132 251.724C383.203 251.296 382.179 251.225 381.212 251.52C379.985 251.953 379.077 253.121 378.236 254.236L376.233 256.889C375.734 257.476 375.339 258.168 375.071 258.928C374.941 259.309 374.91 259.725 374.983 260.126C375.055 260.527 375.228 260.894 375.479 261.185" fill="#FBBEBE"/>
<path d="M381.121 241.007C379.731 241.1 378.205 241.257 377.224 242.393C376.815 242.915 376.484 243.51 376.242 244.155C375.293 246.381 374.366 248.706 374.298 251.182C374.239 253.162 374.753 255.096 375.002 257.056C375.22 258.683 374.666 260.34 374.548 261.987C376.27 261.383 378.541 260.559 380.103 259.537C381.127 258.769 382.215 258.119 383.351 257.598C385.009 256.968 387.794 258.052 389.356 258.943C389.442 257.671 388.616 255.466 388.702 254.195C388.716 253.662 388.798 253.135 388.947 252.631C389.183 252.096 389.461 251.589 389.779 251.114C390.381 249.995 390.659 248.686 390.571 247.374C390.484 246.063 390.036 244.817 389.292 243.816C387.898 242.013 385.709 241.335 383.624 241.059C382.309 240.883 380.985 240.828 379.663 240.897" fill="#005792"/>
<path d="M175.332 204.539L166.375 189.631C166.375 189.631 166.207 185.94 165.621 185.08C165.035 184.22 165.494 182.302 165.494 182.302C165.494 182.302 166.125 181.259 165.58 181.15C165.035 181.04 165.494 178.705 165.494 178.705L165.453 174.968C165.453 174.968 165.957 171.371 165.539 170.511C165.416 170.277 165.354 170.008 165.361 169.735C165.369 169.462 165.445 169.197 165.58 168.973C165.58 168.973 166.08 166.914 165.58 166.367C165.08 165.819 165.203 162.629 165.326 160.085C165.448 157.542 164.449 156.108 164.449 155.728C164.449 155.347 161.142 151.605 161.142 151.266C161.142 150.927 159.048 149.54 157.79 149.181C156.532 148.821 155.91 148.508 155.95 148.315C155.991 148.122 153.984 147.361 153.984 147.361C153.984 147.361 152.226 147.215 151.554 146.209C150.881 145.203 148.828 144.911 148.778 144.901L148.737 144.703C148.737 144.63 148.715 144.557 148.701 144.484C148.867 144.181 149.018 143.868 149.155 143.546L149.273 143.254C150.009 143.259 150.728 143.002 151.331 142.519C151.628 142.236 151.87 141.886 152.043 141.49C152.216 141.095 152.315 140.662 152.335 140.22C152.371 139.334 152.201 138.453 151.844 137.666C151.476 136.806 150.936 135.909 151.127 134.971C151.208 134.57 151.417 134.215 151.526 133.819C151.689 133.046 151.581 132.23 151.226 131.546C150.909 130.853 150.468 130.238 150.114 129.565C149.664 128.705 149.364 127.752 149.228 126.761C149.203 126.234 149.093 125.716 148.905 125.234C148.715 124.894 148.464 124.604 148.17 124.384C146.859 123.311 145.277 122.762 143.668 122.82C142.528 122.862 141.397 123.216 140.261 123.055C139.585 122.921 138.919 122.723 138.272 122.461C136.868 121.981 135.247 121.788 134.025 122.711C132.803 123.633 132.317 125.447 131.486 126.881C130.754 128.132 129.669 129.185 129.124 130.53C129.124 130.53 129.124 130.478 129.124 130.457C128.986 130.763 128.881 131.087 128.81 131.421C128.654 132.483 128.718 133.572 128.996 134.601C129.058 135.155 129.3 135.661 129.673 136.019C130.087 136.326 130.654 136.253 131.136 136.352L131.081 136.623C130.591 139.318 131.001 142.125 132.231 144.489C133.46 146.853 135.418 148.6 137.718 149.384C137.718 149.483 137.718 149.577 137.718 149.676C137.717 149.951 137.702 150.226 137.672 150.499C137.672 150.499 133.462 149.504 132.331 150.176C131.2 150.849 128.983 151.375 128.647 151.74C128.311 152.105 127.475 151.839 126.721 154.091C125.967 156.343 125.885 158.642 124.904 159.7C123.923 160.758 123.441 161.472 123.396 162.238C123.35 163.005 123.523 163.197 123.146 163.437C122.769 163.677 122.238 164.683 122.392 165.069C122.45 165.332 122.437 165.61 122.356 165.865C122.275 166.121 122.13 166.343 121.938 166.502C121.739 166.662 121.58 166.88 121.478 167.132C121.375 167.384 121.331 167.663 121.352 167.941C121.352 167.941 121.097 168.983 120.512 169.239C119.926 169.494 119.549 171.058 119.549 171.058L117.65 173.56L113.889 168.785C113.606 168.429 113.212 168.214 112.793 168.19C112.373 168.166 111.962 168.333 111.65 168.655L109.801 170.563C109.088 170.761 108.444 171.201 107.952 171.824C107.551 172.301 107.227 172.855 106.994 173.461L105.985 174.504C105.667 174.957 105.472 175.507 105.425 176.087C105.378 176.667 105.481 177.249 105.722 177.762L108.134 180.821V180.847C107.279 180.934 106.467 181.313 105.804 181.937C102.206 185.586 102.17 188.937 102.706 190.47C103.242 192.003 107.811 197.898 107.811 197.898C107.811 197.898 110.464 201.854 114.293 203.955L114.266 203.992C114.187 204.086 114.113 204.185 114.043 204.289L113.98 204.383L113.921 204.476L113.853 204.591C113.834 204.621 113.818 204.652 113.803 204.685L113.73 204.82C113.713 204.851 113.698 204.882 113.684 204.914C113.653 204.977 113.625 205.039 113.598 205.102C113.588 205.122 113.579 205.143 113.571 205.164C113.535 205.248 113.498 205.331 113.466 205.425L113.43 205.519C113.407 205.581 113.389 205.644 113.366 205.712C113.352 205.753 113.34 205.794 113.33 205.837L113.276 206.025C113.261 206.069 113.249 206.114 113.239 206.16C113.239 206.228 113.203 206.296 113.189 206.369C113.176 206.442 113.167 206.452 113.158 206.499C113.148 206.546 113.112 206.723 113.094 206.843C113.094 206.885 113.094 206.932 113.071 206.978C113.049 207.025 113.049 207.14 113.035 207.223C113.021 207.307 113.035 207.338 113.035 207.401L113.008 207.635V207.823C113.008 207.911 113.008 208 112.985 208.094C112.962 208.188 112.985 208.203 112.985 208.261C112.985 208.412 112.985 208.563 112.985 208.725C112.903 214.333 113.189 215.147 113.189 215.147C113.376 215.665 113.681 216.116 114.072 216.452C114.462 216.789 114.925 216.999 115.411 217.06C115.649 217.081 115.888 217.067 116.124 217.018C118.304 216.585 123.391 215.579 125.208 215.975C126.294 216.205 128.297 215.861 129.723 215.553L130.1 215.47L130.359 216.424L131.186 216.163L131.89 216.627L132.344 216.924C133.171 220.135 136.523 219.04 136.523 219.04L137.318 219.562L145.399 219.802C146.306 220.429 147.264 220.953 148.26 221.365C148.392 221.415 148.527 221.45 148.665 221.47C149.42 221.54 150.179 221.556 150.936 221.516C151.554 221.516 152.03 221.47 152.03 221.47C152.03 221.47 151.949 218.952 151.831 216.132C154.335 216.061 156.835 215.826 159.316 215.428C163.631 214.563 165.43 210.059 166.093 207.651C166.292 208.635 166.433 209.632 166.516 210.638C166.692 211.522 166.917 212.392 167.188 213.244C167.419 213.925 167.725 214.569 168.097 215.162C171.276 213.916 169.35 212.035 168.682 211.232C168.015 210.429 169.137 209.746 169.137 209.746C169.137 209.746 170.018 209.074 169.932 208.454C169.845 207.833 169.804 207.161 172.657 207.208C175.51 207.255 175.332 204.539 175.332 204.539ZM131.127 173.935C131.163 174.207 131.581 177.162 131.917 177.939C132.018 178.452 132.05 178.979 132.013 179.503C130.327 179.346 128.57 179.263 128.57 179.263C128.619 179.333 128.65 179.418 128.66 179.508L128.392 179.44L128.011 179.336L131.118 173.909L131.127 173.935ZM124.967 185.174L127.888 185.695L128.133 185.737C128.051 186.253 128.001 186.776 127.984 187.301C127.984 187.353 128.047 187.41 128.143 187.478C128.102 187.741 128.084 188.008 128.088 188.275C128.133 188.536 129.496 189.109 131.063 189.584C131.041 189.683 131.022 189.777 131 189.86C129.614 189.026 127.438 188.635 127.189 188.015C126.939 187.395 119.526 184.423 119.526 184.423L118.79 184.001L120.739 184.423L121.275 184.361C122.489 184.723 123.722 184.995 124.967 185.174Z" fill="url(#paint0_linear)"/>
<path d="M165.803 206.624C165.803 206.624 164.644 214.672 158.753 215.861C152.862 217.049 133.194 216.815 133.194 216.815C133.194 216.815 121.947 214.954 117.882 204.054C113.816 193.154 111.2 188.812 114.702 188.625C118.204 188.437 136.986 195.922 138.063 196.006C139.139 196.089 166.843 179.435 165.803 206.624Z" fill="#65617D"/>
<path opacity="0.05" d="M165.803 206.624C165.803 206.624 164.644 214.672 158.753 215.861C152.862 217.049 133.194 216.815 133.194 216.815C133.194 216.815 121.947 214.954 117.882 204.054C113.816 193.154 111.2 188.812 114.702 188.625C118.204 188.437 136.986 195.922 138.063 196.006C139.139 196.089 166.843 179.435 165.803 206.624Z" fill="black"/>
<path d="M113.062 215.584C113.245 216.1 113.546 216.549 113.933 216.884C114.32 217.219 114.779 217.427 115.261 217.487C115.499 217.504 115.739 217.488 115.974 217.44C118.131 217.013 123.191 216.012 124.977 216.398C126.049 216.622 128.034 216.283 129.446 215.981C130.386 215.777 131.077 215.584 131.077 215.584C131.077 215.584 129.414 209.251 129.21 209.063C129.006 208.876 121.738 203.851 121.738 203.851L115.987 203.376C115.213 203.509 114.514 203.98 114.034 204.69C113.43 205.535 112.908 206.916 112.871 209.183C112.776 214.766 113.062 215.584 113.062 215.584Z" fill="#3F3D56"/>
<path opacity="0.05" d="M113.062 215.584C113.245 216.1 113.546 216.549 113.933 216.884C114.32 217.219 114.779 217.427 115.261 217.487C114.697 216.653 114.176 215.783 113.698 214.881L113.73 210.262C113.616 208.996 113.762 207.716 114.156 206.525C114.55 205.335 115.182 204.267 116.001 203.408C116.001 203.408 112.971 203.642 112.885 209.215C112.799 214.787 113.062 215.584 113.062 215.584Z" fill="black"/>
<path opacity="0.1" d="M138.004 205.482L143.359 200.671L151.781 191.148L149.509 191.028C149.169 191.278 148.215 192.07 148.179 193.019C148.138 194.181 145.907 193.102 144.74 193.764C143.573 194.426 137.895 202.782 136.9 202.725C135.905 202.668 135.115 202.146 134.697 202.959L134.67 203.012L138.004 205.482Z" fill="black"/>
<path opacity="0.1" d="M114.021 204.7C114.211 204.805 114.407 204.909 114.602 205.003C118.667 207.004 123.687 211.195 124.064 211.956C124.291 212.42 127.202 214.448 129.446 215.97C130.386 215.767 131.077 215.574 131.077 215.574C131.077 215.574 129.414 209.241 129.21 209.053C129.006 208.865 121.738 203.84 121.738 203.84L115.987 203.366C115.205 203.5 114.5 203.979 114.021 204.7Z" fill="black"/>
<path d="M102.738 191.054C103.274 192.576 107.798 198.435 107.798 198.435C107.798 198.435 110.659 202.72 114.729 204.69C118.799 206.66 123.814 210.883 124.186 211.644C124.427 212.134 127.67 214.375 129.95 215.913L130.464 216.257L131.595 217.013L132.194 217.404C132.194 217.404 133.584 216.127 134.97 214.839C136.355 213.552 137.695 212.29 137.695 212.233C137.695 212.175 138.276 210.471 138.149 210.377C138.022 210.283 137.799 209.668 137.273 208.902C136.716 208.052 135.993 207.366 135.16 206.9C133.956 206.19 132.996 205.035 132.435 203.621C132.435 203.621 132.253 203.47 131.981 203.267C131.416 202.821 130.785 202.498 130.118 202.313C129.21 202.183 127.502 200.04 127.502 200.04C126.838 199.544 126.284 198.877 125.885 198.091C125.431 197.048 119.013 191.971 118.418 191.502L134.016 203.001L137.749 205.753L143.105 200.947L151.526 191.424L148.746 191.278C144.658 191.075 137.391 190.757 136.482 190.996C135.738 191.193 134.971 191.251 134.211 191.168C134.211 191.168 132.14 191.273 130.768 190.444C129.396 189.615 127.239 189.224 126.989 188.609C126.739 187.994 119.399 185.044 119.399 185.044C119.399 185.044 109.406 178.95 105.831 182.568C102.256 186.185 102.197 189.521 102.738 191.054Z" fill="#65617D"/>
<path d="M134.974 156.103L136.26 161.008L137.922 172.054L144.022 172.528L145.767 169.192L147.529 165.835C147.529 165.835 148.628 161.373 149.419 157.057C150.114 153.236 150.572 149.525 149.814 149.123C149.137 148.769 148.696 147.481 148.406 146.095C148.369 145.928 148.338 145.751 148.31 145.573C148.107 144.402 147.97 143.216 147.902 142.024C147.902 142.024 135.124 141.263 136.909 147.309C137.228 148.342 137.39 149.43 137.391 150.525C137.391 150.807 137.391 151.083 137.345 151.344C137.257 152.282 137 153.188 136.592 154.007C136.184 154.826 135.633 155.54 134.974 156.103Z" fill="#EE8E9E"/>
<path d="M132.321 155.295L132.776 163.635L133.811 170.73L134.974 174.019L136.014 191.992C136.014 191.992 146.007 193.321 148.451 191.966C148.631 191.887 148.789 191.751 148.905 191.575C151.844 186.482 150.881 171.731 150.881 171.731L151.999 162.207L151.254 157.265L149.437 157.047L148.047 156.875C148.047 156.875 147.733 157.318 147.279 158.006C146.048 159.867 143.786 163.536 143.941 165.064C144.145 167.149 143.691 169.301 142.982 169.635C142.274 169.969 141.697 170.542 141.574 169.969C141.398 169.488 141.353 168.957 141.447 168.447C141.574 167.633 140.906 165.157 140.906 165.157C140.906 165.157 139.789 162.254 139.871 161.019C139.953 159.783 139.748 158.35 139.417 158.016C139.085 157.682 138.626 157.349 138.999 155.827C139.371 154.305 137.363 151.339 137.363 151.339L132.321 155.295Z" fill="#E3E8F4"/>
<path opacity="0.1" d="M145.535 176.104L145.953 190.34L148.347 191.867C148.526 191.784 148.683 191.647 148.801 191.471C151.74 186.378 150.777 171.626 150.777 171.626L151.899 162.103L151.149 157.161L149.332 156.942C150.032 153.121 150.486 149.415 149.728 149.009C149.051 148.654 148.61 147.367 148.324 145.985L147.029 156.056C147.029 156.056 147.138 156.963 147.175 157.901C147.229 158.495 147.193 159.094 147.07 159.674C146.902 160.453 146.875 161.264 146.989 162.056C146.239 163.568 145.867 166.372 145.685 169.077C145.44 172.674 145.535 176.104 145.535 176.104Z" fill="black"/>
<path d="M148.36 145.735C148.36 145.735 150.454 146.032 151.117 147.033C151.781 148.034 153.525 148.18 153.525 148.18C153.525 148.18 155.514 148.941 155.473 149.128C155.433 149.316 156.055 149.608 157.29 149.989C158.526 150.369 160.611 151.75 160.611 152.074C160.611 152.397 163.886 156.119 163.886 156.499C163.886 156.88 164.881 158.308 164.758 160.831C164.635 163.354 164.508 166.565 165.008 167.086C165.507 167.607 165.008 169.656 165.008 169.656C164.874 169.879 164.798 170.142 164.791 170.413C164.784 170.684 164.845 170.951 164.967 171.183C165.38 172.038 164.881 175.609 164.881 175.609L164.926 179.325C164.926 179.325 164.472 181.655 165.008 181.754C165.544 181.853 164.926 182.896 164.926 182.896C164.926 182.896 164.472 184.799 165.049 185.659C165.626 186.519 165.794 190.178 165.794 190.178L174.674 204.987C174.674 204.987 174.801 207.703 171.98 207.656C169.159 207.609 169.196 208.276 169.282 208.891C169.368 209.507 168.492 210.179 168.492 210.179C168.492 210.179 167.374 210.846 168.037 211.654C168.701 212.462 170.608 214.323 167.456 215.558C167.085 214.971 166.779 214.331 166.548 213.656C166.28 212.816 166.059 211.957 165.884 211.086C165.884 211.086 165.594 207.463 165.012 206.989C164.431 206.514 164.513 204.226 164.513 204.226C164.513 204.226 165.344 202.37 164.181 201.62C163.018 200.869 146.175 190.152 146.175 190.152L145.767 175.911C145.767 175.911 145.476 165.387 147.22 161.863C147.106 161.071 147.134 160.26 147.302 159.481C147.593 158.626 147.261 155.863 147.261 155.863L148.36 145.735Z" fill="#3F3D56"/>
<path opacity="0.1" d="M137.486 151.469C137.486 151.469 133.316 150.484 132.194 151.151C131.072 151.818 128.878 152.339 128.56 152.715C128.242 153.09 127.402 152.814 126.653 155.05C125.903 157.286 125.826 159.575 124.868 160.622C123.909 161.67 123.419 162.384 123.378 163.145C123.337 163.906 123.5 164.099 123.128 164.334C122.755 164.568 122.219 165.574 122.378 165.955C122.537 166.335 131.009 174.717 131.009 174.717C131.009 174.717 131.427 177.907 131.799 178.715C132.172 179.523 131.386 190.668 130.555 191.429C129.723 192.19 136.137 192.128 136.137 192.128C136.137 192.128 136.428 184.83 136.678 184.434C136.927 184.038 136.509 176.245 136.509 176.245C136.509 176.245 136.469 169.578 137.009 167.816C137.55 166.054 137.463 160.195 137.463 160.195C137.463 160.195 137.94 156.682 138.522 155.863C139.103 155.045 137.486 151.469 137.486 151.469Z" fill="black"/>
<path d="M137.363 151.328C137.363 151.328 133.194 150.343 132.072 151.005C130.95 151.667 128.751 152.199 128.438 152.569C128.124 152.939 127.275 152.663 126.53 154.904C125.785 157.146 125.699 159.423 124.745 160.471C123.791 161.519 123.291 162.233 123.251 162.994C123.21 163.755 123.378 163.948 123.001 164.188C122.624 164.428 122.092 165.423 122.256 165.804C122.419 166.184 130.886 174.566 130.886 174.566C130.886 174.566 131.299 177.756 131.676 178.564C132.053 179.372 131.259 190.517 130.427 191.278C129.596 192.039 136.033 191.971 136.033 191.971C136.033 191.971 136.323 184.674 136.569 184.283C136.814 183.892 136.405 176.088 136.405 176.088C136.405 176.088 136.364 169.427 136.905 167.665C137.445 165.903 137.382 160.044 137.382 160.044C137.382 160.044 137.859 156.53 138.44 155.712C139.021 154.894 137.363 151.328 137.363 151.328Z" fill="#3F3D56"/>
<path opacity="0.1" d="M136.927 147.299C137.246 148.332 137.409 149.419 137.409 150.515C139.447 151.2 141.626 151.085 143.601 150.188C145.576 149.291 147.233 147.663 148.31 145.563C148.107 144.391 147.97 143.205 147.902 142.013C147.902 142.013 135.142 141.247 136.927 147.299Z" fill="black"/>
<path d="M130.618 139.772C130.616 142.567 131.549 145.255 133.225 147.284C134.9 149.312 137.189 150.526 139.621 150.674C142.053 150.822 144.442 149.893 146.295 148.08C148.148 146.266 149.323 143.706 149.579 140.926C149.836 138.147 149.152 135.361 147.671 133.143C146.19 130.925 144.023 129.443 141.618 129.004C139.213 128.566 136.753 129.203 134.745 130.784C132.737 132.366 131.335 134.771 130.827 137.504C130.688 138.25 130.618 139.01 130.618 139.772Z" fill="#EE8E9E"/>
<path d="M124.518 165.022L122.247 165.83C122.305 166.093 122.292 166.37 122.211 166.624C122.13 166.879 121.984 167.1 121.792 167.258C121.595 167.416 121.437 167.632 121.336 167.883C121.235 168.134 121.193 168.411 121.216 168.686C121.216 168.686 120.966 169.729 120.384 169.974C119.803 170.219 119.43 171.783 119.43 171.783L117.523 174.306C117.523 174.306 116.814 174.973 116.941 175.306C117.068 175.64 116.192 175.734 116.192 175.734L116.646 184.21L120.589 185.07L123.037 184.783L125.027 183.928L126.771 182.734L127.557 180.404L131.045 174.306L124.518 165.022Z" fill="#3F3D56"/>
<path d="M116.76 176.385C116.76 176.385 111.699 168.009 107.92 172.528C104.141 177.047 109.456 184.387 110.7 184.147C111.945 183.907 117.882 183.527 117.882 183.527L116.76 176.385Z" fill="#EE8E9E"/>
<path d="M128.681 172.763L106.328 159.67C105.984 159.469 105.562 159.626 105.387 160.021L96.6703 179.618C96.4947 180.013 96.6313 180.496 96.9754 180.698L119.328 193.791C119.672 193.992 120.094 193.836 120.269 193.441L128.986 173.843C129.161 173.448 129.025 172.965 128.681 172.763Z" fill="#3F3D56"/>
<path d="M126.601 173.927L106.765 162.309L99.1349 179.464L118.971 191.083L126.601 173.927Z" fill="#005792"/>
<path d="M102.188 170.85C102.389 170.85 102.551 170.663 102.551 170.433C102.551 170.202 102.389 170.016 102.188 170.016C101.987 170.016 101.825 170.202 101.825 170.433C101.825 170.663 101.987 170.85 102.188 170.85Z" fill="#E6E8EC"/>
<path d="M123.659 183.751C123.993 183.751 124.263 183.44 124.263 183.058C124.263 182.675 123.993 182.364 123.659 182.364C123.326 182.364 123.055 182.675 123.055 183.058C123.055 183.44 123.326 183.751 123.659 183.751Z" fill="#E6E8EC"/>
<path d="M113.485 178.147C113.439 184.434 124.768 185.768 124.768 185.768L127.661 186.289L128.96 186.524L129.501 180.384C129.501 180.384 128.906 180.279 128.165 180.081C127.066 179.789 125.644 179.284 125.349 178.57C124.872 177.386 113.516 171.861 113.485 178.147Z" fill="#EE8E9E"/>
<path opacity="0.1" d="M130.827 137.504C131.087 137.526 131.333 137.652 131.522 137.859C131.84 138.25 131.858 138.943 132.276 139.183C132.432 139.258 132.604 139.28 132.771 139.245C133.875 139.068 134.511 137.64 135.574 137.244C136.192 137.061 136.845 137.126 137.427 137.426C137.663 137.514 137.876 137.67 138.045 137.88C138.399 138.401 138.149 139.183 138.313 139.819C138.54 140.705 139.462 141.054 140.257 141.169C141.052 141.283 141.951 141.351 142.483 142.039C142.658 142.297 142.785 142.595 142.853 142.913C142.921 143.231 142.929 143.562 142.878 143.885C142.83 144.109 142.83 144.343 142.878 144.567C143.096 145.282 144.172 145.172 144.454 144.609C144.663 144.197 144.599 143.858 145.085 143.744C145.432 143.712 145.781 143.782 146.098 143.947C146.944 144.28 147.834 144.437 148.728 144.411C149.297 143.02 149.603 141.506 149.626 139.97C149.649 138.433 149.388 136.908 148.862 135.495C148.336 134.082 147.555 132.813 146.571 131.77C145.587 130.728 144.423 129.935 143.153 129.446C141.884 128.956 140.539 128.779 139.206 128.928C137.873 129.076 136.583 129.546 135.419 130.307C134.256 131.068 133.246 132.103 132.455 133.343C131.665 134.583 131.111 136.001 130.832 137.504H130.827Z" fill="black"/>
<path d="M142.873 144.281C142.826 144.056 142.826 143.822 142.873 143.598C142.925 143.277 142.917 142.946 142.849 142.629C142.78 142.312 142.654 142.015 142.478 141.758C141.947 141.065 141.052 141.002 140.252 140.882C139.453 140.762 138.535 140.418 138.308 139.532C138.145 138.896 138.394 138.119 138.04 137.598C137.874 137.385 137.661 137.228 137.422 137.145C136.841 136.843 136.188 136.777 135.569 136.957C134.506 137.353 133.87 138.781 132.767 138.959C132.6 138.996 132.427 138.974 132.271 138.896C131.854 138.656 131.817 137.963 131.517 137.572C131.013 136.962 130.055 137.358 129.442 136.905C129.07 136.549 128.829 136.044 128.769 135.492C128.495 134.47 128.432 133.388 128.588 132.333C128.947 130.566 130.327 129.352 131.204 127.835C132.026 126.427 132.49 124.645 133.72 123.712C134.951 122.779 136.537 122.987 137.931 123.461C138.572 123.724 139.232 123.923 139.903 124.056C141.024 124.212 142.151 123.863 143.277 123.821C144.874 123.762 146.443 124.312 147.738 125.385C148.03 125.604 148.278 125.891 148.465 126.229C148.652 126.708 148.763 127.222 148.792 127.746C148.925 128.73 149.222 129.676 149.668 130.53C150.014 131.202 150.454 131.807 150.768 132.5C151.118 133.18 151.226 133.989 151.067 134.757C150.958 135.148 150.75 135.503 150.668 135.904C150.486 136.832 151.018 137.723 151.381 138.578C151.735 139.361 151.902 140.236 151.867 141.117C151.848 141.555 151.749 141.985 151.578 142.378C151.407 142.771 151.166 143.119 150.872 143.4C150.255 143.891 149.52 144.148 148.769 144.135C147.859 144.167 146.951 144.009 146.089 143.671C145.771 143.508 145.423 143.439 145.076 143.468C144.59 143.582 144.654 143.921 144.445 144.333C144.168 144.885 143.096 144.995 142.873 144.281Z" fill="#3F3D56"/>
<path opacity="0.1" d="M137.754 205.764L143.109 200.958L151.531 191.434L148.751 191.288C148.425 191.627 148.216 192.09 148.165 192.591C148.124 193.754 145.894 192.67 144.726 193.337C143.559 194.004 137.881 202.355 136.886 202.297C135.892 202.24 135.101 201.719 134.683 202.527L134.656 202.579C134.49 202.798 134.267 202.95 134.02 203.012L137.754 205.764Z" fill="black"/>
<path d="M126.966 205.43L129.655 215.287L130.078 216.851L131.358 216.45L134.184 215.558L146.757 211.597C148.341 211.518 149.891 211.045 151.299 210.21C153.676 208.682 156.396 208.001 159.112 208.256C160.774 208.433 162.623 207.609 164.158 204.356C164.158 204.356 167.642 192.55 158.848 189.167C150.055 185.784 149.632 190.965 149.632 190.965L149.509 191.049C149.169 191.299 148.215 192.091 148.179 193.04C148.138 194.202 145.907 193.123 144.74 193.785C143.573 194.447 137.895 202.803 136.9 202.746C135.905 202.688 135.115 202.167 134.697 202.98L134.67 203.032C134.361 203.517 133.439 203.632 132.826 203.648C132.635 203.659 132.444 203.659 132.253 203.648L132.172 203.674L131.536 203.893L126.966 205.43Z" fill="#65617D"/>
<path opacity="0.1" d="M127.661 186.295L128.96 186.529L129.501 180.389C129.501 180.389 128.906 180.285 128.165 180.086C128.361 180.947 127.915 184.257 127.661 186.295Z" fill="black"/>
<path opacity="0.1" d="M161.592 157.594C161.592 157.594 165.448 156.306 164.495 168.879C163.832 176.553 160.99 183.764 156.405 189.401C156.405 189.401 148.188 193.54 144.495 192.873C140.802 192.206 138.108 192.065 138.108 192.065C136.945 191.391 135.672 191.002 134.37 190.923C132.299 190.83 127.943 189.36 127.856 188.875C127.77 188.39 128.937 181.4 128.438 180.879C128.438 180.879 134.247 181.15 134.829 181.629C135.41 182.109 136.241 181.77 136.864 181.629C137.486 181.489 139.394 179.591 143.168 181.259C143.168 181.259 144.454 181.4 144.954 181.019C145.361 180.802 145.825 180.768 146.253 180.926C146.576 180.802 146.882 180.627 147.161 180.404C147.284 180.217 148.283 180.404 148.283 180.404C148.343 180.435 148.407 180.45 148.472 180.45C148.537 180.449 148.602 180.432 148.661 180.401C148.72 180.369 148.772 180.323 148.814 180.266C148.857 180.209 148.888 180.143 148.905 180.071C149.037 179.682 149.234 179.328 149.487 179.028C149.487 179.028 150.604 171.793 152.721 169.077C152.89 168.908 153.02 168.693 153.099 168.452C153.178 168.211 153.204 167.951 153.175 167.696C153.003 166.924 156.614 156.066 161.592 157.594Z" fill="black"/>
<path d="M161.487 156.624C161.487 156.624 165.348 155.342 164.395 167.91C163.734 175.584 160.891 182.796 156.305 188.432C156.305 188.432 148.088 192.576 144.395 191.909C140.702 191.241 138.004 191.085 138.004 191.085C136.842 190.41 135.57 190.022 134.27 189.943C132.194 189.844 127.838 188.38 127.756 187.895C127.675 187.41 128.833 180.42 128.338 179.893C128.338 179.893 134.147 180.17 134.729 180.649C135.31 181.129 136.137 180.785 136.759 180.649C137.382 180.514 139.289 178.611 143.069 180.274C143.069 180.274 144.354 180.42 144.849 180.039C145.257 179.823 145.719 179.788 146.148 179.94C146.47 179.814 146.776 179.639 147.057 179.419C147.179 179.226 148.174 179.419 148.174 179.419C148.234 179.45 148.298 179.465 148.363 179.464C148.428 179.464 148.493 179.447 148.552 179.415C148.611 179.384 148.663 179.338 148.705 179.281C148.748 179.224 148.779 179.157 148.796 179.086C148.928 178.697 149.125 178.343 149.378 178.043C149.378 178.043 150.5 170.808 152.616 168.092C152.785 167.923 152.915 167.708 152.995 167.467C153.074 167.226 153.1 166.966 153.071 166.711C152.903 165.96 156.509 155.118 161.487 156.624Z" fill="#3F3D56"/>
<path opacity="0.1" d="M131.522 203.866L137 211.477L137.036 211.435C137.077 211.289 137.618 209.673 137.491 209.574C137.363 209.475 136.414 207.098 134.506 206.097C133.536 205.555 132.721 204.704 132.158 203.648L131.522 203.866Z" fill="black"/>
<path opacity="0.1" d="M131.595 217.039L132.194 217.43C132.194 217.43 133.584 216.153 134.97 214.865C136.355 213.578 137.695 212.316 137.695 212.259C137.695 212.201 138.276 210.497 138.149 210.403C138.022 210.309 137.799 209.694 137.273 208.928C133.557 207.734 135.91 210.695 136.237 210.831C136.237 210.831 131.717 209.637 131.468 215.293C131.446 215.878 131.489 216.465 131.595 217.039Z" fill="black"/>
<path d="M136.178 219.431L136.968 219.953L144.976 220.187C145.874 220.814 146.824 221.338 147.811 221.751C147.941 221.796 148.075 221.829 148.21 221.85C148.954 221.92 149.7 221.935 150.445 221.897C151.058 221.897 151.531 221.85 151.531 221.85C151.531 221.85 151.154 210.262 150.868 209.043C150.731 208.459 150.059 208.584 149.396 208.876C148.899 209.109 148.419 209.388 147.961 209.71C147.961 209.71 144.563 210.09 144.022 210.424C143.482 210.758 141.947 210.231 140.993 210.424C140.039 210.617 138.335 209.136 138.335 209.136C133.689 207.375 136.305 210.659 136.637 210.804C136.637 210.804 132.094 209.611 131.863 215.267C131.631 220.922 136.178 219.431 136.178 219.431Z" fill="#3F3D56"/>
<path d="M147.756 214.959C147.842 217.357 149.473 220.333 150.445 221.907C151.058 221.907 151.531 221.86 151.531 221.86C151.531 221.86 151.154 210.273 150.868 209.053C150.731 208.469 150.059 208.594 149.396 208.886C148.592 210.617 147.683 213.02 147.756 214.959Z" fill="#565387"/>
<path opacity="0.1" d="M147.756 214.959C147.842 217.357 149.473 220.333 150.445 221.907C151.058 221.907 151.531 221.86 151.531 221.86C151.531 221.86 151.154 210.273 150.868 209.053C150.731 208.469 150.059 208.594 149.396 208.886C148.592 210.617 147.683 213.02 147.756 214.959Z" fill="black"/>
<path opacity="0.05" d="M146.384 215.277C146.939 217.591 146.929 220.187 147.811 221.761C147.941 221.806 148.075 221.839 148.21 221.861C148.954 221.93 149.7 221.946 150.445 221.907C151.058 221.907 151.531 221.861 151.531 221.861C151.531 221.861 151.154 210.273 150.868 209.053C150.731 208.469 150.059 208.594 149.396 208.886C148.899 209.12 148.419 209.399 147.961 209.72C147.961 209.72 145.68 212.311 146.384 215.277Z" fill="black"/>
<path opacity="0.1" d="M118.758 191.784C118.758 191.784 122.737 193.264 126.108 198.529L118.758 191.784Z" fill="black"/>
<g opacity="0.1">
<path opacity="0.1" d="M151.081 134.643C151.081 134.679 151.081 134.71 151.058 134.747C151.02 134.883 150.973 135.015 150.918 135.143C150.961 134.972 151.016 134.805 151.081 134.643Z" fill="black"/>
<path opacity="0.1" d="M128.579 132.333C128.646 132 128.75 131.678 128.887 131.374C128.887 131.452 128.842 131.536 128.824 131.619C128.672 132.675 128.736 133.756 129.01 134.778C129.07 135.328 129.309 135.833 129.678 136.191C130.296 136.644 131.254 136.248 131.758 136.858C132.076 137.249 132.094 137.942 132.512 138.182C132.668 138.26 132.841 138.282 133.007 138.245C134.111 138.067 134.747 136.639 135.81 136.243C136.428 136.06 137.082 136.126 137.663 136.431C137.901 136.514 138.115 136.671 138.281 136.884C138.635 137.405 138.385 138.182 138.549 138.818C138.776 139.704 139.698 140.053 140.493 140.168C141.288 140.283 142.187 140.35 142.719 141.044C142.895 141.301 143.021 141.598 143.089 141.915C143.157 142.232 143.166 142.562 143.114 142.884C143.066 143.108 143.066 143.342 143.114 143.567C143.332 144.281 144.409 144.171 144.69 143.608C144.899 143.197 144.835 142.858 145.321 142.743C145.669 142.714 146.017 142.784 146.334 142.946C147.196 143.285 148.104 143.442 149.014 143.41C149.765 143.423 150.501 143.166 151.117 142.675C151.387 142.432 151.607 142.124 151.762 141.773C151.622 142.412 151.303 142.98 150.854 143.389C150.237 143.881 149.502 144.138 148.751 144.124C147.841 144.156 146.933 143.999 146.071 143.66C145.753 143.498 145.405 143.428 145.058 143.457C144.572 143.572 144.636 143.911 144.431 144.322C144.145 144.885 143.069 144.995 142.85 144.281C142.805 144.056 142.805 143.823 142.85 143.598C142.902 143.277 142.894 142.946 142.826 142.629C142.758 142.312 142.631 142.015 142.455 141.758C141.924 141.065 141.029 141.002 140.23 140.882C139.43 140.762 138.513 140.418 138.285 139.532C138.122 138.896 138.372 138.119 138.017 137.598C137.853 137.386 137.641 137.229 137.404 137.145C136.821 136.843 136.166 136.777 135.546 136.957C134.488 137.353 133.848 138.781 132.744 138.959C132.577 138.996 132.404 138.974 132.249 138.896C131.831 138.656 131.795 137.963 131.495 137.572C130.991 136.962 130.037 137.358 129.419 136.905C129.047 136.549 128.807 136.044 128.747 135.492C128.477 134.469 128.419 133.387 128.579 132.333Z" fill="black"/>
</g>
<path opacity="0.1" d="M151.726 170.448C150.963 171.626 150.095 172.716 149.423 173.956C148.693 175.179 148.338 176.647 148.415 178.126C149.11 177.308 149.432 176.172 149.868 175.145C150.613 173.404 151.722 171.929 152.662 170.334C152.839 170.026 153.984 168.248 153.407 168.176C152.925 168.097 151.985 170.047 151.726 170.448Z" fill="black"/>
<path d="M155.814 281.983C156.364 284.006 156.918 286.033 157.604 287.999C158.84 291.415 160.395 294.668 162.242 297.699C163.432 299.695 164.712 301.62 166.075 303.464C167.783 305.774 169.709 308.099 170.29 311.049C170.64 312.753 170.522 314.531 170.667 316.262C170.813 317.992 171.308 319.848 172.539 320.89C173.416 321.636 174.538 321.86 175.614 322.053C176.386 322.193 177.349 322.24 177.749 321.474C177.889 321.161 177.962 320.815 177.962 320.463L178.149 317.914C178.185 317.361 178.358 316.658 178.839 316.632C179.321 316.606 179.561 317.341 179.97 317.674C180.515 318.112 181.333 317.674 181.633 317.012C181.881 316.295 181.898 315.5 181.678 314.771C181.347 313.32 180.752 311.966 179.933 310.798C179.113 309.63 178.087 308.674 176.922 307.994C176.113 307.62 175.338 307.157 174.606 306.613C173.862 305.871 173.246 304.977 172.789 303.975C168.573 296.01 164.336 288.004 161.36 279.335C160.774 277.786 160.378 276.151 160.184 274.477C160.039 272.772 160.27 271.057 160.366 269.348C160.542 266.276 160.293 263.192 159.63 260.21C159.485 259.427 159.228 258.677 158.871 257.989C157.645 255.857 154.783 255.539 152.966 257.009C152.297 257.6 151.742 258.344 151.337 259.194C150.932 260.043 150.686 260.981 150.613 261.946C150.482 263.676 151.349 265.469 151.79 267.08C153.125 272.053 154.467 277.021 155.814 281.983Z" fill="#A1616A"/>
<path opacity="0.05" d="M155.814 281.983C156.364 284.006 156.918 286.033 157.604 287.999C158.84 291.415 160.395 294.668 162.242 297.699C163.432 299.695 164.712 301.62 166.075 303.464C167.783 305.774 169.709 308.099 170.29 311.049C170.64 312.753 170.522 314.531 170.667 316.262C170.813 317.992 171.308 319.848 172.539 320.89C173.416 321.636 174.538 321.86 175.614 322.053C176.386 322.193 177.349 322.24 177.749 321.474C177.889 321.161 177.962 320.815 177.962 320.463L178.149 317.914C178.185 317.361 178.358 316.658 178.839 316.632C179.321 316.606 179.561 317.341 179.97 317.674C180.515 318.112 181.333 317.674 181.633 317.012C181.881 316.295 181.898 315.5 181.678 314.771C181.347 313.32 180.752 311.966 179.933 310.798C179.113 309.63 178.087 308.674 176.922 307.994C176.113 307.62 175.338 307.157 174.606 306.613C173.862 305.871 173.246 304.977 172.789 303.975C168.573 296.01 164.336 288.004 161.36 279.335C160.774 277.786 160.378 276.151 160.184 274.477C160.039 272.772 160.27 271.057 160.366 269.348C160.542 266.276 160.293 263.192 159.63 260.21C159.485 259.427 159.228 258.677 158.871 257.989C157.645 255.857 154.783 255.539 152.966 257.009C152.297 257.6 151.742 258.344 151.337 259.194C150.932 260.043 150.686 260.981 150.613 261.946C150.482 263.676 151.349 265.469 151.79 267.08C153.125 272.053 154.467 277.021 155.814 281.983Z" fill="black"/>
<path d="M129.333 367.147C130.154 367.475 131.028 367.596 131.894 367.502C131.958 366.689 132.912 366.506 133.621 366.548C133.963 366.535 134.303 366.625 134.606 366.808C134.783 366.939 134.92 367.126 135.092 367.262C135.4 367.456 135.745 367.558 136.096 367.559L139.784 367.914C141.429 368.075 143.141 368.221 144.681 367.549C144.988 367.437 145.26 367.227 145.467 366.944C145.885 366.256 145.467 365.271 144.89 364.77C144.313 364.27 143.568 364.046 142.987 363.535C141.706 362.414 141.529 360.319 140.852 358.64C140.371 357.582 139.777 356.596 139.085 355.706C138.583 354.941 137.999 354.252 137.345 353.657C135.864 352.432 134.166 352.458 132.426 352.281C131.2 352.156 130.046 352.072 129.165 353.323C128.074 354.887 128.51 358.015 128.579 359.839C128.664 362.294 128.916 364.737 129.333 367.147Z" fill="#514E7F"/>
<path opacity="0.05" d="M129.333 367.147C130.154 367.475 131.028 367.596 131.894 367.502C131.958 366.689 132.912 366.506 133.621 366.548C133.963 366.535 134.303 366.625 134.606 366.808C134.783 366.939 134.92 367.126 135.092 367.262C135.4 367.456 135.745 367.558 136.096 367.559L139.784 367.914C141.429 368.075 143.141 368.221 144.681 367.549C144.988 367.437 145.26 367.227 145.467 366.944C145.885 366.256 145.467 365.271 144.89 364.77C144.313 364.27 143.568 364.046 142.987 363.535C141.706 362.414 141.529 360.319 140.852 358.64C140.371 357.582 139.777 356.596 139.085 355.706C138.583 354.941 137.999 354.252 137.345 353.657C135.864 352.432 134.166 352.458 132.426 352.281C131.2 352.156 130.046 352.072 129.165 353.323C128.074 354.887 128.51 358.015 128.579 359.839C128.664 362.294 128.916 364.737 129.333 367.147Z" fill="black"/>
<path d="M130.823 284.814C129.696 285.231 129.205 286.841 129.414 288.181C129.623 289.521 130.323 290.678 130.9 291.866C132.544 295.239 133.253 299.096 134.633 302.615C135.665 305.221 137.059 307.671 138.077 310.309C139.094 312.946 139.725 315.923 139.108 318.722C138.808 320.082 138.226 321.328 137.84 322.668C137.458 324.12 137.209 325.613 137.095 327.125C136.595 332.258 136.506 337.433 136.827 342.585C136.83 343.213 136.945 343.834 137.164 344.41C137.395 344.931 137.795 345.452 137.618 345.974C137.541 346.187 137.373 346.344 137.291 346.552C137.055 347.136 137.527 347.756 137.958 348.173C137.881 348.33 137.778 348.467 137.654 348.578C137.53 348.688 137.388 348.768 137.236 348.814C137.546 349.041 137.784 349.375 137.914 349.768C138.045 350.162 138.062 350.593 137.963 350.999C137.581 351.066 137.559 351.739 137.799 352.093C138.04 352.448 138.422 352.667 138.594 353.068C138.696 353.395 138.685 353.754 138.563 354.072C138.442 354.39 138.219 354.642 137.94 354.778C137.373 355.028 136.754 355.083 136.16 354.934C135.152 354.773 134.158 354.522 133.185 354.183C132.676 354.069 132.22 353.747 131.901 353.278C131.583 352.809 131.422 352.223 131.449 351.629C131.224 349.508 131.156 347.368 131.245 345.233C131.404 334.891 131.245 324.539 130.854 314.202C130.695 310.032 129.605 305.993 128.202 302.156C127.426 300.196 126.563 298.282 125.617 296.422C123.591 292.169 121.802 287.456 122.265 282.635C122.315 282.113 122.478 281.493 122.928 281.41C123.104 281.388 123.281 281.422 123.441 281.509C124.374 282.009 125.277 282.58 126.144 283.219C127.568 284.177 129.174 284.724 130.823 284.814Z" fill="#464353"/>
<path opacity="0.05" d="M130.823 284.814C129.696 285.231 129.205 286.841 129.414 288.181C129.623 289.521 130.323 290.678 130.9 291.866C132.544 295.239 133.253 299.096 134.633 302.615C135.665 305.221 137.059 307.671 138.077 310.309C139.094 312.946 139.725 315.923 139.108 318.722C138.808 320.082 138.226 321.328 137.84 322.668C137.458 324.12 137.209 325.613 137.095 327.125C136.595 332.258 136.506 337.433 136.827 342.585C136.83 343.213 136.945 343.834 137.164 344.41C137.395 344.931 137.795 345.452 137.618 345.974C137.541 346.187 137.373 346.344 137.291 346.552C137.055 347.136 137.527 347.756 137.958 348.173C137.881 348.33 137.778 348.467 137.654 348.578C137.53 348.688 137.388 348.768 137.236 348.814C137.546 349.041 137.784 349.375 137.914 349.768C138.045 350.162 138.062 350.593 137.963 350.999C137.581 351.066 137.559 351.739 137.799 352.093C138.04 352.448 138.422 352.667 138.594 353.068C138.696 353.395 138.685 353.754 138.563 354.072C138.442 354.39 138.219 354.642 137.94 354.778C137.373 355.028 136.754 355.083 136.16 354.934C135.152 354.773 134.158 354.522 133.185 354.183C132.676 354.069 132.22 353.747 131.901 353.278C131.583 352.809 131.422 352.223 131.449 351.629C131.224 349.508 131.156 347.368 131.245 345.233C131.404 334.891 131.245 324.539 130.854 314.202C130.695 310.032 129.605 305.993 128.202 302.156C127.426 300.196 126.563 298.282 125.617 296.422C123.591 292.169 121.802 287.456 122.265 282.635C122.315 282.113 122.478 281.493 122.928 281.41C123.104 281.388 123.281 281.422 123.441 281.509C124.374 282.009 125.277 282.58 126.144 283.219C127.568 284.177 129.174 284.724 130.823 284.814Z" fill="black"/>
<path d="M115.592 272.241C115.005 271.808 114.327 271.563 113.63 271.532C112.821 271.579 112.131 272.189 111.5 272.772C110.751 273.431 110.041 274.145 109.374 274.91C107.991 276.601 107.028 278.685 106.584 280.947C106.14 283.209 106.231 285.566 106.848 287.774C107.516 290.073 108.738 292.101 109.946 294.087L112.399 298.132C116.142 304.298 119.885 310.465 123.805 316.486C123.806 316.634 123.847 316.778 123.924 316.897C124.001 317.016 124.109 317.103 124.232 317.148C124.372 317.189 124.55 317.184 124.636 317.32C124.676 317.404 124.693 317.5 124.686 317.596C124.677 318.041 124.603 318.482 124.468 318.899C124.404 319.037 124.388 319.197 124.422 319.347C124.55 319.686 125.086 319.493 125.258 319.811C125.372 320.02 125.231 320.291 125.081 320.468C124.931 320.645 124.745 320.843 124.772 321.088C124.799 321.333 125.172 321.61 125.158 321.912C125.158 322.089 125.022 322.225 124.927 322.365C124.793 322.59 124.732 322.861 124.755 323.131C124.777 323.402 124.881 323.654 125.049 323.846C125.308 326.786 123.914 329.58 123.637 332.509C123.182 337.138 125.022 341.657 125.245 346.302C125.231 346.825 125.318 347.344 125.499 347.824C125.876 348.627 126.862 349.112 126.812 350.024C126.74 350.399 126.648 350.768 126.535 351.129C126.457 351.65 126.675 352.171 126.684 352.693C126.694 353.214 126.289 353.855 125.862 353.647C126.183 354.877 126.469 356.117 126.721 357.368L135.306 358.182C135.398 357.296 135.372 356.4 135.229 355.523C135.051 354.569 134.679 353.683 134.484 352.74C134.357 352.275 134.321 351.784 134.379 351.302C134.437 350.82 134.588 350.358 134.82 349.951C134.596 349.954 134.378 349.866 134.206 349.703C134.033 349.54 133.916 349.312 133.875 349.059C133.803 348.551 133.811 348.032 133.898 347.527C134.125 344.957 133.184 342.424 133.212 339.843C133.239 337.811 133.861 335.856 134.175 333.859C134.847 329.585 134.147 324.951 135.805 321.047C136.809 318.696 138.199 316.089 137.073 313.812C136.519 312.686 135.537 311.914 134.897 310.851C134.375 309.846 133.983 308.759 133.734 307.624C132.412 302.933 130.273 298.575 128.397 294.113C127.876 292.995 127.49 291.8 127.248 290.563C127.115 289.477 127.067 288.38 127.102 287.284C127.102 285.317 126.998 283.352 126.789 281.399C126.747 280.544 126.534 279.711 126.167 278.965C125.796 278.401 125.333 277.924 124.804 277.563C121.988 275.347 118.636 274.081 115.592 272.241Z" fill="#464353"/>
<path d="M125.88 370.76C126.705 371.083 127.58 371.202 128.447 371.109C128.51 370.296 129.46 370.113 130.168 370.155C130.511 370.142 130.851 370.232 131.154 370.416C131.331 370.546 131.468 370.739 131.645 370.869C131.952 371.065 132.297 371.167 132.648 371.166L136.332 371.521C137.981 371.682 139.689 371.833 141.233 371.156C141.54 371.046 141.811 370.836 142.015 370.551C142.433 369.863 142.015 368.883 141.438 368.383C140.861 367.882 140.116 367.653 139.539 367.142C138.254 366.021 138.081 363.931 137.4 362.253C136.923 361.191 136.331 360.203 135.637 359.313C135.134 358.549 134.548 357.863 133.893 357.269C132.417 356.039 130.713 356.065 128.978 355.888C127.747 355.763 126.594 355.685 125.717 356.93C124.627 358.494 125.063 361.622 125.126 363.451C125.212 365.906 125.464 368.35 125.88 370.76Z" fill="#514E7F"/>
<path d="M163.931 255.18C168.627 255.18 172.434 250.811 172.434 245.422C172.434 240.032 168.627 235.664 163.931 235.664C159.235 235.664 155.428 240.032 155.428 245.422C155.428 250.811 159.235 255.18 163.931 255.18Z" fill="#A1616A"/>
<path d="M155.91 248.32C154.692 249.524 152.943 249.613 151.345 249.8C147.926 250.203 144.598 251.309 141.52 253.063C141.094 253.274 140.708 253.579 140.384 253.96C140.108 254.373 139.911 254.85 139.807 255.357C139.515 256.455 139.405 257.606 139.485 258.75C139.596 259.86 139.874 260.94 140.307 261.94C141.487 264.744 143.308 267.128 145.576 268.837C145.975 269.178 146.429 269.428 146.911 269.572C148.029 269.838 149.11 269.097 150.214 268.764C151.218 268.463 152.276 268.501 153.261 268.873C154.17 269.228 155.165 269.874 156.064 269.441C156.64 269.072 157.087 268.487 157.331 267.784C158.2 265.9 158.975 263.961 159.652 261.977C159.896 261.202 160.176 260.443 160.493 259.704C161.478 257.551 163.182 255.889 164.031 253.652C164.117 253.482 164.17 253.291 164.184 253.095C164.198 252.898 164.174 252.701 164.113 252.516C163.956 252.267 163.737 252.076 163.486 251.969C162.23 251.144 161.086 250.113 160.088 248.909C159.53 248.294 158.503 246.631 157.699 246.485C156.795 246.308 156.523 247.715 155.91 248.32Z" fill="#A1616A"/>
<path d="M156.109 268.149C155.124 268.67 153.961 268.446 152.893 268.19C150.141 267.528 147.356 266.861 144.808 265.496C144.012 265.146 143.322 264.537 142.823 263.744C142.513 263.066 142.325 262.323 142.269 261.56L141.815 257.911C141.651 256.645 141.933 255.472 141.96 254.189C141.978 254.047 141.97 253.903 141.938 253.764C141.906 253.625 141.85 253.495 141.774 253.381C141.618 253.231 141.418 253.158 141.215 253.178C139.939 253.204 139.167 254.742 138.272 255.784C137.755 256.386 137.137 256.861 136.455 257.181C135.637 257.567 134.638 257.838 134.297 258.776C134.161 259.167 134.179 259.611 134.034 260.001C133.462 261.565 131.022 261.044 130.4 262.608C130.223 263.046 130.237 263.593 129.946 263.937C129.655 264.281 129.11 264.276 128.66 264.359C126.884 264.693 126.026 267.044 124.509 268.154C123.232 269.092 121.588 269.071 120.212 269.801C119.449 270.208 118.772 270.844 117.963 271.11C117.155 271.375 116.242 271.235 115.374 271.261C115.282 271.251 115.188 271.263 115.1 271.296C115.012 271.329 114.93 271.383 114.861 271.454C114.807 271.548 114.771 271.655 114.756 271.766C114.742 271.878 114.748 271.991 114.775 272.1C115.195 275.182 116.308 278.086 118.004 280.524C119.7 282.963 121.92 284.853 124.445 286.007C124.738 286.114 125.017 286.269 125.272 286.466C126.044 287.128 126.18 288.551 127.057 289.02C127.373 289.148 127.714 289.173 128.042 289.092C128.37 289.011 128.672 288.827 128.915 288.562C129.398 288.027 129.853 287.46 130.277 286.862C131.078 285.903 132.128 285.268 133.271 285.053C134.325 284.861 135.501 285.001 136.355 284.256C136.704 283.888 137.029 283.491 137.327 283.067C137.96 282.39 138.711 281.875 139.53 281.556C141.769 280.541 144.135 279.944 146.539 279.789C148.778 279.648 151.081 279.882 153.198 279.048C153.747 278.853 154.254 278.524 154.683 278.084C155.138 277.519 155.477 276.844 155.673 276.109C156.437 273.548 156.588 270.799 156.109 268.149Z" fill="#005792"/>
<path d="M145.149 253.767C145.776 253.699 146.407 253.767 147.038 253.767C147.779 253.767 148.51 253.559 149.251 253.553C150.423 253.575 151.559 254.027 152.492 254.842C153.425 255.656 154.107 256.792 154.438 258.083C154.5 258.289 154.511 258.511 154.47 258.724C154.445 258.829 154.389 258.921 154.31 258.982C154.232 259.043 154.137 259.07 154.043 259.058C153.797 258.287 153.475 257.551 153.084 256.863C152.38 255.76 151.377 254.957 150.232 254.58C149.09 254.209 147.887 254.159 146.725 254.434C146.239 254.539 145.767 254.684 145.294 254.836L143.023 255.555C142.605 255.685 142.183 255.816 141.779 255.988C141.465 256.123 140.929 256.618 140.62 256.639C140.202 256.639 140.538 256.222 140.725 255.941C141.096 255.36 141.615 254.927 142.21 254.7C143.154 254.256 144.141 253.943 145.149 253.767Z" fill="#6C63FF"/>
<path d="M150.881 283.078C151.431 285.1 151.98 287.128 152.671 289.093C153.905 292.511 155.46 295.763 157.309 298.794C158.499 300.79 159.779 302.714 161.142 304.559C162.846 306.868 164.749 309.193 165.358 312.138C165.707 313.848 165.589 315.625 165.735 317.351C165.88 319.076 166.375 320.937 167.601 321.98C168.483 322.72 169.605 322.944 170.681 323.142C171.449 323.283 172.412 323.33 172.816 322.564C172.953 322.249 173.026 321.904 173.029 321.552L173.211 319.003C173.252 318.451 173.425 317.747 173.902 317.721C174.379 317.695 174.628 318.43 175.037 318.764C175.582 319.201 176.4 318.764 176.7 318.102C176.947 317.384 176.963 316.59 176.745 315.86C176.413 314.41 175.817 313.057 174.998 311.889C174.178 310.721 173.153 309.765 171.989 309.084C171.179 308.708 170.402 308.246 169.668 307.702C168.923 306.96 168.307 306.063 167.851 305.059C163.631 297.1 159.394 289.093 156.423 280.419C155.837 278.872 155.44 277.239 155.242 275.566C155.101 273.862 155.328 272.147 155.428 270.437C155.604 267.366 155.356 264.282 154.692 261.299C154.547 260.516 154.29 259.765 153.929 259.079C152.707 256.942 149.841 256.629 148.024 258.099C147.355 258.689 146.799 259.433 146.393 260.283C145.987 261.132 145.74 262.07 145.667 263.035C145.535 264.766 146.407 266.559 146.843 268.17C148.185 273.146 149.531 278.115 150.881 283.078Z" fill="#A1616A"/>
<path d="M176.3 238.52C176.368 237.707 175.732 236.956 175.01 236.435C174.249 235.988 173.519 235.475 172.825 234.903C172.18 234.261 171.826 233.427 171.181 232.786C170.447 232.145 169.615 231.67 168.728 231.384C166.84 230.625 164.859 230.218 162.859 230.18C160.838 230.18 158.771 230.701 157.25 231.884C156.874 232.155 156.55 232.51 156.296 232.927C156.056 233.427 155.902 233.976 155.841 234.543C155.479 236.292 154.988 238.002 154.374 239.656C153.743 241.497 153.071 243.404 151.585 244.827C149.995 246.344 147.565 247.22 146.516 249.055C146.4 249.218 146.319 249.41 146.279 249.615C146.238 249.82 146.24 250.034 146.284 250.238C146.434 250.702 146.916 251.02 147.361 251.312C149.941 253.011 152.167 255.216 153.311 257.849C154.456 260.481 154.424 263.582 152.794 266.006C152.194 266.903 151.367 267.966 151.953 268.868C152.862 270.239 155.9 269.452 156.609 270.901C156.832 271.365 156.7 271.891 156.7 272.397C156.7 273.919 157.976 275.269 159.525 275.973C161.074 276.677 162.868 276.843 164.613 276.932C165.076 275.738 165.121 274.385 164.74 273.153C164.624 272.887 164.578 272.588 164.608 272.293C164.738 271.965 164.94 271.681 165.194 271.469C167.056 269.447 166.661 266.476 165.544 264.072C164.426 261.669 162.682 259.475 162.033 256.947C161.71 255.691 161.71 254.278 162.578 253.235C163.076 252.734 163.612 252.286 164.181 251.896C165.197 251.104 165.98 249.977 166.425 248.664C166.947 247.001 166.879 245.015 168.396 243.894C169.854 242.852 171.903 243.154 173.515 242.44C174.756 241.877 176.2 239.714 176.3 238.52Z" fill="#464353"/>
<path d="M264.375 320.197C257.448 316.908 255.413 314.531 255.413 309.772C255.413 306.123 256.812 301.911 262.944 301.911C266.334 301.854 269.664 302.941 272.519 305.039L274.513 298.987C272.201 297.423 268.94 295.969 264.161 295.786V286.925H260.132V296.151C252.806 297.522 248.563 303.277 248.563 310.861C248.563 318.81 252.651 323.017 260.791 326.671C266.687 329.429 269.771 332.535 269.771 337.56C269.771 342.773 265.951 346.516 260.296 346.516C255.84 346.516 250.789 344.78 247.923 342.585L246.01 348.705C248.799 350.993 253.578 352.635 258.193 352.729V361.955H265.047V352.453C273.223 350.889 277.625 344.113 277.625 336.919C277.625 328.787 272.578 324.033 264.375 320.197Z" fill="url(#paint1_linear)"/>
<path d="M258.211 359.87V350.644C253.596 350.55 248.818 348.908 246.029 346.62L247.941 340.5C250.807 342.695 255.858 344.431 260.314 344.431C265.969 344.431 269.771 340.688 269.771 335.475C269.771 330.45 266.669 327.344 260.773 324.602C252.651 320.953 248.545 316.741 248.545 308.792C248.545 301.207 252.788 295.453 260.114 294.082V284.855H264.143V293.717C268.922 293.899 272.183 295.359 274.495 296.917L272.501 302.943C269.646 300.846 266.316 299.758 262.926 299.816C256.794 299.816 255.395 304.022 255.395 307.676C255.395 312.425 257.43 314.802 264.357 318.102C272.56 321.938 277.607 326.692 277.607 334.824C277.607 342.043 273.228 348.804 265.029 350.357V359.87H258.211Z" fill="#005792"/>
<defs>
<linearGradient id="paint0_linear" x1="138.908" y1="221.569" x2="138.908" y2="122.059" gradientUnits="userSpaceOnUse">
<stop stop-color="#808080" stop-opacity="0.25"/>
<stop offset="0.54" stop-color="#808080" stop-opacity="0.12"/>
<stop offset="1" stop-color="#808080" stop-opacity="0.1"/>
</linearGradient>
<linearGradient id="paint1_linear" x1="17720.2" y1="53546.8" x2="19919.3" y2="53546.8" gradientUnits="userSpaceOnUse">
<stop stop-color="#808080" stop-opacity="0.25"/>
<stop offset="0.54" stop-color="#808080" stop-opacity="0.12"/>
<stop offset="1" stop-color="#808080" stop-opacity="0.1"/>
</linearGradient>
</defs>
</svg>
