<svg width="361" height="479" viewBox="0 0 361 479" fill="none" xmlns="http://www.w3.org/2000/svg">
<path d="M4.3366 452.09C3.5686 452.09 2.8306 451.982 2.1226 451.766C1.4266 451.538 0.880602 451.256 0.484602 450.92L1.0606 449.912C1.4566 450.224 1.9546 450.482 2.5546 450.686C3.1546 450.878 3.7786 450.974 4.4266 450.974C5.2906 450.974 5.9266 450.842 6.3346 450.578C6.7546 450.302 6.9646 449.918 6.9646 449.426C6.9646 449.078 6.8506 448.808 6.6226 448.616C6.3946 448.412 6.1066 448.262 5.7586 448.166C5.4106 448.058 4.9486 447.956 4.3726 447.86C3.6046 447.716 2.9866 447.572 2.5186 447.428C2.0506 447.272 1.6486 447.014 1.3126 446.654C0.988602 446.294 0.826602 445.796 0.826602 445.16C0.826602 444.368 1.1566 443.72 1.8166 443.216C2.4766 442.712 3.3946 442.46 4.5706 442.46C5.1826 442.46 5.7946 442.544 6.4066 442.712C7.0186 442.868 7.5226 443.078 7.9186 443.342L7.3606 444.368C6.5806 443.828 5.6506 443.558 4.5706 443.558C3.7546 443.558 3.1366 443.702 2.7166 443.99C2.3086 444.278 2.1046 444.656 2.1046 445.124C2.1046 445.484 2.2186 445.772 2.4466 445.988C2.6866 446.204 2.9806 446.366 3.3286 446.474C3.6766 446.57 4.1566 446.672 4.7686 446.78C5.5246 446.924 6.1306 447.068 6.5866 447.212C7.0426 447.356 7.4326 447.602 7.7566 447.95C8.0806 448.298 8.2426 448.778 8.2426 449.39C8.2426 450.218 7.8946 450.878 7.1986 451.37C6.5146 451.85 5.5606 452.09 4.3366 452.09ZM14.5292 452.09C13.5932 452.09 12.7532 451.886 12.0092 451.478C11.2772 451.07 10.7012 450.5 10.2812 449.768C9.86124 449.024 9.65124 448.19 9.65124 447.266C9.65124 446.342 9.86124 445.514 10.2812 444.782C10.7012 444.05 11.2772 443.48 12.0092 443.072C12.7532 442.664 13.5932 442.46 14.5292 442.46C15.3452 442.46 16.0712 442.622 16.7072 442.946C17.3552 443.258 17.8652 443.72 18.2372 444.332L17.2832 444.98C16.9712 444.512 16.5752 444.164 16.0952 443.936C15.6152 443.696 15.0932 443.576 14.5292 443.576C13.8452 443.576 13.2272 443.732 12.6752 444.044C12.1352 444.344 11.7092 444.776 11.3972 445.34C11.0972 445.904 10.9472 446.546 10.9472 447.266C10.9472 447.998 11.0972 448.646 11.3972 449.21C11.7092 449.762 12.1352 450.194 12.6752 450.506C13.2272 450.806 13.8452 450.956 14.5292 450.956C15.0932 450.956 15.6152 450.842 16.0952 450.614C16.5752 450.386 16.9712 450.038 17.2832 449.57L18.2372 450.218C17.8652 450.83 17.3552 451.298 16.7072 451.622C16.0592 451.934 15.3332 452.09 14.5292 452.09ZM24.0598 442.46C25.2958 442.46 26.2438 442.772 26.9038 443.396C27.5638 444.008 27.8938 444.92 27.8938 446.132V452H26.6698V450.524C26.3818 451.016 25.9558 451.4 25.3918 451.676C24.8398 451.952 24.1798 452.09 23.4118 452.09C22.3558 452.09 21.5158 451.838 20.8918 451.334C20.2678 450.83 19.9558 450.164 19.9558 449.336C19.9558 448.532 20.2438 447.884 20.8198 447.392C21.4078 446.9 22.3378 446.654 23.6098 446.654H26.6158V446.078C26.6158 445.262 26.3878 444.644 25.9318 444.224C25.4758 443.792 24.8098 443.576 23.9338 443.576C23.3338 443.576 22.7578 443.678 22.2058 443.882C21.6538 444.074 21.1798 444.344 20.7838 444.692L20.2078 443.738C20.6878 443.33 21.2638 443.018 21.9358 442.802C22.6078 442.574 23.3158 442.46 24.0598 442.46ZM23.6098 451.082C24.3298 451.082 24.9478 450.92 25.4638 450.596C25.9798 450.26 26.3638 449.78 26.6158 449.156V447.608H23.6458C22.0258 447.608 21.2158 448.172 21.2158 449.3C21.2158 449.852 21.4258 450.29 21.8458 450.614C22.2658 450.926 22.8538 451.082 23.6098 451.082ZM36.189 442.46C37.377 442.46 38.319 442.808 39.015 443.504C39.723 444.188 40.077 445.19 40.077 446.51V452H38.799V446.636C38.799 445.652 38.553 444.902 38.061 444.386C37.569 443.87 36.867 443.612 35.955 443.612C34.935 443.612 34.125 443.918 33.525 444.53C32.937 445.13 32.643 445.964 32.643 447.032V452H31.365V442.532H32.589V444.278C32.937 443.702 33.417 443.258 34.029 442.946C34.653 442.622 35.373 442.46 36.189 442.46ZM53.2436 451.424C53.0036 451.64 52.7036 451.808 52.3436 451.928C51.9956 452.036 51.6296 452.09 51.2456 452.09C50.3576 452.09 49.6736 451.85 49.1936 451.37C48.7136 450.89 48.4736 450.212 48.4736 449.336V443.612H46.7816V442.532H48.4736V440.462H49.7516V442.532H52.6316V443.612H49.7516V449.264C49.7516 449.828 49.8896 450.26 50.1656 450.56C50.4536 450.848 50.8616 450.992 51.3896 450.992C51.6536 450.992 51.9056 450.95 52.1456 450.866C52.3976 450.782 52.6136 450.662 52.7936 450.506L53.2436 451.424ZM60.3941 442.46C61.5821 442.46 62.5241 442.808 63.2201 443.504C63.9281 444.188 64.2821 445.19 64.2821 446.51V452H63.0041V446.636C63.0041 445.652 62.7581 444.902 62.2661 444.386C61.7741 443.87 61.0721 443.612 60.1601 443.612C59.1401 443.612 58.3301 443.918 57.7301 444.53C57.1421 445.13 56.8481 445.964 56.8481 447.032V452H55.5701V438.644H56.8481V444.188C57.1961 443.636 57.6761 443.21 58.2881 442.91C58.9001 442.61 59.6021 442.46 60.3941 442.46ZM76.0309 447.662H68.1109C68.1829 448.646 68.5609 449.444 69.2449 450.056C69.9289 450.656 70.7929 450.956 71.8369 450.956C72.4249 450.956 72.9649 450.854 73.4569 450.65C73.9489 450.434 74.3749 450.122 74.7349 449.714L75.4549 450.542C75.0349 451.046 74.5069 451.43 73.8709 451.694C73.2469 451.958 72.5569 452.09 71.8009 452.09C70.8289 452.09 69.9649 451.886 69.2089 451.478C68.4649 451.058 67.8829 450.482 67.4629 449.75C67.0429 449.018 66.8329 448.19 66.8329 447.266C66.8329 446.342 67.0309 445.514 67.4269 444.782C67.8349 444.05 68.3869 443.48 69.0829 443.072C69.7909 442.664 70.5829 442.46 71.4589 442.46C72.3349 442.46 73.1209 442.664 73.8169 443.072C74.5129 443.48 75.0589 444.05 75.4549 444.782C75.8509 445.502 76.0489 446.33 76.0489 447.266L76.0309 447.662ZM71.4589 443.558C70.5469 443.558 69.7789 443.852 69.1549 444.44C68.5429 445.016 68.1949 445.772 68.1109 446.708H74.8249C74.7409 445.772 74.3869 445.016 73.7629 444.44C73.1509 443.852 72.3829 443.558 71.4589 443.558ZM96.3211 453.062C95.9371 453.53 95.4811 453.884 94.9531 454.124C94.4371 454.376 93.8731 454.502 93.2611 454.502C92.5171 454.502 91.8091 454.316 91.1371 453.944C90.4771 453.584 89.7331 452.972 88.9051 452.108C87.6931 452.072 86.6011 451.772 85.6291 451.208C84.6571 450.644 83.8951 449.882 83.3431 448.922C82.7911 447.962 82.5151 446.888 82.5151 445.7C82.5151 444.488 82.7971 443.396 83.3611 442.424C83.9371 441.452 84.7291 440.69 85.7371 440.138C86.7571 439.574 87.8911 439.292 89.1391 439.292C90.3871 439.292 91.5091 439.568 92.5051 440.12C93.5131 440.672 94.3051 441.44 94.8811 442.424C95.4571 443.396 95.7451 444.488 95.7451 445.7C95.7451 446.756 95.5231 447.728 95.0791 448.616C94.6471 449.492 94.0351 450.224 93.2431 450.812C92.4631 451.4 91.5631 451.79 90.5431 451.982C91.4671 452.954 92.3791 453.44 93.2791 453.44C94.2151 453.44 95.0131 453.056 95.6731 452.288L96.3211 453.062ZM83.8291 445.7C83.8291 446.684 84.0571 447.572 84.5131 448.364C84.9811 449.156 85.6171 449.78 86.4211 450.236C87.2371 450.692 88.1431 450.92 89.1391 450.92C90.1351 450.92 91.0351 450.692 91.8391 450.236C92.6431 449.78 93.2731 449.156 93.7291 448.364C94.1851 447.572 94.4131 446.684 94.4131 445.7C94.4131 444.716 94.1851 443.828 93.7291 443.036C93.2731 442.244 92.6431 441.62 91.8391 441.164C91.0351 440.708 90.1351 440.48 89.1391 440.48C88.1431 440.48 87.2371 440.708 86.4211 441.164C85.6171 441.62 84.9811 442.244 84.5131 443.036C84.0571 443.828 83.8291 444.716 83.8291 445.7ZM107.335 452L104.455 447.95C104.131 447.986 103.795 448.004 103.447 448.004H100.063V452H98.7307V439.4H103.447C105.055 439.4 106.315 439.784 107.227 440.552C108.139 441.32 108.595 442.376 108.595 443.72C108.595 444.704 108.343 445.538 107.839 446.222C107.347 446.894 106.639 447.38 105.715 447.68L108.793 452H107.335ZM103.411 446.87C104.659 446.87 105.613 446.594 106.273 446.042C106.933 445.49 107.263 444.716 107.263 443.72C107.263 442.7 106.933 441.92 106.273 441.38C105.613 440.828 104.659 440.552 103.411 440.552H100.063V446.87H103.411ZM120.103 452.09C119.167 452.09 118.327 451.886 117.583 451.478C116.851 451.07 116.275 450.5 115.855 449.768C115.435 449.024 115.225 448.19 115.225 447.266C115.225 446.342 115.435 445.514 115.855 444.782C116.275 444.05 116.851 443.48 117.583 443.072C118.327 442.664 119.167 442.46 120.103 442.46C120.919 442.46 121.645 442.622 122.281 442.946C122.929 443.258 123.439 443.72 123.811 444.332L122.857 444.98C122.545 444.512 122.149 444.164 121.669 443.936C121.189 443.696 120.667 443.576 120.103 443.576C119.419 443.576 118.801 443.732 118.249 444.044C117.709 444.344 117.283 444.776 116.971 445.34C116.671 445.904 116.521 446.546 116.521 447.266C116.521 447.998 116.671 448.646 116.971 449.21C117.283 449.762 117.709 450.194 118.249 450.506C118.801 450.806 119.419 450.956 120.103 450.956C120.667 450.956 121.189 450.842 121.669 450.614C122.149 450.386 122.545 450.038 122.857 449.57L123.811 450.218C123.439 450.83 122.929 451.298 122.281 451.622C121.633 451.934 120.907 452.09 120.103 452.09ZM130.034 452.09C129.122 452.09 128.3 451.886 127.568 451.478C126.836 451.058 126.26 450.482 125.84 449.75C125.42 449.018 125.21 448.19 125.21 447.266C125.21 446.342 125.42 445.514 125.84 444.782C126.26 444.05 126.836 443.48 127.568 443.072C128.3 442.664 129.122 442.46 130.034 442.46C130.946 442.46 131.768 442.664 132.5 443.072C133.232 443.48 133.802 444.05 134.21 444.782C134.63 445.514 134.84 446.342 134.84 447.266C134.84 448.19 134.63 449.018 134.21 449.75C133.802 450.482 133.232 451.058 132.5 451.478C131.768 451.886 130.946 452.09 130.034 452.09ZM130.034 450.956C130.706 450.956 131.306 450.806 131.834 450.506C132.374 450.194 132.794 449.756 133.094 449.192C133.394 448.628 133.544 447.986 133.544 447.266C133.544 446.546 133.394 445.904 133.094 445.34C132.794 444.776 132.374 444.344 131.834 444.044C131.306 443.732 130.706 443.576 130.034 443.576C129.362 443.576 128.756 443.732 128.216 444.044C127.688 444.344 127.268 444.776 126.956 445.34C126.656 445.904 126.506 446.546 126.506 447.266C126.506 447.986 126.656 448.628 126.956 449.192C127.268 449.756 127.688 450.194 128.216 450.506C128.756 450.806 129.362 450.956 130.034 450.956ZM146.089 438.644V452H144.865V450.128C144.481 450.764 143.971 451.25 143.335 451.586C142.711 451.922 142.003 452.09 141.211 452.09C140.323 452.09 139.519 451.886 138.799 451.478C138.079 451.07 137.515 450.5 137.107 449.768C136.699 449.036 136.495 448.202 136.495 447.266C136.495 446.33 136.699 445.496 137.107 444.764C137.515 444.032 138.079 443.468 138.799 443.072C139.519 442.664 140.323 442.46 141.211 442.46C141.979 442.46 142.669 442.622 143.281 442.946C143.905 443.258 144.415 443.72 144.811 444.332V438.644H146.089ZM141.319 450.956C141.979 450.956 142.573 450.806 143.101 450.506C143.641 450.194 144.061 449.756 144.361 449.192C144.673 448.628 144.829 447.986 144.829 447.266C144.829 446.546 144.673 445.904 144.361 445.34C144.061 444.776 143.641 444.344 143.101 444.044C142.573 443.732 141.979 443.576 141.319 443.576C140.647 443.576 140.041 443.732 139.501 444.044C138.973 444.344 138.553 444.776 138.241 445.34C137.941 445.904 137.791 446.546 137.791 447.266C137.791 447.986 137.941 448.628 138.241 449.192C138.553 449.756 138.973 450.194 139.501 450.506C140.041 450.806 140.647 450.956 141.319 450.956ZM157.892 447.662H149.972C150.044 448.646 150.422 449.444 151.106 450.056C151.79 450.656 152.654 450.956 153.698 450.956C154.286 450.956 154.826 450.854 155.318 450.65C155.81 450.434 156.236 450.122 156.596 449.714L157.316 450.542C156.896 451.046 156.368 451.43 155.732 451.694C155.108 451.958 154.418 452.09 153.662 452.09C152.69 452.09 151.826 451.886 151.07 451.478C150.326 451.058 149.744 450.482 149.324 449.75C148.904 449.018 148.694 448.19 148.694 447.266C148.694 446.342 148.892 445.514 149.288 444.782C149.696 444.05 150.248 443.48 150.944 443.072C151.652 442.664 152.444 442.46 153.32 442.46C154.196 442.46 154.982 442.664 155.678 443.072C156.374 443.48 156.92 444.05 157.316 444.782C157.712 445.502 157.91 446.33 157.91 447.266L157.892 447.662ZM153.32 443.558C152.408 443.558 151.64 443.852 151.016 444.44C150.404 445.016 150.056 445.772 149.972 446.708H156.686C156.602 445.772 156.248 445.016 155.624 444.44C155.012 443.852 154.244 443.558 153.32 443.558ZM168.354 439.634C167.802 439.634 167.382 439.784 167.094 440.084C166.818 440.384 166.68 440.828 166.68 441.416V442.532H169.596V443.612H166.716V452H165.438V443.612H163.746V442.532H165.438V441.362C165.438 440.498 165.684 439.814 166.176 439.31C166.68 438.806 167.388 438.554 168.3 438.554C168.66 438.554 169.008 438.608 169.344 438.716C169.68 438.812 169.962 438.956 170.19 439.148L169.758 440.102C169.386 439.79 168.918 439.634 168.354 439.634ZM173.987 444.386C174.287 443.75 174.731 443.27 175.319 442.946C175.919 442.622 176.657 442.46 177.533 442.46V443.702L177.227 443.684C176.231 443.684 175.451 443.99 174.887 444.602C174.323 445.214 174.041 446.072 174.041 447.176V452H172.763V442.532H173.987V444.386ZM183.63 452.09C182.718 452.09 181.896 451.886 181.164 451.478C180.432 451.058 179.856 450.482 179.436 449.75C179.016 449.018 178.806 448.19 178.806 447.266C178.806 446.342 179.016 445.514 179.436 444.782C179.856 444.05 180.432 443.48 181.164 443.072C181.896 442.664 182.718 442.46 183.63 442.46C184.542 442.46 185.364 442.664 186.096 443.072C186.828 443.48 187.398 444.05 187.806 444.782C188.226 445.514 188.436 446.342 188.436 447.266C188.436 448.19 188.226 449.018 187.806 449.75C187.398 450.482 186.828 451.058 186.096 451.478C185.364 451.886 184.542 452.09 183.63 452.09ZM183.63 450.956C184.302 450.956 184.902 450.806 185.43 450.506C185.97 450.194 186.39 449.756 186.69 449.192C186.99 448.628 187.14 447.986 187.14 447.266C187.14 446.546 186.99 445.904 186.69 445.34C186.39 444.776 185.97 444.344 185.43 444.044C184.902 443.732 184.302 443.576 183.63 443.576C182.958 443.576 182.352 443.732 181.812 444.044C181.284 444.344 180.864 444.776 180.552 445.34C180.252 445.904 180.102 446.546 180.102 447.266C180.102 447.986 180.252 448.628 180.552 449.192C180.864 449.756 181.284 450.194 181.812 450.506C182.352 450.806 182.958 450.956 183.63 450.956ZM202.853 442.46C204.041 442.46 204.971 442.802 205.643 443.486C206.327 444.17 206.669 445.178 206.669 446.51V452H205.391V446.636C205.391 445.652 205.151 444.902 204.671 444.386C204.203 443.87 203.537 443.612 202.673 443.612C201.689 443.612 200.915 443.918 200.351 444.53C199.787 445.13 199.505 445.964 199.505 447.032V452H198.227V446.636C198.227 445.652 197.987 444.902 197.507 444.386C197.039 443.87 196.367 443.612 195.491 443.612C194.519 443.612 193.745 443.918 193.169 444.53C192.605 445.13 192.323 445.964 192.323 447.032V452H191.045V442.532H192.269V444.26C192.605 443.684 193.073 443.24 193.673 442.928C194.273 442.616 194.963 442.46 195.743 442.46C196.535 442.46 197.219 442.628 197.795 442.964C198.383 443.3 198.821 443.798 199.109 444.458C199.457 443.834 199.955 443.348 200.603 443C201.263 442.64 202.013 442.46 202.853 442.46ZM228.201 439.4V452H226.923V441.92L221.973 450.398H221.343L216.393 441.974V452H215.115V439.4H216.213L221.685 448.742L227.103 439.4H228.201ZM235.907 452.09C234.995 452.09 234.173 451.886 233.441 451.478C232.709 451.058 232.133 450.482 231.713 449.75C231.293 449.018 231.083 448.19 231.083 447.266C231.083 446.342 231.293 445.514 231.713 444.782C232.133 444.05 232.709 443.48 233.441 443.072C234.173 442.664 234.995 442.46 235.907 442.46C236.819 442.46 237.641 442.664 238.373 443.072C239.105 443.48 239.675 444.05 240.083 444.782C240.503 445.514 240.713 446.342 240.713 447.266C240.713 448.19 240.503 449.018 240.083 449.75C239.675 450.482 239.105 451.058 238.373 451.478C237.641 451.886 236.819 452.09 235.907 452.09ZM235.907 450.956C236.579 450.956 237.179 450.806 237.707 450.506C238.247 450.194 238.667 449.756 238.967 449.192C239.267 448.628 239.417 447.986 239.417 447.266C239.417 446.546 239.267 445.904 238.967 445.34C238.667 444.776 238.247 444.344 237.707 444.044C237.179 443.732 236.579 443.576 235.907 443.576C235.235 443.576 234.629 443.732 234.089 444.044C233.561 444.344 233.141 444.776 232.829 445.34C232.529 445.904 232.379 446.546 232.379 447.266C232.379 447.986 232.529 448.628 232.829 449.192C233.141 449.756 233.561 450.194 234.089 450.506C234.629 450.806 235.235 450.956 235.907 450.956ZM248.2 442.46C249.088 442.46 249.892 442.664 250.612 443.072C251.332 443.468 251.896 444.032 252.304 444.764C252.712 445.496 252.916 446.33 252.916 447.266C252.916 448.202 252.712 449.036 252.304 449.768C251.896 450.5 251.332 451.07 250.612 451.478C249.892 451.886 249.088 452.09 248.2 452.09C247.408 452.09 246.694 451.922 246.058 451.586C245.434 451.25 244.93 450.764 244.546 450.128V452H243.322V438.644H244.6V444.332C244.996 443.72 245.5 443.258 246.112 442.946C246.736 442.622 247.432 442.46 248.2 442.46ZM248.11 450.956C248.77 450.956 249.37 450.806 249.91 450.506C250.45 450.194 250.87 449.756 251.17 449.192C251.482 448.628 251.638 447.986 251.638 447.266C251.638 446.546 251.482 445.904 251.17 445.34C250.87 444.776 250.45 444.344 249.91 444.044C249.37 443.732 248.77 443.576 248.11 443.576C247.438 443.576 246.832 443.732 246.292 444.044C245.764 444.344 245.344 444.776 245.032 445.34C244.732 445.904 244.582 446.546 244.582 447.266C244.582 447.986 244.732 448.628 245.032 449.192C245.344 449.756 245.764 450.194 246.292 450.506C246.832 450.806 247.438 450.956 248.11 450.956ZM255.521 442.532H256.799V452H255.521V442.532ZM256.169 440.462C255.905 440.462 255.683 440.372 255.503 440.192C255.323 440.012 255.233 439.796 255.233 439.544C255.233 439.304 255.323 439.094 255.503 438.914C255.683 438.734 255.905 438.644 256.169 438.644C256.433 438.644 256.655 438.734 256.835 438.914C257.015 439.082 257.105 439.286 257.105 439.526C257.105 439.79 257.015 440.012 256.835 440.192C256.655 440.372 256.433 440.462 256.169 440.462ZM260.355 438.644H261.633V452H260.355V438.644ZM273.433 447.662H265.513C265.585 448.646 265.963 449.444 266.647 450.056C267.331 450.656 268.195 450.956 269.239 450.956C269.827 450.956 270.367 450.854 270.859 450.65C271.351 450.434 271.777 450.122 272.137 449.714L272.857 450.542C272.437 451.046 271.909 451.43 271.273 451.694C270.649 451.958 269.959 452.09 269.203 452.09C268.231 452.09 267.367 451.886 266.611 451.478C265.867 451.058 265.285 450.482 264.865 449.75C264.445 449.018 264.235 448.19 264.235 447.266C264.235 446.342 264.433 445.514 264.829 444.782C265.237 444.05 265.789 443.48 266.485 443.072C267.193 442.664 267.985 442.46 268.861 442.46C269.737 442.46 270.523 442.664 271.219 443.072C271.915 443.48 272.461 444.05 272.857 444.782C273.253 445.502 273.451 446.33 273.451 447.266L273.433 447.662ZM268.861 443.558C267.949 443.558 267.181 443.852 266.557 444.44C265.945 445.016 265.597 445.772 265.513 446.708H272.227C272.143 445.772 271.789 445.016 271.165 444.44C270.553 443.852 269.785 443.558 268.861 443.558ZM285.749 439.4C287.357 439.4 288.617 439.784 289.529 440.552C290.441 441.32 290.897 442.376 290.897 443.72C290.897 445.064 290.441 446.12 289.529 446.888C288.617 447.644 287.357 448.022 285.749 448.022H282.365V452H281.033V439.4H285.749ZM285.713 446.852C286.961 446.852 287.915 446.582 288.575 446.042C289.235 445.49 289.565 444.716 289.565 443.72C289.565 442.7 289.235 441.92 288.575 441.38C287.915 440.828 286.961 440.552 285.713 440.552H282.365V446.852H285.713ZM296.732 442.46C297.968 442.46 298.916 442.772 299.576 443.396C300.236 444.008 300.566 444.92 300.566 446.132V452H299.342V450.524C299.054 451.016 298.628 451.4 298.064 451.676C297.512 451.952 296.852 452.09 296.084 452.09C295.028 452.09 294.188 451.838 293.564 451.334C292.94 450.83 292.628 450.164 292.628 449.336C292.628 448.532 292.916 447.884 293.492 447.392C294.08 446.9 295.01 446.654 296.282 446.654H299.288V446.078C299.288 445.262 299.06 444.644 298.604 444.224C298.148 443.792 297.482 443.576 296.606 443.576C296.006 443.576 295.43 443.678 294.878 443.882C294.326 444.074 293.852 444.344 293.456 444.692L292.88 443.738C293.36 443.33 293.936 443.018 294.608 442.802C295.28 442.574 295.988 442.46 296.732 442.46ZM296.282 451.082C297.002 451.082 297.62 450.92 298.136 450.596C298.652 450.26 299.036 449.78 299.288 449.156V447.608H296.318C294.698 447.608 293.888 448.172 293.888 449.3C293.888 449.852 294.098 450.29 294.518 450.614C294.938 450.926 295.526 451.082 296.282 451.082ZM311.817 442.532L307.083 453.134C306.699 454.022 306.255 454.652 305.751 455.024C305.247 455.396 304.641 455.582 303.933 455.582C303.477 455.582 303.051 455.51 302.655 455.366C302.259 455.222 301.917 455.006 301.629 454.718L302.223 453.764C302.703 454.244 303.279 454.484 303.951 454.484C304.383 454.484 304.749 454.364 305.049 454.124C305.361 453.884 305.649 453.476 305.913 452.9L306.327 451.982L302.097 442.532H303.429L306.993 450.578L310.557 442.532H311.817ZM321.64 442.46C322.876 442.46 323.824 442.772 324.484 443.396C325.144 444.008 325.474 444.92 325.474 446.132V452H324.25V450.524C323.962 451.016 323.536 451.4 322.972 451.676C322.42 451.952 321.76 452.09 320.992 452.09C319.936 452.09 319.096 451.838 318.472 451.334C317.848 450.83 317.536 450.164 317.536 449.336C317.536 448.532 317.824 447.884 318.4 447.392C318.988 446.9 319.918 446.654 321.19 446.654H324.196V446.078C324.196 445.262 323.968 444.644 323.512 444.224C323.056 443.792 322.39 443.576 321.514 443.576C320.914 443.576 320.338 443.678 319.786 443.882C319.234 444.074 318.76 444.344 318.364 444.692L317.788 443.738C318.268 443.33 318.844 443.018 319.516 442.802C320.188 442.574 320.896 442.46 321.64 442.46ZM321.19 451.082C321.91 451.082 322.528 450.92 323.044 450.596C323.56 450.26 323.944 449.78 324.196 449.156V447.608H321.226C319.606 447.608 318.796 448.172 318.796 449.3C318.796 449.852 319.006 450.29 319.426 450.614C319.846 450.926 320.434 451.082 321.19 451.082ZM333.823 442.46C334.711 442.46 335.515 442.664 336.235 443.072C336.955 443.468 337.519 444.032 337.927 444.764C338.335 445.496 338.539 446.33 338.539 447.266C338.539 448.214 338.335 449.054 337.927 449.786C337.519 450.518 336.955 451.088 336.235 451.496C335.527 451.892 334.723 452.09 333.823 452.09C333.055 452.09 332.359 451.934 331.735 451.622C331.123 451.298 330.619 450.83 330.223 450.218V455.492H328.945V442.532H330.169V444.404C330.553 443.78 331.057 443.3 331.681 442.964C332.317 442.628 333.031 442.46 333.823 442.46ZM333.733 450.956C334.393 450.956 334.993 450.806 335.533 450.506C336.073 450.194 336.493 449.756 336.793 449.192C337.105 448.628 337.261 447.986 337.261 447.266C337.261 446.546 337.105 445.91 336.793 445.358C336.493 444.794 336.073 444.356 335.533 444.044C334.993 443.732 334.393 443.576 333.733 443.576C333.061 443.576 332.455 443.732 331.915 444.044C331.387 444.356 330.967 444.794 330.655 445.358C330.355 445.91 330.205 446.546 330.205 447.266C330.205 447.986 330.355 448.628 330.655 449.192C330.967 449.756 331.387 450.194 331.915 450.506C332.455 450.806 333.061 450.956 333.733 450.956ZM346.022 442.46C346.91 442.46 347.714 442.664 348.434 443.072C349.154 443.468 349.718 444.032 350.126 444.764C350.534 445.496 350.738 446.33 350.738 447.266C350.738 448.214 350.534 449.054 350.126 449.786C349.718 450.518 349.154 451.088 348.434 451.496C347.726 451.892 346.922 452.09 346.022 452.09C345.254 452.09 344.558 451.934 343.934 451.622C343.322 451.298 342.818 450.83 342.422 450.218V455.492H341.144V442.532H342.368V444.404C342.752 443.78 343.256 443.3 343.88 442.964C344.516 442.628 345.23 442.46 346.022 442.46ZM345.932 450.956C346.592 450.956 347.192 450.806 347.732 450.506C348.272 450.194 348.692 449.756 348.992 449.192C349.304 448.628 349.46 447.986 349.46 447.266C349.46 446.546 349.304 445.91 348.992 445.358C348.692 444.794 348.272 444.356 347.732 444.044C347.192 443.732 346.592 443.576 345.932 443.576C345.26 443.576 344.654 443.732 344.114 444.044C343.586 444.356 343.166 444.794 342.854 445.358C342.554 445.91 342.404 446.546 342.404 447.266C342.404 447.986 342.554 448.628 342.854 449.192C343.166 449.756 343.586 450.194 344.114 450.506C344.654 450.806 345.26 450.956 345.932 450.956ZM108.277 464.46C109.513 464.46 110.461 464.772 111.121 465.396C111.781 466.008 112.111 466.92 112.111 468.132V474H110.887V472.524C110.599 473.016 110.173 473.4 109.609 473.676C109.057 473.952 108.397 474.09 107.629 474.09C106.573 474.09 105.733 473.838 105.109 473.334C104.485 472.83 104.173 472.164 104.173 471.336C104.173 470.532 104.461 469.884 105.037 469.392C105.625 468.9 106.555 468.654 107.827 468.654H110.833V468.078C110.833 467.262 110.605 466.644 110.149 466.224C109.693 465.792 109.027 465.576 108.151 465.576C107.551 465.576 106.975 465.678 106.423 465.882C105.871 466.074 105.397 466.344 105.001 466.692L104.425 465.738C104.905 465.33 105.481 465.018 106.153 464.802C106.825 464.574 107.533 464.46 108.277 464.46ZM107.827 473.082C108.547 473.082 109.165 472.92 109.681 472.596C110.197 472.26 110.581 471.78 110.833 471.156V469.608H107.863C106.243 469.608 105.433 470.172 105.433 471.3C105.433 471.852 105.643 472.29 106.063 472.614C106.483 472.926 107.071 473.082 107.827 473.082ZM120.406 464.46C121.594 464.46 122.536 464.808 123.232 465.504C123.94 466.188 124.294 467.19 124.294 468.51V474H123.016V468.636C123.016 467.652 122.77 466.902 122.278 466.386C121.786 465.87 121.084 465.612 120.172 465.612C119.152 465.612 118.342 465.918 117.742 466.53C117.154 467.13 116.86 467.964 116.86 469.032V474H115.582V464.532H116.806V466.278C117.154 465.702 117.634 465.258 118.246 464.946C118.87 464.622 119.59 464.46 120.406 464.46ZM136.439 460.644V474H135.215V472.128C134.831 472.764 134.321 473.25 133.685 473.586C133.061 473.922 132.353 474.09 131.561 474.09C130.673 474.09 129.869 473.886 129.149 473.478C128.429 473.07 127.865 472.5 127.457 471.768C127.049 471.036 126.845 470.202 126.845 469.266C126.845 468.33 127.049 467.496 127.457 466.764C127.865 466.032 128.429 465.468 129.149 465.072C129.869 464.664 130.673 464.46 131.561 464.46C132.329 464.46 133.019 464.622 133.631 464.946C134.255 465.258 134.765 465.72 135.161 466.332V460.644H136.439ZM131.669 472.956C132.329 472.956 132.923 472.806 133.451 472.506C133.991 472.194 134.411 471.756 134.711 471.192C135.023 470.628 135.179 469.986 135.179 469.266C135.179 468.546 135.023 467.904 134.711 467.34C134.411 466.776 133.991 466.344 133.451 466.044C132.923 465.732 132.329 465.576 131.669 465.576C130.997 465.576 130.391 465.732 129.851 466.044C129.323 466.344 128.903 466.776 128.591 467.34C128.291 467.904 128.141 468.546 128.141 469.266C128.141 469.986 128.291 470.628 128.591 471.192C128.903 471.756 129.323 472.194 129.851 472.506C130.391 472.806 130.997 472.956 131.669 472.956ZM149.587 464.46C150.475 464.46 151.279 464.664 151.999 465.072C152.719 465.468 153.283 466.032 153.691 466.764C154.099 467.496 154.303 468.33 154.303 469.266C154.303 470.214 154.099 471.054 153.691 471.786C153.283 472.518 152.719 473.088 151.999 473.496C151.291 473.892 150.487 474.09 149.587 474.09C148.819 474.09 148.123 473.934 147.499 473.622C146.887 473.298 146.383 472.83 145.987 472.218V477.492H144.709V464.532H145.933V466.404C146.317 465.78 146.821 465.3 147.445 464.964C148.081 464.628 148.795 464.46 149.587 464.46ZM149.497 472.956C150.157 472.956 150.757 472.806 151.297 472.506C151.837 472.194 152.257 471.756 152.557 471.192C152.869 470.628 153.025 469.986 153.025 469.266C153.025 468.546 152.869 467.91 152.557 467.358C152.257 466.794 151.837 466.356 151.297 466.044C150.757 465.732 150.157 465.576 149.497 465.576C148.825 465.576 148.219 465.732 147.679 466.044C147.151 466.356 146.731 466.794 146.419 467.358C146.119 467.91 145.969 468.546 145.969 469.266C145.969 469.986 146.119 470.628 146.419 471.192C146.731 471.756 147.151 472.194 147.679 472.506C148.219 472.806 148.825 472.956 149.497 472.956ZM160.167 464.46C161.403 464.46 162.351 464.772 163.011 465.396C163.671 466.008 164.001 466.92 164.001 468.132V474H162.777V472.524C162.489 473.016 162.063 473.4 161.499 473.676C160.947 473.952 160.287 474.09 159.519 474.09C158.463 474.09 157.623 473.838 156.999 473.334C156.375 472.83 156.063 472.164 156.063 471.336C156.063 470.532 156.351 469.884 156.927 469.392C157.515 468.9 158.445 468.654 159.717 468.654H162.723V468.078C162.723 467.262 162.495 466.644 162.039 466.224C161.583 465.792 160.917 465.576 160.041 465.576C159.441 465.576 158.865 465.678 158.313 465.882C157.761 466.074 157.287 466.344 156.891 466.692L156.315 465.738C156.795 465.33 157.371 465.018 158.043 464.802C158.715 464.574 159.423 464.46 160.167 464.46ZM159.717 473.082C160.437 473.082 161.055 472.92 161.571 472.596C162.087 472.26 162.471 471.78 162.723 471.156V469.608H159.753C158.133 469.608 157.323 470.172 157.323 471.3C157.323 471.852 157.533 472.29 157.953 472.614C158.373 472.926 158.961 473.082 159.717 473.082ZM175.253 464.532L170.519 475.134C170.135 476.022 169.691 476.652 169.187 477.024C168.683 477.396 168.077 477.582 167.369 477.582C166.913 477.582 166.487 477.51 166.091 477.366C165.695 477.222 165.353 477.006 165.065 476.718L165.659 475.764C166.139 476.244 166.715 476.484 167.387 476.484C167.819 476.484 168.185 476.364 168.485 476.124C168.797 475.884 169.085 475.476 169.349 474.9L169.763 473.982L165.533 464.532H166.865L170.429 472.578L173.993 464.532H175.253ZM181.763 464.532H183.041V474H181.763V464.532ZM182.411 462.462C182.147 462.462 181.925 462.372 181.745 462.192C181.565 462.012 181.475 461.796 181.475 461.544C181.475 461.304 181.565 461.094 181.745 460.914C181.925 460.734 182.147 460.644 182.411 460.644C182.675 460.644 182.897 460.734 183.077 460.914C183.257 461.082 183.347 461.286 183.347 461.526C183.347 461.79 183.257 462.012 183.077 462.192C182.897 462.372 182.675 462.462 182.411 462.462ZM191.421 464.46C192.609 464.46 193.551 464.808 194.247 465.504C194.955 466.188 195.309 467.19 195.309 468.51V474H194.031V468.636C194.031 467.652 193.785 466.902 193.293 466.386C192.801 465.87 192.099 465.612 191.187 465.612C190.167 465.612 189.357 465.918 188.757 466.53C188.169 467.13 187.875 467.964 187.875 469.032V474H186.597V464.532H187.821V466.278C188.169 465.702 188.649 465.258 189.261 464.946C189.885 464.622 190.605 464.46 191.421 464.46ZM201.317 474.09C200.549 474.09 199.811 473.982 199.103 473.766C198.407 473.538 197.861 473.256 197.465 472.92L198.041 471.912C198.437 472.224 198.935 472.482 199.535 472.686C200.135 472.878 200.759 472.974 201.407 472.974C202.271 472.974 202.907 472.842 203.315 472.578C203.735 472.302 203.945 471.918 203.945 471.426C203.945 471.078 203.831 470.808 203.603 470.616C203.375 470.412 203.087 470.262 202.739 470.166C202.391 470.058 201.929 469.956 201.353 469.86C200.585 469.716 199.967 469.572 199.499 469.428C199.031 469.272 198.629 469.014 198.293 468.654C197.969 468.294 197.807 467.796 197.807 467.16C197.807 466.368 198.137 465.72 198.797 465.216C199.457 464.712 200.375 464.46 201.551 464.46C202.163 464.46 202.775 464.544 203.387 464.712C203.999 464.868 204.503 465.078 204.899 465.342L204.341 466.368C203.561 465.828 202.631 465.558 201.551 465.558C200.735 465.558 200.117 465.702 199.697 465.99C199.289 466.278 199.085 466.656 199.085 467.124C199.085 467.484 199.199 467.772 199.427 467.988C199.667 468.204 199.961 468.366 200.309 468.474C200.657 468.57 201.137 468.672 201.749 468.78C202.505 468.924 203.111 469.068 203.567 469.212C204.023 469.356 204.413 469.602 204.737 469.95C205.061 470.298 205.223 470.778 205.223 471.39C205.223 472.218 204.875 472.878 204.179 473.37C203.495 473.85 202.541 474.09 201.317 474.09ZM212.572 473.424C212.332 473.64 212.032 473.808 211.672 473.928C211.324 474.036 210.958 474.09 210.574 474.09C209.686 474.09 209.002 473.85 208.522 473.37C208.042 472.89 207.802 472.212 207.802 471.336V465.612H206.11V464.532H207.802V462.462H209.08V464.532H211.96V465.612H209.08V471.264C209.08 471.828 209.218 472.26 209.494 472.56C209.782 472.848 210.19 472.992 210.718 472.992C210.982 472.992 211.234 472.95 211.474 472.866C211.726 472.782 211.942 472.662 212.122 472.506L212.572 473.424ZM218.21 464.46C219.446 464.46 220.394 464.772 221.054 465.396C221.714 466.008 222.044 466.92 222.044 468.132V474H220.82V472.524C220.532 473.016 220.106 473.4 219.542 473.676C218.99 473.952 218.33 474.09 217.562 474.09C216.506 474.09 215.666 473.838 215.042 473.334C214.418 472.83 214.106 472.164 214.106 471.336C214.106 470.532 214.394 469.884 214.97 469.392C215.558 468.9 216.488 468.654 217.76 468.654H220.766V468.078C220.766 467.262 220.538 466.644 220.082 466.224C219.626 465.792 218.96 465.576 218.084 465.576C217.484 465.576 216.908 465.678 216.356 465.882C215.804 466.074 215.33 466.344 214.934 466.692L214.358 465.738C214.838 465.33 215.414 465.018 216.086 464.802C216.758 464.574 217.466 464.46 218.21 464.46ZM217.76 473.082C218.48 473.082 219.098 472.92 219.614 472.596C220.13 472.26 220.514 471.78 220.766 471.156V469.608H217.796C216.176 469.608 215.366 470.172 215.366 471.3C215.366 471.852 215.576 472.29 215.996 472.614C216.416 472.926 217.004 473.082 217.76 473.082ZM230.339 464.46C231.527 464.46 232.469 464.808 233.165 465.504C233.873 466.188 234.227 467.19 234.227 468.51V474H232.949V468.636C232.949 467.652 232.703 466.902 232.211 466.386C231.719 465.87 231.017 465.612 230.105 465.612C229.085 465.612 228.275 465.918 227.675 466.53C227.087 467.13 226.793 467.964 226.793 469.032V474H225.515V464.532H226.739V466.278C227.087 465.702 227.567 465.258 228.179 464.946C228.803 464.622 229.523 464.46 230.339 464.46ZM242.683 473.424C242.443 473.64 242.143 473.808 241.783 473.928C241.435 474.036 241.069 474.09 240.685 474.09C239.797 474.09 239.113 473.85 238.633 473.37C238.153 472.89 237.913 472.212 237.913 471.336V465.612H236.221V464.532H237.913V462.462H239.191V464.532H242.071V465.612H239.191V471.264C239.191 471.828 239.329 472.26 239.605 472.56C239.893 472.848 240.301 472.992 240.829 472.992C241.093 472.992 241.345 472.95 241.585 472.866C241.837 472.782 242.053 472.662 242.233 472.506L242.683 473.424ZM245.01 460.644H246.288V474H245.01V460.644ZM257.8 464.532L253.066 475.134C252.682 476.022 252.238 476.652 251.734 477.024C251.23 477.396 250.624 477.582 249.916 477.582C249.46 477.582 249.034 477.51 248.638 477.366C248.242 477.222 247.9 477.006 247.612 476.718L248.206 475.764C248.686 476.244 249.262 476.484 249.934 476.484C250.366 476.484 250.732 476.364 251.032 476.124C251.344 475.884 251.632 475.476 251.896 474.9L252.31 473.982L248.08 464.532H249.412L252.976 472.578L256.54 464.532H257.8Z" fill="black"/>
<g filter="url(#filter0_d)">
<rect x="45" y="53" width="272" height="333" rx="34" fill="white"/>
</g>
<path d="M189.181 194.23L187.789 194.212L188.267 156.114C188.341 150.265 186.086 144.627 182 140.44C177.914 136.253 172.33 133.859 166.478 133.786L85.701 132.771C82.8031 132.735 79.9265 133.269 77.2353 134.343C74.5441 135.418 72.0911 137.012 70.0163 139.033C67.9415 141.055 66.2855 143.466 65.1429 146.127C64.0004 148.788 63.3936 151.649 63.3572 154.544L60.7317 363.558C60.6953 366.454 61.2301 369.329 62.3054 372.018C63.3807 374.707 64.9756 377.158 66.999 379.232C69.0224 381.305 71.4346 382.96 74.0979 384.102C76.7612 385.243 79.6236 385.85 82.5214 385.886L163.298 386.901C166.196 386.937 169.073 386.403 171.764 385.328C174.455 384.254 176.908 382.66 178.983 380.638C181.058 378.617 182.714 376.206 183.856 373.545C184.999 370.883 185.606 368.023 185.642 365.127L187.448 221.332L188.84 221.349L189.181 194.23Z" fill="#3F3D56"/>
<path d="M167.123 140.053L156.579 139.921C157.049 141.115 157.218 142.406 157.071 143.68C156.924 144.955 156.466 146.174 155.736 147.23C155.007 148.286 154.029 149.146 152.888 149.735C151.747 150.324 150.479 150.624 149.195 150.608L102.919 150.027C101.635 150.01 100.375 149.679 99.2497 149.061C98.1242 148.444 97.168 147.559 96.4652 146.485C95.7624 145.411 95.3347 144.181 95.2198 142.903C95.1048 141.626 95.3061 140.339 95.8059 139.157L85.9577 139.034C81.5872 138.979 77.3738 140.661 74.2446 143.71C71.1154 146.76 69.3265 150.926 69.2717 155.294L66.65 364.001C66.6229 366.164 67.0222 368.31 67.8253 370.318C68.6283 372.327 69.8194 374.157 71.3304 375.706C72.8414 377.254 74.6429 378.49 76.6318 379.342C78.6208 380.195 80.7583 380.648 82.9224 380.675L164.088 381.695C168.459 381.75 172.672 380.067 175.801 377.018C178.931 373.969 180.719 369.802 180.774 365.435L183.396 156.727C183.423 154.565 183.024 152.418 182.221 150.41C181.418 148.401 180.226 146.571 178.715 145.023C177.204 143.474 175.403 142.238 173.414 141.386C171.425 140.533 169.288 140.08 167.124 140.053H167.123ZM164.136 236.852C164.118 237.982 163.654 239.059 162.844 239.848C162.034 240.637 160.945 241.074 159.814 241.063L139.183 240.804C138.052 240.787 136.974 240.323 136.184 239.513C135.394 238.704 134.957 237.615 134.968 236.485L134.981 235.419C134.999 234.289 135.463 233.211 136.273 232.422C137.083 231.633 138.172 231.196 139.304 231.207L159.934 231.466C161.065 231.484 162.143 231.948 162.933 232.757C163.723 233.566 164.16 234.655 164.149 235.785L164.136 236.852ZM166.685 218.042C166.667 219.172 166.203 220.249 165.393 221.039C164.583 221.828 163.494 222.265 162.363 222.254L88.376 221.324C87.245 221.307 86.1669 220.843 85.3772 220.034C84.5874 219.224 84.1503 218.136 84.1612 217.005L84.1746 215.939C84.1921 214.809 84.6564 213.731 85.4663 212.942C86.2761 212.153 87.3655 211.716 88.4966 211.727L162.483 212.657C163.614 212.674 164.692 213.138 165.482 213.948C166.272 214.757 166.709 215.845 166.698 216.976L166.685 218.042ZM166.921 199.203C166.904 200.334 166.439 201.411 165.629 202.2C164.82 202.989 163.73 203.426 162.599 203.415L88.6127 202.486C87.4817 202.468 86.4036 202.004 85.6138 201.195C84.8241 200.386 84.3869 199.297 84.3978 198.167L84.4112 197.1C84.4287 195.97 84.8931 194.893 85.7029 194.104C86.5127 193.315 87.6021 192.878 88.7332 192.889L162.72 193.818C163.851 193.836 164.929 194.3 165.719 195.109C166.508 195.918 166.945 197.007 166.935 198.137L166.921 199.203ZM167.158 180.365C167.14 181.495 166.676 182.572 165.866 183.361C165.056 184.151 163.967 184.587 162.836 184.576L88.8493 183.647C87.7183 183.63 86.6402 183.166 85.8505 182.356C85.0607 181.547 84.6236 180.458 84.6344 179.328L84.6478 178.262C84.6653 177.132 85.1297 176.054 85.9395 175.265C86.7493 174.476 87.8388 174.039 88.9699 174.05L162.956 174.979C164.087 174.997 165.165 175.461 165.955 176.27C166.745 177.08 167.182 178.168 167.171 179.298L167.158 180.365Z" fill="white"/>
<path d="M90.0036 219.212C91.3787 219.229 92.5075 218.129 92.5248 216.755C92.542 215.381 91.4412 214.253 90.0661 214.235C88.6909 214.218 87.5622 215.318 87.5449 216.692C87.5277 218.067 88.6284 219.195 90.0036 219.212Z" fill="white"/>
<path d="M98.1847 219.315C99.5599 219.332 100.689 218.232 100.706 216.858C100.723 215.483 99.6224 214.356 98.2473 214.338C96.8721 214.321 95.7433 215.421 95.7261 216.795C95.7088 218.169 96.8096 219.297 98.1847 219.315Z" fill="white"/>
<path d="M106.366 219.417C107.741 219.435 108.87 218.335 108.887 216.961C108.904 215.586 107.804 214.458 106.428 214.441C105.053 214.424 103.925 215.524 103.907 216.898C103.89 218.272 104.991 219.4 106.366 219.417Z" fill="white"/>
<path d="M114.547 219.52C115.922 219.537 117.051 218.437 117.068 217.063C117.086 215.689 115.985 214.561 114.61 214.544C113.235 214.527 112.106 215.627 112.089 217.001C112.071 218.375 113.172 219.503 114.547 219.52Z" fill="white"/>
<path d="M140.988 238.694C142.363 238.711 143.492 237.611 143.509 236.237C143.527 234.863 142.426 233.735 141.051 233.717C139.676 233.7 138.547 234.8 138.53 236.174C138.512 237.548 139.613 238.676 140.988 238.694Z" fill="white"/>
<path d="M149.169 238.797C150.545 238.814 151.673 237.714 151.691 236.34C151.708 234.966 150.607 233.838 149.232 233.82C147.857 233.803 146.728 234.903 146.711 236.277C146.694 237.651 147.794 238.779 149.169 238.797Z" fill="white"/>
<path d="M157.351 238.899C158.726 238.917 159.855 237.817 159.872 236.442C159.889 235.068 158.788 233.94 157.413 233.923C156.038 233.906 154.909 235.006 154.892 236.38C154.875 237.754 155.975 238.882 157.351 238.899Z" fill="white"/>
<path d="M166.62 268.77L82.2403 267.71C80.2579 267.686 78.3468 268.449 76.9275 269.832C75.5082 271.215 74.6968 273.105 74.6719 275.086L74.1559 316.167C74.131 318.148 74.8946 320.058 76.2788 321.476C77.6629 322.894 79.5542 323.705 81.5366 323.73L165.916 324.79C167.899 324.815 169.81 324.052 171.229 322.669C172.648 321.286 173.46 319.396 173.485 317.415L174.001 276.333C174.025 274.352 173.262 272.443 171.878 271.024C170.494 269.606 168.602 268.795 166.62 268.77ZM80.0886 272.779C80.2556 272.751 84.2152 272.129 87.4622 274.137C90.709 276.145 91.9183 279.965 91.968 280.126L92.0951 280.538L91.6696 280.608C91.0628 280.695 90.4498 280.732 89.8369 280.719C87.8917 280.732 85.9786 280.224 84.2959 279.249C81.049 277.242 79.84 273.422 79.7902 273.261L79.6631 272.849L80.0886 272.779ZM97.9261 311.151L82.8763 310.962C81.7786 310.948 80.7314 310.499 79.965 309.714C79.1986 308.928 78.7758 307.871 78.7895 306.774C78.8033 305.677 79.2526 304.631 80.0385 303.865C80.8244 303.099 81.8825 302.677 82.9802 302.691L98.03 302.88C99.1276 302.893 100.175 303.342 100.941 304.128C101.708 304.913 102.131 305.97 102.117 307.067C102.103 308.164 101.654 309.211 100.868 309.976C100.082 310.742 99.0237 311.165 97.9261 311.151ZM166.412 311.259C166.394 312.455 165.902 313.594 165.046 314.429C164.189 315.264 163.037 315.726 161.84 315.714L150.553 315.572C149.357 315.554 148.216 315.063 147.381 314.207C146.546 313.351 146.083 312.199 146.095 311.004L146.18 304.236C146.198 303.041 146.69 301.901 147.546 301.067C148.403 300.232 149.555 299.77 150.751 299.782L162.039 299.923C163.235 299.942 164.376 300.433 165.211 301.289C166.046 302.145 166.509 303.296 166.497 304.492L166.412 311.259Z" fill="#005792"/>
<path d="M154.267 309.712L149.728 309.655C149.404 309.651 149.092 309.775 148.86 310.002C148.628 310.228 148.495 310.537 148.491 310.86C148.487 311.184 148.612 311.496 148.838 311.728C149.064 311.96 149.373 312.093 149.698 312.097L154.236 312.154C154.56 312.158 154.872 312.033 155.104 311.807C155.336 311.581 155.469 311.272 155.473 310.948C155.477 310.624 155.352 310.312 155.126 310.08C154.9 309.848 154.591 309.716 154.267 309.712Z" fill="#3F3D56"/>
<path d="M162.645 309.817L158.107 309.76C157.783 309.756 157.47 309.881 157.238 310.107C157.006 310.333 156.874 310.642 156.87 310.966C156.865 311.289 156.99 311.602 157.217 311.834C157.443 312.065 157.752 312.198 158.076 312.202L162.614 312.259C162.938 312.263 163.251 312.138 163.483 311.912C163.715 311.686 163.848 311.377 163.852 311.053C163.856 310.73 163.731 310.417 163.505 310.186C163.278 309.954 162.969 309.821 162.645 309.817Z" fill="#3F3D56"/>
<path d="M154.309 306.265L149.771 306.208C149.447 306.204 149.134 306.329 148.902 306.555C148.67 306.781 148.538 307.09 148.534 307.414C148.53 307.738 148.654 308.05 148.881 308.282C149.107 308.514 149.416 308.646 149.74 308.65L154.279 308.707C154.603 308.711 154.915 308.586 155.147 308.36C155.379 308.134 155.512 307.825 155.516 307.502C155.52 307.178 155.395 306.865 155.169 306.634C154.942 306.402 154.633 306.269 154.309 306.265Z" fill="#3F3D56"/>
<path d="M162.688 306.37L158.149 306.313C157.825 306.309 157.513 306.434 157.281 306.66C157.049 306.886 156.916 307.195 156.912 307.519C156.908 307.843 157.033 308.155 157.259 308.387C157.485 308.619 157.795 308.751 158.119 308.755L162.657 308.812C162.981 308.816 163.293 308.692 163.525 308.466C163.758 308.239 163.89 307.931 163.894 307.607C163.898 307.283 163.773 306.971 163.547 306.739C163.321 306.507 163.012 306.374 162.688 306.37Z" fill="#3F3D56"/>
<path d="M154.352 302.888L149.813 302.831C149.489 302.827 149.177 302.952 148.945 303.178C148.713 303.404 148.58 303.713 148.576 304.037C148.572 304.361 148.697 304.673 148.923 304.905C149.149 305.137 149.459 305.269 149.783 305.273L154.321 305.33C154.645 305.334 154.957 305.21 155.189 304.983C155.421 304.757 155.554 304.448 155.558 304.125C155.562 303.801 155.437 303.489 155.211 303.257C154.985 303.025 154.676 302.892 154.352 302.888Z" fill="#3F3D56"/>
<path d="M162.73 302.994L158.192 302.937C157.868 302.933 157.555 303.057 157.323 303.283C157.091 303.509 156.959 303.818 156.955 304.142C156.95 304.466 157.075 304.778 157.302 305.01C157.528 305.242 157.837 305.374 158.161 305.379L162.699 305.436C163.023 305.44 163.336 305.315 163.568 305.089C163.8 304.863 163.933 304.554 163.937 304.23C163.941 303.906 163.816 303.594 163.59 303.362C163.363 303.13 163.054 302.998 162.73 302.994Z" fill="#3F3D56"/>
<path d="M224.868 284.98L213.862 284.841L213.724 295.84L224.73 295.978L224.868 284.98Z" fill="#E6E6E6"/>
<path d="M200.807 291.356L218.888 291.583L218.661 309.651L200.58 309.424L200.807 291.356ZM218.092 292.359L201.583 292.151L201.376 308.648L217.885 308.856L218.092 292.359Z" fill="#3F3D56"/>
<path d="M277.768 395.02L272.949 394.959L270.89 376.356L278.003 376.446L277.768 395.02Z" fill="#FFB8B8"/>
<path d="M269.525 393.54L278.818 393.657L278.745 399.504L263.6 399.314C263.619 397.763 264.254 396.283 265.365 395.201C266.477 394.118 267.973 393.52 269.525 393.54Z" fill="#2F2E41"/>
<path d="M301.746 395.321L296.927 395.26L294.868 376.658L301.98 376.747L301.746 395.321Z" fill="#FFB8B8"/>
<path d="M293.502 393.841L302.796 393.958L302.722 399.805L287.577 399.615C287.596 398.064 288.232 396.585 289.343 395.502C290.454 394.419 291.95 393.822 293.502 393.841Z" fill="#2F2E41"/>
<path d="M254.429 328.291C254.088 327.776 253.865 327.193 253.775 326.583C253.684 325.972 253.729 325.35 253.905 324.759C254.082 324.167 254.386 323.622 254.796 323.161C255.206 322.7 255.713 322.334 256.28 322.09L273.228 277.178L281.234 281.675L261.988 324.556C262.335 325.535 262.312 326.607 261.921 327.57C261.53 328.532 260.8 329.318 259.868 329.779C258.936 330.239 257.868 330.342 256.865 330.068C255.863 329.793 254.996 329.161 254.429 328.291Z" fill="#FFB8B8"/>
<path d="M300.012 337.343C299.481 337.029 299.024 336.603 298.675 336.094C298.326 335.585 298.093 335.006 297.992 334.397C297.892 333.788 297.926 333.165 298.092 332.571C298.258 331.977 298.553 331.427 298.955 330.959L294.48 283.168L303.648 283.702L305.168 330.674C305.909 331.402 306.359 332.376 306.43 333.412C306.501 334.448 306.189 335.474 305.554 336.296C304.919 337.118 304.004 337.679 302.982 337.872C301.961 338.064 300.904 337.876 300.012 337.342V337.343Z" fill="#FFB8B8"/>
<path d="M286.234 268.983C291.566 269.05 295.943 264.785 296.01 259.457C296.077 254.129 291.809 249.755 286.477 249.688C281.145 249.621 276.768 253.886 276.701 259.214C276.634 264.542 280.903 268.916 286.234 268.983Z" fill="#FFB8B8"/>
<path d="M300.087 326.487L270.981 326.122L271.019 325.896C271.076 325.558 276.633 292.009 272.984 280.964C272.617 279.879 272.666 278.696 273.119 277.644C273.573 276.592 274.4 275.745 275.441 275.266H275.442C280.887 272.787 291.317 269.781 299.992 277.503C301.269 278.658 302.258 280.094 302.884 281.697C303.509 283.3 303.753 285.026 303.595 286.739L300.087 326.487Z" fill="#00204A"/>
<path d="M276.938 296.981L263.868 294.16L270.193 279.692C270.578 278.288 271.505 277.094 272.77 276.372C274.035 275.65 275.535 275.458 276.942 275.84C278.348 276.222 279.545 277.145 280.271 278.407C280.996 279.67 281.191 281.169 280.813 282.575L276.938 296.981Z" fill="#00204A"/>
<path d="M293.659 302.124L293.098 284.069C292.543 280.67 294.527 277.487 297.522 277.001C300.518 276.516 303.408 278.905 303.965 282.33L306.714 299.228L293.659 302.124Z" fill="#00204A"/>
<path d="M299.146 324.315C303.605 342.197 303.831 364.864 302.257 389.566L295.978 388.702L285.171 341.424L278.28 389.265L271.21 388.784C269.422 362.821 267.643 340.53 271.213 325.928L299.146 324.315Z" fill="#2F2E41"/>
<path d="M292.623 266.871C290.798 268.766 287.466 267.695 287.264 265.073C287.249 264.869 287.252 264.664 287.276 264.462C287.412 263.303 288.096 262.258 287.95 261.031C287.918 260.726 287.808 260.434 287.631 260.183C286.22 258.244 282.816 260.982 281.483 259.226C280.666 258.15 281.663 256.483 281.041 255.284C280.219 253.701 277.718 254.445 276.166 253.564C274.44 252.584 274.578 249.92 275.742 248.314C277.163 246.354 279.623 245.33 282.041 245.208C284.46 245.086 286.851 245.769 289.096 246.676C291.647 247.706 294.172 249.118 295.721 251.39C297.604 254.153 297.743 257.838 296.743 261.028C296.135 262.969 294.114 265.324 292.623 266.871Z" fill="#2F2E41"/>
<path d="M111.92 35L111.884 19.88L104.468 32.336H101.84L94.46 20.204V35H88.988V9.8H93.812L103.244 25.46L112.532 9.8H117.32L117.392 35H111.92ZM132.191 35.288C130.151 35.288 128.315 34.868 126.683 34.028C125.075 33.164 123.815 31.976 122.903 30.464C121.991 28.952 121.535 27.236 121.535 25.316C121.535 23.396 121.991 21.68 122.903 20.168C123.815 18.656 125.075 17.48 126.683 16.64C128.315 15.776 130.151 15.344 132.191 15.344C134.231 15.344 136.055 15.776 137.663 16.64C139.271 17.48 140.531 18.656 141.443 20.168C142.355 21.68 142.811 23.396 142.811 25.316C142.811 27.236 142.355 28.952 141.443 30.464C140.531 31.976 139.271 33.164 137.663 34.028C136.055 34.868 134.231 35.288 132.191 35.288ZM132.191 30.68C133.631 30.68 134.807 30.2 135.719 29.24C136.655 28.256 137.123 26.948 137.123 25.316C137.123 23.684 136.655 22.388 135.719 21.428C134.807 20.444 133.631 19.952 132.191 19.952C130.751 19.952 129.563 20.444 128.627 21.428C127.691 22.388 127.223 23.684 127.223 25.316C127.223 26.948 127.691 28.256 128.627 29.24C129.563 30.2 130.751 30.68 132.191 30.68ZM158.013 15.344C159.813 15.344 161.445 15.764 162.909 16.604C164.397 17.42 165.561 18.584 166.401 20.096C167.241 21.584 167.661 23.324 167.661 25.316C167.661 27.308 167.241 29.06 166.401 30.572C165.561 32.06 164.397 33.224 162.909 34.064C161.445 34.88 159.813 35.288 158.013 35.288C155.349 35.288 153.321 34.448 151.929 32.768V35H146.565V8.288H152.181V17.684C153.597 16.124 155.541 15.344 158.013 15.344ZM157.041 30.68C158.481 30.68 159.657 30.2 160.569 29.24C161.505 28.256 161.973 26.948 161.973 25.316C161.973 23.684 161.505 22.388 160.569 21.428C159.657 20.444 158.481 19.952 157.041 19.952C155.601 19.952 154.413 20.444 153.477 21.428C152.565 22.388 152.109 23.684 152.109 25.316C152.109 26.948 152.565 28.256 153.477 29.24C154.413 30.2 155.601 30.68 157.041 30.68ZM171.42 15.632H177.036V35H171.42V15.632ZM174.228 12.932C173.196 12.932 172.356 12.632 171.708 12.032C171.06 11.432 170.736 10.688 170.736 9.8C170.736 8.912 171.06 8.168 171.708 7.568C172.356 6.968 173.196 6.668 174.228 6.668C175.26 6.668 176.1 6.956 176.748 7.532C177.396 8.108 177.72 8.828 177.72 9.692C177.72 10.628 177.396 11.408 176.748 12.032C176.1 12.632 175.26 12.932 174.228 12.932ZM182.248 8.288H187.864V35H182.248V8.288ZM212.048 25.388C212.048 25.46 212.012 25.964 211.94 26.9H197.288C197.552 28.1 198.176 29.048 199.16 29.744C200.144 30.44 201.368 30.788 202.832 30.788C203.84 30.788 204.728 30.644 205.496 30.356C206.288 30.044 207.02 29.564 207.692 28.916L210.68 32.156C208.856 34.244 206.192 35.288 202.688 35.288C200.504 35.288 198.572 34.868 196.892 34.028C195.212 33.164 193.916 31.976 193.004 30.464C192.092 28.952 191.636 27.236 191.636 25.316C191.636 23.42 192.08 21.716 192.968 20.204C193.88 18.668 195.116 17.48 196.676 16.64C198.26 15.776 200.024 15.344 201.968 15.344C203.864 15.344 205.58 15.752 207.116 16.568C208.652 17.384 209.852 18.56 210.716 20.096C211.604 21.608 212.048 23.372 212.048 25.388ZM202.004 19.592C200.732 19.592 199.664 19.952 198.8 20.672C197.936 21.392 197.408 22.376 197.216 23.624H206.756C206.564 22.4 206.036 21.428 205.172 20.708C204.308 19.964 203.252 19.592 202.004 19.592ZM237.431 15.344C239.231 15.344 240.863 15.764 242.327 16.604C243.815 17.42 244.979 18.584 245.819 20.096C246.659 21.584 247.079 23.324 247.079 25.316C247.079 27.308 246.659 29.06 245.819 30.572C244.979 32.06 243.815 33.224 242.327 34.064C240.863 34.88 239.231 35.288 237.431 35.288C234.959 35.288 233.015 34.508 231.599 32.948V41.984H225.983V15.632H231.347V17.864C232.739 16.184 234.767 15.344 237.431 15.344ZM236.459 30.68C237.899 30.68 239.075 30.2 239.987 29.24C240.923 28.256 241.391 26.948 241.391 25.316C241.391 23.684 240.923 22.388 239.987 21.428C239.075 20.444 237.899 19.952 236.459 19.952C235.019 19.952 233.831 20.444 232.895 21.428C231.983 22.388 231.527 23.684 231.527 25.316C231.527 26.948 231.983 28.256 232.895 29.24C233.831 30.2 235.019 30.68 236.459 30.68ZM258.334 15.344C261.334 15.344 263.638 16.064 265.246 17.504C266.854 18.92 267.658 21.068 267.658 23.948V35H262.402V32.588C261.346 34.388 259.378 35.288 256.498 35.288C255.01 35.288 253.714 35.036 252.61 34.532C251.53 34.028 250.702 33.332 250.126 32.444C249.55 31.556 249.262 30.548 249.262 29.42C249.262 27.62 249.934 26.204 251.278 25.172C252.646 24.14 254.746 23.624 257.578 23.624H262.042C262.042 22.4 261.67 21.464 260.926 20.816C260.182 20.144 259.066 19.808 257.578 19.808C256.546 19.808 255.526 19.976 254.518 20.312C253.534 20.624 252.694 21.056 251.998 21.608L249.982 17.684C251.038 16.94 252.298 16.364 253.762 15.956C255.25 15.548 256.774 15.344 258.334 15.344ZM257.902 31.508C258.862 31.508 259.714 31.292 260.458 30.86C261.202 30.404 261.73 29.744 262.042 28.88V26.9H258.19C255.886 26.9 254.734 27.656 254.734 29.168C254.734 29.888 255.01 30.464 255.562 30.896C256.138 31.304 256.918 31.508 257.902 31.508ZM291.613 15.632L282.865 36.188C281.977 38.42 280.873 39.992 279.553 40.904C278.257 41.816 276.685 42.272 274.837 42.272C273.829 42.272 272.833 42.116 271.849 41.804C270.865 41.492 270.061 41.06 269.437 40.508L271.489 36.512C271.921 36.896 272.413 37.196 272.965 37.412C273.541 37.628 274.105 37.736 274.657 37.736C275.425 37.736 276.049 37.544 276.529 37.16C277.009 36.8 277.441 36.188 277.825 35.324L277.897 35.144L269.509 15.632H275.305L280.741 28.772L286.213 15.632H291.613Z" fill="url(#paint0_linear)"/>
<defs>
<filter id="filter0_d" x="41" y="53" width="280" height="341" filterUnits="userSpaceOnUse" color-interpolation-filters="sRGB">
<feFlood flood-opacity="0" result="BackgroundImageFix"/>
<feColorMatrix in="SourceAlpha" type="matrix" values="0 0 0 0 0 0 0 0 0 0 0 0 0 0 0 0 0 0 127 0" result="hardAlpha"/>
<feOffset dy="4"/>
<feGaussianBlur stdDeviation="2"/>
<feColorMatrix type="matrix" values="0 0 0 0 0 0 0 0 0 0 0 0 0 0 0 0 0 0 0.25 0"/>
<feBlend mode="normal" in2="BackgroundImageFix" result="effect1_dropShadow"/>
<feBlend mode="normal" in="SourceGraphic" in2="effect1_dropShadow" result="shape"/>
</filter>
<linearGradient id="paint0_linear" x1="198.904" y1="-6.63013e-07" x2="202.385" y2="43.9334" gradientUnits="userSpaceOnUse">
<stop stop-color="#005792"/>
<stop offset="1" stop-color="#4B8BDE" stop-opacity="0.57"/>
</linearGradient>
</defs>
</svg>
