<svg width="431" height="58" viewBox="0 0 431 58" fill="none" xmlns="http://www.w3.org/2000/svg">
<g filter="url(#filter0_ddd)">
<path d="M5 7C5 4.791 6.791 3 9 3H422C424.21 3 426 4.791 426 7V47C426 49.209 424.21 51 422 51H9C6.791 51 5 49.209 5 47V7Z" fill="#3C4257"/>
</g>
<path d="M121.562 25.7891C121.562 27.75 121.117 29.3164 120.227 30.4883C119.336 31.6523 118.141 32.2344 116.641 32.2344C115.25 32.2344 114.137 31.7773 113.301 30.8633V36.875H110.453V19.3203H113.078L113.195 20.6094C114.031 19.5938 115.168 19.0859 116.605 19.0859C118.152 19.0859 119.363 19.6641 120.238 20.8203C121.121 21.9688 121.562 23.5664 121.562 25.6133V25.7891ZM118.727 25.543C118.727 24.2773 118.473 23.2734 117.965 22.5312C117.465 21.7891 116.746 21.418 115.809 21.418C114.645 21.418 113.809 21.8984 113.301 22.8594V28.4844C113.816 29.4688 114.66 29.9609 115.832 29.9609C116.738 29.9609 117.445 29.5977 117.953 28.8711C118.469 28.1367 118.727 27.0273 118.727 25.543ZM131.559 32C131.434 31.7578 131.324 31.3633 131.23 30.8164C130.324 31.7617 129.215 32.2344 127.902 32.2344C126.629 32.2344 125.59 31.8711 124.785 31.1445C123.98 30.418 123.578 29.5195 123.578 28.4492C123.578 27.0977 124.078 26.0625 125.078 25.3438C126.086 24.6172 127.523 24.2539 129.391 24.2539H131.137V23.4219C131.137 22.7656 130.953 22.2422 130.586 21.8516C130.219 21.4531 129.66 21.2539 128.91 21.2539C128.262 21.2539 127.73 21.418 127.316 21.7461C126.902 22.0664 126.695 22.4766 126.695 22.9766H123.848C123.848 22.2812 124.078 21.6328 124.539 21.0312C125 20.4219 125.625 19.9453 126.414 19.6016C127.211 19.2578 128.098 19.0859 129.074 19.0859C130.559 19.0859 131.742 19.4609 132.625 20.2109C133.508 20.9531 133.961 22 133.984 23.3516V29.0703C133.984 30.2109 134.145 31.1211 134.465 31.8008V32H131.559ZM128.43 29.9492C128.992 29.9492 129.52 29.8125 130.012 29.5391C130.512 29.2656 130.887 28.8984 131.137 28.4375V26.0469H129.602C128.547 26.0469 127.754 26.2305 127.223 26.5977C126.691 26.9648 126.426 27.4844 126.426 28.1562C126.426 28.7031 126.605 29.1406 126.965 29.4688C127.332 29.7891 127.82 29.9492 128.43 29.9492ZM141.215 27.9219L143.793 19.3203H146.828L141.789 33.9219C141.016 36.0547 139.703 37.1211 137.852 37.1211C137.438 37.1211 136.98 37.0508 136.48 36.9102V34.707L137.02 34.7422C137.738 34.7422 138.277 34.6094 138.637 34.3438C139.004 34.0859 139.293 33.6484 139.504 33.0312L139.914 31.9414L135.461 19.3203H138.531L141.215 27.9219ZM151.152 19.3203L151.234 20.6445C152.125 19.6055 153.344 19.0859 154.891 19.0859C156.586 19.0859 157.746 19.7344 158.371 21.0312C159.293 19.7344 160.59 19.0859 162.262 19.0859C163.66 19.0859 164.699 19.4727 165.379 20.2461C166.066 21.0195 166.418 22.1602 166.434 23.668V32H163.586V23.75C163.586 22.9453 163.41 22.3555 163.059 21.9805C162.707 21.6055 162.125 21.418 161.312 21.418C160.664 21.418 160.133 21.5938 159.719 21.9453C159.312 22.2891 159.027 22.7422 158.863 23.3047L158.875 32H156.027V23.6562C155.988 22.1641 155.227 21.418 153.742 21.418C152.602 21.418 151.793 21.8828 151.316 22.8125V32H148.469V19.3203H151.152ZM174.941 32.2344C173.137 32.2344 171.672 31.668 170.547 30.5352C169.43 29.3945 168.871 27.8789 168.871 25.9883V25.6367C168.871 24.3711 169.113 23.2422 169.598 22.25C170.09 21.25 170.777 20.4727 171.66 19.918C172.543 19.3633 173.527 19.0859 174.613 19.0859C176.34 19.0859 177.672 19.6367 178.609 20.7383C179.555 21.8398 180.027 23.3984 180.027 25.4141V26.5625H171.742C171.828 27.6094 172.176 28.4375 172.785 29.0469C173.402 29.6562 174.176 29.9609 175.105 29.9609C176.41 29.9609 177.473 29.4336 178.293 28.3789L179.828 29.8438C179.32 30.6016 178.641 31.1914 177.789 31.6133C176.945 32.0273 175.996 32.2344 174.941 32.2344ZM174.602 21.3711C173.82 21.3711 173.188 21.6445 172.703 22.1914C172.227 22.7383 171.922 23.5 171.789 24.4766H177.215V24.2656C177.152 23.3125 176.898 22.5938 176.453 22.1094C176.008 21.6172 175.391 21.3711 174.602 21.3711ZM184.891 19.3203L184.973 20.7852C185.91 19.6523 187.141 19.0859 188.664 19.0859C191.305 19.0859 192.648 20.5977 192.695 23.6211V32H189.848V23.7852C189.848 22.9805 189.672 22.3867 189.32 22.0039C188.977 21.6133 188.41 21.418 187.621 21.418C186.473 21.418 185.617 21.9375 185.055 22.9766V32H182.207V19.3203H184.891ZM199.176 16.2383V19.3203H201.414V21.4297H199.176V28.5078C199.176 28.9922 199.27 29.3438 199.457 29.5625C199.652 29.7734 199.996 29.8789 200.488 29.8789C200.816 29.8789 201.148 29.8398 201.484 29.7617V31.9648C200.836 32.1445 200.211 32.2344 199.609 32.2344C197.422 32.2344 196.328 31.0273 196.328 28.6133V21.4297H194.242V19.3203H196.328V16.2383H199.176ZM216.684 28.5547C216.684 28.0469 216.473 27.6602 216.051 27.3945C215.637 27.1289 214.945 26.8945 213.977 26.6914C213.008 26.4883 212.199 26.2305 211.551 25.918C210.129 25.2305 209.418 24.2344 209.418 22.9297C209.418 21.8359 209.879 20.9219 210.801 20.1875C211.723 19.4531 212.895 19.0859 214.316 19.0859C215.832 19.0859 217.055 19.4609 217.984 20.2109C218.922 20.9609 219.391 21.9336 219.391 23.1289H216.543C216.543 22.582 216.34 22.1289 215.934 21.7695C215.527 21.4023 214.988 21.2188 214.316 21.2188C213.691 21.2188 213.18 21.3633 212.781 21.6523C212.391 21.9414 212.195 22.3281 212.195 22.8125C212.195 23.25 212.379 23.5898 212.746 23.832C213.113 24.0742 213.855 24.3203 214.973 24.5703C216.09 24.8125 216.965 25.1055 217.598 25.4492C218.238 25.7852 218.711 26.1914 219.016 26.668C219.328 27.1445 219.484 27.7227 219.484 28.4023C219.484 29.543 219.012 30.4688 218.066 31.1797C217.121 31.8828 215.883 32.2344 214.352 32.2344C213.312 32.2344 212.387 32.0469 211.574 31.6719C210.762 31.2969 210.129 30.7812 209.676 30.125C209.223 29.4688 208.996 28.7617 208.996 28.0039H211.762C211.801 28.6758 212.055 29.1953 212.523 29.5625C212.992 29.9219 213.613 30.1016 214.387 30.1016C215.137 30.1016 215.707 29.9609 216.098 29.6797C216.488 29.3906 216.684 29.0156 216.684 28.5547ZM229.656 30.7578C228.82 31.7422 227.633 32.2344 226.094 32.2344C224.719 32.2344 223.676 31.832 222.965 31.0273C222.262 30.2227 221.91 29.0586 221.91 27.5352V19.3203H224.758V27.5C224.758 29.1094 225.426 29.9141 226.762 29.9141C228.145 29.9141 229.078 29.418 229.562 28.4258V19.3203H232.41V32H229.727L229.656 30.7578ZM237.988 19.3203L238.07 20.6445C238.961 19.6055 240.18 19.0859 241.727 19.0859C243.422 19.0859 244.582 19.7344 245.207 21.0312C246.129 19.7344 247.426 19.0859 249.098 19.0859C250.496 19.0859 251.535 19.4727 252.215 20.2461C252.902 21.0195 253.254 22.1602 253.27 23.668V32H250.422V23.75C250.422 22.9453 250.246 22.3555 249.895 21.9805C249.543 21.6055 248.961 21.418 248.148 21.418C247.5 21.418 246.969 21.5938 246.555 21.9453C246.148 22.2891 245.863 22.7422 245.699 23.3047L245.711 32H242.863V23.6562C242.824 22.1641 242.062 21.418 240.578 21.418C239.438 21.418 238.629 21.8828 238.152 22.8125V32H235.305V19.3203H237.988ZM258.871 19.3203L258.953 20.6445C259.844 19.6055 261.062 19.0859 262.609 19.0859C264.305 19.0859 265.465 19.7344 266.09 21.0312C267.012 19.7344 268.309 19.0859 269.98 19.0859C271.379 19.0859 272.418 19.4727 273.098 20.2461C273.785 21.0195 274.137 22.1602 274.152 23.668V32H271.305V23.75C271.305 22.9453 271.129 22.3555 270.777 21.9805C270.426 21.6055 269.844 21.418 269.031 21.418C268.383 21.418 267.852 21.5938 267.438 21.9453C267.031 22.2891 266.746 22.7422 266.582 23.3047L266.594 32H263.746V23.6562C263.707 22.1641 262.945 21.418 261.461 21.418C260.32 21.418 259.512 21.8828 259.035 22.8125V32H256.188V19.3203H258.871ZM284.652 32C284.527 31.7578 284.418 31.3633 284.324 30.8164C283.418 31.7617 282.309 32.2344 280.996 32.2344C279.723 32.2344 278.684 31.8711 277.879 31.1445C277.074 30.418 276.672 29.5195 276.672 28.4492C276.672 27.0977 277.172 26.0625 278.172 25.3438C279.18 24.6172 280.617 24.2539 282.484 24.2539H284.23V23.4219C284.23 22.7656 284.047 22.2422 283.68 21.8516C283.312 21.4531 282.754 21.2539 282.004 21.2539C281.355 21.2539 280.824 21.418 280.41 21.7461C279.996 22.0664 279.789 22.4766 279.789 22.9766H276.941C276.941 22.2812 277.172 21.6328 277.633 21.0312C278.094 20.4219 278.719 19.9453 279.508 19.6016C280.305 19.2578 281.191 19.0859 282.168 19.0859C283.652 19.0859 284.836 19.4609 285.719 20.2109C286.602 20.9531 287.055 22 287.078 23.3516V29.0703C287.078 30.2109 287.238 31.1211 287.559 31.8008V32H284.652ZM281.523 29.9492C282.086 29.9492 282.613 29.8125 283.105 29.5391C283.605 29.2656 283.98 28.8984 284.23 28.4375V26.0469H282.695C281.641 26.0469 280.848 26.2305 280.316 26.5977C279.785 26.9648 279.52 27.4844 279.52 28.1562C279.52 28.7031 279.699 29.1406 280.059 29.4688C280.426 29.7891 280.914 29.9492 281.523 29.9492ZM296.699 21.9219C296.324 21.8594 295.938 21.8281 295.539 21.8281C294.234 21.8281 293.355 22.3281 292.902 23.3281V32H290.055V19.3203H292.773L292.844 20.7383C293.531 19.6367 294.484 19.0859 295.703 19.0859C296.109 19.0859 296.445 19.1406 296.711 19.25L296.699 21.9219ZM305.723 32C305.598 31.7578 305.488 31.3633 305.395 30.8164C304.488 31.7617 303.379 32.2344 302.066 32.2344C300.793 32.2344 299.754 31.8711 298.949 31.1445C298.145 30.418 297.742 29.5195 297.742 28.4492C297.742 27.0977 298.242 26.0625 299.242 25.3438C300.25 24.6172 301.688 24.2539 303.555 24.2539H305.301V23.4219C305.301 22.7656 305.117 22.2422 304.75 21.8516C304.383 21.4531 303.824 21.2539 303.074 21.2539C302.426 21.2539 301.895 21.418 301.48 21.7461C301.066 22.0664 300.859 22.4766 300.859 22.9766H298.012C298.012 22.2812 298.242 21.6328 298.703 21.0312C299.164 20.4219 299.789 19.9453 300.578 19.6016C301.375 19.2578 302.262 19.0859 303.238 19.0859C304.723 19.0859 305.906 19.4609 306.789 20.2109C307.672 20.9531 308.125 22 308.148 23.3516V29.0703C308.148 30.2109 308.309 31.1211 308.629 31.8008V32H305.723ZM302.594 29.9492C303.156 29.9492 303.684 29.8125 304.176 29.5391C304.676 29.2656 305.051 28.8984 305.301 28.4375V26.0469H303.766C302.711 26.0469 301.918 26.2305 301.387 26.5977C300.855 26.9648 300.59 27.4844 300.59 28.1562C300.59 28.7031 300.77 29.1406 301.129 29.4688C301.496 29.7891 301.984 29.9492 302.594 29.9492ZM315.379 27.9219L317.957 19.3203H320.992L315.953 33.9219C315.18 36.0547 313.867 37.1211 312.016 37.1211C311.602 37.1211 311.145 37.0508 310.645 36.9102V34.707L311.184 34.7422C311.902 34.7422 312.441 34.6094 312.801 34.3438C313.168 34.0859 313.457 33.6484 313.668 33.0312L314.078 31.9414L309.625 19.3203H312.695L315.379 27.9219Z" fill="white"/>
<defs>
<filter id="filter0_ddd" x="0" y="0" width="431" height="58" filterUnits="userSpaceOnUse" color-interpolation-filters="sRGB">
<feFlood flood-opacity="0" result="BackgroundImageFix"/>
<feColorMatrix in="SourceAlpha" type="matrix" values="0 0 0 0 0 0 0 0 0 0 0 0 0 0 0 0 0 0 127 0" result="hardAlpha"/>
<feOffset dy="1"/>
<feGaussianBlur stdDeviation="0.5"/>
<feColorMatrix type="matrix" values="0 0 0 0 0 0 0 0 0 0 0 0 0 0 0 0 0 0 0.08 0"/>
<feBlend mode="normal" in2="BackgroundImageFix" result="effect1_dropShadow"/>
<feColorMatrix in="SourceAlpha" type="matrix" values="0 0 0 0 0 0 0 0 0 0 0 0 0 0 0 0 0 0 127 0" result="hardAlpha"/>
<feOffset dy="2"/>
<feGaussianBlur stdDeviation="2.5"/>
<feColorMatrix type="matrix" values="0 0 0 0 0 0 0 0 0 0 0 0 0 0 0 0 0 0 0.12 0"/>
<feBlend mode="normal" in2="effect1_dropShadow" result="effect2_dropShadow"/>
<feColorMatrix in="SourceAlpha" type="matrix" values="0 0 0 0 0 0 0 0 0 0 0 0 0 0 0 0 0 0 127 0" result="hardAlpha"/>
<feOffset dy="-1"/>
<feGaussianBlur stdDeviation="0.5"/>
<feColorMatrix type="matrix" values="0 0 0 0 0 0 0 0 0 0 0 0 0 0 0 0 0 0 0.12 0"/>
<feBlend mode="normal" in2="effect2_dropShadow" result="effect3_dropShadow"/>
<feBlend mode="normal" in="SourceGraphic" in2="effect3_dropShadow" result="shape"/>
</filter>
</defs>
</svg>
