<svg width="421" height="48" viewBox="0 0 421 48" fill="none" xmlns="http://www.w3.org/2000/svg">
<path d="M0 4C0 1.79086 1.79086 0 4 0H417C419.209 0 421 1.79086 421 4V44C421 46.2091 419.209 48 417 48H3.99999C1.79085 48 0 46.2091 0 44V4Z" fill="#3C4257"/>
<path d="M123.905 17.4C124.997 17.4 125.945 17.58 126.749 17.94C127.565 18.3 128.189 18.816 128.621 19.488C129.053 20.16 129.269 20.958 129.269 21.882C129.269 22.794 129.053 23.592 128.621 24.276C128.189 24.948 127.565 25.464 126.749 25.824C125.945 26.184 124.997 26.364 123.905 26.364H121.061V30H118.721V17.4H123.905ZM123.797 24.384C124.817 24.384 125.591 24.168 126.119 23.736C126.647 23.304 126.911 22.686 126.911 21.882C126.911 21.078 126.647 20.46 126.119 20.028C125.591 19.596 124.817 19.38 123.797 19.38H121.061V24.384H123.797ZM134.974 20.28C136.39 20.28 137.47 20.622 138.214 21.306C138.97 21.978 139.348 22.998 139.348 24.366V30H137.224V28.83C136.948 29.25 136.552 29.574 136.036 29.802C135.532 30.018 134.92 30.126 134.2 30.126C133.48 30.126 132.85 30.006 132.31 29.766C131.77 29.514 131.35 29.172 131.05 28.74C130.762 28.296 130.618 27.798 130.618 27.246C130.618 26.382 130.936 25.692 131.572 25.176C132.22 24.648 133.234 24.384 134.614 24.384H137.098V24.24C137.098 23.568 136.894 23.052 136.486 22.692C136.09 22.332 135.496 22.152 134.704 22.152C134.164 22.152 133.63 22.236 133.102 22.404C132.586 22.572 132.148 22.806 131.788 23.106L130.906 21.468C131.41 21.084 132.016 20.79 132.724 20.586C133.432 20.382 134.182 20.28 134.974 20.28ZM134.668 28.488C135.232 28.488 135.73 28.362 136.162 28.11C136.606 27.846 136.918 27.474 137.098 26.994V25.878H134.776C133.48 25.878 132.832 26.304 132.832 27.156C132.832 27.564 132.994 27.888 133.318 28.128C133.642 28.368 134.092 28.488 134.668 28.488ZM151.06 20.388L146.56 30.774C146.14 31.818 145.63 32.55 145.03 32.97C144.43 33.402 143.704 33.618 142.852 33.618C142.372 33.618 141.898 33.54 141.43 33.384C140.962 33.228 140.578 33.012 140.278 32.736L141.178 31.08C141.394 31.284 141.646 31.446 141.934 31.566C142.234 31.686 142.534 31.746 142.834 31.746C143.23 31.746 143.554 31.644 143.806 31.44C144.07 31.236 144.31 30.894 144.526 30.414L144.688 30.036L140.494 20.388H142.834L145.858 27.498L148.9 20.388H151.06ZM172.435 20.388L168.889 30H166.729L164.245 23.376L161.725 30H159.565L156.037 20.388H158.161L160.699 27.48L163.345 20.388H165.235L167.827 27.516L170.437 20.388H172.435ZM173.982 20.388H176.232V30H173.982V20.388ZM175.116 18.804C174.708 18.804 174.366 18.678 174.09 18.426C173.814 18.162 173.676 17.838 173.676 17.454C173.676 17.07 173.814 16.752 174.09 16.5C174.366 16.236 174.708 16.104 175.116 16.104C175.524 16.104 175.866 16.23 176.142 16.482C176.418 16.722 176.556 17.028 176.556 17.4C176.556 17.796 176.418 18.132 176.142 18.408C175.878 18.672 175.536 18.804 175.116 18.804ZM184.963 29.478C184.699 29.694 184.375 29.856 183.991 29.964C183.619 30.072 183.223 30.126 182.803 30.126C181.747 30.126 180.931 29.85 180.355 29.298C179.779 28.746 179.491 27.942 179.491 26.886V22.26H177.907V20.46H179.491V18.264H181.741V20.46H184.315V22.26H181.741V26.832C181.741 27.3 181.855 27.66 182.083 27.912C182.311 28.152 182.641 28.272 183.073 28.272C183.577 28.272 183.997 28.14 184.333 27.876L184.963 29.478ZM192.268 20.28C193.48 20.28 194.452 20.634 195.184 21.342C195.916 22.05 196.282 23.1 196.282 24.492V30H194.032V24.78C194.032 23.94 193.834 23.31 193.438 22.89C193.042 22.458 192.478 22.242 191.746 22.242C190.918 22.242 190.264 22.494 189.784 22.998C189.304 23.49 189.064 24.204 189.064 25.14V30H186.814V16.644H189.064V21.504C189.436 21.108 189.892 20.808 190.432 20.604C190.984 20.388 191.596 20.28 192.268 20.28ZM208.521 30.126C207.525 30.126 206.631 29.916 205.839 29.496C205.047 29.076 204.429 28.494 203.985 27.75C203.541 26.994 203.319 26.142 203.319 25.194C203.319 24.246 203.541 23.4 203.985 22.656C204.429 21.912 205.041 21.33 205.821 20.91C206.613 20.49 207.513 20.28 208.521 20.28C209.469 20.28 210.297 20.472 211.005 20.856C211.725 21.24 212.265 21.792 212.625 22.512L210.897 23.52C210.621 23.076 210.273 22.746 209.853 22.53C209.445 22.302 208.995 22.188 208.503 22.188C207.663 22.188 206.967 22.464 206.415 23.016C205.863 23.556 205.587 24.282 205.587 25.194C205.587 26.106 205.857 26.838 206.397 27.39C206.949 27.93 207.651 28.2 208.503 28.2C208.995 28.2 209.445 28.092 209.853 27.876C210.273 27.648 210.621 27.312 210.897 26.868L212.625 27.876C212.253 28.596 211.707 29.154 210.987 29.55C210.279 29.934 209.457 30.126 208.521 30.126ZM216.712 21.792C217.36 20.784 218.5 20.28 220.132 20.28V22.422C219.94 22.386 219.766 22.368 219.61 22.368C218.734 22.368 218.05 22.626 217.558 23.142C217.066 23.646 216.82 24.378 216.82 25.338V30H214.57V20.388H216.712V21.792ZM230.989 25.248C230.989 25.404 230.977 25.626 230.953 25.914H223.411C223.543 26.622 223.885 27.186 224.437 27.606C225.001 28.014 225.697 28.218 226.525 28.218C227.581 28.218 228.451 27.87 229.135 27.174L230.341 28.56C229.909 29.076 229.363 29.466 228.703 29.73C228.043 29.994 227.299 30.126 226.471 30.126C225.415 30.126 224.485 29.916 223.681 29.496C222.877 29.076 222.253 28.494 221.809 27.75C221.377 26.994 221.161 26.142 221.161 25.194C221.161 24.258 221.371 23.418 221.791 22.674C222.223 21.918 222.817 21.33 223.573 20.91C224.329 20.49 225.181 20.28 226.129 20.28C227.065 20.28 227.899 20.49 228.631 20.91C229.375 21.318 229.951 21.9 230.359 22.656C230.779 23.4 230.989 24.264 230.989 25.248ZM226.129 22.08C225.409 22.08 224.797 22.296 224.293 22.728C223.801 23.148 223.501 23.712 223.393 24.42H228.847C228.751 23.724 228.457 23.16 227.965 22.728C227.473 22.296 226.861 22.08 226.129 22.08ZM242.564 16.644V30H240.404V28.758C240.032 29.214 239.57 29.556 239.018 29.784C238.478 30.012 237.878 30.126 237.218 30.126C236.294 30.126 235.46 29.922 234.716 29.514C233.984 29.106 233.408 28.53 232.988 27.786C232.568 27.03 232.358 26.166 232.358 25.194C232.358 24.222 232.568 23.364 232.988 22.62C233.408 21.876 233.984 21.3 234.716 20.892C235.46 20.484 236.294 20.28 237.218 20.28C237.854 20.28 238.436 20.388 238.964 20.604C239.492 20.82 239.942 21.144 240.314 21.576V16.644H242.564ZM237.488 28.2C238.028 28.2 238.514 28.08 238.946 27.84C239.378 27.588 239.72 27.234 239.972 26.778C240.224 26.322 240.35 25.794 240.35 25.194C240.35 24.594 240.224 24.066 239.972 23.61C239.72 23.154 239.378 22.806 238.946 22.566C238.514 22.314 238.028 22.188 237.488 22.188C236.948 22.188 236.462 22.314 236.03 22.566C235.598 22.806 235.256 23.154 235.004 23.61C234.752 24.066 234.626 24.594 234.626 25.194C234.626 25.794 234.752 26.322 235.004 26.778C235.256 27.234 235.598 27.588 236.03 27.84C236.462 28.08 236.948 28.2 237.488 28.2ZM245.507 20.388H247.757V30H245.507V20.388ZM246.641 18.804C246.233 18.804 245.891 18.678 245.615 18.426C245.339 18.162 245.201 17.838 245.201 17.454C245.201 17.07 245.339 16.752 245.615 16.5C245.891 16.236 246.233 16.104 246.641 16.104C247.049 16.104 247.391 16.23 247.667 16.482C247.943 16.722 248.081 17.028 248.081 17.4C248.081 17.796 247.943 18.132 247.667 18.408C247.403 18.672 247.061 18.804 246.641 18.804ZM256.488 29.478C256.224 29.694 255.9 29.856 255.516 29.964C255.144 30.072 254.748 30.126 254.328 30.126C253.272 30.126 252.456 29.85 251.88 29.298C251.304 28.746 251.016 27.942 251.016 26.886V22.26H249.432V20.46H251.016V18.264H253.266V20.46H255.84V22.26H253.266V26.832C253.266 27.3 253.38 27.66 253.608 27.912C253.836 28.152 254.166 28.272 254.598 28.272C255.102 28.272 255.522 28.14 255.858 27.876L256.488 29.478ZM267.724 30.126C266.728 30.126 265.834 29.916 265.042 29.496C264.25 29.076 263.632 28.494 263.188 27.75C262.744 26.994 262.522 26.142 262.522 25.194C262.522 24.246 262.744 23.4 263.188 22.656C263.632 21.912 264.244 21.33 265.024 20.91C265.816 20.49 266.716 20.28 267.724 20.28C268.672 20.28 269.5 20.472 270.208 20.856C270.928 21.24 271.468 21.792 271.828 22.512L270.1 23.52C269.824 23.076 269.476 22.746 269.056 22.53C268.648 22.302 268.198 22.188 267.706 22.188C266.866 22.188 266.17 22.464 265.618 23.016C265.066 23.556 264.79 24.282 264.79 25.194C264.79 26.106 265.06 26.838 265.6 27.39C266.152 27.93 266.854 28.2 267.706 28.2C268.198 28.2 268.648 28.092 269.056 27.876C269.476 27.648 269.824 27.312 270.1 26.868L271.828 27.876C271.456 28.596 270.91 29.154 270.19 29.55C269.482 29.934 268.66 30.126 267.724 30.126ZM277.445 20.28C278.861 20.28 279.941 20.622 280.685 21.306C281.441 21.978 281.819 22.998 281.819 24.366V30H279.695V28.83C279.419 29.25 279.023 29.574 278.507 29.802C278.003 30.018 277.391 30.126 276.671 30.126C275.951 30.126 275.321 30.006 274.781 29.766C274.241 29.514 273.821 29.172 273.521 28.74C273.233 28.296 273.089 27.798 273.089 27.246C273.089 26.382 273.407 25.692 274.043 25.176C274.691 24.648 275.705 24.384 277.085 24.384H279.569V24.24C279.569 23.568 279.365 23.052 278.957 22.692C278.561 22.332 277.967 22.152 277.175 22.152C276.635 22.152 276.101 22.236 275.573 22.404C275.057 22.572 274.619 22.806 274.259 23.106L273.377 21.468C273.881 21.084 274.487 20.79 275.195 20.586C275.903 20.382 276.653 20.28 277.445 20.28ZM277.139 28.488C277.703 28.488 278.201 28.362 278.633 28.11C279.077 27.846 279.389 27.474 279.569 26.994V25.878H277.247C275.951 25.878 275.303 26.304 275.303 27.156C275.303 27.564 275.465 27.888 275.789 28.128C276.113 28.368 276.563 28.488 277.139 28.488ZM286.848 21.792C287.496 20.784 288.636 20.28 290.268 20.28V22.422C290.076 22.386 289.902 22.368 289.746 22.368C288.87 22.368 288.186 22.626 287.694 23.142C287.202 23.646 286.956 24.378 286.956 25.338V30H284.706V20.388H286.848V21.792ZM301.503 16.644V30H299.343V28.758C298.971 29.214 298.509 29.556 297.957 29.784C297.417 30.012 296.817 30.126 296.157 30.126C295.233 30.126 294.399 29.922 293.655 29.514C292.923 29.106 292.347 28.53 291.927 27.786C291.507 27.03 291.297 26.166 291.297 25.194C291.297 24.222 291.507 23.364 291.927 22.62C292.347 21.876 292.923 21.3 293.655 20.892C294.399 20.484 295.233 20.28 296.157 20.28C296.793 20.28 297.375 20.388 297.903 20.604C298.431 20.82 298.881 21.144 299.253 21.576V16.644H301.503ZM296.427 28.2C296.967 28.2 297.453 28.08 297.885 27.84C298.317 27.588 298.659 27.234 298.911 26.778C299.163 26.322 299.289 25.794 299.289 25.194C299.289 24.594 299.163 24.066 298.911 23.61C298.659 23.154 298.317 22.806 297.885 22.566C297.453 22.314 296.967 22.188 296.427 22.188C295.887 22.188 295.401 22.314 294.969 22.566C294.537 22.806 294.195 23.154 293.943 23.61C293.691 24.066 293.565 24.594 293.565 25.194C293.565 25.794 293.691 26.322 293.943 26.778C294.195 27.234 294.537 27.588 294.969 27.84C295.401 28.08 295.887 28.2 296.427 28.2Z" fill="white"/>
</svg>
