<svg width="322" height="231" viewBox="0 0 322 231" fill="none" xmlns="http://www.w3.org/2000/svg">
<path d="M255.108 182.287C255.108 184.296 244.557 190.151 232.025 190.151C219.492 190.151 209.727 184.296 209.727 182.287C209.727 180.279 219.885 180.925 232.43 180.925C244.974 180.925 255.108 180.275 255.108 182.287Z" fill="#504F60"/>
<path opacity="0.2" d="M255.108 182.287C255.108 184.295 244.557 190.151 232.025 190.151C219.492 190.151 209.727 184.295 209.727 182.287" fill="black"/>
<path d="M128.898 145.434C130.932 145.723 133.042 145.907 134.99 145.206C135.297 145.1 135.635 144.866 135.604 144.525C135.582 144.401 135.535 144.285 135.466 144.185C134.732 142.963 134.115 141.659 133.625 140.294C133.606 140.223 133.566 140.161 133.512 140.117C133.448 140.091 133.379 140.091 133.315 140.117C132.416 140.379 131.64 141.022 130.747 141.298C130.292 141.437 129.817 141.476 129.349 141.414C128.944 141.363 128.391 140.992 128.023 141.039C128.232 142.527 128.741 143.916 128.898 145.434Z" fill="#6C63FF"/>
<path d="M167.366 141.666C168.707 140.645 170.096 139.572 170.888 137.996C170.944 137.902 170.977 137.793 170.983 137.68C170.969 137.568 170.93 137.463 170.869 137.373C170.115 136.043 169.145 134.881 168.007 133.945C167.413 134.41 166.877 134.96 166.412 135.579C166.074 135.974 165.142 136.6 165.132 137.203C165.132 137.543 165.488 137.938 165.654 138.224C165.878 138.592 166.09 138.966 166.292 139.348C166.409 139.535 167.473 141.591 167.366 141.666Z" fill="#6C63FF"/>
<path d="M136.871 149.992C136.895 150.343 136.808 150.692 136.626 150.979C136.482 151.139 136.305 151.256 136.11 151.32C133.266 152.45 129.974 151.041 127.137 152.154C126.554 152.382 126.001 152.712 125.416 152.93C124.717 153.163 123.996 153.305 123.268 153.352C122.265 153.458 121.255 153.526 120.249 153.556C119.485 153.616 118.716 153.542 117.973 153.335C117.601 153.229 117.253 153.038 116.953 152.774C116.652 152.509 116.405 152.177 116.227 151.8C116.073 151.461 116.042 151.07 116.141 150.707C116.186 150.583 116.249 150.468 116.328 150.367C116.521 150.127 116.747 149.924 116.997 149.764L118.043 149.015C118.534 148.63 119.067 148.317 119.629 148.082C120.044 147.933 120.482 147.868 120.903 147.742C122.372 147.266 123.495 145.972 124.538 144.729L125.962 143.044C126.095 142.859 126.263 142.709 126.456 142.605C126.653 142.532 126.863 142.51 127.069 142.541C128.452 142.65 129.787 143.147 130.95 143.984C131.247 144.231 131.568 144.441 131.907 144.61C132.742 144.971 133.812 144.699 134.582 144.243C134.947 144.025 134.868 143.902 135.021 143.514C135.174 143.126 135.549 142.878 135.874 143.232C135.972 143.354 136.042 143.501 136.076 143.661C136.383 144.784 136.267 145.992 136.267 147.17C136.258 147.354 136.278 147.539 136.328 147.715C136.406 147.892 136.5 148.061 136.607 148.219C136.629 148.26 136.649 148.304 136.665 148.348C136.853 148.869 136.924 149.434 136.871 149.992Z" fill="#514E7F"/>
<path d="M136.871 149.992C136.895 150.343 136.808 150.692 136.626 150.979C136.482 151.139 136.305 151.256 136.11 151.32C133.266 152.45 129.974 151.041 127.137 152.154C126.554 152.382 126.001 152.712 125.416 152.93C124.717 153.163 123.996 153.305 123.268 153.352C122.265 153.458 121.255 153.526 120.249 153.556C119.485 153.616 118.716 153.542 117.973 153.335C117.601 153.229 117.253 153.038 116.953 152.774C116.652 152.509 116.405 152.177 116.227 151.8C116.073 151.461 116.042 151.07 116.141 150.707C116.186 150.583 116.249 150.468 116.328 150.367C116.494 150.751 116.614 151.262 116.718 151.446C116.859 151.718 117.051 151.954 117.28 152.138C117.51 152.322 117.772 152.449 118.049 152.511C118.465 152.54 118.881 152.481 119.277 152.338C121.854 151.63 124.593 151.619 127.069 150.547C127.919 150.176 128.729 149.682 129.622 149.458C130.514 149.233 131.462 149.294 132.383 149.209C133.837 149.08 135.245 148.593 136.678 148.338C136.863 148.864 136.929 149.432 136.871 149.992Z" fill="#464353"/>
<path d="M173.879 141.458C173.744 142.656 173.06 143.688 172.308 144.563C171.557 145.438 170.707 146.224 170.109 147.231C169.372 148.481 169.041 150.03 168.084 151.085C167.716 151.469 167.303 151.795 166.857 152.055C166.356 152.383 165.827 152.653 165.277 152.862C163.847 153.369 162.307 153.253 160.813 153.131C160.328 153.126 159.848 153.023 159.395 152.828C159.19 152.712 158.993 152.577 158.806 152.426C158.432 152.17 158.117 151.82 157.886 151.405C157.773 151.179 157.741 150.914 157.797 150.663C157.882 150.386 158.029 150.138 158.224 149.941C158.56 149.553 158.921 149.193 159.303 148.862C159.829 148.486 160.302 148.027 160.709 147.5C160.958 147.084 161.142 146.624 161.252 146.139C161.469 145.289 161.602 144.416 161.647 143.535C161.646 142.949 161.7 142.365 161.81 141.792C162.037 140.893 162.638 140.09 162.571 139.16C162.543 139.027 162.554 138.888 162.601 138.762C162.673 138.664 162.772 138.595 162.884 138.568C163.352 138.361 163.847 138.233 164.35 138.19C164.602 138.171 164.856 138.214 165.091 138.316C165.327 138.419 165.539 138.578 165.712 138.782C165.921 139.062 166.059 139.463 166.366 139.572C166.518 139.618 166.677 139.625 166.832 139.593C167.587 139.508 168.384 139.402 168.98 138.861C169.255 138.587 169.476 138.253 169.629 137.88C169.782 137.507 169.864 137.102 169.869 136.692C169.869 136.383 169.743 136.059 170.176 136.012C170.501 135.964 170.759 136.352 170.925 136.59C171.523 137.479 172.136 138.408 172.36 139.491C172.447 139.453 172.54 139.433 172.633 139.433C172.825 139.431 173.014 139.48 173.184 139.577C173.354 139.673 173.501 139.814 173.612 139.988C173.856 140.427 173.951 140.948 173.879 141.458Z" fill="#514E7F"/>
<path d="M173.879 141.458C173.744 142.656 173.06 143.688 172.308 144.563C171.557 145.438 170.707 146.224 170.109 147.231C169.372 148.481 169.041 150.03 168.084 151.085C167.716 151.469 167.304 151.795 166.857 152.055C166.356 152.383 165.827 152.653 165.277 152.862C163.847 153.369 162.307 153.253 160.813 153.131C160.328 153.126 159.848 153.023 159.396 152.828C159.19 152.712 158.993 152.578 158.806 152.426C158.432 152.17 158.117 151.821 157.886 151.405C158.174 151.252 158.487 151.168 158.806 151.16C159.469 151.201 159.954 151.895 160.589 152.11C161.494 152.413 162.396 151.705 163.313 151.463C163.911 151.306 164.54 151.347 165.132 151.122C165.626 150.911 166.082 150.604 166.479 150.217C167.024 149.785 167.509 149.266 167.918 148.678C168.258 148.09 168.541 147.464 168.762 146.809C169.246 145.556 169.816 144.345 170.468 143.187C170.564 143.004 170.68 142.835 170.814 142.684C170.958 142.537 171.121 142.435 171.284 142.306C171.897 141.792 172.152 140.944 172.367 140.113C172.425 139.861 172.506 139.616 172.609 139.382C172.8 139.38 172.989 139.429 173.16 139.526C173.33 139.622 173.477 139.763 173.588 139.936C173.852 140.386 173.955 140.928 173.879 141.458Z" fill="#464353"/>
<path d="M109.548 35.3245C110.312 35.9594 110.94 36.773 111.389 37.7074C111.819 38.6401 114.294 45.8773 114.15 46.9292C114.957 46.0271 118.138 45.8807 118.955 44.9786C119.295 44.6007 121.133 42.7149 121.409 42.2757C121.685 41.8366 123.734 40.9141 123.958 40.4511C124.796 38.7865 118.019 32.4787 118.887 30.8345C118.935 30.7589 118.96 30.6682 118.958 30.5758C118.938 30.4982 118.898 30.4285 118.844 30.3749C118.289 29.7452 117.553 29.3537 116.884 28.8873C116.215 28.421 115.571 27.7708 115.39 26.9129C114.752 27.2387 114.166 27.678 113.656 28.2133C112.413 29.3957 111.191 30.6019 109.99 31.8319C109.521 32.3153 108.613 32.9587 108.395 33.6497C108.137 34.3918 109.1 34.9194 109.548 35.3245Z" fill="#A1616A"/>
<path d="M120.519 32.6455C119.479 33.4208 118.508 34.3029 117.617 35.2803C116.776 36.2028 115.979 37.2717 115.776 38.5618C115.69 39.0691 115.703 39.5831 115.632 40.0971C115.325 42.3268 113.589 43.9608 112.822 46.0475C112.6 46.6916 112.436 47.3587 112.334 48.0389C112.118 49.3284 112 50.6356 111.981 51.9468C111.963 53.2166 113.086 54.0914 113.497 55.2761C113.908 56.4607 114.018 57.6794 114.227 58.8946C114.62 61.189 115.341 63.4017 116.068 65.6008C117.58 70.2372 122.483 83.0537 123.995 87.6935C128.631 86.4033 140.97 83.4383 145.075 80.7184C146.443 79.813 135.579 69.5972 137.043 68.8925C137.126 68.8781 137.206 68.8423 137.275 68.7879C137.344 68.7335 137.401 68.6621 137.441 68.5792C137.48 68.4963 137.502 68.4043 137.505 68.3104C137.507 68.2165 137.49 68.1233 137.454 68.0381C135.991 60.9371 131.413 55.1025 129.336 48.1887C128.615 45.7888 127.321 43.7395 126.339 41.4588C125.449 39.3925 124.974 37.1083 123.909 35.1441C123.708 34.7394 123.446 34.3766 123.133 34.0718C122.867 33.8459 122.58 33.653 122.277 33.4965C121.67 33.1697 121.105 32.9757 120.519 32.6455Z" fill="#514E7F"/>
<path d="M109.794 34.5177C113.801 34.5177 117.049 30.9133 117.049 26.467C117.049 22.0207 113.801 18.4163 109.794 18.4163C105.787 18.4163 102.538 22.0207 102.538 26.467C102.538 30.9133 105.787 34.5177 109.794 34.5177Z" fill="#A1616A"/>
<path d="M117.175 30.249C117.537 29.8789 117.991 29.6392 118.478 29.5614C118.965 29.4836 119.462 29.5714 119.903 29.8133C120.393 30.0958 120.823 30.6677 120.712 31.2668L124.311 31.3281C124.884 31.3107 125.456 31.369 126.017 31.5017C126.581 31.638 127.084 31.9883 127.44 32.4923C127.483 32.557 127.532 32.6353 127.606 32.6455C127.666 32.6465 127.724 32.6249 127.772 32.5842C128.325 32.2761 128.949 32.1577 129.563 32.2438C131.508 32.3834 133.306 33.4625 134.831 34.8105C135.106 35.0202 135.319 35.315 135.444 35.6581C135.57 36.1109 135.42 36.6794 135.751 37.0028C135.751 40.7473 136.911 44.2467 137.684 47.8959C137.822 48.5461 138.384 49.1214 138.773 49.632C139.255 50.1981 139.648 50.8493 139.936 51.5588C140.592 53.4515 139.687 55.6777 140.326 57.5772C140.595 58.3806 141.117 59.041 141.553 59.7389C142.127 60.5447 142.49 61.5105 142.602 62.5302C142.63 62.9864 142.577 63.4459 142.602 63.8919C142.643 64.5052 142.746 65.1115 142.909 65.6995C143.17 66.7979 143.445 67.8951 143.731 68.9912C144.197 70.7614 144.805 72.6711 146.234 73.614C142.783 74.2642 139.144 74.9008 135.856 73.5698C135.397 73.3961 134.961 73.1545 134.561 72.8515C133.374 71.912 132.8 70.3052 132.288 68.787C131.717 67.0849 131.137 65.3522 131.021 63.5413C131.022 62.9653 130.948 62.3921 130.803 61.8392C130.468 60.852 129.576 60.2563 128.766 59.7082C127.851 59.1521 127.022 58.4373 126.311 57.5909C125.958 57.1645 125.688 56.6624 125.517 56.1155C125.346 55.5686 125.278 54.9886 125.317 54.4114C125.379 53.8497 125.578 53.3085 125.597 52.7434C125.615 52.1783 125.388 51.5315 124.9 51.3818C122.388 50.5375 121.188 47.2355 120.63 44.3897C120.389 42.9188 120.281 41.425 120.307 39.9303L120.274 37.0266C119.927 36.6766 119.648 36.2519 119.454 35.7785C119.26 35.305 119.155 34.7927 119.145 34.2727C119.178 33.9693 119.173 33.6622 119.129 33.3604C119.008 32.9914 118.811 32.6592 118.553 32.3902C117.998 31.7585 117.533 31.0364 117.175 30.249Z" fill="#464353"/>
<path d="M109.447 39.4537C109.364 40.3524 109.548 41.2749 109.367 42.1566C109.297 42.497 109.174 42.8374 109.085 43.154C108.813 44.423 108.931 45.7564 109.419 46.9428C109.908 48.1175 110.492 49.2399 111.165 50.2958C111.393 50.6563 111.58 51.0461 111.723 51.4566C111.84 51.8877 111.912 52.3319 111.938 52.7808C112.116 54.5835 112.401 56.3712 112.791 58.1321C113.135 59.6572 117.037 72.6949 117.945 73.9034C118.11 74.1709 118.36 74.3594 118.645 74.431C118.85 74.4396 119.054 74.3929 119.24 74.2948L121.081 73.5119C121.237 73.4588 121.382 73.3707 121.507 73.2532C121.68 73.0295 121.773 72.7442 121.771 72.4498C121.903 70.7886 117.991 57.6589 117.494 56.0896C115.991 51.3511 113.991 46.7828 113.012 41.8775C112.739 40.5158 112.595 38.4189 111.696 37.333C111.325 36.8836 111.45 37.0742 111.006 37.3091C110.781 37.4174 110.563 37.5436 110.355 37.687C110.095 37.8878 109.878 38.1507 109.721 38.4564C109.564 38.762 109.47 39.1028 109.447 39.4537Z" fill="#464353"/>
<path d="M115.034 48.444C115.528 51.3409 116.037 54.231 116.543 57.1279L123.747 55.0344C123.805 54.197 123.403 53.4208 123.133 52.6515C122.476 50.8235 122.461 48.7878 121.93 46.9087C121.528 45.479 120.829 44.165 120.452 42.7251C120.234 41.8877 120.123 41.023 119.909 40.1754C119.678 39.343 119.395 38.5297 119.062 37.7415C118.658 36.5983 118.13 35.5136 117.491 34.5109C116.571 34.8922 115.589 35.3347 115.064 36.2573C114.795 36.7771 114.642 37.3605 114.617 37.9593C114.491 39.7533 115.077 41.5575 114.883 43.3412C114.684 45.04 114.735 46.7633 115.034 48.444Z" fill="#00204A"/>
<path d="M123.866 86.9786C124.271 88.6807 123.685 90.4712 123.207 92.1563C122.486 94.6944 121.995 97.3057 121.74 99.9517C121.709 100.625 121.587 101.289 121.378 101.923C121.151 102.491 120.765 102.971 120.501 103.512C119.777 104.935 119.795 106.671 119.952 108.299C120.056 109.371 120.212 110.44 120.406 111.495C120.642 112.785 120.933 114.133 120.593 115.393C121.163 115.253 121.55 116.074 121.513 116.717C121.476 117.36 121.289 118.079 121.568 118.633C122.274 118.919 122.28 119.995 122.259 120.829C122.27 122.275 122.435 123.715 122.75 125.118C123.817 130.815 124.95 136.495 126.149 142.159C128.741 143.051 131.769 143.981 134.242 142.745C134.702 142.517 135.162 142.153 135.267 141.601C135.293 141.304 135.26 141.004 135.168 140.723L133.996 135.991C133.711 134.847 133.426 133.666 133.576 132.492C133.69 131.617 134.033 130.674 133.647 129.901C133.515 129.636 133.306 129.428 133.153 129.176C132.539 128.179 132.861 126.844 132.91 125.636C132.93 125.364 132.913 125.092 132.861 124.826C132.777 124.515 132.66 124.217 132.512 123.937C131.543 121.851 131.078 119.522 131.162 117.177C131.198 116.877 131.161 116.573 131.054 116.295C130.98 116.18 130.913 116.06 130.855 115.934C130.809 115.715 130.832 115.486 130.919 115.284C130.568 114.988 130.25 114.645 129.974 114.263C130.145 114.145 130.288 113.986 130.395 113.798C130.502 113.61 130.569 113.398 130.591 113.177C130.613 112.956 130.589 112.732 130.521 112.523C130.454 112.313 130.345 112.124 130.201 111.968C130.327 111.94 130.442 111.874 130.536 111.778C130.629 111.681 130.696 111.558 130.73 111.421C130.764 111.285 130.764 111.141 130.728 111.005C130.693 110.869 130.624 110.746 130.53 110.651C130.379 110.535 130.18 110.484 130.073 110.31C129.907 110.059 130.042 109.708 130.177 109.439L130.892 108.006C131.426 106.94 131.545 105.623 132.119 104.602C132.941 103.114 133.478 101.456 134.009 99.8155L136.073 93.4941L137.463 94.8319C137.926 95.2243 138.314 95.7149 138.604 96.2752C138.802 96.829 138.927 97.4114 138.976 98.0045C139.485 101.436 141.43 104.411 142.151 107.791C142.31 108.544 142.418 109.333 142.807 109.977C142.947 110.174 143.072 110.384 143.182 110.603C143.283 110.938 143.336 111.288 143.338 111.641C143.402 112.333 143.6 113.001 143.918 113.6C144.235 114.199 144.666 114.715 145.179 115.114C145.863 115.634 146.713 115.992 147.084 116.816C147.158 117.071 147.261 117.314 147.391 117.541C147.722 117.983 148.437 118.034 148.578 118.589C148.658 118.899 148.511 119.27 148.667 119.542C148.756 119.668 148.874 119.766 149.008 119.825L151.005 120.931C153.238 122.17 154.38 125.016 156.027 127.089C156.596 127.765 157.1 128.504 157.53 129.295C158.242 130.708 158.57 132.481 159.773 133.38C160.096 133.566 160.39 133.809 160.644 134.098C161.022 134.65 160.883 135.423 160.917 136.117C160.951 136.811 161.43 137.639 162.025 137.428C161.816 138.269 161.816 139.157 162.025 139.998C164.638 139.849 167.129 138.729 169.099 136.818C169.682 136.253 170.244 135.532 170.25 134.674C170.259 134.526 170.229 134.378 170.164 134.248C170.046 134.081 169.89 133.95 169.713 133.87C167.845 132.747 167.283 130.143 166.338 128.029C165.513 126.163 164.292 124.557 163.27 122.824C161.049 119.096 159.534 114.586 156.174 112.125C155.435 111.584 154.576 111.104 154.205 110.208C153.999 109.708 153.975 109.136 153.812 108.619C153.649 108.101 153.26 107.597 152.763 107.597C153.039 106.848 152.984 105.936 153.002 105.126C153.021 104.766 152.984 104.406 152.892 104.06C152.764 103.689 152.598 103.335 152.398 103.005C151.521 101.359 151.083 99.4702 151.134 97.5586C151.158 96.5748 151.315 95.5604 151.048 94.6208C150.913 94.1477 150.677 93.7154 150.514 93.2592C150.269 92.4327 150.14 91.5693 150.13 90.6993L149.946 87.4279C149.919 86.3385 149.791 85.2549 149.566 84.194C148.952 81.6546 148.339 71.0167 146.237 69.8184C144.136 68.6202 140.525 76.8071 138.16 76.9671C137.113 77.0154 136.079 77.2369 135.092 77.6241C133.518 78.2777 132.199 79.4964 130.913 80.6878L126.563 84.7421C125.643 85.5829 124.882 86.3863 123.866 86.9786Z" fill="#464353"/>
<path d="M102.986 17.5278C103.943 16.0776 105.588 15.3083 107.208 15.2436C108.827 15.179 110.423 15.744 111.874 16.544C112.302 16.8143 112.76 17.0225 113.236 17.1636C114.003 17.3372 114.856 17.1057 115.549 17.504C116.47 18.0452 116.647 19.4239 116.568 20.5677C116.488 21.7115 116.295 22.9812 116.844 23.9718C117.039 24.2543 117.216 24.5511 117.375 24.8603C117.611 25.4492 117.473 26.13 117.332 26.753C116.973 26.4125 116.77 25.8985 116.451 25.5036C116.132 25.1088 115.577 24.8432 115.181 25.1394C114.785 25.4356 114.791 25.9734 114.77 26.4568C114.748 26.9402 114.638 27.5189 114.227 27.6755C114.055 27.7188 113.876 27.704 113.712 27.633C113.548 27.562 113.406 27.4381 113.307 27.2772C112.604 26.324 112.886 24.8024 112.19 23.8424C111.794 23.2978 111.134 23.0323 110.769 22.4604C110.481 22.011 110.407 21.4391 110.156 20.9557C109.904 20.4724 109.318 20.1183 108.929 20.4519C108.796 20.5929 108.685 20.7574 108.6 20.9387C108.357 21.3249 108.004 21.6088 107.598 21.7447C107.191 21.8806 106.756 21.8605 106.361 21.6876C106.059 21.4821 105.733 21.3251 105.391 21.2213C105.168 21.2089 104.946 21.266 104.75 21.3863C104.554 21.5066 104.393 21.6853 104.284 21.9021C104.064 22.3352 103.957 22.8282 103.977 23.325C103.977 24.0058 104.088 24.7309 103.738 25.2756C103.605 25.4806 103.438 25.6561 103.247 25.793C102.735 26.1572 102.02 26.4023 101.547 25.987C101.387 25.8215 101.268 25.6131 101.201 25.3818C101.135 25.1505 101.123 24.9041 101.167 24.6662C101.259 24.1924 101.38 23.7261 101.529 23.2705C101.799 22.2153 101.446 21.0272 101.741 20.0332C102.049 19.138 102.468 18.2948 102.986 17.5278Z" fill="#464353"/>
<path d="M106.873 41.5439C106.827 41.792 106.851 42.0498 106.941 42.2825C107.032 42.4411 107.156 42.573 107.303 42.6672C108.334 43.3804 109.508 43.8023 110.72 43.8961C110.885 43.8993 111.047 43.9459 111.193 44.0323C111.481 44.2433 111.5 44.7131 111.392 45.0875C111.249 45.4408 111.175 45.8236 111.174 46.2109C111.263 46.9224 112.024 47.2321 112.665 47.3377C113.564 47.4636 114.549 47.3989 115.261 46.776C115.743 46.288 116.11 45.6769 116.331 44.9956C118.092 40.5056 118.709 35.5424 120.492 31.066C120.627 30.7737 120.717 30.4585 120.758 30.1333C120.777 29.9705 120.756 29.805 120.698 29.6542C120.64 29.5033 120.546 29.3726 120.427 29.2754C120.096 29.0473 119.58 29.1767 119.356 28.8193C119.246 28.6388 119.258 28.3937 119.16 28.2031C118.955 27.798 118.415 27.8627 118.046 27.6278C117.758 27.4576 117.559 27.107 117.236 27.0389C117.078 27.029 116.92 27.0601 116.775 27.1299C116.63 27.1996 116.501 27.306 116.399 27.4406C115.353 28.5231 114.804 30.0584 114.221 31.5085C113.331 33.7314 112.289 35.8754 111.104 37.9219C111.242 37.6836 110.441 35.8794 110.128 35.8011C109.579 35.6786 108.876 36.7475 108.579 37.1457C107.645 38.402 107.053 39.9277 106.873 41.5439Z" fill="#00204A"/>
<path opacity="0.1" d="M118.019 27.9444C117.798 27.9485 117.582 28.0075 117.385 28.1171C117.188 28.2267 117.015 28.3841 116.881 28.5776C116.552 29.0507 116.488 29.6771 116.405 30.2796C116.126 32.1885 115.512 34.0182 114.598 35.6649" fill="black"/>
<path opacity="0.1" d="M119.583 29.3026C119.279 29.3102 118.982 29.4055 118.721 29.5792C118.46 29.7529 118.245 29.999 118.095 30.2932C117.892 30.8287 117.766 31.3961 117.721 31.9749C117.458 33.2581 116.951 34.464 116.233 35.5118" fill="black"/>
<path d="M192.495 95.8531V91.6252C192.494 88.5129 191.379 85.5283 189.396 83.3278C187.412 81.1274 184.722 79.8912 181.917 79.8912H31.4398C28.6348 79.8912 25.9447 81.1274 23.961 83.3278C21.9773 85.5283 20.8625 88.5129 20.8617 91.6252V99.4206L192.495 95.8531Z" fill="#33323D"/>
<path d="M73.3012 74.9348C73.3012 74.9348 72.8717 104.503 77.5962 114.232C82.3208 123.961 84.3456 166.284 84.3456 166.284C84.3456 166.284 133.874 171.969 168.387 159.476C202.901 146.983 276.34 141.873 276.34 141.873L263.965 49.3189C263.965 49.3189 202.825 44.9684 168.044 63.3745C133.263 81.7805 73.3012 74.9348 73.3012 74.9348Z" fill="#8DD070"/>
<path opacity="0.1" d="M73.3012 74.9348C73.3012 74.9348 72.8717 104.503 77.5962 114.232C82.3208 123.961 84.3456 166.284 84.3456 166.284C84.3456 166.284 133.874 171.969 168.387 159.476C202.901 146.983 276.34 141.873 276.34 141.873L263.965 49.3189C263.965 49.3189 202.825 44.9684 168.044 63.3745C133.263 81.7805 73.3012 74.9348 73.3012 74.9348Z" fill="black"/>
<path d="M84.2628 85.7361C84.2628 85.7361 82.7135 110.133 86.6005 117.929C90.4875 125.724 90.6685 160.525 90.6685 160.525C90.6685 160.525 135.242 162.819 166.949 150.843C198.655 138.868 265.284 131.099 265.284 131.099L257.712 55.4088C257.712 55.4088 202.582 54.7791 170.406 71.6363C138.23 88.4934 84.2628 85.7361 84.2628 85.7361Z" fill="#8DD070"/>
<path opacity="0.1" d="M169.917 136.985C176.259 136.108 180.026 123.163 178.332 108.07C176.638 92.9768 170.123 81.4521 163.781 82.3287C157.439 83.2052 153.671 96.151 155.366 111.244C157.06 126.337 163.575 137.861 169.917 136.985Z" fill="black"/>
<path opacity="0.2" d="M230.445 4.23132C230.445 4.23132 171.047 20.9115 143.037 50.272C115.028 79.6325 56.0627 93.5349 56.0627 93.5349C56.0627 93.5349 63.8306 121.82 71.0156 129.472C78.2006 137.125 91.8282 176.721 91.8282 176.721C91.8282 176.721 140.537 165.263 169.928 141.611C199.318 117.959 267.815 88.0884 267.815 88.0884L230.445 4.23132Z" fill="black"/>
<path d="M55.1699 89.3002C55.1699 89.3002 62.9348 117.588 70.1136 125.241C77.2925 132.893 90.9262 172.487 90.9262 172.487C90.9262 172.487 139.641 161.032 169.035 137.38C198.428 113.728 266.919 83.8672 266.919 83.8672L229.549 0C229.549 0 170.155 16.6802 142.145 46.0407C114.135 75.4012 55.1699 89.3002 55.1699 89.3002Z" fill="#8DD070"/>
<path opacity="0.1" d="M55.1699 89.3002C55.1699 89.3002 62.9348 117.588 70.1136 125.241C77.2925 132.893 90.9262 172.487 90.9262 172.487C90.9262 172.487 139.641 161.032 169.035 137.38C198.428 113.728 266.919 83.8672 266.919 83.8672L229.549 0C229.549 0 170.155 16.6802 142.145 46.0407C114.135 75.4012 55.1699 89.3002 55.1699 89.3002Z" fill="black"/>
<path d="M68.5797 95.8497C68.5797 95.8497 73.8534 119.6 79.71 125.694C85.5666 131.787 95.3563 164.841 95.3563 164.841C95.3563 164.841 138.411 151.844 165.277 129.649C192.142 107.454 253.414 77.4062 253.414 77.4062L225.279 7.92138C225.279 7.92138 172.637 26.0892 146.673 53.0906C120.709 80.0921 68.5797 95.8497 68.5797 95.8497Z" fill="#8DD070"/>
<path opacity="0.1" d="M164.283 115.46C170.077 112.467 170.083 98.8625 164.297 85.0747C158.51 71.2868 149.123 62.5363 143.329 65.5299C137.535 68.5236 137.529 82.1277 143.316 95.9156C149.102 109.703 158.49 118.454 164.283 115.46Z" fill="black"/>
<path opacity="0.1" d="M196.557 100.003V217.445C196.557 218.779 196.32 220.099 195.86 221.332C195.4 222.564 194.726 223.683 193.875 224.626C193.025 225.569 192.016 226.317 190.905 226.827C189.795 227.337 188.604 227.6 187.402 227.599H30.0194C27.5928 227.598 25.2658 226.528 23.5502 224.624C21.8347 222.72 20.8709 220.137 20.8709 217.445V88.1632C25.3807 90.0219 25.3807 90.0219 30.0194 89.8653H187.402C189.827 89.8653 192.153 90.9327 193.869 92.8332C195.585 94.7338 196.552 97.3123 196.557 100.003Z" fill="black"/>
<path d="M196.557 101.497V218.939C196.556 221.633 195.591 224.215 193.875 226.12C192.158 228.024 189.83 229.094 187.402 229.094H30.0194C27.5928 229.093 25.2658 228.023 23.5502 226.118C21.8347 224.214 20.8709 221.632 20.8709 218.939V89.6542C25.3807 91.5095 25.3807 91.5095 30.0194 91.3563H187.402C189.828 91.3563 192.154 92.4241 193.87 94.3254C195.587 96.2267 196.553 98.8061 196.557 101.497Z" fill="#504F60"/>
<path opacity="0.1" d="M196.109 144.917V182.474H163.283C158.833 182.408 154.587 180.4 151.462 176.886C148.337 173.371 146.585 168.633 146.585 163.695C146.585 158.758 148.337 154.02 151.462 150.505C154.587 146.991 158.833 144.983 163.283 144.917H196.109Z" fill="black"/>
<path d="M196.557 143.916V181.48H163.73C159.281 181.414 155.035 179.406 151.91 175.892C148.785 172.377 147.033 167.639 147.033 162.701C147.033 157.764 148.785 153.026 151.91 149.511C155.035 145.997 159.281 143.989 163.73 143.923L196.557 143.916Z" fill="#33323D"/>
<path opacity="0.1" d="M165.304 171.019C168.949 171.019 171.903 167.741 171.903 163.697C171.903 159.653 168.949 156.375 165.304 156.375C161.66 156.375 158.705 159.653 158.705 163.697C158.705 167.741 161.66 171.019 165.304 171.019Z" fill="black"/>
<path d="M165.752 170.025C169.397 170.025 172.351 166.747 172.351 162.703C172.351 158.659 169.397 155.381 165.752 155.381C162.108 155.381 159.153 158.659 159.153 162.703C159.153 166.747 162.108 170.025 165.752 170.025Z" fill="#00204A"/>
<path d="M253.537 143.592C253.798 146.728 251.659 149.771 252.282 152.841C252.417 153.498 252.672 154.118 252.764 154.782C253.021 156.606 252.043 158.332 251.107 159.857L243.069 172.943C242.747 173.518 242.362 174.046 241.922 174.515C240.388 176.034 238.081 175.877 236.062 176.33C234.643 176.649 233.303 177.307 232.135 178.257C232.086 178.303 232.055 178.368 232.048 178.439C232.042 178.51 232.06 178.581 232.098 178.638C232.432 179.142 232.874 179.545 233.384 179.811C233.894 180.077 234.456 180.197 235.019 180.159C235.231 180.469 235.019 180.922 234.712 181.143C234.28 181.484 233.688 181.565 233.602 182.376C233.571 182.658 233.623 182.945 233.749 183.193C234.073 183.743 234.577 184.132 235.154 184.278C237.937 185.221 240.943 183.564 243.026 181.307C245.109 179.05 246.603 176.201 248.647 173.903C249.779 172.633 251.064 171.544 252.23 170.311C254.555 167.854 256.362 164.865 258.108 161.873C258.633 160.97 259.16 160.045 259.381 159C259.602 157.954 259.498 156.899 259.746 155.888C260.071 154.561 260.946 153.505 261.673 152.392C263.1 150.213 264.051 147.548 263.863 144.866C263.676 142.183 262.176 139.531 259.894 138.619C259.186 138.304 258.406 138.251 257.669 138.469C256.734 138.789 256.043 139.647 255.405 140.467L253.871 142.425C253.489 142.854 253.186 143.363 252.982 143.923C252.883 144.204 252.86 144.51 252.914 144.805C252.969 145.1 253.099 145.372 253.288 145.587" fill="#FBBEBE"/>
<path opacity="0.05" d="M253.537 143.592C253.798 146.728 251.659 149.771 252.282 152.841C252.417 153.498 252.672 154.118 252.764 154.782C253.021 156.606 252.043 158.332 251.107 159.857L243.069 172.943C242.747 173.518 242.362 174.046 241.922 174.515C240.388 176.034 238.081 175.877 236.062 176.33C234.643 176.649 233.303 177.307 232.135 178.257C232.086 178.303 232.055 178.368 232.048 178.439C232.042 178.51 232.06 178.581 232.098 178.638C232.432 179.142 232.874 179.545 233.384 179.811C233.894 180.077 234.456 180.197 235.019 180.159C235.231 180.469 235.019 180.922 234.712 181.143C234.28 181.484 233.688 181.565 233.602 182.376C233.571 182.658 233.623 182.945 233.749 183.193C234.073 183.743 234.577 184.132 235.154 184.278C237.937 185.221 240.943 183.564 243.026 181.307C245.109 179.05 246.603 176.201 248.647 173.903C249.779 172.633 251.064 171.544 252.23 170.311C254.555 167.854 256.362 164.865 258.108 161.873C258.633 160.97 259.16 160.045 259.381 159C259.602 157.954 259.498 156.899 259.746 155.888C260.071 154.561 260.946 153.505 261.673 152.392C263.1 150.213 264.051 147.548 263.863 144.866C263.676 142.183 262.176 139.531 259.894 138.619C259.186 138.304 258.406 138.251 257.669 138.469C256.734 138.789 256.043 139.647 255.405 140.467L253.871 142.425C253.489 142.854 253.186 143.363 252.982 143.923C252.883 144.204 252.86 144.51 252.914 144.805C252.969 145.1 253.099 145.372 253.288 145.587" fill="black"/>
<path d="M259.621 224.304C257.866 225.492 255.678 225.564 253.638 225.288C253.31 225.244 252.92 225.216 252.718 225.499C252.411 225.907 252.773 226.52 253.147 226.837C254.351 227.839 255.764 228.485 257.255 228.712C258.586 228.922 259.93 229.021 261.274 229.009C264.956 229.08 268.637 229.148 272.26 228.563C272.475 228.545 272.684 228.477 272.874 228.365C273.107 228.183 273.27 227.909 273.328 227.599C273.576 226.551 273.098 225.427 272.374 224.699C271.65 223.971 270.72 223.565 269.812 223.174L266.621 221.795C265.873 221.472 264.673 220.614 263.86 220.682C262.333 220.805 260.888 223.48 259.621 224.304Z" fill="#3F3D56"/>
<path opacity="0.05" d="M259.621 224.304C257.866 225.492 255.678 225.564 253.638 225.288C253.31 225.244 252.92 225.216 252.718 225.499C252.411 225.907 252.773 226.52 253.147 226.837C254.351 227.839 255.764 228.485 257.255 228.712C258.586 228.922 259.93 229.021 261.274 229.009C264.956 229.08 268.637 229.148 272.26 228.563C272.475 228.545 272.684 228.477 272.874 228.365C273.107 228.183 273.27 227.909 273.328 227.599C273.576 226.551 273.098 225.427 272.374 224.699C271.65 223.971 270.72 223.565 269.812 223.174L266.621 221.795C265.873 221.472 264.673 220.614 263.86 220.682C262.333 220.805 260.888 223.48 259.621 224.304Z" fill="black"/>
<path d="M261.857 177.307C260.529 179.268 259.154 181.531 259.483 183.958C259.66 185.266 260.32 186.42 260.805 187.628C261.461 189.269 261.805 191.032 262.142 192.789C262.639 195.355 263.139 197.929 263.443 200.537C263.79 203.481 262.161 212.002 262.01 214.967C261.974 215.681 261.897 216.454 261.449 216.968C261.274 217.172 261.041 217.336 260.961 217.601C260.914 217.857 260.953 218.123 261.069 218.35C261.817 220.223 263.348 221.618 265.057 222.415C266.766 223.211 270.886 224.587 272.748 224.658C272.994 224.688 273.242 224.652 273.472 224.553C273.72 224.385 273.915 224.136 274.03 223.841C275.365 221.009 274.083 210.94 274.101 207.743C274.119 205.078 274.687 202.429 274.583 199.767C274.497 197.629 273.969 195.539 273.794 193.408C273.487 189.916 274.064 186.406 274.644 182.954C275.086 180.306 275.531 177.657 276.098 175.043C276.445 173.447 276.847 171.836 277.632 170.451C278.246 169.351 279.108 168.432 279.823 167.387C281.807 164.501 282.688 160.865 282.277 157.263C282.234 156.923 277.675 158.547 277.273 158.741C275.633 159.511 274.125 160.588 272.812 161.924C271.757 163.04 270.926 164.531 270.002 165.78C268.695 167.548 267.405 169.329 266.131 171.122C264.676 173.171 263.252 175.233 261.857 177.307Z" fill="#464353"/>
<path opacity="0.05" d="M261.857 177.188C260.529 179.148 259.154 181.416 259.483 183.839C259.66 185.15 260.32 186.304 260.805 187.512C261.461 189.15 261.805 190.917 262.142 192.67C262.639 195.24 263.139 197.813 263.443 200.417C263.79 203.365 262.161 211.882 262.01 214.847C261.974 215.562 261.897 216.338 261.449 216.853C261.274 217.053 261.041 217.217 260.961 217.482C260.914 217.738 260.952 218.004 261.069 218.231C261.817 220.107 263.348 221.499 265.057 222.316C266.766 223.133 270.886 223.845 272.748 223.913C272.994 223.943 273.242 223.906 273.472 223.807C273.72 223.642 273.916 223.394 274.03 223.099C275.365 220.267 274.083 210.844 274.101 207.644C274.119 204.976 274.687 202.331 274.583 199.665C274.497 197.527 273.969 195.437 273.794 193.31C273.487 189.814 274.064 186.304 274.644 182.852C275.086 180.207 275.531 177.559 276.098 174.941C276.445 173.344 276.847 171.734 277.632 170.349C278.246 169.249 279.108 168.33 279.823 167.285C281.807 164.399 282.689 160.763 282.277 157.161C282.234 156.821 277.675 158.445 277.273 158.639C275.634 159.412 274.125 160.489 272.813 161.825C271.757 162.938 270.926 164.429 270.002 165.678C268.695 167.446 267.405 169.228 266.131 171.023C264.676 173.056 263.252 175.111 261.857 177.188Z" fill="black"/>
<path d="M247.076 134.122C251.188 134.122 254.522 130.423 254.522 125.86C254.522 121.298 251.188 117.599 247.076 117.599C242.964 117.599 239.63 121.298 239.63 125.86C239.63 130.423 242.964 134.122 247.076 134.122Z" fill="#FBBEBE"/>
<path d="M253.782 125.513C254.47 126.731 255.372 127.782 256.434 128.604C257.496 129.427 258.697 130.003 259.964 130.299L259.403 132.563C258.433 136.451 257.344 140.563 254.638 143.259C254.945 141.941 254.552 140.536 253.884 139.392C253.215 138.248 252.276 137.349 251.356 136.461L247.07 132.342C246.946 132.23 246.842 132.094 246.763 131.94C246.657 131.65 246.657 131.325 246.763 131.035C247.309 129.149 248.868 127.971 250.138 126.698C250.775 126.039 251.344 125.304 251.834 124.506C252.69 123.151 253.221 124.512 253.782 125.513Z" fill="#FBBEBE"/>
<path d="M237.268 117.554L237.099 116.002C238.274 116.343 239.391 115.233 240.142 114.086C240.894 112.938 241.591 111.587 242.735 111.107C244.125 110.528 245.597 111.447 246.926 112.224C248.413 113.139 250.045 113.729 251.733 113.96C252.002 113.97 252.269 114.018 252.528 114.103C253.393 114.443 253.804 115.648 253.93 116.741C254.055 117.834 254.022 118.994 254.448 119.968C254.755 120.707 255.325 121.255 255.675 121.983C256.596 123.937 255.706 126.609 256.666 128.526L254.279 126.099C254.062 125.877 253.755 125.646 253.512 125.833C253.322 125.983 253.307 126.306 253.23 126.565C253 127.321 252.147 127.545 251.531 127.246C250.914 126.946 250.463 126.296 249.997 125.704C248.941 124.322 247.683 123.106 246.211 122.518C245.565 122.25 244.876 122.137 244.188 122.188C243.501 122.238 242.831 122.451 242.223 122.81C241.109 123.508 240.293 125.135 238.928 125.193C237.056 125.272 236.277 121.404 235.412 119.876C235.728 119.612 235.951 119.232 236.041 118.804C236.131 118.376 236.082 117.926 235.903 117.534C236.028 117.476 237.24 117.316 237.268 117.554Z" fill="#464353"/>
<path d="M145.173 69.2534C144.575 69.8438 144.021 70.4882 143.519 71.1801C143.014 71.8816 142.744 72.7568 142.758 73.6549C142.761 73.9153 142.836 74.1685 142.973 74.38C143.043 74.4812 143.14 74.5556 143.25 74.5928C143.36 74.63 143.478 74.6282 143.587 74.5876C143.71 74.5179 143.815 74.4149 143.893 74.2881C144.218 73.8557 144.562 73.4421 144.924 73.049C145.056 72.9026 145.231 72.7494 145.409 72.8039C145.489 72.8353 145.56 72.8879 145.618 72.957C145.824 73.155 145.974 73.4152 146.05 73.706C146.158 74.2268 145.885 74.7476 145.575 75.1561C145.265 75.5646 144.9 75.9561 144.774 76.4701C144.726 76.6058 144.726 76.7564 144.774 76.8922C144.833 76.9904 144.916 77.0682 145.013 77.1169C145.453 77.3853 145.94 77.5433 146.44 77.5798C146.941 77.6162 147.442 77.5303 147.909 77.3279C148.523 77.0522 149.069 76.579 149.701 76.3339C149.975 76.2508 150.24 76.1368 150.492 75.9935C150.673 75.86 150.828 75.6881 150.949 75.4877C151.07 75.2873 151.153 75.0624 151.195 74.8259C151.275 74.3534 151.29 73.8703 151.241 73.3928C151.165 71.5435 150.808 69.7218 150.186 68.0041C150.15 67.8933 150.088 67.7947 150.008 67.7181C149.915 67.6557 149.809 67.6238 149.701 67.6262C148.916 67.5343 147.627 67.0884 146.869 67.4117C146.604 67.573 146.376 67.7988 146.201 68.0721C146.059 68.2458 145.173 69.0253 145.173 69.2534Z" fill="#A1616A"/>
<path d="M144.924 68.484C144.924 67.6534 144.004 65.6484 145.467 65.5156C145.467 64.6272 144.335 64.0757 144.547 63.1328C144.614 62.8196 144.854 62.5643 144.881 62.2443C144.973 61.3354 143.495 60.8418 143.74 59.9703C143.832 59.6299 144.157 59.4325 144.228 59.0955C144.394 58.3091 143.126 57.9585 143.102 57.1517C143.102 56.8794 143.24 56.6241 143.228 56.3518C143.228 56.0113 142.961 55.7526 142.814 55.4565C142.43 54.6974 142.617 53.5229 141.918 53.1315C142.381 53.1757 142.531 52.4132 142.341 51.9468C142.151 51.4805 141.761 51.0754 141.758 50.5579C141.781 50.3705 141.781 50.1804 141.758 49.9929C141.629 49.4959 140.896 49.455 140.773 48.9716C140.758 48.7861 140.752 48.5996 140.758 48.4134C140.709 48.0287 140.353 47.7836 140.019 47.6747C139.671 47.6092 139.337 47.4767 139.031 47.2832C138.816 47.1028 138.568 46.8032 138.337 46.9428C138.252 47.0006 138.209 47.1096 138.144 47.1913C137.868 47.5487 137.34 47.3921 136.994 47.13C135.969 46.3573 135.46 44.9718 135.242 43.6204C135.024 42.2689 135.03 40.8732 134.757 39.5354C134.674 39.1185 134.563 38.7089 134.426 38.3099C134.309 37.9695 133.935 37.4351 133.911 37.0913C133.855 36.3083 135.316 36.8428 135.871 36.9211C136.41 36.9795 136.943 37.0934 137.463 37.2615C138.018 37.4942 138.562 37.7589 139.092 38.0546C141.307 39.1405 143.982 39.2733 145.762 41.0979C146.348 41.697 146.842 42.4834 147.603 42.7557C147.952 42.8299 148.296 42.9289 148.633 43.0519C149.477 43.491 149.609 44.7335 150.069 45.6322C150.214 45.8695 150.34 46.1201 150.446 46.3811C150.535 46.689 150.577 47.0111 150.569 47.3342L150.634 49.6933C150.738 53.6455 150.842 57.6079 150.462 61.5362C150.339 62.8332 150.155 64.1676 150.502 65.4135C150.594 65.7539 150.723 66.0739 150.809 66.4177C150.884 66.8208 150.923 67.2314 150.925 67.6432L150.974 69.1717C150.991 69.2905 150.967 69.4121 150.907 69.5121C150.855 69.5583 150.795 69.5911 150.731 69.6082C150.667 69.6253 150.6 69.6262 150.535 69.6108C148.618 69.4202 146.679 68.2219 144.869 68.947" fill="#464353"/>
<path d="M232.427 185.926C244.958 185.926 255.117 184.297 255.117 182.287C255.117 180.277 244.958 178.648 232.427 178.648C219.895 178.648 209.737 180.277 209.737 182.287C209.737 184.297 219.895 185.926 232.427 185.926Z" fill="#504F60"/>
<path d="M251.948 182.464C251.549 180.568 251.3 178.903 251.3 178.903C251.3 178.903 251.392 176.84 250.558 175.292V174.774V170.962C250.796 170.269 251.086 169.601 251.426 168.963C252.04 167.765 251.426 163.374 251.426 163.374C251.426 163.374 249.134 157.182 249.69 153.253C250.245 149.325 244.984 135.811 244.984 135.811C245.016 134.507 245.182 133.212 245.478 131.95C245.534 131.685 245.556 131.412 245.545 131.14C245.545 131.106 245.545 131.076 245.545 131.041C245.545 131.007 245.545 131.062 245.545 131.072C245.465 128.482 243.618 123.627 243.618 123.627L243.867 114.375C243.867 114.375 245.045 108.928 243.124 101.592C242.453 99.036 242.023 96.9901 241.75 95.4106C241.719 95.2336 241.689 95.0702 241.664 94.8966C245.619 94.2157 248.641 93.6711 248.641 93.6711C248.641 93.6711 246.346 83.0196 244.796 81.1542C243.247 79.2887 242.008 73.4302 242.008 73.4302C242.008 73.4302 241.201 65.9105 242.505 63.7115C243.809 61.5124 243.993 57.7202 243.993 57.7202C243.993 57.7202 246.965 55.3373 247.34 54.2582C247.714 53.1791 248.331 50.7962 248.331 49.5333C248.331 48.2704 247.959 47.1504 248.082 46.4696C248.205 45.7888 247.214 43.2731 247.711 42.0749C247.84 41.7068 247.906 41.3157 247.907 40.9209C247.908 40.9096 247.908 40.8982 247.907 40.8868C247.912 39.8383 247.825 38.7917 247.647 37.7619C246.787 36.9561 245.783 36.361 244.701 36.0156L244.637 35.7296L244.468 34.9807C244.374 34.9116 244.277 34.848 244.177 34.7901V34.5177L244.149 33.4352L244.615 31.0047C245.536 26.7768 240.446 26.147 240.446 26.147C240.138 25.4985 239.624 24.9991 239.004 24.7445C237.983 24.3462 238.836 31.1034 239.311 31.5528C239.67 31.8932 240.781 33.9969 241.317 35.0386L241.403 35.2088C241.319 35.2926 241.241 35.3837 241.17 35.4811L241.363 36.9483L241.394 37.173C241.057 37.6377 240.783 38.155 240.581 38.7082C240.581 38.7082 241.502 39.8384 241.327 41.0911C241.152 42.3438 241.612 43.9335 241.633 44.0186C241.578 43.9471 240.925 43.1642 240.271 43.3548C239.618 43.5455 237.792 44.1548 237.792 44.1548C237.792 44.1548 236.43 44.4203 236.565 44.7539C236.7 45.0875 235.645 46.5513 235.645 46.5513L231.982 42.6978C231.945 42.5821 231.905 42.4664 231.874 42.3574C231.725 41.8018 231.622 41.232 231.568 40.6554C231.967 40.5501 232.359 40.4124 232.74 40.2435C233.125 40.0968 233.472 39.8493 233.752 39.5218C234.123 39.035 234.194 38.3746 234.344 37.7687C234.633 36.584 235.265 35.5322 235.703 34.4054C236.446 32.5014 236.686 30.4022 236.393 28.3529C236.337 27.7214 236.145 27.1142 235.832 26.5828C235.234 25.6704 234.148 25.2994 233.359 24.5709C232.571 23.8424 232.062 22.7293 231.141 22.188C230.31 21.6944 229.301 21.7523 228.362 21.9225C226.528 22.258 224.767 22.9691 223.168 24.0194C222.634 24.3599 222.045 24.7786 221.431 24.6526C220.904 24.5471 220.511 24.0807 220.18 23.6314C220.183 23.6128 220.189 23.5946 220.195 23.5769C220.18 23.5603 220.167 23.5421 220.155 23.5224C219.767 24.4785 219.572 25.5172 219.585 26.5657C219.585 26.7291 219.585 26.9061 219.603 27.0525V27.2227C219.603 27.2704 219.603 27.318 219.603 27.3623C219.603 27.4349 219.593 27.5071 219.575 27.5768C219.498 27.785 219.381 27.972 219.232 28.1248C219.119 28.2667 219.017 28.4181 218.925 28.5776C218.925 28.5231 218.956 28.4686 218.974 28.4108C218.74 28.7898 218.608 29.2349 218.594 29.6941C218.576 30.0284 218.675 30.3572 218.87 30.6132C219.053 30.8111 219.254 30.989 219.468 31.1443C219.395 31.5936 219.358 32.0493 219.357 32.5059C219.364 33.8596 219.686 35.1883 220.291 36.3637C220.896 37.5391 221.765 38.5213 222.812 39.2154C222.855 39.3278 222.895 39.4435 222.935 39.5558C223.404 40.9175 223.757 42.5174 223.6 43.9812C223.6 44.0867 223.573 44.1956 223.557 44.3012C223.542 44.4067 223.465 44.4135 223.425 44.4714C223.425 44.4714 217.373 44.5395 215.949 43.1097C214.526 41.68 212.353 46.6058 212.353 46.6058C212.353 46.6058 210.184 47.0721 209.749 46.6058C209.313 46.1394 206.776 46.5411 206.776 46.5411C205.737 45.5153 204.384 44.9676 202.993 45.0092C202.151 44.2988 201.221 43.7256 200.232 43.3072L200.165 43.2799C199.728 43.1034 199.262 43.0383 198.8 43.0893C198.8 43.0893 195.824 40.366 194.955 38.8954C194.087 37.4249 189.955 31.9953 189.936 31.9715V31.7094L189.89 30.9196C189.768 30.941 189.643 30.9523 189.519 30.9536C189.498 30.8753 189.467 30.7834 189.436 30.6779C189.198 29.9076 188.905 29.1597 188.559 28.4414C188.559 28.4414 188.559 27.444 188.82 27.1921C189.08 26.9402 188.712 23.2808 188.712 23.2808C188.712 23.2808 186.031 16.3261 183.629 21.5174C183.629 21.5174 179.088 24.8773 182.899 28.792C182.899 28.792 184.433 29.609 184.635 30.2558C184.776 30.6745 185.292 31.8489 185.638 32.6387L185.795 32.9791L185.752 33.0199L185.807 33.6735L185.832 33.9254C185.114 34.3782 184.626 34.8275 184.746 35.1645C184.957 35.7412 185.102 36.3451 185.178 36.9619C185.178 36.9619 190.449 44.2876 191.13 47.4159C191.13 47.4159 205.264 56.7364 209.911 57.4002L209.089 62.0468C208.969 63.3077 208.908 64.5746 208.905 65.8424C208.967 66.8398 208.347 71.3673 208.347 71.3673C208.347 71.3673 207.54 78.0258 206.859 78.9585C206.178 79.8912 206.301 83.8842 206.301 83.8842C206.14 85.7958 205.832 87.6886 205.38 89.5419C204.699 92.0712 205.193 95.2029 205.193 95.2029C205.193 95.2029 202.84 101.194 208.479 97.1331C208.479 97.1331 211.24 96.9424 214.437 96.8199C214.437 96.9356 214.437 97.0548 214.437 97.1603C214.437 97.6165 214.437 98.1101 214.415 98.6275C214.372 102.059 214.354 106.797 214.495 110.365C214.743 116.69 216.48 129.207 216.48 129.207V135.508C216.368 136.099 216.312 136.701 216.314 137.305C216.277 139.522 216.809 141.705 217.848 143.599L218.284 147.793C218.284 147.793 219.302 150.557 219.321 152.219C219.317 152.352 219.302 152.486 219.278 152.617C219.238 152.828 219.222 153.044 219.229 153.26C219.17 155.166 220.204 159.728 220.204 159.728C220.204 159.728 220.266 164.32 220.885 164.589C221.416 164.817 220.177 167.234 219.808 167.928C219.799 167.886 219.791 167.843 219.787 167.799L219.71 167.935C219.582 168.307 219.517 168.702 219.517 169.1C219.482 169.413 219.528 169.731 219.65 170.017C219.771 170.302 219.964 170.544 220.204 170.713C221.382 171.513 222.014 172.177 221.014 172.442C220.646 172.506 220.282 172.591 219.922 172.698C219.922 172.647 219.885 172.592 219.87 172.544C219.729 172.606 219.611 172.719 219.537 172.865C219.462 173.012 219.436 173.182 219.462 173.348C219.471 173.888 219.596 174.418 219.827 174.893C220.818 177.358 221.505 178.297 221.505 178.297L221.981 178.24C221.91 178.441 221.818 178.632 221.704 178.808C221.523 179.094 221.284 179.327 221.005 179.489C220.745 179.661 220.456 179.772 220.155 179.812C219.819 179.824 219.489 179.915 219.187 180.078C218.884 180.241 218.616 180.473 218.4 180.759C217.787 181.647 217.394 182.856 218.615 183.918L223.048 185.62C223.048 185.62 230.675 186.719 230.27 184.82C229.865 182.92 229.62 181.259 229.62 181.259C229.652 180.099 229.442 178.947 229.006 177.892C228.926 177.72 228.836 177.554 228.736 177.395L229.006 177.365C229.006 177.365 229.564 173.167 230.307 172.371C230.479 172.187 230.518 172.03 230.479 171.935C230.555 171.707 230.359 171.574 230.11 171.496L230.055 171.663C229.812 171.604 229.565 171.573 229.316 171.571C229.316 171.571 229.067 169.375 229.874 168.575C229.939 168.484 229.987 168.379 230.014 168.267C230.041 168.154 230.046 168.037 230.031 167.922C230.037 167.62 230.008 167.32 229.945 167.026C229.937 167.045 229.928 167.063 229.917 167.081C229.512 165.086 228.138 161.917 228.138 161.917C228.138 161.917 228.076 159.922 228.573 159.122C229.07 158.322 228.509 148.27 228.509 148.27C228.509 148.27 228.696 143.412 228.138 141.148C227.579 138.885 228.819 136.219 228.819 136.219C228.819 136.219 228.819 136.168 228.819 136.076V136.042L228.748 135.276C228.747 135.292 228.747 135.308 228.748 135.324C228.623 134.037 228.386 131.705 228.211 130.63C227.963 129.098 228.276 121.779 228.276 121.779L229.389 118.647L231.374 124.043L233.482 131.232C233.482 131.232 234.525 132.75 234.55 134.296C234.55 134.371 234.55 134.446 234.55 134.521C234.533 134.68 234.524 134.84 234.525 135C234.488 135.909 234.712 136.807 235.166 137.564C235.166 137.564 235.725 140.968 236.593 141.822C237.461 142.677 237.461 144.352 237.461 144.352C237.461 144.352 238.513 149.281 238.995 150.139C239.412 150.867 239.434 152.862 239.431 153.485C239.431 153.597 239.431 153.662 239.431 153.662C239.431 153.662 239.578 155.425 239.572 156.903C239.572 157.086 239.572 157.263 239.572 157.43C239.573 157.418 239.573 157.405 239.572 157.393C239.572 157.796 239.528 158.199 239.443 158.591L239.425 158.659C239.425 158.574 239.425 158.492 239.446 158.411C239.23 159.414 239.127 160.443 239.139 161.474C239.112 163.244 239.354 165.341 240.32 166.58C241.995 168.711 243.048 168.446 243.048 168.446C243.048 168.446 242.244 171.108 241.25 171.642C241.212 171.662 241.177 171.687 241.146 171.717C241.146 171.663 241.127 171.612 241.121 171.561C241.01 171.693 240.926 171.85 240.873 172.022C240.82 172.193 240.8 172.374 240.814 172.555C240.744 173.726 241.409 175.618 242.041 176.5C242.276 176.755 242.564 176.942 242.879 177.045C242.829 177.084 242.777 177.119 242.723 177.15C242.612 177.217 242.499 177.278 242.382 177.331C242.221 177.407 242.05 177.456 241.876 177.477C241.539 177.487 241.209 177.577 240.906 177.74C240.604 177.903 240.336 178.136 240.121 178.423C239.507 179.308 239.115 180.517 240.336 181.579L244.769 183.281C244.769 183.281 252.347 184.36 251.948 182.464Z" fill="url(#paint0_linear)"/>
<path d="M222.83 185.609L218.535 183.907C217.351 182.845 217.728 181.637 218.327 180.748C218.533 180.465 218.791 180.234 219.084 180.071C219.377 179.907 219.699 179.816 220.026 179.802C220.317 179.761 220.597 179.651 220.845 179.479C221.118 179.315 221.351 179.081 221.527 178.798C221.84 178.246 222.009 177.608 222.014 176.956C222.014 176.956 226.727 175.424 228.015 176.956C228.245 177.234 228.437 177.547 228.586 177.886C229.014 178.943 229.223 180.093 229.199 181.252C229.199 181.252 229.439 182.913 229.828 184.813C230.218 186.712 222.83 185.609 222.83 185.609Z" fill="#2D293D"/>
<path d="M243.827 183.261L239.532 181.559C238.348 180.496 238.725 179.288 239.323 178.403C239.528 178.119 239.785 177.887 240.078 177.723C240.371 177.56 240.692 177.469 241.02 177.457C241.19 177.437 241.355 177.388 241.511 177.31C241.624 177.257 241.735 177.197 241.842 177.13C243.042 176.398 243.011 174.601 243.011 174.601C243.011 174.601 247.72 173.069 249.012 174.601C249.185 174.808 249.336 175.036 249.463 175.281C250.27 176.83 250.181 178.897 250.181 178.897C250.181 178.897 250.42 180.561 250.794 182.457C251.169 184.353 243.827 183.261 243.827 183.261Z" fill="#2D293D"/>
<path opacity="0.1" d="M228.018 176.953C228.248 177.23 228.44 177.543 228.589 177.882L221.533 178.791C221.846 178.239 222.015 177.602 222.02 176.949C222.02 176.949 226.73 175.421 228.018 176.953Z" fill="black"/>
<path opacity="0.1" d="M249.469 175.288V176.755C248.371 178.76 243.06 178.321 241.517 177.317C241.63 177.264 241.741 177.204 241.848 177.137C243.048 176.405 243.017 174.607 243.017 174.607C243.017 174.607 247.726 173.076 249.018 174.607C249.191 174.815 249.342 175.043 249.469 175.288Z" fill="black"/>
<path d="M250.306 168.963C249.978 169.603 249.698 170.271 249.469 170.962V176.221C248.266 178.417 242.029 177.685 241.186 176.486C240.342 175.288 239.461 172.17 240.409 171.629C241.357 171.088 242.149 168.432 242.149 168.432C242.149 168.432 241.127 168.698 239.507 166.567C237.888 164.436 238.369 159.711 238.67 158.581C238.971 157.451 238.67 153.655 238.67 153.655C238.67 153.655 238.731 150.99 238.253 150.125C237.774 149.26 236.752 144.338 236.752 144.338C236.752 144.338 236.752 142.673 235.912 141.809C235.071 140.944 234.531 137.547 234.531 137.547C234.04 136.698 233.828 135.686 233.933 134.684C234.111 133.019 232.911 131.222 232.911 131.222L230.871 124.029L228.951 118.637L227.871 121.765C227.871 121.765 227.564 129.088 227.813 130.616C228.061 132.144 228.426 136.209 228.426 136.209C228.426 136.209 227.227 138.871 227.767 141.135C228.307 143.398 228.11 148.263 228.11 148.263C228.11 148.263 228.65 158.312 228.168 159.112C227.687 159.912 227.748 161.91 227.748 161.91C227.748 161.91 230.202 167.765 229.429 168.565C228.656 169.365 228.889 171.561 228.889 171.561C228.889 171.561 230.568 171.561 229.85 172.361C229.132 173.161 228.589 177.354 228.589 177.354L221.333 178.297C221.333 178.297 220.671 177.368 219.71 174.893C218.75 172.419 219.888 172.698 220.855 172.429C221.821 172.16 221.21 171.499 220.069 170.699C218.928 169.899 219.591 168.102 219.591 168.102C219.591 168.102 221.33 164.841 220.729 164.575C220.128 164.31 220.069 159.714 220.069 159.714C220.069 159.714 218.87 154.268 219.17 152.79C219.471 151.313 218.21 147.8 218.21 147.8L217.79 143.606C216.506 141.226 216.038 138.413 216.471 135.681V129.213C216.471 129.213 214.789 116.7 214.55 110.375C214.397 106.324 214.44 100.796 214.489 97.3475C214.519 95.414 214.55 94.1306 214.55 94.1306L240.468 91.135C240.468 91.135 240.443 92.4626 240.937 95.4072C241.204 96.9867 241.618 99.0326 242.269 101.589C244.128 108.911 242.989 114.368 242.989 114.368L242.747 123.624C242.747 123.624 245.027 129.813 244.548 131.944C244.259 133.209 244.096 134.506 244.063 135.811C244.063 135.811 249.162 149.325 248.622 153.253C248.082 157.182 250.3 163.374 250.3 163.374C250.3 163.374 250.908 167.765 250.306 168.963Z" fill="#464353"/>
<path opacity="0.05" d="M235.488 134.282L243.379 133.115C243.379 133.115 238.909 138.177 235.488 134.282Z" fill="black"/>
<path opacity="0.1" d="M242.238 124.56C242.238 124.56 242.508 127.658 240.799 128.822C240.799 128.822 243.858 128.291 242.238 124.56Z" fill="black"/>
<path opacity="0.1" d="M241.753 114.709C241.753 114.709 235.157 120.734 232.758 120.233C230.359 119.733 241.753 114.709 241.753 114.709Z" fill="black"/>
<path opacity="0.1" d="M225.708 137.108C225.708 137.108 220.698 138.371 220.548 140.604C220.397 142.837 225.708 137.108 225.708 137.108Z" fill="black"/>
<path opacity="0.05" d="M226.809 164.872C226.809 164.872 219.732 166.335 221.741 167.333C223.751 168.33 227.052 169.13 227.052 169.13C227.052 169.13 229.337 169.263 226.809 164.872Z" fill="black"/>
<g opacity="0.05">
<path opacity="0.05" d="M220.312 168.919C220.134 168.796 219.983 168.629 219.871 168.433C219.759 168.236 219.688 168.013 219.664 167.782L219.591 167.922C219.591 167.922 218.931 169.719 220.072 170.516C220.201 170.608 220.327 170.699 220.44 170.788C220.652 170.744 220.879 170.71 221.097 170.648C222.063 170.383 221.453 169.719 220.312 168.919Z" fill="black"/>
<path opacity="0.05" d="M229.429 168.385C229.626 168.187 229.62 167.677 229.5 167.023C229.193 167.537 229.104 168.34 229.098 168.95C229.172 168.738 229.285 168.546 229.429 168.385Z" fill="black"/>
<path opacity="0.05" d="M228.34 135.266C228.08 136.053 227.918 136.877 227.862 137.714C227.998 137.136 228.182 136.573 228.411 136.032L228.34 135.266Z" fill="black"/>
<path opacity="0.05" d="M244.551 131.773C244.598 131.534 244.62 131.29 244.615 131.045C244.526 131.542 244.465 132.001 244.419 132.407C244.459 132.199 244.502 132.001 244.551 131.773Z" fill="black"/>
<path opacity="0.05" d="M228.172 158.935C228.27 158.771 228.325 158.22 228.349 157.454C228.127 158.047 228.01 158.681 228.003 159.323C228.045 159.186 228.101 159.056 228.172 158.935Z" fill="black"/>
<path opacity="0.05" d="M229.644 171.489C229.272 172.824 228.996 174.19 228.819 175.574L221.563 176.503C221.563 176.503 220.901 175.574 219.94 173.099C219.863 172.908 219.794 172.713 219.735 172.514C219.299 172.735 219.121 173.236 219.698 174.696C220.658 177.16 221.324 178.1 221.324 178.1L228.58 177.167C228.58 177.167 229.12 172.973 229.837 172.173C230.206 171.789 229.979 171.588 229.644 171.489Z" fill="black"/>
<path opacity="0.05" d="M220.072 159.534C220.072 159.534 220.131 164.126 220.732 164.392C221.039 163.633 221.238 162.911 220.968 162.792C220.355 162.526 220.309 157.931 220.309 157.931C220.309 157.931 219.109 152.484 219.41 151.007C219.71 149.529 218.449 146.016 218.449 146.016L218.029 141.822C216.745 139.442 216.277 136.629 216.71 133.898V127.43C216.71 127.43 215.029 114.916 214.789 108.591C214.636 104.54 214.679 99.0121 214.728 95.5638C214.728 94.9408 214.746 94.3894 214.756 93.923L214.55 93.9468C214.55 93.9468 214.516 95.2268 214.489 97.1637C214.44 100.612 214.394 106.14 214.55 110.188C214.789 116.513 216.468 129.03 216.468 129.03V135.497C216.037 138.228 216.506 141.04 217.79 143.419L218.207 147.613C218.207 147.613 219.468 151.139 219.167 152.607C218.867 154.074 220.072 159.534 220.072 159.534Z" fill="black"/>
<path opacity="0.05" d="M241.431 174.71C240.842 173.763 240.449 172.683 240.28 171.547C239.541 172.289 240.391 175.169 241.201 176.313C242.038 177.511 248.278 178.243 249.484 176.044V174.778C247.849 176.558 242.222 175.843 241.431 174.71Z" fill="black"/>
<path opacity="0.05" d="M250.549 167.186C250.22 167.826 249.939 168.494 249.708 169.185V170.128C249.846 169.787 250.039 169.331 250.322 168.793C250.512 168.269 250.601 167.707 250.586 167.142C250.586 167.142 250.558 167.173 250.549 167.186Z" fill="black"/>
<path opacity="0.05" d="M241.799 168.238C242.027 167.725 242.225 167.197 242.391 166.655C242.391 166.655 241.37 166.921 239.75 164.79C238.572 163.241 238.504 160.313 238.673 158.4C238.366 159.534 237.891 164.259 239.51 166.39C240.569 167.782 241.37 168.15 241.799 168.238Z" fill="black"/>
<path opacity="0.05" d="M238.67 153.475C238.776 154.786 238.816 156.103 238.79 157.42C238.82 157.212 238.861 157.006 238.912 156.804C239.219 155.67 238.912 151.878 238.912 151.878C238.912 151.878 238.974 149.213 238.492 148.348C238.01 147.483 237.007 142.554 237.007 142.554C237.007 142.554 237.007 140.89 236.166 140.025C235.326 139.16 234.786 135.763 234.786 135.763C234.29 134.916 234.073 133.904 234.172 132.9C234.353 131.236 233.154 129.438 233.154 129.438L231.114 122.249L229.193 116.857L228.11 119.988C228.11 119.988 228.11 120.383 228.073 121.01L228.951 118.467L230.871 123.849L232.911 131.038C232.911 131.038 234.111 132.835 233.93 134.5C233.831 135.504 234.048 136.516 234.544 137.363C234.544 137.363 235.083 140.767 235.924 141.625C236.765 142.483 236.762 144.154 236.762 144.154C236.762 144.154 237.783 149.08 238.262 149.941C238.74 150.802 238.67 153.475 238.67 153.475Z" fill="black"/>
</g>
<path d="M243.707 30.9945L243.256 33.425L243.284 34.5075L243.302 35.3041L240.799 35.59L240.52 35.0148C240.001 33.9731 238.925 31.8557 238.578 31.5289C238.115 31.1 237.289 24.3394 238.271 24.7411C238.875 25.0001 239.372 25.4986 239.664 26.1402C239.664 26.1402 244.594 26.7666 243.707 30.9945Z" fill="#FFCDD3"/>
<path opacity="0.1" d="M243.302 35.3041L240.799 35.59L240.52 35.0147C240.856 34.5894 241.316 34.3067 241.819 34.2149C242.323 34.123 242.839 34.2276 243.281 34.5109L243.302 35.3041Z" fill="black"/>
<path d="M243.934 36.6215L240.633 37.4691L240.563 36.9245L240.376 35.4573C240.376 35.4573 241.683 33.5237 243.572 34.9739L243.738 35.7194L243.934 36.6215Z" fill="#6C63FF"/>
<path d="M190.461 31.26L186.936 33.357L186.629 32.6217C186.295 31.8421 185.795 30.6677 185.657 30.2388C185.448 29.592 183.979 28.775 183.979 28.775C180.297 24.8637 184.684 21.5004 184.684 21.5004C187.01 16.3091 189.593 23.2637 189.593 23.2637C189.593 23.2637 189.955 26.93 189.7 27.1751C189.446 27.4202 189.446 28.4244 189.446 28.4244C189.781 29.1439 190.066 29.8917 190.295 30.6609C190.403 31.0319 190.461 31.26 190.461 31.26Z" fill="#FFCDD3"/>
<path opacity="0.1" d="M190.461 31.26L186.936 33.3569L186.629 32.6217C187.126 32.1587 188.89 30.5792 189.47 30.6439C189.747 30.6822 190.026 30.6902 190.305 30.6677C190.403 31.0319 190.461 31.26 190.461 31.26Z" fill="black"/>
<path d="M190.82 32.4412L186.859 34.6063L186.779 33.6633L186.724 33.0097C186.724 33.0097 189.019 30.8277 189.697 30.9128C190.04 30.9679 190.388 30.9679 190.731 30.9128L190.777 31.7025L190.82 32.4412Z" fill="#6C63FF"/>
<path d="M234.108 47.1402C234.108 47.1402 216.842 49.3018 220.069 48.1376C222.315 47.324 223.208 45.7547 223.395 43.9846C223.548 42.5106 223.205 40.9209 222.754 39.5593C222.348 38.3513 221.834 37.1915 221.22 36.0973C221.22 36.0973 234.412 28.0431 231.776 35.3654C231.37 36.4729 231.118 37.6425 231.028 38.8342C230.949 40.0184 231.064 41.2088 231.368 42.3472C231.866 44.1945 232.814 45.8532 234.108 47.1402Z" fill="#FFCDD3"/>
<path opacity="0.1" d="M231.767 35.3552C231.361 36.4627 231.108 37.6323 231.019 38.824C229.776 39.9848 228.414 39.9065 226.662 39.9065C225.318 39.9065 223.827 40.2673 222.754 39.549C222.348 38.3411 221.834 37.1813 221.22 36.0871C221.22 36.0871 234.409 28.0329 231.767 35.3552Z" fill="black"/>
<path d="M226.429 40.4171C230.372 40.4171 233.568 36.8706 233.568 32.4957C233.568 28.1208 230.372 24.5743 226.429 24.5743C222.486 24.5743 219.29 28.1208 219.29 32.4957C219.29 36.8706 222.486 40.4171 226.429 40.4171Z" fill="#FFCDD3"/>
<path opacity="0.1" d="M234.108 47.1402C234.108 47.1402 216.842 49.3018 220.069 48.1376C222.315 47.324 223.208 45.7547 223.395 43.9846C224.254 42.9634 225.981 42.2042 227.076 41.8094C228.089 41.4315 229.182 41.4113 230.206 41.7515C230.608 41.886 230.991 42.0831 231.344 42.337C231.847 44.1911 232.804 45.8538 234.108 47.1402Z" fill="black"/>
<path opacity="0.1" d="M243.934 36.6215L240.633 37.4691L240.563 36.9245C240.916 36.3857 241.411 35.981 241.979 35.7654C242.547 35.5497 243.161 35.5337 243.738 35.7194L243.934 36.6215Z" fill="black"/>
<path opacity="0.1" d="M190.82 32.4412L186.859 34.6063L186.78 33.6633C188.062 32.898 189.396 32.2414 190.768 31.6991L190.82 32.4412Z" fill="black"/>
<path opacity="0.1" d="M240.937 95.414C234.246 96.5986 224.735 98.1101 223.226 97.5994C221.971 97.1773 217.971 97.2216 214.489 97.3543C214.519 95.4208 214.55 94.1375 214.55 94.1375L240.468 91.1418C240.468 91.1418 240.443 92.4694 240.937 95.414Z" fill="black"/>
<path d="M247.607 93.6711C247.607 93.6711 225.588 97.865 223.226 97.0752C220.864 96.2855 208.73 97.1399 208.73 97.1399C203.269 101.201 205.549 95.2098 205.549 95.2098C205.549 95.2098 205.07 92.0814 205.73 89.5521C206.173 87.6951 206.476 85.8004 206.635 83.8877C206.635 83.8877 206.515 79.8912 207.175 78.9585C207.834 78.0258 208.617 71.3707 208.617 71.3707C208.617 71.3707 209.215 66.8432 209.157 65.8458C209.098 64.8484 209.335 62.0503 209.335 62.0503L210.117 57.39C205.616 56.7262 191.937 47.4057 191.937 47.4057C191.277 44.2774 186.178 36.9551 186.178 36.9551C186.104 36.3394 185.963 35.7359 185.758 35.1577C185.399 34.0922 190.798 31.9613 190.798 31.9613C190.798 31.9613 194.817 37.4078 195.658 38.8852C196.499 40.3626 199.376 43.0791 199.376 43.0791C199.823 43.0281 200.275 43.0933 200.695 43.2697L200.766 43.2936C201.73 43.7137 202.635 44.287 203.45 44.9956C204.803 44.96 206.116 45.5093 207.11 46.5275C207.11 46.5275 209.565 46.1258 209.991 46.5922C210.418 47.0585 212.51 46.5922 212.51 46.5922C212.51 46.5922 214.608 41.6664 215.989 43.0961C217.369 44.5259 223.226 44.4578 223.226 44.4578C224.005 43.3072 225.904 42.4834 227.092 42.0749C228.104 41.6986 229.197 41.6784 230.221 42.017C230.662 42.1632 231.078 42.3936 231.448 42.6978L235.01 46.5581C235.01 46.5581 236.028 45.0909 235.909 44.7607C235.789 44.4305 237.108 44.1616 237.108 44.1616C237.108 44.1616 238.848 43.5625 239.507 43.3616C240.167 43.1608 240.771 43.954 240.827 44.0254C240.805 43.9403 240.354 42.3234 240.52 41.0979C240.685 39.8724 239.799 38.715 239.799 38.715C241.897 32.9893 246.637 37.7823 246.637 37.7823C246.637 37.7823 247.177 40.9107 246.699 42.1089C246.22 43.3072 247.177 45.8364 247.057 46.5036C246.938 47.1709 247.3 48.301 247.3 49.5674C247.3 50.8337 246.686 53.2268 246.34 54.2923C245.993 55.3578 243.1 57.7543 243.1 57.7543C243.1 57.7543 242.919 61.5498 241.658 63.7455C240.397 65.9412 241.189 73.4506 241.189 73.4506C241.189 73.4506 242.388 79.3091 243.888 81.1746C245.389 83.04 247.607 93.6711 247.607 93.6711Z" fill="#3F3D56"/>
<path opacity="0.1" d="M215.51 49.8669C215.51 49.8669 214.851 47.6713 214.249 47.484C213.652 47.2404 213.071 46.9515 212.51 46.6194L212.896 45.799C212.896 45.799 215.148 46.4798 215.51 47.2185C215.872 47.9572 215.51 49.8669 215.51 49.8669Z" fill="black"/>
<path opacity="0.1" d="M203.45 45.0092C203.331 45.6901 197.99 46.2722 197.99 46.2722L200.689 43.2697L200.757 43.297C201.725 43.7193 202.632 44.2962 203.45 45.0092Z" fill="black"/>
<path d="M188.001 36.4036C188.265 36.4036 188.479 36.1659 188.479 35.8726C188.479 35.5793 188.265 35.3415 188.001 35.3415C187.736 35.3415 187.522 35.5793 187.522 35.8726C187.522 36.1659 187.736 36.4036 188.001 36.4036Z" fill="#575988"/>
<path d="M188.614 37.4691C188.878 37.4691 189.093 37.2314 189.093 36.9381C189.093 36.6448 188.878 36.407 188.614 36.407C188.35 36.407 188.135 36.6448 188.135 36.9381C188.135 37.2314 188.35 37.4691 188.614 37.4691Z" fill="#575988"/>
<path d="M189.215 38.4529C189.48 38.4529 189.694 38.2151 189.694 37.9219C189.694 37.6286 189.48 37.3908 189.215 37.3908C188.951 37.3908 188.737 37.6286 188.737 37.9219C188.737 38.2151 188.951 38.4529 189.215 38.4529Z" fill="#575988"/>
<path d="M189.844 39.515C190.109 39.515 190.323 39.2772 190.323 38.984C190.323 38.6907 190.109 38.4529 189.844 38.4529C189.58 38.4529 189.366 38.6907 189.366 38.984C189.366 39.2772 189.58 39.515 189.844 39.515Z" fill="#575988"/>
<path d="M246.398 39.3584C246.613 39.3584 246.788 39.1648 246.788 38.9261C246.788 38.6873 246.613 38.4938 246.398 38.4938C246.183 38.4938 246.008 38.6873 246.008 38.9261C246.008 39.1648 246.183 39.3584 246.398 39.3584Z" fill="#575988"/>
<path d="M246.459 40.3422C246.674 40.3422 246.849 40.1486 246.849 39.9099C246.849 39.6711 246.674 39.4776 246.459 39.4776C246.244 39.4776 246.07 39.6711 246.07 39.9099C246.07 40.1486 246.244 40.3422 246.459 40.3422Z" fill="#575988"/>
<path d="M246.511 41.3226C246.727 41.3226 246.901 41.129 246.901 40.8903C246.901 40.6515 246.727 40.4579 246.511 40.4579C246.296 40.4579 246.122 40.6515 246.122 40.8903C246.122 41.129 246.296 41.3226 246.511 41.3226Z" fill="#575988"/>
<path opacity="0.1" d="M215.532 67.9087C215.474 67.8304 229 86.7811 239.498 75.8301C239.507 75.8335 222.919 78.3287 215.532 67.9087Z" fill="black"/>
<path opacity="0.1" d="M207.77 77.7603C207.77 77.7603 215.863 78.0053 216.71 80.5891V83.2783C216.479 83.4202 216.22 83.4946 215.957 83.4946C215.693 83.4946 215.434 83.4202 215.204 83.2783C214.387 82.7881 209.494 80.0308 207.77 81.3584V77.7603Z" fill="black"/>
<path d="M207.92 77.7603C207.92 77.7603 215.661 77.9951 216.471 80.4597V83.0196C216.25 83.1555 216.002 83.2269 215.75 83.2269C215.497 83.2269 215.249 83.1555 215.029 83.0196C214.249 82.5567 209.571 79.9253 207.92 81.1916V77.7603Z" fill="#3F3D56"/>
<path opacity="0.1" d="M212.188 58.2615C213.015 60.3851 214.068 62.3909 215.326 64.2357C216.694 66.2748 218.352 68.0534 220.235 69.5019C220.235 69.5019 212.323 59.4938 212.188 58.2615Z" fill="black"/>
<path opacity="0.1" d="M209.54 47.8279C209.54 47.8279 210.89 54.2957 214.369 56.4913L209.54 47.8279Z" fill="black"/>
<path opacity="0.1" d="M207.469 48.4814C207.436 48.3623 206.27 53.5876 211.955 56.4913C211.955 56.4913 209.54 55.5824 207.469 48.4814Z" fill="black"/>
<path opacity="0.1" d="M242.808 44.1446C242.719 44.1446 245.613 46.1871 246.401 47.1402C246.401 47.1402 244.517 44.0084 242.808 44.1446Z" fill="black"/>
<path d="M224.499 39.675C224.5 39.8478 224.534 40.0185 224.597 40.1762C224.661 40.334 224.753 40.4754 224.869 40.5916C224.984 40.7077 225.12 40.796 225.267 40.851C225.415 40.9059 225.571 40.9262 225.726 40.9107C227.902 41.0605 230.169 41.166 232.169 40.2299C232.544 40.0813 232.881 39.8336 233.151 39.5082C233.507 39.0214 233.577 38.361 233.721 37.7551C234.004 36.5704 234.605 35.5186 235.038 34.3918C235.769 32.4881 236.015 30.3976 235.746 28.3495C235.69 27.7217 235.503 27.117 235.2 26.5828C234.623 25.667 233.571 25.296 232.807 24.5675C232.043 23.839 231.552 22.7259 230.66 22.1846C229.856 21.6876 228.871 21.7489 227.966 21.9191C226.186 22.2545 224.48 22.9652 222.941 24.0126C222.422 24.3531 221.855 24.7718 221.26 24.6458C220.738 24.5369 220.358 24.0501 220.032 23.5939C219.614 24.6833 219.438 25.8684 219.52 27.0491C219.543 27.2224 219.538 27.3987 219.505 27.5699C219.43 27.777 219.316 27.9638 219.17 28.118C218.633 28.7988 218.299 29.9052 218.83 30.6064C219.06 30.9094 219.416 31.0762 219.64 31.386C220.042 31.9408 219.907 32.7476 219.897 33.4557C219.875 33.7029 219.932 33.9509 220.057 34.1569C220.173 34.277 220.315 34.3617 220.469 34.4028C220.624 34.444 220.785 34.4402 220.937 34.3918C221.241 34.2902 221.561 34.2567 221.876 34.2931C222.209 34.4131 222.496 34.6526 222.692 34.9739C223.683 36.407 224.076 37.9661 224.499 39.675Z" fill="#2D293D"/>
<g opacity="0.1">
<path opacity="0.1" d="M233.405 38.9057C233.136 39.2311 232.799 39.4787 232.424 39.6273C230.411 40.5567 228.147 40.4511 225.981 40.3082C225.749 40.3107 225.519 40.2536 225.309 40.1413C224.978 39.9269 224.852 39.4775 224.751 39.0691C224.327 37.367 223.938 35.8045 222.932 34.385C222.738 34.0576 222.45 33.8118 222.116 33.6871C221.8 33.6541 221.481 33.6876 221.177 33.7859C221.024 33.8347 220.863 33.839 220.709 33.7985C220.555 33.7579 220.413 33.6738 220.296 33.5544C220.171 33.3484 220.115 33.1004 220.137 32.8531C220.137 32.1383 220.281 31.3383 219.879 30.7834C219.655 30.4737 219.299 30.3069 219.069 30.0005C218.919 29.7746 218.827 29.5078 218.803 29.2285C218.778 28.9492 218.823 28.6677 218.931 28.4142C218.548 29.095 218.385 29.9494 218.83 30.5349C219.06 30.8379 219.416 31.0047 219.64 31.3145C220.042 31.8728 219.907 32.6761 219.897 33.3842C219.874 33.6311 219.929 33.8793 220.054 34.0854C220.17 34.2061 220.313 34.2911 220.468 34.3323C220.623 34.3734 220.784 34.3693 220.937 34.3203C221.241 34.2187 221.561 34.1852 221.876 34.2216C222.209 34.3416 222.496 34.5812 222.692 34.9024C223.696 36.3219 224.088 37.881 224.512 39.5899C224.561 40.0104 224.75 40.3952 225.042 40.669C225.253 40.7815 225.484 40.8374 225.717 40.8324C227.892 40.9822 230.16 41.0911 232.16 40.1516C232.535 40.004 232.873 39.7561 233.142 39.4299C233.277 39.2381 233.381 39.0215 233.448 38.7899C233.451 38.8342 233.43 38.8716 233.405 38.9057Z" fill="black"/>
<path opacity="0.1" d="M219.52 27.3623C219.617 27.2462 219.691 27.1095 219.738 26.9606C219.766 26.7884 219.766 26.612 219.738 26.4398C219.678 25.4692 219.792 24.4952 220.072 23.5735L220.032 23.5225C219.613 24.6102 219.437 25.7946 219.52 26.9742C219.529 27.1034 219.529 27.2331 219.52 27.3623Z" fill="black"/>
</g>
<path opacity="0.1" d="M223.226 44.4748C223.226 44.4748 232.144 45.7888 232.945 44.3012L223.226 44.4748Z" fill="black"/>
<path opacity="0.1" d="M240.563 40.3796C240.563 40.3796 245.52 40.3796 246.61 42.4493L240.563 40.3796Z" fill="black"/>
<path d="M268.3 224.253C266.829 225.712 264.918 226.504 262.946 226.473C262.443 226.473 261.747 226.578 261.743 227.136C261.756 227.3 261.806 227.457 261.891 227.592C262.513 228.744 263.496 229.601 264.652 229.999C265.726 230.36 266.873 230.299 267.993 230.234L271.26 230.047C271.874 230.009 272.487 229.975 273.101 229.89C273.714 229.805 274.383 229.666 275.024 229.55C276.6 229.301 278.193 229.219 279.783 229.305C280.206 229.322 280.703 229.305 280.955 228.964C281.206 228.624 281.077 227.974 280.982 227.463C280.786 226.411 280.982 225.308 280.801 224.253C280.494 222.401 279.049 220.982 277.466 220.311C275.994 219.692 273.386 218.98 271.993 220.015C270.524 221.101 269.625 222.915 268.3 224.253Z" fill="#3F3D56"/>
<path d="M271.545 162.21C271.834 163.731 273.162 164.895 273.199 166.448C273.233 167.694 272.432 168.739 271.855 169.804C271.312 170.908 270.853 172.06 270.484 173.249C269.398 176.345 268.05 179.32 266.459 182.134C265.692 183.496 264.833 184.949 265.008 186.532C265.13 187.272 265.365 187.984 265.704 188.636L268.005 193.708C268.509 194.721 268.903 195.796 269.18 196.911C269.38 197.875 269.398 198.872 269.515 199.852C269.877 202.964 271.193 206.095 270.413 209.112C270.346 209.37 270.107 209.683 269.919 209.503C270.68 211.079 271.291 212.665 271.233 214.453C271.202 215.389 270.944 216.366 271.254 217.237C271.386 217.601 271.616 217.942 271.613 218.333C271.613 218.592 271.506 218.834 271.481 219.086C271.417 219.804 272.012 220.403 272.628 220.631C273.245 220.859 273.917 220.842 274.54 221.05C275.736 221.448 276.592 222.592 277.608 223.385C278.649 224.181 279.877 224.625 281.142 224.662C281.322 224.683 281.504 224.642 281.663 224.546C281.754 224.458 281.826 224.351 281.876 224.23C281.925 224.109 281.951 223.977 281.952 223.845C282.007 223.209 281.921 222.568 281.701 221.978C281.48 221.387 281.132 220.867 280.688 220.461C280.493 220.325 280.332 220.138 280.218 219.916C280.161 219.72 280.146 219.511 280.175 219.307C280.361 216.517 280.315 213.714 280.04 210.933C279.916 210.051 279.876 209.158 279.921 208.267C279.985 207.525 280.188 206.79 280.114 206.051C280.04 205.313 279.7 204.639 279.5 203.927C279.145 202.661 279.243 201.299 279.194 199.975C279.132 197.674 278.657 195.413 278.184 193.167C277.997 192.285 277.792 191.362 277.23 190.709C276.752 190.154 275.979 189.623 276.16 188.884C276.26 188.612 276.409 188.365 276.598 188.159C276.82 187.85 276.983 187.493 277.077 187.112C277.171 186.73 277.194 186.331 277.144 185.94C277.346 185.997 277.56 185.974 277.748 185.876C277.937 185.778 278.089 185.611 278.178 185.402C281.915 183.444 284.928 179.53 286.271 175.189C286.351 174.867 286.473 174.56 286.633 174.277C286.98 173.739 287.581 173.508 288.115 173.212C289.79 172.276 290.947 170.522 292.008 168.807C292.622 167.813 293.235 166.785 293.512 165.614C293.657 164.856 293.726 164.083 293.717 163.309L293.812 159.309C293.833 159.046 293.81 158.781 293.745 158.526C293.654 158.289 293.521 158.074 293.355 157.893C292.335 156.696 290.995 155.894 289.532 155.606C288.551 155.412 287.548 155.449 286.554 155.357C284.627 155.18 282.725 154.516 280.798 154.676C277.77 154.925 275.074 157.253 273.647 160.228C273.147 161.277 272.619 162.189 271.545 162.21Z" fill="#464353"/>
<path d="M254.733 136.202C254.774 136.82 254.699 137.44 254.512 138.023C254.276 138.582 253.684 139.017 253.166 138.789C253.322 138.398 252.908 137.952 252.521 137.999C252.331 138.048 252.155 138.147 252.007 138.288C251.858 138.43 251.744 138.608 251.672 138.81C251.415 139.381 251.329 140.029 251.426 140.658C251.549 141.441 251.957 142.193 251.85 142.98C251.764 143.633 251.331 144.283 251.561 144.889C251.71 145.166 251.898 145.416 252.116 145.628C252.42 146.042 252.568 146.57 252.531 147.102C252.494 147.634 252.274 148.13 251.917 148.488L257.721 148.617C257.51 149.693 257.945 150.792 258.442 151.749C259.834 154.379 261.757 156.615 264.058 158.282C266.36 159.949 268.978 161.002 271.708 161.359C271.56 161.454 271.434 161.585 271.337 161.742C271.241 161.898 271.177 162.076 271.15 162.264C271.124 162.451 271.135 162.643 271.183 162.825C271.231 163.007 271.315 163.174 271.429 163.316C271.901 163.837 272.702 163.772 273.294 163.435C273.886 163.098 274.349 162.54 274.889 162.107C275.843 161.358 277.005 161.01 278.169 161.127C278.896 161.205 279.602 161.467 280.332 161.508C282.479 161.634 284.32 159.919 286.388 159.217C287.894 158.703 289.603 158.703 290.867 157.658C291.413 157.209 291.861 156.47 291.702 155.742C291.569 155.323 291.361 154.939 291.088 154.615C290.361 153.57 289.931 152.314 289.41 151.126C288.377 148.774 286.954 146.658 285.216 144.889C283.904 143.617 282.514 142.448 281.056 141.39C280.703 141.101 280.327 140.849 279.933 140.638C279.424 140.389 278.859 140.27 278.399 139.957C277.718 139.48 277.325 138.639 276.801 137.962C275.65 136.471 273.883 135.787 272.466 134.616C271.515 133.829 270.674 132.795 269.539 132.417C268.987 132.23 268.401 132.216 267.849 132.032C266.594 131.61 265.68 130.374 264.449 129.874C263.477 129.479 262.403 129.581 261.381 129.442C260.23 129.284 259.13 128.819 258.176 128.087C257.868 127.809 257.523 127.586 257.154 127.426C255.598 126.902 255.473 130.116 255.313 131.229C255.108 132.883 254.733 134.527 254.733 136.202Z" fill="#00204A"/>
<path d="M256.249 146.98C256.51 150.118 254.374 153.158 254.997 156.232C255.129 156.886 255.384 157.509 255.476 158.172C255.737 159.994 254.755 161.719 253.819 163.244L245.781 176.333C245.459 176.908 245.073 177.436 244.634 177.906C243.1 179.421 240.793 179.268 238.774 179.717C237.356 180.04 236.017 180.697 234.847 181.644C234.795 181.689 234.76 181.755 234.751 181.828C234.742 181.902 234.759 181.976 234.798 182.035C235.131 182.539 235.573 182.942 236.083 183.208C236.592 183.473 237.154 183.593 237.716 183.557C237.927 183.863 237.716 184.319 237.424 184.541C236.995 184.881 236.4 184.959 236.314 185.773C236.285 186.056 236.336 186.341 236.461 186.59C236.786 187.138 237.289 187.526 237.866 187.672C240.649 188.619 243.655 186.958 245.738 184.701C247.821 182.444 249.315 179.594 251.359 177.3C252.491 176.027 253.776 174.941 254.942 173.709C257.267 171.248 259.078 168.262 260.82 165.27C261.345 164.368 261.875 163.442 262.093 162.397C262.311 161.352 262.21 160.293 262.458 159.282C262.784 157.958 263.658 156.899 264.385 155.789C265.812 153.611 266.766 150.945 266.575 148.26C266.385 145.574 264.888 142.925 262.606 142.013C261.898 141.701 261.118 141.648 260.381 141.863C259.446 142.183 258.755 143.041 258.117 143.865L256.583 145.819C256.21 146.251 255.917 146.762 255.721 147.32C255.622 147.601 255.599 147.908 255.653 148.204C255.708 148.5 255.838 148.772 256.028 148.988" fill="#FBBEBE"/>
<path d="M260.323 134.105C259.268 134.173 258.105 134.289 257.36 135.126C257.047 135.511 256.794 135.95 256.611 136.427C255.887 138.064 255.181 139.776 255.129 141.601C255.086 143.058 255.467 144.484 255.666 145.924C255.832 147.123 255.411 148.345 255.332 149.556C256.642 149.111 258.372 148.505 259.559 147.752C260.369 147.238 261.151 146.653 262.035 146.326C263.296 145.86 265.41 146.666 266.609 147.313C266.674 146.38 266.042 144.753 266.109 143.817C266.119 143.423 266.182 143.033 266.296 142.66C266.476 142.265 266.688 141.89 266.931 141.54C267.388 140.716 267.598 139.753 267.531 138.789C267.465 137.824 267.125 136.908 266.56 136.171C265.496 134.844 263.83 134.347 262.241 134.129C261.24 134 260.231 133.962 259.225 134.013" fill="#00204A"/>
<defs>
<linearGradient id="paint0_linear" x1="216.661" y1="185.926" x2="216.661" y2="19.5805" gradientUnits="userSpaceOnUse">
<stop stop-color="#808080" stop-opacity="0.25"/>
<stop offset="0.54" stop-color="#808080" stop-opacity="0.12"/>
<stop offset="1" stop-color="#808080" stop-opacity="0.1"/>
</linearGradient>
</defs>
</svg>
