<svg width="11" height="18" viewBox="0 0 11 18" fill="none" xmlns="http://www.w3.org/2000/svg">
<path d="M5.80001 7.90002C3.53001 7.31002 2.80001 6.7 2.80001 5.75C2.80001 4.66 3.81001 3.90002 5.50001 3.90002C7.28001 3.90002 7.94001 4.75 8.00001 6H10.21C10.14 4.28 9.09001 2.7 7.00001 2.19V0H4.00001V2.15997C2.06001 2.57997 0.500008 3.84002 0.500008 5.77002C0.500008 8.08002 2.41 9.23002 5.2 9.90002C7.7 10.5 8.2 11.38 8.2 12.31C8.2 13 7.71001 14.1 5.50001 14.1C3.44001 14.1 2.63 13.18 2.52 12H0.320007C0.440007 14.19 2.08001 15.42 4.00001 15.83V18H7.00001V15.85C8.95001 15.48 10.5 14.35 10.5 12.3C10.5 9.45999 8.07001 8.49002 5.80001 7.90002Z" fill="white"/>
</svg>
