<svg width="311" height="300" viewBox="0 0 311 300" fill="none" xmlns="http://www.w3.org/2000/svg">
<path d="M292.804 133.341H279.769C249.115 133.341 233.757 97.4394 255.435 76.4385L264.648 67.5026C267.685 64.3431 269.338 60.1648 269.259 55.8479C269.179 51.5311 267.373 47.4126 264.221 44.36C261.07 41.3074 256.818 39.559 252.362 39.483C247.905 39.4071 243.593 41.0096 240.332 43.9529L231.114 52.8712C209.436 73.8662 172.376 58.9945 172.376 29.298V16.6706C172.376 12.2493 170.563 8.00904 167.336 4.8827C164.108 1.75636 159.731 0 155.167 0C150.603 0 146.226 1.75636 142.999 4.8827C139.772 8.00904 137.959 12.2493 137.959 16.6706V29.3039C137.959 59.0004 100.899 73.872 79.2209 52.8771L70.0028 43.9529C66.742 41.0096 62.4294 39.4071 57.9733 39.483C53.5171 39.559 49.2653 41.3074 46.1134 44.36C42.9616 47.4126 41.1557 51.5311 41.0762 55.8479C40.9967 60.1648 42.6498 64.3431 45.6873 67.5026L54.9114 76.4385C76.5897 97.4394 61.2323 133.341 30.5778 133.341H17.5309C15.2444 133.3 12.9722 133.7 10.8472 134.519C8.7222 135.338 6.78703 136.559 5.15481 138.111C3.52258 139.663 2.22603 141.514 1.34095 143.557C0.455864 145.6 0 147.793 0 150.009C0 152.224 0.455864 154.418 1.34095 156.46C2.22603 158.503 3.52258 160.355 5.15481 161.907C6.78703 163.459 8.7222 164.68 10.8472 165.499C12.9722 166.318 15.2444 166.718 17.5309 166.676H30.5657C61.2202 166.676 76.5776 202.584 54.8994 223.585L45.6873 232.515C42.6796 235.68 41.0515 239.849 41.1433 244.15C41.2351 248.451 43.0397 252.551 46.1798 255.593C49.3199 258.635 53.5524 260.384 57.9923 260.473C62.4321 260.562 66.7355 258.984 70.0028 256.071L79.2209 247.135C100.899 226.134 137.959 241.011 137.959 270.708V283.329C137.959 287.751 139.772 291.991 142.999 295.117C146.226 298.244 150.603 300 155.167 300C159.731 300 164.108 298.244 167.336 295.117C170.563 291.991 172.376 287.751 172.376 283.329V270.72C172.376 241.023 209.436 226.146 231.114 247.146L240.332 256.071C243.599 258.984 247.903 260.562 252.343 260.473C256.782 260.384 261.015 258.635 264.155 255.593C267.295 252.551 269.1 248.451 269.192 244.15C269.283 239.849 267.655 235.68 264.648 232.515L255.423 223.585C233.745 202.584 249.103 166.676 279.757 166.676H292.786C295.072 166.718 297.344 166.318 299.469 165.499C301.594 164.68 303.53 163.459 305.162 161.907C306.794 160.355 308.091 158.503 308.976 156.46C309.861 154.418 310.317 152.224 310.317 150.009C310.317 147.793 309.861 145.6 308.976 143.557C308.091 141.514 306.794 139.663 305.162 138.111C303.53 136.559 301.594 135.338 299.469 134.519C297.344 133.7 295.072 133.3 292.786 133.341H292.804ZM135.812 159.387C130.07 159.387 124.456 157.738 119.682 154.647C114.907 151.556 111.186 147.164 108.988 142.024C106.791 136.885 106.216 131.23 107.336 125.774C108.457 120.318 111.222 115.306 115.282 111.373C119.342 107.439 124.516 104.761 130.148 103.675C135.78 102.59 141.617 103.147 146.922 105.276C152.228 107.405 156.762 111.01 159.952 115.635C163.142 120.26 164.845 125.698 164.845 131.261C164.845 138.72 161.786 145.874 156.342 151.149C150.897 156.424 143.512 159.387 135.812 159.387ZM184.201 192.201C181.33 192.201 178.523 191.376 176.136 189.831C173.749 188.286 171.888 186.089 170.789 183.52C169.69 180.95 169.403 178.122 169.963 175.394C170.523 172.666 171.906 170.161 173.936 168.194C175.966 166.227 178.553 164.888 181.369 164.345C184.185 163.802 187.104 164.081 189.756 165.145C192.409 166.21 194.676 168.012 196.271 170.325C197.866 172.637 198.717 175.356 198.717 178.138C198.717 181.868 197.188 185.445 194.466 188.082C191.743 190.719 188.051 192.201 184.201 192.201Z" fill="#005792"/>
</svg>
