<svg width="389" height="482" viewBox="0 0 389 482" fill="none" xmlns="http://www.w3.org/2000/svg">
<path d="M10.8042 445.532V455H9.58023V453.272C9.24423 453.848 8.78223 454.298 8.19423 454.622C7.60623 454.934 6.93423 455.09 6.17823 455.09C4.94223 455.09 3.96423 454.748 3.24423 454.064C2.53623 453.368 2.18223 452.354 2.18223 451.022V445.532H3.46023V450.896C3.46023 451.892 3.70623 452.648 4.19823 453.164C4.69023 453.68 5.39223 453.938 6.30423 453.938C7.30023 453.938 8.08623 453.638 8.66223 453.038C9.23823 452.426 9.52623 451.58 9.52623 450.5V445.532H10.8042ZM16.9216 455.09C16.1536 455.09 15.4156 454.982 14.7076 454.766C14.0116 454.538 13.4656 454.256 13.0696 453.92L13.6456 452.912C14.0416 453.224 14.5396 453.482 15.1396 453.686C15.7396 453.878 16.3636 453.974 17.0116 453.974C17.8756 453.974 18.5116 453.842 18.9196 453.578C19.3396 453.302 19.5496 452.918 19.5496 452.426C19.5496 452.078 19.4356 451.808 19.2076 451.616C18.9796 451.412 18.6916 451.262 18.3436 451.166C17.9956 451.058 17.5336 450.956 16.9576 450.86C16.1896 450.716 15.5716 450.572 15.1036 450.428C14.6356 450.272 14.2336 450.014 13.8976 449.654C13.5736 449.294 13.4116 448.796 13.4116 448.16C13.4116 447.368 13.7416 446.72 14.4016 446.216C15.0616 445.712 15.9796 445.46 17.1556 445.46C17.7676 445.46 18.3796 445.544 18.9916 445.712C19.6036 445.868 20.1076 446.078 20.5036 446.342L19.9456 447.368C19.1656 446.828 18.2356 446.558 17.1556 446.558C16.3396 446.558 15.7216 446.702 15.3016 446.99C14.8936 447.278 14.6896 447.656 14.6896 448.124C14.6896 448.484 14.8036 448.772 15.0316 448.988C15.2716 449.204 15.5656 449.366 15.9136 449.474C16.2616 449.57 16.7416 449.672 17.3536 449.78C18.1096 449.924 18.7156 450.068 19.1716 450.212C19.6276 450.356 20.0176 450.602 20.3416 450.95C20.6656 451.298 20.8276 451.778 20.8276 452.39C20.8276 453.218 20.4796 453.878 19.7836 454.37C19.0996 454.85 18.1456 455.09 16.9216 455.09ZM31.4342 450.662H23.5142C23.5862 451.646 23.9642 452.444 24.6482 453.056C25.3322 453.656 26.1962 453.956 27.2402 453.956C27.8282 453.956 28.3682 453.854 28.8602 453.65C29.3522 453.434 29.7782 453.122 30.1382 452.714L30.8582 453.542C30.4382 454.046 29.9102 454.43 29.2742 454.694C28.6502 454.958 27.9602 455.09 27.2042 455.09C26.2322 455.09 25.3682 454.886 24.6122 454.478C23.8682 454.058 23.2862 453.482 22.8662 452.75C22.4462 452.018 22.2362 451.19 22.2362 450.266C22.2362 449.342 22.4342 448.514 22.8302 447.782C23.2382 447.05 23.7902 446.48 24.4862 446.072C25.1942 445.664 25.9862 445.46 26.8622 445.46C27.7382 445.46 28.5242 445.664 29.2202 446.072C29.9162 446.48 30.4622 447.05 30.8582 447.782C31.2542 448.502 31.4522 449.33 31.4522 450.266L31.4342 450.662ZM26.8622 446.558C25.9502 446.558 25.1822 446.852 24.5582 447.44C23.9462 448.016 23.5982 448.772 23.5142 449.708H30.2282C30.1442 448.772 29.7902 448.016 29.1662 447.44C28.5542 446.852 27.7862 446.558 26.8622 446.558ZM46.7204 445.532L41.9864 456.134C41.6024 457.022 41.1584 457.652 40.6544 458.024C40.1504 458.396 39.5444 458.582 38.8364 458.582C38.3804 458.582 37.9544 458.51 37.5584 458.366C37.1624 458.222 36.8204 458.006 36.5324 457.718L37.1264 456.764C37.6064 457.244 38.1824 457.484 38.8544 457.484C39.2864 457.484 39.6524 457.364 39.9524 457.124C40.2644 456.884 40.5524 456.476 40.8164 455.9L41.2304 454.982L37.0004 445.532H38.3324L41.8964 453.578L45.4604 445.532H46.7204ZM52.1266 455.09C51.2146 455.09 50.3926 454.886 49.6606 454.478C48.9286 454.058 48.3526 453.482 47.9326 452.75C47.5126 452.018 47.3026 451.19 47.3026 450.266C47.3026 449.342 47.5126 448.514 47.9326 447.782C48.3526 447.05 48.9286 446.48 49.6606 446.072C50.3926 445.664 51.2146 445.46 52.1266 445.46C53.0386 445.46 53.8606 445.664 54.5926 446.072C55.3246 446.48 55.8946 447.05 56.3026 447.782C56.7226 448.514 56.9326 449.342 56.9326 450.266C56.9326 451.19 56.7226 452.018 56.3026 452.75C55.8946 453.482 55.3246 454.058 54.5926 454.478C53.8606 454.886 53.0386 455.09 52.1266 455.09ZM52.1266 453.956C52.7986 453.956 53.3986 453.806 53.9266 453.506C54.4666 453.194 54.8866 452.756 55.1866 452.192C55.4866 451.628 55.6366 450.986 55.6366 450.266C55.6366 449.546 55.4866 448.904 55.1866 448.34C54.8866 447.776 54.4666 447.344 53.9266 447.044C53.3986 446.732 52.7986 446.576 52.1266 446.576C51.4546 446.576 50.8486 446.732 50.3086 447.044C49.7806 447.344 49.3606 447.776 49.0486 448.34C48.7486 448.904 48.5986 449.546 48.5986 450.266C48.5986 450.986 48.7486 451.628 49.0486 452.192C49.3606 452.756 49.7806 453.194 50.3086 453.506C50.8486 453.806 51.4546 453.956 52.1266 453.956ZM68.0738 445.532V455H66.8498V453.272C66.5138 453.848 66.0518 454.298 65.4638 454.622C64.8758 454.934 64.2038 455.09 63.4478 455.09C62.2118 455.09 61.2338 454.748 60.5138 454.064C59.8058 453.368 59.4518 452.354 59.4518 451.022V445.532H60.7298V450.896C60.7298 451.892 60.9758 452.648 61.4678 453.164C61.9598 453.68 62.6618 453.938 63.5738 453.938C64.5698 453.938 65.3558 453.638 65.9318 453.038C66.5078 452.426 66.7958 451.58 66.7958 450.5V445.532H68.0738ZM72.8771 447.386C73.1771 446.75 73.6211 446.27 74.2091 445.946C74.8091 445.622 75.5471 445.46 76.4231 445.46V446.702L76.1171 446.684C75.1211 446.684 74.3411 446.99 73.7771 447.602C73.2131 448.214 72.9311 449.072 72.9311 450.176V455H71.6531V445.532H72.8771V447.386ZM91.5446 445.532L87.3326 455H86.0186L81.8246 445.532H83.1566L86.7026 453.596L90.2846 445.532H91.5446ZM93.3445 445.532H94.6225V455H93.3445V445.532ZM93.9925 443.462C93.7285 443.462 93.5065 443.372 93.3265 443.192C93.1465 443.012 93.0565 442.796 93.0565 442.544C93.0565 442.304 93.1465 442.094 93.3265 441.914C93.5065 441.734 93.7285 441.644 93.9925 441.644C94.2565 441.644 94.4785 441.734 94.6585 441.914C94.8385 442.082 94.9285 442.286 94.9285 442.526C94.9285 442.79 94.8385 443.012 94.6585 443.192C94.4785 443.372 94.2565 443.462 93.9925 443.462ZM100.716 455.09C99.9485 455.09 99.2105 454.982 98.5025 454.766C97.8065 454.538 97.2605 454.256 96.8645 453.92L97.4405 452.912C97.8365 453.224 98.3345 453.482 98.9345 453.686C99.5345 453.878 100.158 453.974 100.806 453.974C101.67 453.974 102.306 453.842 102.714 453.578C103.134 453.302 103.344 452.918 103.344 452.426C103.344 452.078 103.23 451.808 103.002 451.616C102.774 451.412 102.486 451.262 102.138 451.166C101.79 451.058 101.328 450.956 100.752 450.86C99.9845 450.716 99.3665 450.572 98.8985 450.428C98.4305 450.272 98.0285 450.014 97.6925 449.654C97.3685 449.294 97.2065 448.796 97.2065 448.16C97.2065 447.368 97.5365 446.72 98.1965 446.216C98.8565 445.712 99.7745 445.46 100.95 445.46C101.562 445.46 102.174 445.544 102.786 445.712C103.398 445.868 103.902 446.078 104.298 446.342L103.74 447.368C102.96 446.828 102.03 446.558 100.95 446.558C100.134 446.558 99.5165 446.702 99.0965 446.99C98.6885 447.278 98.4845 447.656 98.4845 448.124C98.4845 448.484 98.5985 448.772 98.8265 448.988C99.0665 449.204 99.3605 449.366 99.7085 449.474C100.056 449.57 100.536 449.672 101.148 449.78C101.904 449.924 102.51 450.068 102.966 450.212C103.422 450.356 103.812 450.602 104.136 450.95C104.46 451.298 104.622 451.778 104.622 452.39C104.622 453.218 104.274 453.878 103.578 454.37C102.894 454.85 101.94 455.09 100.716 455.09ZM110.297 445.46C111.533 445.46 112.481 445.772 113.141 446.396C113.801 447.008 114.131 447.92 114.131 449.132V455H112.907V453.524C112.619 454.016 112.193 454.4 111.629 454.676C111.077 454.952 110.417 455.09 109.649 455.09C108.593 455.09 107.753 454.838 107.129 454.334C106.505 453.83 106.193 453.164 106.193 452.336C106.193 451.532 106.481 450.884 107.057 450.392C107.645 449.9 108.575 449.654 109.847 449.654H112.853V449.078C112.853 448.262 112.625 447.644 112.169 447.224C111.713 446.792 111.047 446.576 110.171 446.576C109.571 446.576 108.995 446.678 108.443 446.882C107.891 447.074 107.417 447.344 107.021 447.692L106.445 446.738C106.925 446.33 107.501 446.018 108.173 445.802C108.845 445.574 109.553 445.46 110.297 445.46ZM109.847 454.082C110.567 454.082 111.185 453.92 111.701 453.596C112.217 453.26 112.601 452.78 112.853 452.156V450.608H109.883C108.263 450.608 107.453 451.172 107.453 452.3C107.453 452.852 107.663 453.29 108.083 453.614C108.503 453.926 109.091 454.082 109.847 454.082ZM117.746 453.128C118.022 453.128 118.25 453.224 118.43 453.416C118.61 453.596 118.7 453.824 118.7 454.1C118.7 454.244 118.676 454.4 118.628 454.568C118.592 454.736 118.532 454.928 118.448 455.144L117.692 457.628H116.828L117.44 455.018C117.248 454.958 117.092 454.85 116.972 454.694C116.852 454.526 116.792 454.328 116.792 454.1C116.792 453.824 116.882 453.596 117.062 453.416C117.242 453.224 117.47 453.128 117.746 453.128ZM134.773 442.4V455H133.495V444.92L128.545 453.398H127.915L122.965 444.974V455H121.687V442.4H122.785L128.257 451.742L133.675 442.4H134.773ZM141.92 445.46C143.156 445.46 144.104 445.772 144.764 446.396C145.424 447.008 145.754 447.92 145.754 449.132V455H144.53V453.524C144.242 454.016 143.816 454.4 143.252 454.676C142.7 454.952 142.04 455.09 141.272 455.09C140.216 455.09 139.376 454.838 138.752 454.334C138.128 453.83 137.816 453.164 137.816 452.336C137.816 451.532 138.104 450.884 138.68 450.392C139.268 449.9 140.198 449.654 141.47 449.654H144.476V449.078C144.476 448.262 144.248 447.644 143.792 447.224C143.336 446.792 142.67 446.576 141.794 446.576C141.194 446.576 140.618 446.678 140.066 446.882C139.514 447.074 139.04 447.344 138.644 447.692L138.068 446.738C138.548 446.33 139.124 446.018 139.796 445.802C140.468 445.574 141.176 445.46 141.92 445.46ZM141.47 454.082C142.19 454.082 142.808 453.92 143.324 453.596C143.84 453.26 144.224 452.78 144.476 452.156V450.608H141.506C139.886 450.608 139.076 451.172 139.076 452.3C139.076 452.852 139.286 453.29 139.706 453.614C140.126 453.926 140.714 454.082 141.47 454.082ZM151.763 455.09C150.995 455.09 150.257 454.982 149.549 454.766C148.853 454.538 148.307 454.256 147.911 453.92L148.487 452.912C148.883 453.224 149.381 453.482 149.981 453.686C150.581 453.878 151.205 453.974 151.853 453.974C152.717 453.974 153.353 453.842 153.761 453.578C154.181 453.302 154.391 452.918 154.391 452.426C154.391 452.078 154.277 451.808 154.049 451.616C153.821 451.412 153.533 451.262 153.185 451.166C152.837 451.058 152.375 450.956 151.799 450.86C151.031 450.716 150.413 450.572 149.945 450.428C149.477 450.272 149.075 450.014 148.739 449.654C148.415 449.294 148.253 448.796 148.253 448.16C148.253 447.368 148.583 446.72 149.243 446.216C149.903 445.712 150.821 445.46 151.997 445.46C152.609 445.46 153.221 445.544 153.833 445.712C154.445 445.868 154.949 446.078 155.345 446.342L154.787 447.368C154.007 446.828 153.077 446.558 151.997 446.558C151.181 446.558 150.563 446.702 150.143 446.99C149.735 447.278 149.531 447.656 149.531 448.124C149.531 448.484 149.645 448.772 149.873 448.988C150.113 449.204 150.407 449.366 150.755 449.474C151.103 449.57 151.583 449.672 152.195 449.78C152.951 449.924 153.557 450.068 154.013 450.212C154.469 450.356 154.859 450.602 155.183 450.95C155.507 451.298 155.669 451.778 155.669 452.39C155.669 453.218 155.321 453.878 154.625 454.37C153.941 454.85 152.987 455.09 151.763 455.09ZM163.018 454.424C162.778 454.64 162.478 454.808 162.118 454.928C161.77 455.036 161.404 455.09 161.02 455.09C160.132 455.09 159.448 454.85 158.968 454.37C158.488 453.89 158.248 453.212 158.248 452.336V446.612H156.556V445.532H158.248V443.462H159.526V445.532H162.406V446.612H159.526V452.264C159.526 452.828 159.664 453.26 159.94 453.56C160.228 453.848 160.636 453.992 161.164 453.992C161.428 453.992 161.68 453.95 161.92 453.866C162.172 453.782 162.388 453.662 162.568 453.506L163.018 454.424ZM173.255 450.662H165.335C165.407 451.646 165.785 452.444 166.469 453.056C167.153 453.656 168.017 453.956 169.061 453.956C169.649 453.956 170.189 453.854 170.681 453.65C171.173 453.434 171.599 453.122 171.959 452.714L172.679 453.542C172.259 454.046 171.731 454.43 171.095 454.694C170.471 454.958 169.781 455.09 169.025 455.09C168.053 455.09 167.189 454.886 166.433 454.478C165.689 454.058 165.107 453.482 164.687 452.75C164.267 452.018 164.057 451.19 164.057 450.266C164.057 449.342 164.255 448.514 164.651 447.782C165.059 447.05 165.611 446.48 166.307 446.072C167.015 445.664 167.807 445.46 168.683 445.46C169.559 445.46 170.345 445.664 171.041 446.072C171.737 446.48 172.283 447.05 172.679 447.782C173.075 448.502 173.273 449.33 173.273 450.266L173.255 450.662ZM168.683 446.558C167.771 446.558 167.003 446.852 166.379 447.44C165.767 448.016 165.419 448.772 165.335 449.708H172.049C171.965 448.772 171.611 448.016 170.987 447.44C170.375 446.852 169.607 446.558 168.683 446.558ZM177.098 447.386C177.398 446.75 177.842 446.27 178.43 445.946C179.03 445.622 179.768 445.46 180.644 445.46V446.702L180.338 446.684C179.342 446.684 178.562 446.99 177.998 447.602C177.434 448.214 177.152 449.072 177.152 450.176V455H175.874V445.532H177.098V447.386ZM188.366 455.108C187.118 455.108 185.99 454.832 184.982 454.28C183.986 453.728 183.2 452.966 182.624 451.994C182.06 451.01 181.778 449.912 181.778 448.7C181.778 447.488 182.06 446.396 182.624 445.424C183.2 444.44 183.992 443.672 185 443.12C186.008 442.568 187.136 442.292 188.384 442.292C189.32 442.292 190.184 442.448 190.976 442.76C191.768 443.072 192.44 443.528 192.992 444.128L192.146 444.974C191.162 443.978 189.92 443.48 188.42 443.48C187.424 443.48 186.518 443.708 185.702 444.164C184.886 444.62 184.244 445.244 183.776 446.036C183.32 446.828 183.092 447.716 183.092 448.7C183.092 449.684 183.32 450.572 183.776 451.364C184.244 452.156 184.886 452.78 185.702 453.236C186.518 453.692 187.424 453.92 188.42 453.92C189.932 453.92 191.174 453.416 192.146 452.408L192.992 453.254C192.44 453.854 191.762 454.316 190.958 454.64C190.166 454.952 189.302 455.108 188.366 455.108ZM198.733 445.46C199.969 445.46 200.917 445.772 201.577 446.396C202.237 447.008 202.567 447.92 202.567 449.132V455H201.343V453.524C201.055 454.016 200.629 454.4 200.065 454.676C199.513 454.952 198.853 455.09 198.085 455.09C197.029 455.09 196.189 454.838 195.565 454.334C194.941 453.83 194.629 453.164 194.629 452.336C194.629 451.532 194.917 450.884 195.493 450.392C196.081 449.9 197.011 449.654 198.283 449.654H201.289V449.078C201.289 448.262 201.061 447.644 200.605 447.224C200.149 446.792 199.483 446.576 198.607 446.576C198.007 446.576 197.431 446.678 196.879 446.882C196.327 447.074 195.853 447.344 195.457 447.692L194.881 446.738C195.361 446.33 195.937 446.018 196.609 445.802C197.281 445.574 197.989 445.46 198.733 445.46ZM198.283 454.082C199.003 454.082 199.621 453.92 200.137 453.596C200.653 453.26 201.037 452.78 201.289 452.156V450.608H198.319C196.699 450.608 195.889 451.172 195.889 452.3C195.889 452.852 196.099 453.29 196.519 453.614C196.939 453.926 197.527 454.082 198.283 454.082ZM207.262 447.386C207.562 446.75 208.006 446.27 208.594 445.946C209.194 445.622 209.932 445.46 210.808 445.46V446.702L210.502 446.684C209.506 446.684 208.726 446.99 208.162 447.602C207.598 448.214 207.316 449.072 207.316 450.176V455H206.038V445.532H207.262V447.386ZM221.674 441.644V455H220.45V453.128C220.066 453.764 219.556 454.25 218.92 454.586C218.296 454.922 217.588 455.09 216.796 455.09C215.908 455.09 215.104 454.886 214.384 454.478C213.664 454.07 213.1 453.5 212.692 452.768C212.284 452.036 212.08 451.202 212.08 450.266C212.08 449.33 212.284 448.496 212.692 447.764C213.1 447.032 213.664 446.468 214.384 446.072C215.104 445.664 215.908 445.46 216.796 445.46C217.564 445.46 218.254 445.622 218.866 445.946C219.49 446.258 220 446.72 220.396 447.332V441.644H221.674ZM216.904 453.956C217.564 453.956 218.158 453.806 218.686 453.506C219.226 453.194 219.646 452.756 219.946 452.192C220.258 451.628 220.414 450.986 220.414 450.266C220.414 449.546 220.258 448.904 219.946 448.34C219.646 447.776 219.226 447.344 218.686 447.044C218.158 446.732 217.564 446.576 216.904 446.576C216.232 446.576 215.626 446.732 215.086 447.044C214.558 447.344 214.138 447.776 213.826 448.34C213.526 448.904 213.376 449.546 213.376 450.266C213.376 450.986 213.526 451.628 213.826 452.192C214.138 452.756 214.558 453.194 215.086 453.506C215.626 453.806 216.232 453.956 216.904 453.956ZM225.377 453.128C225.653 453.128 225.881 453.224 226.061 453.416C226.241 453.596 226.331 453.824 226.331 454.1C226.331 454.244 226.307 454.4 226.259 454.568C226.223 454.736 226.163 454.928 226.079 455.144L225.323 457.628H224.459L225.071 455.018C224.879 454.958 224.723 454.85 224.603 454.694C224.483 454.526 224.423 454.328 224.423 454.1C224.423 453.824 224.513 453.596 224.693 453.416C224.873 453.224 225.101 453.128 225.377 453.128ZM237.835 451.634H230.815L229.303 455H227.917L233.677 442.4H234.991L240.751 455H239.347L237.835 451.634ZM237.349 450.554L234.325 443.786L231.301 450.554H237.349ZM254.373 445.46C255.561 445.46 256.491 445.802 257.163 446.486C257.847 447.17 258.189 448.178 258.189 449.51V455H256.911V449.636C256.911 448.652 256.671 447.902 256.191 447.386C255.723 446.87 255.057 446.612 254.193 446.612C253.209 446.612 252.435 446.918 251.871 447.53C251.307 448.13 251.025 448.964 251.025 450.032V455H249.747V449.636C249.747 448.652 249.507 447.902 249.027 447.386C248.559 446.87 247.887 446.612 247.011 446.612C246.039 446.612 245.265 446.918 244.689 447.53C244.125 448.13 243.843 448.964 243.843 450.032V455H242.565V445.532H243.789V447.26C244.125 446.684 244.593 446.24 245.193 445.928C245.793 445.616 246.483 445.46 247.263 445.46C248.055 445.46 248.739 445.628 249.315 445.964C249.903 446.3 250.341 446.798 250.629 447.458C250.977 446.834 251.475 446.348 252.123 446C252.783 445.64 253.533 445.46 254.373 445.46ZM269.934 450.662H262.014C262.086 451.646 262.464 452.444 263.148 453.056C263.832 453.656 264.696 453.956 265.74 453.956C266.328 453.956 266.868 453.854 267.36 453.65C267.852 453.434 268.278 453.122 268.638 452.714L269.358 453.542C268.938 454.046 268.41 454.43 267.774 454.694C267.15 454.958 266.46 455.09 265.704 455.09C264.732 455.09 263.868 454.886 263.112 454.478C262.368 454.058 261.786 453.482 261.366 452.75C260.946 452.018 260.736 451.19 260.736 450.266C260.736 449.342 260.934 448.514 261.33 447.782C261.738 447.05 262.29 446.48 262.986 446.072C263.694 445.664 264.486 445.46 265.362 445.46C266.238 445.46 267.024 445.664 267.72 446.072C268.416 446.48 268.962 447.05 269.358 447.782C269.754 448.502 269.952 449.33 269.952 450.266L269.934 450.662ZM265.362 446.558C264.45 446.558 263.682 446.852 263.058 447.44C262.446 448.016 262.098 448.772 262.014 449.708H268.728C268.644 448.772 268.29 448.016 267.666 447.44C267.054 446.852 266.286 446.558 265.362 446.558ZM273.777 447.386C274.077 446.75 274.521 446.27 275.109 445.946C275.709 445.622 276.447 445.46 277.323 445.46V446.702L277.017 446.684C276.021 446.684 275.241 446.99 274.677 447.602C274.113 448.214 273.831 449.072 273.831 450.176V455H272.553V445.532H273.777V447.386ZM279.637 445.532H280.915V455H279.637V445.532ZM280.285 443.462C280.021 443.462 279.799 443.372 279.619 443.192C279.439 443.012 279.349 442.796 279.349 442.544C279.349 442.304 279.439 442.094 279.619 441.914C279.799 441.734 280.021 441.644 280.285 441.644C280.549 441.644 280.771 441.734 280.951 441.914C281.131 442.082 281.221 442.286 281.221 442.526C281.221 442.79 281.131 443.012 280.951 443.192C280.771 443.372 280.549 443.462 280.285 443.462ZM288.395 455.09C287.459 455.09 286.619 454.886 285.875 454.478C285.143 454.07 284.567 453.5 284.147 452.768C283.727 452.024 283.517 451.19 283.517 450.266C283.517 449.342 283.727 448.514 284.147 447.782C284.567 447.05 285.143 446.48 285.875 446.072C286.619 445.664 287.459 445.46 288.395 445.46C289.211 445.46 289.937 445.622 290.573 445.946C291.221 446.258 291.731 446.72 292.103 447.332L291.149 447.98C290.837 447.512 290.441 447.164 289.961 446.936C289.481 446.696 288.959 446.576 288.395 446.576C287.711 446.576 287.093 446.732 286.541 447.044C286.001 447.344 285.575 447.776 285.263 448.34C284.963 448.904 284.813 449.546 284.813 450.266C284.813 450.998 284.963 451.646 285.263 452.21C285.575 452.762 286.001 453.194 286.541 453.506C287.093 453.806 287.711 453.956 288.395 453.956C288.959 453.956 289.481 453.842 289.961 453.614C290.441 453.386 290.837 453.038 291.149 452.57L292.103 453.218C291.731 453.83 291.221 454.298 290.573 454.622C289.925 454.934 289.199 455.09 288.395 455.09ZM297.926 445.46C299.162 445.46 300.11 445.772 300.77 446.396C301.43 447.008 301.76 447.92 301.76 449.132V455H300.536V453.524C300.248 454.016 299.822 454.4 299.258 454.676C298.706 454.952 298.046 455.09 297.278 455.09C296.222 455.09 295.382 454.838 294.758 454.334C294.134 453.83 293.822 453.164 293.822 452.336C293.822 451.532 294.11 450.884 294.686 450.392C295.274 449.9 296.204 449.654 297.476 449.654H300.482V449.078C300.482 448.262 300.254 447.644 299.798 447.224C299.342 446.792 298.676 446.576 297.8 446.576C297.2 446.576 296.624 446.678 296.072 446.882C295.52 447.074 295.046 447.344 294.65 447.692L294.074 446.738C294.554 446.33 295.13 446.018 295.802 445.802C296.474 445.574 297.182 445.46 297.926 445.46ZM297.476 454.082C298.196 454.082 298.814 453.92 299.33 453.596C299.846 453.26 300.23 452.78 300.482 452.156V450.608H297.512C295.892 450.608 295.082 451.172 295.082 452.3C295.082 452.852 295.292 453.29 295.712 453.614C296.132 453.926 296.72 454.082 297.476 454.082ZM310.055 445.46C311.243 445.46 312.185 445.808 312.881 446.504C313.589 447.188 313.943 448.19 313.943 449.51V455H312.665V449.636C312.665 448.652 312.419 447.902 311.927 447.386C311.435 446.87 310.733 446.612 309.821 446.612C308.801 446.612 307.991 446.918 307.391 447.53C306.803 448.13 306.509 448.964 306.509 450.032V455H305.231V445.532H306.455V447.278C306.803 446.702 307.283 446.258 307.895 445.946C308.519 445.622 309.239 445.46 310.055 445.46ZM326.593 453.848V455H317.683V442.4H326.323V443.552H319.015V448.034H325.531V449.168H319.015V453.848H326.593ZM335.22 455L332.214 451.04L329.19 455H327.75L331.494 450.14L327.93 445.532H329.37L332.214 449.24L335.058 445.532H336.462L332.898 450.14L336.678 455H335.22ZM343.683 445.46C344.571 445.46 345.375 445.664 346.095 446.072C346.815 446.468 347.379 447.032 347.787 447.764C348.195 448.496 348.399 449.33 348.399 450.266C348.399 451.214 348.195 452.054 347.787 452.786C347.379 453.518 346.815 454.088 346.095 454.496C345.387 454.892 344.583 455.09 343.683 455.09C342.915 455.09 342.219 454.934 341.595 454.622C340.983 454.298 340.479 453.83 340.083 453.218V458.492H338.805V445.532H340.029V447.404C340.413 446.78 340.917 446.3 341.541 445.964C342.177 445.628 342.891 445.46 343.683 445.46ZM343.593 453.956C344.253 453.956 344.853 453.806 345.393 453.506C345.933 453.194 346.353 452.756 346.653 452.192C346.965 451.628 347.121 450.986 347.121 450.266C347.121 449.546 346.965 448.91 346.653 448.358C346.353 447.794 345.933 447.356 345.393 447.044C344.853 446.732 344.253 446.576 343.593 446.576C342.921 446.576 342.315 446.732 341.775 447.044C341.247 447.356 340.827 447.794 340.515 448.358C340.215 448.91 340.065 449.546 340.065 450.266C340.065 450.986 340.215 451.628 340.515 452.192C340.827 452.756 341.247 453.194 341.775 453.506C342.315 453.806 342.921 453.956 343.593 453.956ZM352.229 447.386C352.529 446.75 352.973 446.27 353.561 445.946C354.161 445.622 354.899 445.46 355.775 445.46V446.702L355.469 446.684C354.473 446.684 353.693 446.99 353.129 447.602C352.565 448.214 352.283 449.072 352.283 450.176V455H351.005V445.532H352.229V447.386ZM366.245 450.662H358.325C358.397 451.646 358.775 452.444 359.459 453.056C360.143 453.656 361.007 453.956 362.051 453.956C362.639 453.956 363.179 453.854 363.671 453.65C364.163 453.434 364.589 453.122 364.949 452.714L365.669 453.542C365.249 454.046 364.721 454.43 364.085 454.694C363.461 454.958 362.771 455.09 362.015 455.09C361.043 455.09 360.179 454.886 359.423 454.478C358.679 454.058 358.097 453.482 357.677 452.75C357.257 452.018 357.047 451.19 357.047 450.266C357.047 449.342 357.245 448.514 357.641 447.782C358.049 447.05 358.601 446.48 359.297 446.072C360.005 445.664 360.797 445.46 361.673 445.46C362.549 445.46 363.335 445.664 364.031 446.072C364.727 446.48 365.273 447.05 365.669 447.782C366.065 448.502 366.263 449.33 366.263 450.266L366.245 450.662ZM361.673 446.558C360.761 446.558 359.993 446.852 359.369 447.44C358.757 448.016 358.409 448.772 358.325 449.708H365.039C364.955 448.772 364.601 448.016 363.977 447.44C363.365 446.852 362.597 446.558 361.673 446.558ZM371.402 455.09C370.634 455.09 369.896 454.982 369.188 454.766C368.492 454.538 367.946 454.256 367.55 453.92L368.126 452.912C368.522 453.224 369.02 453.482 369.62 453.686C370.22 453.878 370.844 453.974 371.492 453.974C372.356 453.974 372.992 453.842 373.4 453.578C373.82 453.302 374.03 452.918 374.03 452.426C374.03 452.078 373.916 451.808 373.688 451.616C373.46 451.412 373.172 451.262 372.824 451.166C372.476 451.058 372.014 450.956 371.438 450.86C370.67 450.716 370.052 450.572 369.584 450.428C369.116 450.272 368.714 450.014 368.378 449.654C368.054 449.294 367.892 448.796 367.892 448.16C367.892 447.368 368.222 446.72 368.882 446.216C369.542 445.712 370.46 445.46 371.636 445.46C372.248 445.46 372.86 445.544 373.472 445.712C374.084 445.868 374.588 446.078 374.984 446.342L374.426 447.368C373.646 446.828 372.716 446.558 371.636 446.558C370.82 446.558 370.202 446.702 369.782 446.99C369.374 447.278 369.17 447.656 369.17 448.124C369.17 448.484 369.284 448.772 369.512 448.988C369.752 449.204 370.046 449.366 370.394 449.474C370.742 449.57 371.222 449.672 371.834 449.78C372.59 449.924 373.196 450.068 373.652 450.212C374.108 450.356 374.498 450.602 374.822 450.95C375.146 451.298 375.308 451.778 375.308 452.39C375.308 453.218 374.96 453.878 374.264 454.37C373.58 454.85 372.626 455.09 371.402 455.09ZM380.209 455.09C379.441 455.09 378.703 454.982 377.995 454.766C377.299 454.538 376.753 454.256 376.357 453.92L376.933 452.912C377.329 453.224 377.827 453.482 378.427 453.686C379.027 453.878 379.651 453.974 380.299 453.974C381.163 453.974 381.799 453.842 382.207 453.578C382.627 453.302 382.837 452.918 382.837 452.426C382.837 452.078 382.723 451.808 382.495 451.616C382.267 451.412 381.979 451.262 381.631 451.166C381.283 451.058 380.821 450.956 380.245 450.86C379.477 450.716 378.859 450.572 378.391 450.428C377.923 450.272 377.521 450.014 377.185 449.654C376.861 449.294 376.699 448.796 376.699 448.16C376.699 447.368 377.029 446.72 377.689 446.216C378.349 445.712 379.267 445.46 380.443 445.46C381.055 445.46 381.667 445.544 382.279 445.712C382.891 445.868 383.395 446.078 383.791 446.342L383.233 447.368C382.453 446.828 381.523 446.558 380.443 446.558C379.627 446.558 379.009 446.702 378.589 446.99C378.181 447.278 377.977 447.656 377.977 448.124C377.977 448.484 378.091 448.772 378.319 448.988C378.559 449.204 378.853 449.366 379.201 449.474C379.549 449.57 380.029 449.672 380.641 449.78C381.397 449.924 382.003 450.068 382.459 450.212C382.915 450.356 383.305 450.602 383.629 450.95C383.953 451.298 384.115 451.778 384.115 452.39C384.115 453.218 383.767 453.878 383.071 454.37C382.387 454.85 381.433 455.09 380.209 455.09ZM386.621 453.128C386.897 453.128 387.125 453.224 387.305 453.416C387.485 453.596 387.575 453.824 387.575 454.1C387.575 454.244 387.551 454.4 387.503 454.568C387.467 454.736 387.407 454.928 387.323 455.144L386.567 457.628H385.703L386.315 455.018C386.123 454.958 385.967 454.85 385.847 454.694C385.727 454.526 385.667 454.328 385.667 454.1C385.667 453.824 385.757 453.596 385.937 453.416C386.117 453.224 386.345 453.128 386.621 453.128ZM49.3528 464.4H54.4828C55.8148 464.4 56.9908 464.67 58.0108 465.21C59.0308 465.738 59.8228 466.482 60.3868 467.442C60.9508 468.39 61.2328 469.476 61.2328 470.7C61.2328 471.924 60.9508 473.016 60.3868 473.976C59.8228 474.924 59.0308 475.668 58.0108 476.208C56.9908 476.736 55.8148 477 54.4828 477H49.3528V464.4ZM54.4108 475.848C55.5148 475.848 56.4808 475.632 57.3088 475.2C58.1368 474.756 58.7788 474.15 59.2348 473.382C59.6908 472.602 59.9188 471.708 59.9188 470.7C59.9188 469.692 59.6908 468.804 59.2348 468.036C58.7788 467.256 58.1368 466.65 57.3088 466.218C56.4808 465.774 55.5148 465.552 54.4108 465.552H50.6848V475.848H54.4108ZM63.9539 467.532H65.2319V477H63.9539V467.532ZM64.6019 465.462C64.3379 465.462 64.1159 465.372 63.9359 465.192C63.7559 465.012 63.6659 464.796 63.6659 464.544C63.6659 464.304 63.7559 464.094 63.9359 463.914C64.1159 463.734 64.3379 463.644 64.6019 463.644C64.8659 463.644 65.0879 463.734 65.2679 463.914C65.4479 464.082 65.5379 464.286 65.5379 464.526C65.5379 464.79 65.4479 465.012 65.2679 465.192C65.0879 465.372 64.8659 465.462 64.6019 465.462ZM71.3259 477.09C70.5579 477.09 69.8199 476.982 69.1119 476.766C68.4159 476.538 67.8699 476.256 67.4739 475.92L68.0499 474.912C68.4459 475.224 68.9439 475.482 69.5439 475.686C70.1439 475.878 70.7679 475.974 71.4159 475.974C72.2799 475.974 72.9159 475.842 73.3239 475.578C73.7439 475.302 73.9539 474.918 73.9539 474.426C73.9539 474.078 73.8399 473.808 73.6119 473.616C73.3839 473.412 73.0959 473.262 72.7479 473.166C72.3999 473.058 71.9379 472.956 71.3619 472.86C70.5939 472.716 69.9759 472.572 69.5079 472.428C69.0399 472.272 68.6379 472.014 68.3019 471.654C67.9779 471.294 67.8159 470.796 67.8159 470.16C67.8159 469.368 68.1459 468.72 68.8059 468.216C69.4659 467.712 70.3839 467.46 71.5599 467.46C72.1719 467.46 72.7839 467.544 73.3959 467.712C74.0079 467.868 74.5119 468.078 74.9079 468.342L74.3499 469.368C73.5699 468.828 72.6399 468.558 71.5599 468.558C70.7439 468.558 70.1259 468.702 69.7059 468.99C69.2979 469.278 69.0939 469.656 69.0939 470.124C69.0939 470.484 69.2079 470.772 69.4359 470.988C69.6759 471.204 69.9699 471.366 70.3179 471.474C70.6659 471.57 71.1459 471.672 71.7579 471.78C72.5139 471.924 73.1199 472.068 73.5759 472.212C74.0319 472.356 74.4219 472.602 74.7459 472.95C75.0699 473.298 75.2319 473.778 75.2319 474.39C75.2319 475.218 74.8839 475.878 74.1879 476.37C73.5039 476.85 72.5499 477.09 71.3259 477.09ZM81.5185 477.09C80.5825 477.09 79.7425 476.886 78.9985 476.478C78.2665 476.07 77.6905 475.5 77.2705 474.768C76.8505 474.024 76.6405 473.19 76.6405 472.266C76.6405 471.342 76.8505 470.514 77.2705 469.782C77.6905 469.05 78.2665 468.48 78.9985 468.072C79.7425 467.664 80.5825 467.46 81.5185 467.46C82.3345 467.46 83.0605 467.622 83.6965 467.946C84.3445 468.258 84.8545 468.72 85.2265 469.332L84.2725 469.98C83.9605 469.512 83.5645 469.164 83.0845 468.936C82.6045 468.696 82.0825 468.576 81.5185 468.576C80.8345 468.576 80.2165 468.732 79.6645 469.044C79.1245 469.344 78.6985 469.776 78.3865 470.34C78.0865 470.904 77.9365 471.546 77.9365 472.266C77.9365 472.998 78.0865 473.646 78.3865 474.21C78.6985 474.762 79.1245 475.194 79.6645 475.506C80.2165 475.806 80.8345 475.956 81.5185 475.956C82.0825 475.956 82.6045 475.842 83.0845 475.614C83.5645 475.386 83.9605 475.038 84.2725 474.57L85.2265 475.218C84.8545 475.83 84.3445 476.298 83.6965 476.622C83.0485 476.934 82.3225 477.09 81.5185 477.09ZM91.4489 477.09C90.5369 477.09 89.7149 476.886 88.9829 476.478C88.2509 476.058 87.6749 475.482 87.2549 474.75C86.8349 474.018 86.6249 473.19 86.6249 472.266C86.6249 471.342 86.8349 470.514 87.2549 469.782C87.6749 469.05 88.2509 468.48 88.9829 468.072C89.7149 467.664 90.5369 467.46 91.4489 467.46C92.3609 467.46 93.1829 467.664 93.9149 468.072C94.6469 468.48 95.2169 469.05 95.6249 469.782C96.0449 470.514 96.2549 471.342 96.2549 472.266C96.2549 473.19 96.0449 474.018 95.6249 474.75C95.2169 475.482 94.6469 476.058 93.9149 476.478C93.1829 476.886 92.3609 477.09 91.4489 477.09ZM91.4489 475.956C92.1209 475.956 92.7209 475.806 93.2489 475.506C93.7889 475.194 94.2089 474.756 94.5089 474.192C94.8089 473.628 94.9589 472.986 94.9589 472.266C94.9589 471.546 94.8089 470.904 94.5089 470.34C94.2089 469.776 93.7889 469.344 93.2489 469.044C92.7209 468.732 92.1209 468.576 91.4489 468.576C90.7769 468.576 90.1709 468.732 89.6309 469.044C89.1029 469.344 88.6829 469.776 88.3709 470.34C88.0709 470.904 87.9209 471.546 87.9209 472.266C87.9209 472.986 88.0709 473.628 88.3709 474.192C88.6829 474.756 89.1029 475.194 89.6309 475.506C90.1709 475.806 90.7769 475.956 91.4489 475.956ZM106.556 467.532L102.344 477H101.03L96.8364 467.532H98.1684L101.714 475.596L105.296 467.532H106.556ZM116.337 472.662H108.417C108.489 473.646 108.867 474.444 109.551 475.056C110.235 475.656 111.099 475.956 112.143 475.956C112.731 475.956 113.271 475.854 113.763 475.65C114.255 475.434 114.681 475.122 115.041 474.714L115.761 475.542C115.341 476.046 114.813 476.43 114.177 476.694C113.553 476.958 112.863 477.09 112.107 477.09C111.135 477.09 110.271 476.886 109.515 476.478C108.771 476.058 108.189 475.482 107.769 474.75C107.349 474.018 107.139 473.19 107.139 472.266C107.139 471.342 107.337 470.514 107.733 469.782C108.141 469.05 108.693 468.48 109.389 468.072C110.097 467.664 110.889 467.46 111.765 467.46C112.641 467.46 113.427 467.664 114.123 468.072C114.819 468.48 115.365 469.05 115.761 469.782C116.157 470.502 116.355 471.33 116.355 472.266L116.337 472.662ZM111.765 468.558C110.853 468.558 110.085 468.852 109.461 469.44C108.849 470.016 108.501 470.772 108.417 471.708H115.131C115.047 470.772 114.693 470.016 114.069 469.44C113.457 468.852 112.689 468.558 111.765 468.558ZM120.18 469.386C120.48 468.75 120.924 468.27 121.512 467.946C122.112 467.622 122.85 467.46 123.726 467.46V468.702L123.42 468.684C122.424 468.684 121.644 468.99 121.08 469.602C120.516 470.214 120.234 471.072 120.234 472.176V477H118.956V467.532H120.18V469.386ZM126.149 475.128C126.425 475.128 126.653 475.224 126.833 475.416C127.013 475.596 127.103 475.824 127.103 476.1C127.103 476.244 127.079 476.4 127.031 476.568C126.995 476.736 126.935 476.928 126.851 477.144L126.095 479.628H125.231L125.843 477.018C125.651 476.958 125.495 476.85 125.375 476.694C125.255 476.526 125.195 476.328 125.195 476.1C125.195 475.824 125.285 475.596 125.465 475.416C125.645 475.224 125.873 475.128 126.149 475.128ZM130.089 464.4H135.219C136.551 464.4 137.727 464.67 138.747 465.21C139.767 465.738 140.559 466.482 141.123 467.442C141.687 468.39 141.969 469.476 141.969 470.7C141.969 471.924 141.687 473.016 141.123 473.976C140.559 474.924 139.767 475.668 138.747 476.208C137.727 476.736 136.551 477 135.219 477H130.089V464.4ZM135.147 475.848C136.251 475.848 137.217 475.632 138.045 475.2C138.873 474.756 139.515 474.15 139.971 473.382C140.427 472.602 140.655 471.708 140.655 470.7C140.655 469.692 140.427 468.804 139.971 468.036C139.515 467.256 138.873 466.65 138.045 466.218C137.217 465.774 136.251 465.552 135.147 465.552H131.421V475.848H135.147ZM144.69 467.532H145.968V477H144.69V467.532ZM145.338 465.462C145.074 465.462 144.852 465.372 144.672 465.192C144.492 465.012 144.402 464.796 144.402 464.544C144.402 464.304 144.492 464.094 144.672 463.914C144.852 463.734 145.074 463.644 145.338 463.644C145.602 463.644 145.824 463.734 146.004 463.914C146.184 464.082 146.274 464.286 146.274 464.526C146.274 464.79 146.184 465.012 146.004 465.192C145.824 465.372 145.602 465.462 145.338 465.462ZM154.348 467.46C155.536 467.46 156.478 467.808 157.174 468.504C157.882 469.188 158.236 470.19 158.236 471.51V477H156.958V471.636C156.958 470.652 156.712 469.902 156.22 469.386C155.728 468.87 155.026 468.612 154.114 468.612C153.094 468.612 152.284 468.918 151.684 469.53C151.096 470.13 150.802 470.964 150.802 472.032V477H149.524V467.532H150.748V469.278C151.096 468.702 151.576 468.258 152.188 467.946C152.812 467.622 153.532 467.46 154.348 467.46ZM169.985 472.662H162.065C162.137 473.646 162.515 474.444 163.199 475.056C163.883 475.656 164.747 475.956 165.791 475.956C166.379 475.956 166.919 475.854 167.411 475.65C167.903 475.434 168.329 475.122 168.689 474.714L169.409 475.542C168.989 476.046 168.461 476.43 167.825 476.694C167.201 476.958 166.511 477.09 165.755 477.09C164.783 477.09 163.919 476.886 163.163 476.478C162.419 476.058 161.837 475.482 161.417 474.75C160.997 474.018 160.787 473.19 160.787 472.266C160.787 471.342 160.985 470.514 161.381 469.782C161.789 469.05 162.341 468.48 163.037 468.072C163.745 467.664 164.537 467.46 165.413 467.46C166.289 467.46 167.075 467.664 167.771 468.072C168.467 468.48 169.013 469.05 169.409 469.782C169.805 470.502 170.003 471.33 170.003 472.266L169.985 472.662ZM165.413 468.558C164.501 468.558 163.733 468.852 163.109 469.44C162.497 470.016 162.149 470.772 162.065 471.708H168.779C168.695 470.772 168.341 470.016 167.717 469.44C167.105 468.852 166.337 468.558 165.413 468.558ZM173.828 469.386C174.128 468.75 174.572 468.27 175.16 467.946C175.76 467.622 176.498 467.46 177.374 467.46V468.702L177.068 468.684C176.072 468.684 175.292 468.99 174.728 469.602C174.164 470.214 173.882 471.072 173.882 472.176V477H172.604V467.532H173.828V469.386ZM182.297 477.09C181.529 477.09 180.791 476.982 180.083 476.766C179.387 476.538 178.841 476.256 178.445 475.92L179.021 474.912C179.417 475.224 179.915 475.482 180.515 475.686C181.115 475.878 181.739 475.974 182.387 475.974C183.251 475.974 183.887 475.842 184.295 475.578C184.715 475.302 184.925 474.918 184.925 474.426C184.925 474.078 184.811 473.808 184.583 473.616C184.355 473.412 184.067 473.262 183.719 473.166C183.371 473.058 182.909 472.956 182.333 472.86C181.565 472.716 180.947 472.572 180.479 472.428C180.011 472.272 179.609 472.014 179.273 471.654C178.949 471.294 178.787 470.796 178.787 470.16C178.787 469.368 179.117 468.72 179.777 468.216C180.437 467.712 181.355 467.46 182.531 467.46C183.143 467.46 183.755 467.544 184.367 467.712C184.979 467.868 185.483 468.078 185.879 468.342L185.321 469.368C184.541 468.828 183.611 468.558 182.531 468.558C181.715 468.558 181.097 468.702 180.677 468.99C180.269 469.278 180.065 469.656 180.065 470.124C180.065 470.484 180.179 470.772 180.407 470.988C180.647 471.204 180.941 471.366 181.289 471.474C181.637 471.57 182.117 471.672 182.729 471.78C183.485 471.924 184.091 472.068 184.547 472.212C185.003 472.356 185.393 472.602 185.717 472.95C186.041 473.298 186.203 473.778 186.203 474.39C186.203 475.218 185.855 475.878 185.159 476.37C184.475 476.85 183.521 477.09 182.297 477.09ZM199.018 477.108C197.77 477.108 196.642 476.832 195.634 476.28C194.638 475.728 193.852 474.966 193.276 473.994C192.712 473.01 192.43 471.912 192.43 470.7C192.43 469.488 192.712 468.396 193.276 467.424C193.852 466.44 194.644 465.672 195.652 465.12C196.66 464.568 197.788 464.292 199.036 464.292C199.972 464.292 200.836 464.448 201.628 464.76C202.42 465.072 203.092 465.528 203.644 466.128L202.798 466.974C201.814 465.978 200.572 465.48 199.072 465.48C198.076 465.48 197.17 465.708 196.354 466.164C195.538 466.62 194.896 467.244 194.428 468.036C193.972 468.828 193.744 469.716 193.744 470.7C193.744 471.684 193.972 472.572 194.428 473.364C194.896 474.156 195.538 474.78 196.354 475.236C197.17 475.692 198.076 475.92 199.072 475.92C200.584 475.92 201.826 475.416 202.798 474.408L203.644 475.254C203.092 475.854 202.414 476.316 201.61 476.64C200.818 476.952 199.954 477.108 199.018 477.108ZM206.214 463.644H207.492V477H206.214V463.644ZM219.58 467.532V477H218.356V475.272C218.02 475.848 217.558 476.298 216.97 476.622C216.382 476.934 215.71 477.09 214.954 477.09C213.718 477.09 212.74 476.748 212.02 476.064C211.312 475.368 210.958 474.354 210.958 473.022V467.532H212.236V472.896C212.236 473.892 212.482 474.648 212.974 475.164C213.466 475.68 214.168 475.938 215.08 475.938C216.076 475.938 216.862 475.638 217.438 475.038C218.014 474.426 218.302 473.58 218.302 472.5V467.532H219.58ZM228.037 467.46C228.925 467.46 229.729 467.664 230.449 468.072C231.169 468.468 231.733 469.032 232.141 469.764C232.549 470.496 232.753 471.33 232.753 472.266C232.753 473.202 232.549 474.036 232.141 474.768C231.733 475.5 231.169 476.07 230.449 476.478C229.729 476.886 228.925 477.09 228.037 477.09C227.245 477.09 226.531 476.922 225.895 476.586C225.271 476.25 224.767 475.764 224.383 475.128V477H223.159V463.644H224.437V469.332C224.833 468.72 225.337 468.258 225.949 467.946C226.573 467.622 227.269 467.46 228.037 467.46ZM227.947 475.956C228.607 475.956 229.207 475.806 229.747 475.506C230.287 475.194 230.707 474.756 231.007 474.192C231.319 473.628 231.475 472.986 231.475 472.266C231.475 471.546 231.319 470.904 231.007 470.34C230.707 469.776 230.287 469.344 229.747 469.044C229.207 468.732 228.607 468.576 227.947 468.576C227.275 468.576 226.669 468.732 226.129 469.044C225.601 469.344 225.181 469.776 224.869 470.34C224.569 470.904 224.419 471.546 224.419 472.266C224.419 472.986 224.569 473.628 224.869 474.192C225.181 474.756 225.601 475.194 226.129 475.506C226.669 475.806 227.275 475.956 227.947 475.956ZM243.939 477.09C243.027 477.09 242.205 476.886 241.473 476.478C240.741 476.058 240.165 475.482 239.745 474.75C239.325 474.018 239.115 473.19 239.115 472.266C239.115 471.342 239.325 470.514 239.745 469.782C240.165 469.05 240.741 468.48 241.473 468.072C242.205 467.664 243.027 467.46 243.939 467.46C244.851 467.46 245.673 467.664 246.405 468.072C247.137 468.48 247.707 469.05 248.115 469.782C248.535 470.514 248.745 471.342 248.745 472.266C248.745 473.19 248.535 474.018 248.115 474.75C247.707 475.482 247.137 476.058 246.405 476.478C245.673 476.886 244.851 477.09 243.939 477.09ZM243.939 475.956C244.611 475.956 245.211 475.806 245.739 475.506C246.279 475.194 246.699 474.756 246.999 474.192C247.299 473.628 247.449 472.986 247.449 472.266C247.449 471.546 247.299 470.904 246.999 470.34C246.699 469.776 246.279 469.344 245.739 469.044C245.211 468.732 244.611 468.576 243.939 468.576C243.267 468.576 242.661 468.732 242.121 469.044C241.593 469.344 241.173 469.776 240.861 470.34C240.561 470.904 240.411 471.546 240.411 472.266C240.411 472.986 240.561 473.628 240.861 474.192C241.173 474.756 241.593 475.194 242.121 475.506C242.661 475.806 243.267 475.956 243.939 475.956ZM252.578 469.386C252.878 468.75 253.322 468.27 253.91 467.946C254.51 467.622 255.248 467.46 256.124 467.46V468.702L255.818 468.684C254.822 468.684 254.042 468.99 253.478 469.602C252.914 470.214 252.632 471.072 252.632 472.176V477H251.354V467.532H252.578V469.386ZM264.91 477.108C264.19 477.108 263.524 476.952 262.912 476.64C262.3 476.328 261.802 475.884 261.418 475.308L262.21 474.408C262.906 475.44 263.812 475.956 264.928 475.956C266.488 475.956 267.268 475.032 267.268 473.184V465.552H262.66V464.4H268.582V473.13C268.582 474.45 268.27 475.446 267.646 476.118C267.034 476.778 266.122 477.108 264.91 477.108ZM278.049 477.108C276.801 477.108 275.673 476.832 274.665 476.28C273.669 475.728 272.883 474.966 272.307 473.994C271.743 473.01 271.461 471.912 271.461 470.7C271.461 469.488 271.743 468.396 272.307 467.424C272.883 466.44 273.675 465.672 274.683 465.12C275.691 464.568 276.819 464.292 278.067 464.292C279.003 464.292 279.867 464.448 280.659 464.76C281.451 465.072 282.123 465.528 282.675 466.128L281.829 466.974C280.845 465.978 279.603 465.48 278.103 465.48C277.107 465.48 276.201 465.708 275.385 466.164C274.569 466.62 273.927 467.244 273.459 468.036C273.003 468.828 272.775 469.716 272.775 470.7C272.775 471.684 273.003 472.572 273.459 473.364C273.927 474.156 274.569 474.78 275.385 475.236C276.201 475.692 277.107 475.92 278.103 475.92C279.615 475.92 280.857 475.416 281.829 474.408L282.675 475.254C282.123 475.854 281.445 476.316 280.641 476.64C279.849 476.952 278.985 477.108 278.049 477.108ZM293.453 470.502C294.281 470.682 294.917 471.042 295.361 471.582C295.817 472.11 296.045 472.794 296.045 473.634C296.045 474.714 295.643 475.548 294.839 476.136C294.047 476.712 292.871 477 291.311 477H285.515V464.4H290.951C292.355 464.4 293.441 464.682 294.209 465.246C294.989 465.81 295.379 466.608 295.379 467.64C295.379 468.336 295.205 468.93 294.857 469.422C294.521 469.902 294.053 470.262 293.453 470.502ZM286.847 465.498V470.07H290.861C291.881 470.07 292.667 469.878 293.219 469.494C293.771 469.098 294.047 468.528 294.047 467.784C294.047 467.04 293.771 466.476 293.219 466.092C292.667 465.696 291.881 465.498 290.861 465.498H286.847ZM291.293 475.902C292.421 475.902 293.273 475.71 293.849 475.326C294.425 474.942 294.713 474.342 294.713 473.526C294.713 471.954 293.573 471.168 291.293 471.168H286.847V475.902H291.293ZM307.45 477.09C306.514 477.09 305.674 476.886 304.93 476.478C304.198 476.07 303.622 475.5 303.202 474.768C302.782 474.024 302.572 473.19 302.572 472.266C302.572 471.342 302.782 470.514 303.202 469.782C303.622 469.05 304.198 468.48 304.93 468.072C305.674 467.664 306.514 467.46 307.45 467.46C308.266 467.46 308.992 467.622 309.628 467.946C310.276 468.258 310.786 468.72 311.158 469.332L310.204 469.98C309.892 469.512 309.496 469.164 309.016 468.936C308.536 468.696 308.014 468.576 307.45 468.576C306.766 468.576 306.148 468.732 305.596 469.044C305.056 469.344 304.63 469.776 304.318 470.34C304.018 470.904 303.868 471.546 303.868 472.266C303.868 472.998 304.018 473.646 304.318 474.21C304.63 474.762 305.056 475.194 305.596 475.506C306.148 475.806 306.766 475.956 307.45 475.956C308.014 475.956 308.536 475.842 309.016 475.614C309.496 475.386 309.892 475.038 310.204 474.57L311.158 475.218C310.786 475.83 310.276 476.298 309.628 476.622C308.98 476.934 308.254 477.09 307.45 477.09ZM316.981 467.46C318.217 467.46 319.165 467.772 319.825 468.396C320.485 469.008 320.815 469.92 320.815 471.132V477H319.591V475.524C319.303 476.016 318.877 476.4 318.313 476.676C317.761 476.952 317.101 477.09 316.333 477.09C315.277 477.09 314.437 476.838 313.813 476.334C313.189 475.83 312.877 475.164 312.877 474.336C312.877 473.532 313.165 472.884 313.741 472.392C314.329 471.9 315.259 471.654 316.531 471.654H319.537V471.078C319.537 470.262 319.309 469.644 318.853 469.224C318.397 468.792 317.731 468.576 316.855 468.576C316.255 468.576 315.679 468.678 315.127 468.882C314.575 469.074 314.101 469.344 313.705 469.692L313.129 468.738C313.609 468.33 314.185 468.018 314.857 467.802C315.529 467.574 316.237 467.46 316.981 467.46ZM316.531 476.082C317.251 476.082 317.869 475.92 318.385 475.596C318.901 475.26 319.285 474.78 319.537 474.156V472.608H316.567C314.947 472.608 314.137 473.172 314.137 474.3C314.137 474.852 314.347 475.29 314.767 475.614C315.187 475.926 315.775 476.082 316.531 476.082ZM325.51 469.386C325.81 468.75 326.254 468.27 326.842 467.946C327.442 467.622 328.18 467.46 329.056 467.46V468.702L328.75 468.684C327.754 468.684 326.974 468.99 326.41 469.602C325.846 470.214 325.564 471.072 325.564 472.176V477H324.286V467.532H325.51V469.386ZM339.922 463.644V477H338.698V475.128C338.314 475.764 337.804 476.25 337.168 476.586C336.544 476.922 335.836 477.09 335.044 477.09C334.156 477.09 333.352 476.886 332.632 476.478C331.912 476.07 331.348 475.5 330.94 474.768C330.532 474.036 330.328 473.202 330.328 472.266C330.328 471.33 330.532 470.496 330.94 469.764C331.348 469.032 331.912 468.468 332.632 468.072C333.352 467.664 334.156 467.46 335.044 467.46C335.812 467.46 336.502 467.622 337.114 467.946C337.738 468.258 338.248 468.72 338.644 469.332V463.644H339.922ZM335.152 475.956C335.812 475.956 336.406 475.806 336.934 475.506C337.474 475.194 337.894 474.756 338.194 474.192C338.506 473.628 338.662 472.986 338.662 472.266C338.662 471.546 338.506 470.904 338.194 470.34C337.894 469.776 337.474 469.344 336.934 469.044C336.406 468.732 335.812 468.576 335.152 468.576C334.48 468.576 333.874 468.732 333.334 469.044C332.806 469.344 332.386 469.776 332.074 470.34C331.774 470.904 331.624 471.546 331.624 472.266C331.624 472.986 331.774 473.628 332.074 474.192C332.386 474.756 332.806 475.194 333.334 475.506C333.874 475.806 334.48 475.956 335.152 475.956Z" fill="black"/>
<g filter="url(#filter0_d)">
<rect x="58" y="53" width="272" height="333" rx="34" fill="white"/>
</g>
<path d="M293.338 387.796L294.185 387.773C293.857 374.516 292.853 361.309 291.178 348.256C287.515 320.307 281.424 301.952 273.074 293.7L272.588 294.676C292.093 313.952 293.328 387.06 293.338 387.796Z" fill="#2F2E41"/>
<path d="M281.479 388.064L282.326 388.04C282.308 386.72 281.778 355.601 273.074 347L272.588 347.976C280.941 356.23 281.475 387.746 281.479 388.064Z" fill="#2F2E41"/>
<path d="M268.823 297.923C271.163 297.923 273.059 295.254 273.059 291.962C273.059 288.669 271.163 286 268.823 286C266.484 286 264.588 288.669 264.588 291.962C264.588 295.254 266.484 297.923 268.823 297.923Z" fill="#005792"/>
<path d="M268.823 350.923C271.163 350.923 273.059 348.254 273.059 344.962C273.059 341.669 271.163 339 268.823 339C266.484 339 264.588 341.669 264.588 344.962C264.588 348.254 266.484 350.923 268.823 350.923Z" fill="#005792"/>
<path d="M284.724 298.358C283.928 305.514 286.002 311.915 286.002 311.915C286.002 311.915 289.367 306.713 290.163 299.557C290.959 292.401 288.885 286 288.885 286C288.885 286 285.52 291.202 284.724 298.358Z" fill="#2F2E41"/>
<path d="M272.088 315C276.956 317.35 281.795 315.59 281.795 315.59C281.795 315.59 278.742 310.019 273.874 307.669C269.007 305.319 264.167 307.079 264.167 307.079C264.167 307.079 267.22 312.65 272.088 315Z" fill="#2F2E41"/>
<path d="M271.336 362.638C273.539 363.612 275.885 363.755 278.14 363.052C276.708 360.486 274.78 358.558 272.588 357.5C270.396 356.442 268.033 356.298 265.784 357.087C267.257 359.589 269.172 361.504 271.336 362.638Z" fill="#2F2E41"/>
<path d="M170.281 222.521L142.974 202.535C142.974 202.535 133.804 188.321 128.045 181.9C122.286 175.48 120.513 180.197 120.513 180.197L118.092 185.876L123.943 197.329L139.746 216.165L167.984 231.733C168.425 232.751 169.063 233.571 169.823 234.099C170.583 234.627 171.433 234.841 172.276 234.715C173.119 234.59 173.919 234.131 174.583 233.391C175.248 232.651 175.749 231.661 176.03 230.535C176.311 229.41 176.359 228.196 176.169 227.034C175.979 225.871 175.558 224.809 174.956 223.97C174.354 223.13 173.595 222.549 172.768 222.293C171.94 222.036 171.078 222.115 170.281 222.521Z" fill="#9F616A"/>
<path d="M99.2527 205.236L97.6359 191.314L93.071 189.708C93.071 189.708 89.4481 188.137 88.6012 198.409C87.7544 208.68 88.4109 227.858 88.4109 227.858L79.1426 269.169C78.3716 269.674 77.7184 270.476 77.259 271.483C76.7996 272.49 76.5529 273.66 76.5476 274.857C76.5423 276.054 76.7787 277.228 77.2292 278.243C77.6797 279.258 78.3258 280.072 79.0922 280.59C79.8587 281.108 80.7139 281.31 81.5584 281.17C82.4029 281.031 83.2019 280.556 83.8622 279.802C84.5226 279.049 85.0173 278.046 85.2886 276.912C85.5599 275.778 85.5967 274.558 85.3947 273.396L97.5409 234.283L99.2527 205.236Z" fill="#9F616A"/>
<path d="M137.011 400.603H142.984L145.826 368.172L137.01 368.173L137.011 400.603Z" fill="#9F616A"/>
<path d="M135.487 397.858L147.251 397.857H147.252C149.24 397.858 151.147 398.969 152.553 400.948C153.959 402.927 154.748 405.611 154.749 408.409V408.752L135.488 408.753L135.487 397.858Z" fill="#2F2E41"/>
<path d="M71.8573 400.603H77.831L80.6726 368.172L71.8565 368.173L71.8573 400.603Z" fill="#9F616A"/>
<path d="M70.3337 397.858L82.0978 397.857H82.0982C84.0865 397.858 85.9933 398.969 87.3992 400.948C88.8051 402.927 89.5951 405.611 89.5952 408.409V408.752L70.3341 408.753L70.3337 397.858Z" fill="#2F2E41"/>
<path d="M101.347 177.426L91.4396 189.331L99.5708 225.549L101.405 233.637C101.405 233.637 90.2026 248.175 83.271 288.788C76.3394 329.401 65 383.366 65 383.366L88.9354 393.01L108.409 301.139L131.313 373.214L133.958 394.532L154.341 386.073L149.533 332.609L125.492 240.061L127.99 215.528C127.99 215.528 131.74 203.283 125.225 190.319L123.181 178.137L115.861 175.599L101.347 177.426Z" fill="#00204A"/>
<path d="M117.807 170.954H91.0202C90.4692 170.953 89.9409 170.645 89.5513 170.097C89.1616 169.548 88.9425 168.805 88.9418 168.029V151.777C88.9418 146.002 90.5719 140.463 93.4735 136.378C96.375 132.294 100.31 130 104.414 130C108.517 130 112.453 132.294 115.354 136.378C118.256 140.463 119.886 146.002 119.886 151.777V168.029C119.885 168.805 119.666 169.548 119.276 170.097C118.887 170.645 118.358 170.953 117.807 170.954Z" fill="#2F2E41"/>
<path d="M117.547 162.268C120.552 154.531 118.531 144.83 113.034 140.6C107.537 136.37 100.645 139.214 97.6398 146.951C94.6348 154.689 96.655 164.39 102.152 168.619C107.649 172.849 114.542 170.006 117.547 162.268Z" fill="#9F616A"/>
<path d="M123.546 153.402H107.166L106.998 150.092L106.158 153.402H103.636L103.303 146.842L101.639 153.402H96.7588V153.077C96.7624 148.51 98.0531 144.131 100.347 140.902C102.642 137.672 105.753 135.856 108.998 135.851H111.307C114.552 135.856 117.663 137.672 119.957 140.902C122.252 144.131 123.542 148.51 123.546 153.077V153.402Z" fill="#2F2E41"/>
<path d="M107.032 173.988C106.909 173.988 106.786 173.973 106.664 173.942L94.6705 170.964V143.063H107.874L107.547 143.599C102.999 151.065 106.425 163.171 108.872 169.722C109.053 170.202 109.133 170.744 109.104 171.285C109.075 171.826 108.939 172.345 108.71 172.782C108.518 173.155 108.266 173.459 107.974 173.669C107.682 173.879 107.36 173.988 107.032 173.988Z" fill="#2F2E41"/>
<path d="M206.222 320.26L101.106 372.57C98.507 373.859 95.651 373.644 93.1644 371.973C90.6779 370.301 88.764 367.31 87.8425 363.655L69.7851 291.767C68.8695 288.109 69.0222 284.089 70.2098 280.589C71.3973 277.089 73.5226 274.395 76.1195 273.098L181.236 220.788C183.835 219.499 186.691 219.714 189.177 221.386C191.664 223.057 193.578 226.049 194.499 229.704L212.556 301.591C213.472 305.249 213.319 309.269 212.132 312.769C210.944 316.269 208.819 318.963 206.222 320.26Z" fill="white"/>
<path d="M212.556 301.591L212.652 301.972C213.529 305.465 213.384 309.306 212.249 312.649C211.115 315.992 209.083 318.564 206.601 319.799L100.959 372.371C98.4775 373.605 95.7493 373.402 93.3743 371.806C90.9993 370.209 89.1721 367.35 88.2945 363.858L88.199 363.477L212.556 301.591Z" fill="#F2F2F2"/>
<path d="M94.5462 289.789C87.5786 296.242 78.6487 291.386 75.5256 284.312L76.0235 283.914C81.9553 278.71 90.7644 281.609 94.5462 289.789Z" fill="#005792"/>
<path d="M181.86 308.098C180.155 308.947 178.619 308.908 177.296 307.982C174.305 305.89 172.901 299.687 171.773 294.703C171.445 293.253 171.135 291.883 170.819 290.763L170.815 290.746C170.266 288.526 170.361 286.09 171.081 283.967C171.8 281.845 173.086 280.208 174.658 279.413L188.797 272.376C190.5 271.529 192.034 271.567 193.356 272.491C196.347 274.581 197.752 280.782 198.881 285.764C199.21 287.217 199.521 288.59 199.837 289.711C200.39 291.934 200.296 294.374 199.576 296.5C198.857 298.626 197.57 300.266 195.996 301.063L181.86 308.098ZM171.407 290.445C171.73 291.591 172.042 292.972 172.373 294.434C173.465 299.258 174.824 305.263 177.576 307.188C178.758 308.014 180.09 308.038 181.65 307.262L195.785 300.228C197.201 299.511 198.359 298.038 199.007 296.126C199.655 294.215 199.742 292.021 199.248 290.021C198.927 288.888 198.613 287.502 198.28 286.033C197.188 281.21 195.828 275.208 193.076 273.286C191.896 272.461 190.565 272.437 189.007 273.212L174.869 280.248C173.454 280.964 172.298 282.437 171.65 284.346C171.002 286.255 170.914 288.446 171.407 290.445Z" fill="#3F3D56"/>
<path d="M91.6157 292.113C89.1312 293.326 86.4548 293.533 83.8908 292.711C80.1464 291.553 76.7482 288.407 75.0225 284.499L74.8495 284.107L75.6266 283.485C81.6476 278.207 90.6763 281.068 94.5735 289.496L94.7444 289.866L94.4827 290.108C93.5883 290.937 92.6255 291.611 91.6157 292.113ZM75.7356 284.418C77.4244 287.95 80.5671 290.775 84.0259 291.845C87.3881 292.95 90.9243 292.147 93.8688 289.609C90.0566 281.847 81.6108 279.273 75.9546 284.243L75.7356 284.418Z" fill="#00204A"/>
<path d="M95.3086 343.709C94.4259 344.201 93.4648 344.345 92.5282 344.126C91.5917 343.907 90.7152 343.334 89.9928 342.467C89.1473 341.426 88.5062 340.097 88.1316 338.607C87.7569 337.117 87.6612 335.516 87.8537 333.959C88.0324 332.619 88.4713 331.375 89.1216 330.364C89.7719 329.354 90.6083 328.617 91.538 328.234L110.377 318.859C111.271 318.338 112.25 318.174 113.206 318.385C114.162 318.597 115.058 319.176 115.795 320.059C116.64 321.1 117.281 322.429 117.655 323.919C118.029 325.409 118.124 327.01 117.931 328.567C117.559 331.303 116.247 333.319 114.246 334.284L95.4071 343.659C95.3742 343.676 95.3414 343.693 95.3086 343.709ZM91.6552 329.115C90.8513 329.464 90.1303 330.115 89.5695 330.998C89.0088 331.881 88.6295 332.962 88.4724 334.125C88.299 335.528 88.3853 336.97 88.7228 338.313C89.0604 339.655 89.6379 340.853 90.3997 341.79C91.0527 342.568 91.8462 343.077 92.6923 343.26C93.5383 343.443 94.4037 343.292 95.1927 342.825L114.041 333.446C114.864 333.111 115.605 332.463 116.183 331.573C116.76 330.682 117.151 329.584 117.313 328.4C117.486 326.997 117.401 325.555 117.063 324.213C116.726 322.871 116.149 321.673 115.388 320.736C114.734 319.958 113.94 319.448 113.094 319.264C112.247 319.081 111.381 319.229 110.591 319.693L91.7417 329.073C91.7128 329.087 91.6838 329.101 91.6552 329.115Z" fill="#3F3D56"/>
<path d="M181.986 286.947L176.048 289.902C175.654 290.098 175.221 290.066 174.844 289.813C174.467 289.559 174.177 289.106 174.038 288.551C173.899 287.997 173.922 287.388 174.102 286.857C174.282 286.327 174.604 285.919 174.998 285.723L180.937 282.767C181.33 282.571 181.763 282.604 182.14 282.857C182.517 283.11 182.807 283.564 182.946 284.118C183.085 284.673 183.063 285.282 182.883 285.812C182.703 286.343 182.38 286.751 181.986 286.947Z" fill="#005792"/>
<path d="M183.666 293.634L177.727 296.59C177.334 296.785 176.901 296.753 176.524 296.5C176.147 296.247 175.857 295.793 175.718 295.239C175.579 294.684 175.602 294.075 175.782 293.545C175.962 293.014 176.284 292.606 176.678 292.41L182.616 289.455C183.01 289.259 183.443 289.291 183.82 289.544C184.197 289.798 184.487 290.251 184.626 290.805C184.765 291.36 184.742 291.969 184.562 292.5C184.382 293.03 184.06 293.438 183.666 293.634Z" fill="#005792"/>
<path d="M185.346 300.321L179.407 303.277C179.212 303.374 179.006 303.416 178.799 303.4C178.593 303.385 178.39 303.312 178.204 303.187C178.017 303.062 177.85 302.886 177.712 302.669C177.573 302.453 177.467 302.2 177.398 301.926C177.329 301.651 177.299 301.36 177.31 301.07C177.321 300.779 177.372 300.494 177.461 300.232C177.55 299.969 177.675 299.734 177.829 299.539C177.983 299.344 178.162 299.194 178.357 299.097L184.296 296.142C184.491 296.045 184.698 296.003 184.904 296.018C185.111 296.033 185.313 296.106 185.5 296.231C185.686 296.357 185.854 296.533 185.992 296.749C186.13 296.966 186.237 297.218 186.306 297.493C186.375 297.767 186.405 298.058 186.394 298.349C186.383 298.639 186.331 298.924 186.242 299.187C186.153 299.449 186.028 299.685 185.874 299.879C185.72 300.074 185.541 300.224 185.346 300.321Z" fill="#005792"/>
<path d="M192.379 281.775L186.44 284.73C186.246 284.827 186.039 284.869 185.832 284.854C185.626 284.839 185.424 284.766 185.237 284.641C185.05 284.515 184.883 284.339 184.745 284.123C184.606 283.906 184.5 283.654 184.431 283.379C184.362 283.105 184.332 282.814 184.343 282.523C184.354 282.233 184.405 281.948 184.495 281.685C184.584 281.423 184.709 281.187 184.862 280.993C185.016 280.798 185.196 280.648 185.391 280.551L191.329 277.595C191.723 277.399 192.156 277.432 192.533 277.685C192.91 277.938 193.2 278.392 193.339 278.946C193.478 279.501 193.455 280.11 193.275 280.64C193.095 281.171 192.773 281.579 192.379 281.775Z" fill="#005792"/>
<path d="M194.059 288.462L188.12 291.418C187.925 291.515 187.719 291.557 187.512 291.541C187.306 291.526 187.103 291.453 186.917 291.328C186.73 291.202 186.563 291.027 186.425 290.81C186.286 290.594 186.18 290.341 186.111 290.067C186.042 289.792 186.012 289.501 186.023 289.211C186.034 288.92 186.085 288.635 186.174 288.373C186.263 288.11 186.388 287.875 186.542 287.68C186.696 287.485 186.875 287.335 187.07 287.238L193.009 284.283C193.204 284.186 193.411 284.144 193.617 284.159C193.824 284.174 194.026 284.247 194.213 284.372C194.399 284.498 194.567 284.674 194.705 284.89C194.843 285.106 194.95 285.359 195.019 285.634C195.088 285.908 195.118 286.199 195.107 286.489C195.096 286.78 195.044 287.065 194.955 287.328C194.866 287.59 194.741 287.826 194.587 288.02C194.433 288.215 194.254 288.365 194.059 288.462Z" fill="#005792"/>
<path d="M195.739 295.149L189.8 298.105C189.406 298.301 188.973 298.268 188.596 298.015C188.22 297.762 187.93 297.308 187.79 296.754C187.651 296.2 187.674 295.59 187.854 295.06C188.034 294.529 188.356 294.121 188.75 293.925L194.689 290.97C194.884 290.873 195.091 290.831 195.297 290.846C195.504 290.861 195.706 290.934 195.893 291.059C196.079 291.185 196.246 291.361 196.385 291.577C196.523 291.794 196.63 292.046 196.699 292.321C196.767 292.595 196.797 292.886 196.786 293.177C196.775 293.467 196.724 293.752 196.635 294.015C196.546 294.277 196.421 294.513 196.267 294.707C196.113 294.902 195.934 295.052 195.739 295.149Z" fill="#005792"/>
<path d="M198.431 245.352L74.073 307.239L74.283 308.075L198.641 246.188L198.431 245.352Z" fill="#3F3D56"/>
<path d="M206.222 320.26L101.106 372.57C98.507 373.859 95.651 373.644 93.1644 371.973C90.6779 370.301 88.764 367.31 87.8425 363.655L69.7851 291.767C68.8695 288.109 69.0222 284.089 70.2098 280.589C71.3973 277.089 73.5226 274.395 76.1195 273.098L181.236 220.788C183.835 219.499 186.691 219.714 189.177 221.386C191.664 223.057 193.578 226.049 194.499 229.704L212.556 301.591C213.472 305.249 213.319 309.269 212.132 312.769C210.944 316.269 208.819 318.963 206.222 320.26ZM76.3295 273.934C73.89 275.153 71.8935 277.683 70.7779 280.971C69.6624 284.259 69.5189 288.035 70.379 291.472L88.4364 363.359C89.302 366.793 91.1 369.603 93.4358 371.173C95.7716 372.743 98.4545 372.945 100.896 371.735L206.012 319.424C208.452 318.206 210.448 315.675 211.564 312.387C212.679 309.099 212.823 305.323 211.963 301.887L193.905 229.999C193.04 226.566 191.242 223.756 188.906 222.185C186.57 220.615 183.887 220.413 181.446 221.624L76.3295 273.934Z" fill="#3F3D56"/>
<path d="M101.048 35.432C98.48 35.432 96.152 34.88 94.064 33.776C92 32.648 90.368 31.1 89.168 29.132C87.992 27.14 87.404 24.896 87.404 22.4C87.404 19.904 87.992 17.672 89.168 15.704C90.368 13.712 92 12.164 94.064 11.06C96.152 9.932 98.492 9.368 101.084 9.368C103.268 9.368 105.236 9.752 106.988 10.52C108.764 11.288 110.252 12.392 111.452 13.832L107.708 17.288C106.004 15.32 103.892 14.336 101.372 14.336C99.812 14.336 98.42 14.684 97.196 15.38C95.972 16.052 95.012 17 94.316 18.224C93.644 19.448 93.308 20.84 93.308 22.4C93.308 23.96 93.644 25.352 94.316 26.576C95.012 27.8 95.972 28.76 97.196 29.456C98.42 30.128 99.812 30.464 101.372 30.464C103.892 30.464 106.004 29.468 107.708 27.476L111.452 30.932C110.252 32.396 108.764 33.512 106.988 34.28C105.212 35.048 103.232 35.432 101.048 35.432ZM120.358 18.188C121.03 17.252 121.93 16.544 123.058 16.064C124.21 15.584 125.53 15.344 127.018 15.344V20.528C126.394 20.48 125.974 20.456 125.758 20.456C124.15 20.456 122.89 20.912 121.978 21.824C121.066 22.712 120.61 24.056 120.61 25.856V35H114.994V15.632H120.358V18.188ZM149.154 25.388C149.154 25.46 149.118 25.964 149.046 26.9H134.394C134.658 28.1 135.282 29.048 136.266 29.744C137.25 30.44 138.474 30.788 139.938 30.788C140.946 30.788 141.834 30.644 142.602 30.356C143.394 30.044 144.126 29.564 144.798 28.916L147.786 32.156C145.962 34.244 143.298 35.288 139.794 35.288C137.61 35.288 135.678 34.868 133.998 34.028C132.318 33.164 131.022 31.976 130.11 30.464C129.198 28.952 128.742 27.236 128.742 25.316C128.742 23.42 129.186 21.716 130.074 20.204C130.986 18.668 132.222 17.48 133.782 16.64C135.366 15.776 137.13 15.344 139.074 15.344C140.97 15.344 142.686 15.752 144.222 16.568C145.758 17.384 146.958 18.56 147.822 20.096C148.71 21.608 149.154 23.372 149.154 25.388ZM139.11 19.592C137.838 19.592 136.77 19.952 135.906 20.672C135.042 21.392 134.514 22.376 134.322 23.624H143.862C143.67 22.4 143.142 21.428 142.278 20.708C141.414 19.964 140.358 19.592 139.11 19.592ZM172.621 8.288V35H167.257V32.768C165.865 34.448 163.849 35.288 161.209 35.288C159.385 35.288 157.729 34.88 156.241 34.064C154.777 33.248 153.625 32.084 152.785 30.572C151.945 29.06 151.525 27.308 151.525 25.316C151.525 23.324 151.945 21.572 152.785 20.06C153.625 18.548 154.777 17.384 156.241 16.568C157.729 15.752 159.385 15.344 161.209 15.344C163.681 15.344 165.613 16.124 167.005 17.684V8.288H172.621ZM162.181 30.68C163.597 30.68 164.773 30.2 165.709 29.24C166.645 28.256 167.113 26.948 167.113 25.316C167.113 23.684 166.645 22.388 165.709 21.428C164.773 20.444 163.597 19.952 162.181 19.952C160.741 19.952 159.553 20.444 158.617 21.428C157.681 22.388 157.213 23.684 157.213 25.316C157.213 26.948 157.681 28.256 158.617 29.24C159.553 30.2 160.741 30.68 162.181 30.68ZM177.819 15.632H183.435V35H177.819V15.632ZM180.627 12.932C179.595 12.932 178.755 12.632 178.107 12.032C177.459 11.432 177.135 10.688 177.135 9.8C177.135 8.912 177.459 8.168 178.107 7.568C178.755 6.968 179.595 6.668 180.627 6.668C181.659 6.668 182.499 6.956 183.147 7.532C183.795 8.108 184.119 8.828 184.119 9.692C184.119 10.628 183.795 11.408 183.147 12.032C182.499 12.632 181.659 12.932 180.627 12.932ZM201.139 34.064C200.587 34.472 199.903 34.784 199.087 35C198.295 35.192 197.455 35.288 196.567 35.288C194.263 35.288 192.475 34.7 191.203 33.524C189.955 32.348 189.331 30.62 189.331 28.34V20.384H186.343V16.064H189.331V11.348H194.947V16.064H199.771V20.384H194.947V28.268C194.947 29.084 195.151 29.72 195.559 30.176C195.991 30.608 196.591 30.824 197.359 30.824C198.247 30.824 199.003 30.584 199.627 30.104L201.139 34.064ZM226.943 35.432C224.375 35.432 222.047 34.88 219.959 33.776C217.895 32.648 216.263 31.1 215.063 29.132C213.887 27.14 213.299 24.896 213.299 22.4C213.299 19.904 213.887 17.672 215.063 15.704C216.263 13.712 217.895 12.164 219.959 11.06C222.047 9.932 224.387 9.368 226.979 9.368C229.163 9.368 231.131 9.752 232.883 10.52C234.659 11.288 236.147 12.392 237.347 13.832L233.603 17.288C231.899 15.32 229.787 14.336 227.267 14.336C225.707 14.336 224.315 14.684 223.091 15.38C221.867 16.052 220.907 17 220.211 18.224C219.539 19.448 219.203 20.84 219.203 22.4C219.203 23.96 219.539 25.352 220.211 26.576C220.907 27.8 221.867 28.76 223.091 29.456C224.315 30.128 225.707 30.464 227.267 30.464C229.787 30.464 231.899 29.468 233.603 27.476L237.347 30.932C236.147 32.396 234.659 33.512 232.883 34.28C231.107 35.048 229.127 35.432 226.943 35.432ZM248.56 15.344C251.56 15.344 253.864 16.064 255.472 17.504C257.08 18.92 257.884 21.068 257.884 23.948V35H252.628V32.588C251.572 34.388 249.604 35.288 246.724 35.288C245.236 35.288 243.94 35.036 242.836 34.532C241.756 34.028 240.928 33.332 240.352 32.444C239.776 31.556 239.488 30.548 239.488 29.42C239.488 27.62 240.16 26.204 241.504 25.172C242.872 24.14 244.972 23.624 247.804 23.624H252.268C252.268 22.4 251.896 21.464 251.152 20.816C250.408 20.144 249.292 19.808 247.804 19.808C246.772 19.808 245.752 19.976 244.744 20.312C243.76 20.624 242.92 21.056 242.224 21.608L240.208 17.684C241.264 16.94 242.524 16.364 243.988 15.956C245.476 15.548 247 15.344 248.56 15.344ZM248.128 31.508C249.088 31.508 249.94 31.292 250.684 30.86C251.428 30.404 251.956 29.744 252.268 28.88V26.9H248.416C246.112 26.9 244.96 27.656 244.96 29.168C244.96 29.888 245.236 30.464 245.788 30.896C246.364 31.304 247.144 31.508 248.128 31.508ZM268.331 18.188C269.003 17.252 269.903 16.544 271.031 16.064C272.183 15.584 273.503 15.344 274.991 15.344V20.528C274.367 20.48 273.947 20.456 273.731 20.456C272.123 20.456 270.863 20.912 269.951 21.824C269.039 22.712 268.583 24.056 268.583 25.856V35H262.967V15.632H268.331V18.188ZM297.883 8.288V35H292.519V32.768C291.127 34.448 289.111 35.288 286.471 35.288C284.647 35.288 282.991 34.88 281.503 34.064C280.039 33.248 278.887 32.084 278.047 30.572C277.207 29.06 276.787 27.308 276.787 25.316C276.787 23.324 277.207 21.572 278.047 20.06C278.887 18.548 280.039 17.384 281.503 16.568C282.991 15.752 284.647 15.344 286.471 15.344C288.943 15.344 290.875 16.124 292.267 17.684V8.288H297.883ZM287.443 30.68C288.859 30.68 290.035 30.2 290.971 29.24C291.907 28.256 292.375 26.948 292.375 25.316C292.375 23.684 291.907 22.388 290.971 21.428C290.035 20.444 288.859 19.952 287.443 19.952C286.003 19.952 284.815 20.444 283.879 21.428C282.943 22.388 282.475 23.684 282.475 25.316C282.475 26.948 282.943 28.256 283.879 29.24C284.815 30.2 286.003 30.68 287.443 30.68Z" fill="url(#paint0_linear)"/>
<defs>
<filter id="filter0_d" x="54" y="53" width="280" height="341" filterUnits="userSpaceOnUse" color-interpolation-filters="sRGB">
<feFlood flood-opacity="0" result="BackgroundImageFix"/>
<feColorMatrix in="SourceAlpha" type="matrix" values="0 0 0 0 0 0 0 0 0 0 0 0 0 0 0 0 0 0 127 0" result="hardAlpha"/>
<feOffset dy="4"/>
<feGaussianBlur stdDeviation="2"/>
<feColorMatrix type="matrix" values="0 0 0 0 0 0 0 0 0 0 0 0 0 0 0 0 0 0 0.25 0"/>
<feBlend mode="normal" in2="BackgroundImageFix" result="effect1_dropShadow"/>
<feBlend mode="normal" in="SourceGraphic" in2="effect1_dropShadow" result="shape"/>
</filter>
<linearGradient id="paint0_linear" x1="203.837" y1="-6.63013e-07" x2="207.174" y2="43.9559" gradientUnits="userSpaceOnUse">
<stop stop-color="#005792"/>
<stop offset="1" stop-color="#4B8BDE" stop-opacity="0.57"/>
</linearGradient>
</defs>
</svg>
