<svg width="744" height="689" viewBox="0 0 744 689" fill="none" xmlns="http://www.w3.org/2000/svg">
<path d="M655.506 640.766C655.451 640.482 650.208 612.03 660.917 588.398C671.625 564.768 694.485 554.347 694.714 554.244L695.759 553.778L696.006 555.073C696.06 555.357 701.304 583.81 690.595 607.441C679.886 631.071 657.027 641.492 656.797 641.595L655.752 642.062L655.506 640.766ZM694.326 556.939C689.747 559.283 671.676 569.54 662.631 589.498C653.586 609.459 656.315 633.063 657.185 638.9C661.762 636.562 679.826 626.32 688.88 606.341C697.925 586.382 695.197 562.78 694.326 556.939Z" fill="#3F3D56"/>
<path d="M682.411 599.152C663.167 612.929 655.755 640.293 655.755 640.293C655.755 640.293 679.545 645.321 698.789 631.544C718.033 617.767 725.445 590.403 725.445 590.403C725.445 590.403 701.655 585.375 682.411 599.152Z" fill="#005792"/>
<path d="M264.292 516.254C262.003 516.254 259.692 516.211 257.423 516.126L257.474 514.165C260.732 514.286 264.058 514.32 267.331 514.266L267.354 516.229C266.335 516.245 265.314 516.254 264.292 516.254ZM277.279 515.799L277.182 513.839C280.445 513.61 283.75 513.288 287.005 512.883L287.178 514.834C283.898 515.244 280.568 515.569 277.279 515.799ZM247.506 515.493C244.216 515.193 240.89 514.8 237.623 514.323L237.824 512.375C241.067 512.847 244.366 513.239 247.632 513.536L247.506 515.493ZM297.028 513.334L296.781 511.394C300.023 510.809 303.29 510.129 306.489 509.373L306.81 511.298C303.587 512.06 300.295 512.745 297.028 513.334ZM227.796 512.616C224.545 511.961 221.264 511.208 218.044 510.376L218.394 508.457C221.589 509.283 224.845 510.031 228.071 510.68L227.796 512.616ZM316.505 508.728L316.109 506.823C319.292 505.886 322.492 504.851 325.621 503.747L326.09 505.629C322.937 506.742 319.712 507.785 316.505 508.728ZM208.389 507.603C205.201 506.593 201.992 505.484 198.852 504.302L199.349 502.431C202.465 503.603 205.649 504.704 208.813 505.705L208.389 507.603ZM335.544 502.007L335.003 500.153C338.091 498.876 341.197 497.495 344.236 496.047L344.849 497.87C341.787 499.328 338.657 500.72 335.544 502.007ZM189.429 500.47C186.332 499.115 183.216 497.654 180.168 496.126L180.808 494.316C183.833 495.833 186.925 497.283 189.998 498.628L189.429 500.47ZM353.962 493.238L353.279 491.452C356.245 489.848 359.226 488.136 362.139 486.364L362.89 488.112C359.954 489.898 356.95 491.622 353.962 493.238ZM371.612 482.502L370.795 480.798C373.64 478.867 376.479 476.837 379.233 474.764L380.114 476.422C377.339 478.511 374.479 480.558 371.612 482.502ZM388.375 469.883L387.431 468.275C390.11 466.048 392.782 463.716 395.375 461.345L396.381 462.902C393.768 465.291 391.075 467.64 388.375 469.883ZM136.945 467.119C134.282 464.818 131.623 462.407 129.039 459.952L130.068 458.419C132.632 460.854 135.272 463.247 137.914 465.53L136.945 467.119ZM404.111 455.493L403.048 453.992C405.544 451.485 408.028 448.874 410.433 446.228L411.552 447.67C409.13 450.335 406.627 452.967 404.111 455.493ZM121.417 452.366C118.937 449.782 116.474 447.095 114.095 444.377L115.237 442.961C117.598 445.658 120.043 448.325 122.504 450.89L121.417 452.366ZM418.688 439.449L417.514 438.071C419.815 435.296 422.091 432.424 424.278 429.536L425.504 430.85C423.3 433.76 421.007 436.653 418.688 439.449ZM107.088 436.002C104.813 433.156 102.566 430.213 100.41 427.257L101.656 425.971C103.796 428.905 106.025 431.824 108.284 434.649L107.088 436.002ZM431.985 421.889L430.71 420.643C432.789 417.632 434.836 414.526 436.796 411.408L438.117 412.583C436.143 415.725 434.08 418.856 431.985 421.889ZM94.074 418.162C92.0309 415.09 90.0192 411.919 88.0944 408.736L89.4331 407.589C91.3433 410.748 93.3398 413.895 95.3676 416.945L94.074 418.162ZM443.886 402.952L442.521 401.85C444.361 398.627 446.163 395.31 447.876 391.988L449.283 393.016C447.555 396.362 445.739 399.705 443.886 402.952ZM82.4841 398.998C80.6866 395.719 78.9274 392.345 77.2547 388.967L78.6756 387.971C80.3358 391.322 82.0817 394.671 83.8655 397.924L82.4841 398.998ZM454.291 382.793L452.848 381.844C454.431 378.434 455.97 374.932 457.422 371.434L458.901 372.304C457.438 375.828 455.887 379.357 454.291 382.793H454.291ZM463.101 361.572L461.59 360.785C462.905 357.212 464.167 353.554 465.342 349.912L466.882 350.615C465.698 354.286 464.425 357.972 463.101 361.572H463.101ZM63.9619 357.337C62.6973 353.725 61.4862 350.031 60.3625 346.354L61.9131 345.683C63.028 349.332 64.2298 352.998 65.4843 356.582L63.9619 357.337ZM470.235 339.459L468.669 338.841C469.698 335.15 470.67 331.378 471.556 327.627L473.144 328.158C472.251 331.938 471.271 335.74 470.235 339.459ZM57.1849 335.157C56.2034 331.416 55.2811 327.595 54.4437 323.797L56.0394 323.299C56.8703 327.068 57.7858 330.86 58.7596 334.572L57.1849 335.157ZM475.611 316.71L474.004 316.266C474.743 312.483 475.418 308.619 476.012 304.784L477.634 305.139C477.036 309.004 476.356 312.897 475.611 316.71ZM52.1465 312.3C51.4586 308.466 50.8359 304.56 50.2962 300.689L51.9234 300.367C52.4594 304.209 53.0772 308.085 53.7599 311.889L52.1465 312.3ZM479.206 293.471L477.571 293.205C478.015 289.361 478.39 285.44 478.685 281.553L480.328 281.729C480.03 285.647 479.653 289.597 479.206 293.471ZM48.8954 288.99C48.5064 285.104 48.187 281.146 47.9458 277.227L49.5914 277.083C49.8302 280.974 50.1476 284.901 50.5338 288.758L48.8954 288.99ZM481 269.94L479.352 269.852C479.499 265.962 479.574 262.017 479.574 258.127H481.223C481.223 262.047 481.148 266.022 481 269.94ZM47.4459 265.424C47.3895 263.017 47.361 260.561 47.3605 258.127C47.3605 256.616 47.3714 255.109 47.3932 253.604L49.0428 253.638C49.0211 255.132 49.0102 256.628 49.0102 258.127C49.0106 260.543 49.0392 262.981 49.0948 265.37L47.4459 265.424ZM49.4343 241.92L47.7879 241.797C47.9937 237.875 48.278 233.914 48.632 230.023L50.272 230.234C49.9204 234.096 49.6389 238.027 49.4343 241.92H49.4343ZM478.508 229.944C478.179 226.074 477.726 224.188 477.247 220.335L478.879 220.048C479.361 223.93 479.774 226.894 480.107 230.793L478.508 229.944ZM51.5564 218.607L49.9261 218.307C50.4315 214.424 51.0187 210.51 51.6716 206.673L53.2883 207.062C52.6406 210.87 52.0578 214.754 51.5564 218.607H51.5564ZM475.582 208.777C474.953 204.948 474.244 201.093 473.472 197.321L475.075 196.857C475.852 200.658 476.567 204.542 477.201 208.4L475.582 208.777ZM55.4639 195.624L53.8638 195.146C54.6649 191.345 55.5521 187.511 56.501 183.752L58.0805 184.317C57.1394 188.047 56.2589 191.851 55.4639 195.624ZM470.92 185.992C470 182.255 468.995 178.495 467.933 174.816L469.492 174.178C470.563 177.885 471.577 181.674 472.504 185.44L470.92 185.992ZM61.1427 173.135L59.5865 172.484C60.6828 168.773 61.8664 165.045 63.1045 161.402L64.6341 162.138C63.4054 165.753 62.2305 169.453 61.1427 173.135ZM464.514 163.816C463.311 160.204 462.022 156.578 460.683 153.04L462.188 152.234C463.537 155.799 464.835 159.453 466.048 163.092L464.514 163.816ZM68.5469 151.349L67.0478 150.529C68.4256 146.959 69.8921 143.379 71.4064 139.888L72.8724 140.788C71.3694 144.252 69.9142 147.805 68.5469 151.349ZM456.44 142.481C454.964 139.015 453.4 135.543 451.791 132.161L453.226 131.194C454.848 134.602 456.424 138.101 457.911 141.593L456.44 142.481ZM77.6011 130.478L76.1714 129.498C77.817 126.098 79.5525 122.694 81.3298 119.383L82.7201 120.439C80.9565 123.726 79.2339 127.103 77.6011 130.478ZM446.749 122.101C445.006 118.799 443.18 115.509 441.324 112.323L442.678 111.205C444.55 114.415 446.389 117.73 448.145 121.057L446.749 122.101ZM88.2192 110.693L86.8708 109.562C88.7726 106.352 90.761 103.153 92.782 100.054L94.0853 101.256C92.08 104.333 90.1061 107.508 88.2192 110.693ZM435.527 102.848C433.539 99.7502 431.469 96.6701 429.372 93.6941L430.637 92.4332C432.749 95.4323 434.835 98.5353 436.839 101.657L435.527 102.848ZM100.306 92.1514L99.05 90.8786C101.184 87.8958 103.409 84.9269 105.661 82.0545L106.867 83.3934C104.632 86.2444 102.424 89.1912 100.306 92.1514ZM422.874 84.8805C420.658 82.0104 418.359 79.1656 416.042 76.4263L417.205 75.0337C419.54 77.7945 421.855 80.6604 424.088 83.552L422.874 84.8805ZM113.754 75.003L112.601 73.5998C114.96 70.8538 117.401 68.1389 119.856 65.5309L120.954 66.9954C118.518 69.5833 116.096 72.2776 113.754 75.003V75.003ZM408.895 68.3488C406.466 65.7279 403.959 63.1429 401.442 60.6658L402.494 59.1533C405.029 61.6492 407.556 64.2538 410.003 66.8949L408.895 68.3488ZM128.452 59.3862L127.41 57.8641C129.962 55.3918 132.598 52.9534 135.248 50.6167L136.23 52.1934C133.601 54.5129 130.984 56.9325 128.452 59.3862H128.452ZM144.274 45.4324L143.353 43.8039C146.084 41.6177 148.895 39.4769 151.709 37.4397L152.566 39.117C149.774 41.1384 146.984 43.2633 144.274 45.4324H144.274ZM161.09 33.2608L160.298 31.5384C163.187 29.6574 166.15 27.8325 169.103 26.1135L169.827 27.877C166.897 29.5826 163.957 31.3937 161.09 33.2608ZM360.181 28.7128C357.245 26.9727 354.238 25.2916 351.243 23.7163L351.91 21.9211C354.929 23.5084 357.959 25.2024 360.917 26.956L360.181 28.7128ZM178.76 22.9769L178.104 21.1759C181.123 19.6189 184.211 18.1256 187.283 16.7372L187.868 18.5727C184.82 19.9501 181.756 21.4318 178.76 22.9769ZM342.12 19.2135C339.065 17.8041 335.939 16.4593 332.827 15.2171L333.352 13.3558C336.487 14.608 339.638 15.9628 342.716 17.3837L342.12 19.2135ZM197.161 14.6627L196.647 12.7975C199.782 11.5745 202.98 10.4229 206.153 9.37573L206.594 11.2668C203.446 12.3063 200.271 13.4488 197.161 14.6627H197.161ZM323.413 11.7441C320.266 10.6769 317.057 9.68293 313.875 8.79011L314.253 6.8799C317.461 7.77942 320.694 8.78101 323.865 9.85593L323.413 11.7441ZM216.15 8.39187L215.783 6.47829C218.997 5.60465 222.271 4.80864 225.513 4.11279L225.806 6.04411C222.588 6.73516 219.339 7.52494 216.15 8.39187ZM304.232 6.36328C301.02 5.64582 297.748 5.00753 294.506 4.46599L294.735 2.52221C298.001 3.06806 301.299 3.71119 304.536 4.43388L304.232 6.36328ZM235.544 4.22733L235.325 2.28164C238.591 1.76311 241.912 1.32701 245.196 0.986751L245.339 2.94203C242.08 3.28036 238.785 3.71259 235.544 4.22733ZM284.717 3.10113C281.468 2.73691 278.16 2.45608 274.886 2.26774L274.966 0.306718C278.265 0.496977 281.597 0.779722 284.872 1.14686L284.717 3.10113ZM255.176 2.18915L255.107 0.228169C258.139 0.0776898 261.229 0.00102288 264.292 6.10352e-05L265.039 0.00149125L265.034 1.96443L264.292 1.963C261.252 1.96392 258.185 2.0401 255.176 2.18915Z" fill="#3F3D56"/>
<path d="M744 640.206H139.397V642.169H744V640.206Z" fill="#3F3D56"/>
<path d="M493.26 310.17L501.508 462.298C501.508 462.298 521.304 522.167 520.479 579.093C520.479 579.093 513.056 601.667 518.829 605.592C524.603 609.518 527.903 612.463 524.603 615.407C521.304 618.352 518.829 625.222 521.304 627.185C523.778 629.148 524.603 632.092 523.778 632.092H499.033C499.033 632.092 503.982 617.37 496.559 613.444C489.135 609.518 493.26 599.704 493.26 599.704L437.996 407.335L394.279 584C394.279 584 401.703 589.889 395.929 592.833C390.155 595.778 387.681 589.889 390.155 595.778C392.63 601.667 389.33 604.611 389.33 605.592C389.33 606.574 364.585 602.648 364.585 602.648C364.585 602.648 376.958 589.889 371.184 586.944C365.41 584 362.936 581.056 364.585 579.093C366.235 577.13 372.834 558.482 372.834 558.482C372.834 558.482 376.133 487.816 376.958 484.871C377.783 481.927 376.958 468.186 376.958 461.316C376.958 454.446 376.133 426.965 378.608 420.094C381.082 413.224 383.557 328.818 396.754 319.003C409.951 309.188 493.26 310.17 493.26 310.17Z" fill="#2F2E41"/>
<path d="M388.506 600.685C388.506 600.685 405.002 640.925 393.455 645.833C381.907 650.74 367.06 646.814 363.761 652.703C360.461 658.592 324.169 665.462 323.344 650.74C322.519 636.018 362.936 608.537 362.936 608.537L368.201 598.449L388.506 600.685Z" fill="#2F2E41"/>
<path d="M522.129 630.129C522.129 630.129 538.625 670.37 527.078 675.277C515.53 680.184 500.683 676.258 497.384 682.147C494.084 688.036 457.792 694.906 456.967 680.184C456.142 665.462 496.559 637.981 496.559 637.981L501.824 627.893L522.129 630.129Z" fill="#2F2E41"/>
<path d="M445.832 125.162C460.864 125.162 473.051 110.661 473.051 92.7737C473.051 74.886 460.864 60.3852 445.832 60.3852C430.799 60.3852 418.612 74.886 418.612 92.7737C418.612 110.661 430.799 125.162 445.832 125.162Z" fill="#A0616A"/>
<path d="M464.391 109.949L461.091 138.412L436.346 160.986L429.748 150.19V112.894L464.391 109.949Z" fill="#A0616A"/>
<path d="M425.623 146.264C425.623 146.264 451.193 149.208 464.39 138.412L490.785 323.91C490.785 323.91 397.579 332.743 393.455 326.855V268.948L409.951 174.727L425.623 146.264Z" fill="#3F3D56"/>
<path d="M462.119 129.543L470.989 138.412C470.989 138.412 507.282 145.282 504.807 157.06L494.909 296.429L498.209 343.54C498.209 343.54 470.164 334.706 448.718 343.54C427.273 352.373 444.311 153.72 444.311 153.72C444.311 153.72 463.972 132.452 462.119 129.543Z" fill="#005792"/>
<path d="M429.747 140.286C429.747 140.286 403.353 162.949 400.053 177.671C396.754 192.393 386.031 347.466 386.031 347.466C386.031 347.466 390.98 344.521 393.455 349.429C395.929 354.336 433.871 148.049 429.747 140.286Z" fill="#005792"/>
<path d="M418.625 91.3626C418.625 91.3626 415.678 86.1032 416.812 80.4393C417.489 77.2235 417.756 73.905 417.605 70.5948C417.605 70.5948 419.985 61.4245 422.365 56.3C424.745 51.1755 423.612 49.0178 431.092 47.3995C438.572 45.7812 435.512 34.1836 455.232 46.7252C455.897 47.8306 456.823 48.6766 457.892 49.1566C458.961 49.6366 460.126 49.7291 461.239 49.4223C465.319 48.4783 466.792 55.2211 466.792 55.2211C466.792 55.2211 469.512 53.3331 470.532 56.0303C471.552 58.7274 478.825 54.4115 478.825 72.6171C478.825 90.8227 470.549 107.085 470.549 107.085C470.549 107.085 471.155 76.461 457.669 73.3593C444.182 70.2576 429.675 61.2223 426.162 72.8199C424.265 79.3291 421.736 85.5522 418.625 91.3626Z" fill="#2F2E41"/>
<path d="M470.844 98.6439C472.313 98.6439 473.504 96.7543 473.504 94.4233C473.504 92.0924 472.313 90.2028 470.844 90.2028C469.375 90.2028 468.184 92.0924 468.184 94.4233C468.184 96.7543 469.375 98.6439 470.844 98.6439Z" fill="#A0616A"/>
<path d="M359.051 397.937C352.524 393.267 344.654 393.624 341.663 393.98C342.802 397.29 346.22 405.732 352.747 410.405C359.29 415.087 367.149 414.72 370.137 414.366C368.998 411.057 365.579 402.611 359.051 397.937Z" fill="#D0CDE1"/>
<path d="M389.721 490.612H348.928C346.494 490.612 344.159 491.762 342.438 493.81C340.716 495.858 339.75 498.636 339.75 501.533C339.75 504.429 340.716 507.207 342.438 509.255C344.159 511.304 346.494 512.454 348.928 512.454H389.721C392.154 512.451 394.486 511.3 396.205 509.252C397.925 507.204 398.891 504.428 398.891 501.533C398.891 498.638 397.925 495.862 396.205 493.814C394.486 491.766 392.154 490.614 389.721 490.612Z" fill="#D0CDE1"/>
<path d="M574.445 375.33H345.732C343.071 375.33 340.437 375.953 337.979 377.165C335.521 378.377 333.287 380.152 331.406 382.391C329.525 384.629 328.032 387.287 327.014 390.212C325.996 393.137 325.472 396.271 325.472 399.437V532.033C325.472 538.426 327.606 544.558 331.406 549.079C335.205 553.6 340.359 556.14 345.732 556.14H574.445C577.106 556.14 579.741 555.516 582.199 554.305C584.657 553.093 586.89 551.318 588.771 549.079C590.653 546.84 592.145 544.183 593.163 541.258C594.181 538.333 594.705 535.198 594.705 532.033V399.437C594.705 396.271 594.181 393.137 593.163 390.212C592.145 387.287 590.653 384.629 588.771 382.391C586.89 380.152 584.657 378.377 582.199 377.165C579.741 375.954 577.106 375.33 574.445 375.33ZM340.073 391.775C340.525 391.678 351.234 389.509 360.103 395.859C368.97 402.207 372.377 414.483 372.518 415.002L372.876 416.326L371.725 416.568C370.084 416.873 368.424 417.018 366.762 417.002C362.735 417.002 356.899 416.209 351.695 412.484C342.828 406.136 339.421 393.861 339.281 393.342L338.922 392.018L340.073 391.775ZM389.721 514.881H348.928C345.953 514.881 343.099 513.475 340.996 510.972C338.892 508.468 337.71 505.073 337.71 501.533C337.71 497.993 338.892 494.597 340.996 492.094C343.099 489.591 345.953 488.184 348.928 488.184H389.721C392.696 488.184 395.549 489.591 397.653 492.094C399.757 494.597 400.939 497.993 400.939 501.533C400.939 505.073 399.757 508.468 397.653 510.972C395.549 513.475 392.696 514.881 389.721 514.881ZM575.329 512.454C575.319 516.313 574.027 520.01 571.734 522.739C569.441 525.467 566.334 527.005 563.091 527.016H532.496C529.253 527.005 526.146 525.467 523.853 522.739C521.56 520.01 520.268 516.313 520.258 512.454V490.611C520.268 486.753 521.56 483.056 523.853 480.327C526.146 477.599 529.253 476.061 532.496 476.05H563.091C566.334 476.061 569.441 477.599 571.734 480.327C574.027 483.056 575.319 486.753 575.329 490.611L575.329 512.454Z" fill="#D0CDE1"/>
<path d="M542.185 508.207H528.927C527.98 508.207 527.072 508.655 526.403 509.451C525.733 510.248 525.357 511.328 525.357 512.454C525.357 513.581 525.733 514.661 526.403 515.458C527.072 516.254 527.98 516.701 528.927 516.701H542.185C543.131 516.701 544.039 516.254 544.708 515.458C545.378 514.661 545.754 513.581 545.754 512.454C545.754 511.328 545.378 510.248 544.708 509.451C544.039 508.655 543.131 508.207 542.185 508.207ZM542.185 514.275H528.927C528.726 514.275 528.526 514.228 528.34 514.137C528.154 514.046 527.985 513.912 527.843 513.743C527.7 513.574 527.587 513.373 527.51 513.152C527.433 512.931 527.393 512.694 527.393 512.454C527.393 512.215 527.433 511.978 527.51 511.757C527.587 511.536 527.7 511.335 527.843 511.166C527.985 510.997 528.154 510.863 528.34 510.771C528.526 510.68 528.726 510.634 528.927 510.634H542.185C542.386 510.634 542.585 510.68 542.771 510.771C542.957 510.863 543.126 510.997 543.268 511.166C543.411 511.335 543.524 511.536 543.601 511.757C543.678 511.978 543.718 512.215 543.718 512.454C543.718 512.694 543.678 512.931 543.601 513.152C543.524 513.373 543.411 513.574 543.268 513.743C543.126 513.912 542.957 514.046 542.771 514.137C542.585 514.228 542.386 514.275 542.185 514.275Z" fill="#D0CDE1"/>
<path d="M566.66 508.207H553.403C552.933 508.206 552.469 508.315 552.035 508.528C551.601 508.742 551.207 509.054 550.875 509.449C550.543 509.843 550.28 510.312 550.1 510.827C549.92 511.343 549.828 511.896 549.828 512.454C549.828 513.013 549.92 513.565 550.1 514.081C550.28 514.597 550.543 515.065 550.875 515.46C551.207 515.854 551.601 516.167 552.035 516.38C552.469 516.593 552.933 516.702 553.403 516.701H566.66C567.607 516.701 568.515 516.254 569.184 515.457C569.854 514.661 570.23 513.581 570.23 512.454C570.23 511.328 569.854 510.248 569.184 509.451C568.515 508.655 567.607 508.207 566.66 508.207ZM566.66 514.275H553.403C553.201 514.275 553.002 514.228 552.816 514.137C552.63 514.046 552.461 513.912 552.319 513.743C552.176 513.574 552.063 513.373 551.986 513.152C551.909 512.931 551.869 512.694 551.869 512.454C551.869 512.215 551.909 511.978 551.986 511.757C552.063 511.536 552.176 511.335 552.319 511.166C552.461 510.997 552.63 510.863 552.816 510.771C553.002 510.68 553.201 510.634 553.403 510.634H566.66C567.065 510.635 567.454 510.827 567.74 511.169C568.026 511.51 568.187 511.972 568.187 512.454C568.187 512.936 568.026 513.399 567.74 513.74C567.454 514.081 567.065 514.273 566.66 514.275Z" fill="#D0CDE1"/>
<path d="M542.185 497.286H528.927C527.98 497.286 527.072 497.733 526.403 498.53C525.733 499.326 525.357 500.406 525.357 501.533C525.357 502.659 525.733 503.74 526.403 504.536C527.072 505.333 527.98 505.78 528.927 505.78H542.185C542.654 505.781 543.118 505.672 543.552 505.459C543.986 505.246 544.38 504.933 544.712 504.538C545.044 504.144 545.307 503.675 545.487 503.16C545.667 502.644 545.759 502.091 545.759 501.533C545.759 500.975 545.667 500.422 545.487 499.906C545.307 499.39 545.044 498.922 544.712 498.527C544.38 498.133 543.986 497.82 543.552 497.607C543.118 497.394 542.654 497.285 542.185 497.286ZM542.185 503.353H528.927C528.521 503.353 528.132 503.161 527.845 502.82C527.558 502.479 527.397 502.016 527.397 501.533C527.397 501.05 527.558 500.587 527.845 500.246C528.132 499.904 528.521 499.713 528.927 499.713H542.185C542.59 499.713 542.979 499.904 543.266 500.246C543.553 500.587 543.714 501.05 543.714 501.533C543.714 502.016 543.553 502.479 543.266 502.82C542.979 503.161 542.59 503.353 542.185 503.353Z" fill="#D0CDE1"/>
<path d="M566.66 497.286H553.403C552.933 497.285 552.469 497.394 552.035 497.607C551.601 497.82 551.207 498.133 550.875 498.527C550.543 498.922 550.28 499.39 550.1 499.906C549.92 500.422 549.828 500.975 549.828 501.533C549.828 502.091 549.92 502.644 550.1 503.16C550.28 503.675 550.543 504.144 550.875 504.538C551.207 504.933 551.601 505.246 552.035 505.459C552.469 505.672 552.933 505.781 553.403 505.78H566.66C567.607 505.78 568.515 505.333 569.184 504.536C569.854 503.74 570.23 502.659 570.23 501.533C570.23 500.406 569.854 499.326 569.184 498.53C568.515 497.733 567.607 497.286 566.66 497.286ZM566.66 503.353H553.403C552.997 503.353 552.608 503.161 552.321 502.82C552.034 502.479 551.873 502.016 551.873 501.533C551.873 501.05 552.034 500.587 552.321 500.246C552.608 499.904 552.997 499.713 553.403 499.713H566.66C567.066 499.713 567.455 499.904 567.742 500.246C568.029 500.587 568.19 501.05 568.19 501.533C568.19 502.016 568.029 502.479 567.742 502.82C567.455 503.161 567.066 503.353 566.66 503.353Z" fill="#D0CDE1"/>
<path d="M542.185 486.364H528.927C527.98 486.364 527.072 486.812 526.403 487.608C525.733 488.405 525.357 489.485 525.357 490.611C525.357 491.738 525.733 492.818 526.403 493.615C527.072 494.411 527.98 494.859 528.927 494.859H542.185C543.131 494.859 544.039 494.411 544.708 493.615C545.378 492.818 545.754 491.738 545.754 490.611C545.754 489.485 545.378 488.405 544.708 487.608C544.039 486.812 543.131 486.364 542.185 486.364ZM542.185 492.432H528.927C528.521 492.432 528.132 492.24 527.845 491.899C527.558 491.557 527.397 491.094 527.397 490.611C527.397 490.129 527.558 489.666 527.845 489.324C528.132 488.983 528.521 488.791 528.927 488.791H542.185C542.59 488.791 542.979 488.983 543.266 489.324C543.553 489.666 543.714 490.129 543.714 490.611C543.714 491.094 543.553 491.557 543.266 491.899C542.979 492.24 542.59 492.432 542.185 492.432Z" fill="#D0CDE1"/>
<path d="M566.66 486.364H553.403C552.933 486.363 552.469 486.473 552.035 486.686C551.601 486.899 551.207 487.212 550.875 487.606C550.543 488 550.28 488.469 550.1 488.985C549.92 489.5 549.828 490.053 549.828 490.611C549.828 491.17 549.92 491.723 550.1 492.238C550.28 492.754 550.543 493.223 550.875 493.617C551.207 494.011 551.601 494.324 552.035 494.537C552.469 494.75 552.933 494.86 553.403 494.859H566.66C567.606 494.857 568.512 494.409 569.181 493.612C569.849 492.816 570.224 491.737 570.224 490.611C570.224 489.486 569.849 488.407 569.181 487.611C568.512 486.814 567.606 486.366 566.66 486.364ZM566.66 492.432H553.403C552.997 492.432 552.608 492.24 552.321 491.899C552.034 491.557 551.873 491.094 551.873 490.611C551.873 490.129 552.034 489.666 552.321 489.324C552.608 488.983 552.997 488.791 553.403 488.791H566.66C567.066 488.791 567.455 488.983 567.742 489.324C568.029 489.666 568.19 490.129 568.19 490.611C568.19 491.094 568.029 491.557 567.742 491.899C567.455 492.24 567.066 492.432 566.66 492.432Z" fill="#D0CDE1"/>
<path d="M502.333 345.503L496.42 368.461C496.42 368.461 494.909 411.261 475.113 405.372C455.317 399.483 480.887 349.428 480.887 349.428L486.661 338.632L502.333 345.503Z" fill="#A0616A"/>
<path d="M390.155 345.503L384.243 368.461C384.243 368.461 382.732 411.261 362.936 405.372C343.14 399.483 368.71 349.428 368.71 349.428L374.483 338.632L390.155 345.503Z" fill="#A0616A"/>
<path d="M498.209 150.19C498.209 150.19 511.406 146.264 515.53 172.764C519.654 199.263 524.603 274.837 524.603 274.837L504.807 354.336C504.807 354.336 485.011 341.577 480.887 343.54L496.465 274.522L483.362 204.171C483.362 204.171 494.909 150.19 498.209 150.19Z" fill="#005792"/>
<path opacity="0.15" d="M479.02 205.513L496.341 274.216L479.02 343.901L488.918 274.216L479.02 205.513Z" fill="black"/>
<path d="M400.053 204.171L370.359 343.54C370.359 343.54 386.022 349.691 391.796 354.598L400.053 204.171Z" fill="#005792"/>
<path d="M88.556 554.418C134.11 554.418 171.039 510.476 171.039 456.271C171.039 402.065 134.11 358.124 88.556 358.124C43.0017 358.124 6.07257 402.065 6.07257 456.271C6.07257 510.476 43.0017 554.418 88.556 554.418Z" fill="#3F3D56"/>
<path opacity="0.1" d="M88.556 540.677C127.733 540.677 159.492 502.887 159.492 456.271C159.492 409.654 127.733 371.864 88.556 371.864C49.3793 371.864 17.6202 409.654 17.6202 456.271C17.6202 502.887 49.3793 540.677 88.556 540.677Z" fill="black"/>
<path d="M85.157 506.078V493.793C79.938 493.672 74.5388 491.482 71.3896 488.441L73.549 480.292C77.2915 483.629 81.8302 485.461 86.5067 485.521C92.8957 485.521 97.2149 480.535 97.2149 473.602C97.2149 466.911 93.7054 462.776 87.0466 459.127C77.8682 454.262 72.1993 448.666 72.1993 438.084C72.1993 427.988 77.5084 420.325 85.787 418.501V406.216H91.3658V418.014C95.5259 418.082 99.5837 419.559 103.064 422.271L100.814 430.299C97.4762 427.581 93.521 426.138 89.4762 426.164C82.5477 426.164 79.938 431.759 79.938 436.624C79.938 442.949 83.2674 446.112 91.0961 450.491C100.364 455.6 105.044 461.925 105.044 472.75C105.044 482.359 100.094 491.361 90.8259 493.427V506.078H85.157Z" fill="#005792"/>
<path d="M175.69 655.91C117.449 666.245 58.2412 666.245 0 655.91V632.354C58.303 641.645 117.387 641.645 175.69 632.354V655.91Z" fill="#3F3D56"/>
<path d="M175.69 619.595C117.449 629.93 58.2412 629.93 0 619.595V596.04C58.303 605.331 117.387 605.331 175.69 596.04V619.595Z" fill="#3F3D56"/>
<path d="M175.69 583.281C117.449 593.616 58.2412 593.616 0 583.281V559.726C58.303 569.016 117.387 569.016 175.69 559.726V583.281Z" fill="#3F3D56"/>
</svg>
