<svg width="247" height="268" viewBox="0 0 247 268" fill="none" xmlns="http://www.w3.org/2000/svg">
<path d="M129.181 62.2299L127.789 62.2124L128.267 24.1135C128.341 18.2653 126.086 12.6274 122 8.44013C117.914 4.25285 112.33 1.85915 106.478 1.78563L25.701 0.770969C22.8031 0.734558 19.9265 1.26886 17.2353 2.34337C14.5441 3.41788 12.0911 5.01155 10.0163 7.0334C7.9415 9.05525 6.2855 11.4657 5.1429 14.127C4.0004 16.7884 3.39361 19.6486 3.35721 22.5443L0.731706 231.558C0.695306 234.454 1.23011 237.329 2.30541 240.018C3.38071 242.707 4.97561 245.158 6.99901 247.232C9.02241 249.305 11.4346 250.96 14.0979 252.102C16.7612 253.243 19.6236 253.85 22.5214 253.886L103.298 254.901C106.196 254.937 109.073 254.403 111.764 253.328C114.455 252.254 116.908 250.66 118.983 248.638C121.058 246.617 122.714 244.206 123.856 241.545C124.999 238.883 125.606 236.023 125.642 233.127L127.448 89.3319L128.84 89.3494L129.181 62.2299Z" fill="#3F3D56"/>
<path d="M107.123 8.05308L96.579 7.92065C97.049 9.11467 97.218 10.4058 97.071 11.6805C96.924 12.9551 96.466 14.174 95.736 15.2298C95.007 16.2856 94.029 17.146 92.888 17.7351C91.747 18.3242 90.479 18.6239 89.195 18.6078L42.9193 18.0266C41.6354 18.0103 40.3752 17.6789 39.2497 17.0613C38.1242 16.4438 37.168 15.5591 36.4652 14.4853C35.7624 13.4115 35.3347 12.1814 35.2198 10.9035C35.1048 9.62563 35.3061 8.3391 35.8059 7.15725L25.9577 7.03355C21.5872 6.97864 17.3738 8.66091 14.2446 11.7103C11.1154 14.7596 9.3265 18.9263 9.2717 23.2937L6.65 232.001C6.6229 234.164 7.0222 236.31 7.8253 238.318C8.6283 240.327 9.8194 242.157 11.3304 243.706C12.8414 245.254 14.6429 246.49 16.6318 247.342C18.6208 248.195 20.7583 248.648 22.9224 248.675L104.088 249.695C108.459 249.75 112.672 248.067 115.801 245.018C118.931 241.969 120.719 237.802 120.774 233.435L123.396 24.7273C123.423 22.5648 123.024 20.4181 122.221 18.4098C121.418 16.4015 120.226 14.5709 118.715 13.0226C117.204 11.4742 115.403 10.2385 113.414 9.38579C111.425 8.53313 109.288 8.08027 107.124 8.05308H107.123ZM104.136 104.852C104.118 105.982 103.654 107.059 102.844 107.848C102.034 108.637 100.945 109.074 99.814 109.063L79.183 108.804C78.052 108.787 76.974 108.323 76.184 107.513C75.394 106.704 74.957 105.615 74.968 104.485L74.981 103.419C74.999 102.289 75.463 101.211 76.273 100.422C77.083 99.633 78.172 99.1962 79.304 99.2071L99.934 99.4662C101.065 99.4837 102.143 99.9478 102.933 100.757C103.723 101.566 104.16 102.655 104.149 103.785L104.136 104.852ZM106.685 86.042C106.667 87.1721 106.203 88.2495 105.393 89.0386C104.583 89.8278 103.494 90.2646 102.363 90.2537L28.376 89.3243C27.245 89.3068 26.1669 88.8428 25.3772 88.0335C24.5874 87.2243 24.1503 86.1356 24.1612 85.0054L24.1746 83.939C24.1921 82.8088 24.6564 81.7315 25.4663 80.9424C26.2761 80.1532 27.3655 79.7164 28.4966 79.7273L102.483 80.6567C103.614 80.6742 104.692 81.1382 105.482 81.9475C106.272 82.7567 106.709 83.8454 106.698 84.9756L106.685 86.042ZM106.921 67.2034C106.904 68.3336 106.439 69.4109 105.629 70.2C104.82 70.9892 103.73 71.426 102.599 71.4151L28.6127 70.4857C27.4817 70.4682 26.4036 70.0042 25.6138 69.1949C24.8241 68.3857 24.3869 67.297 24.3978 66.1668L24.4112 65.1004C24.4287 63.9703 24.8931 62.8929 25.7029 62.1038C26.5127 61.3147 27.6021 60.8778 28.7332 60.8887L102.72 61.8181C103.851 61.8356 104.929 62.2997 105.719 63.1089C106.508 63.9181 106.945 65.0068 106.935 66.137L106.921 67.2034ZM107.158 48.3648C107.14 49.495 106.676 50.5723 105.866 51.3614C105.056 52.1506 103.967 52.5874 102.836 52.5765L28.8493 51.6472C27.7183 51.6296 26.6402 51.1656 25.8505 50.3563C25.0607 49.5471 24.6236 48.4585 24.6344 47.3282L24.6478 46.2619C24.6653 45.1317 25.1297 44.0544 25.9395 43.2652C26.7493 42.4761 27.8388 42.0392 28.9699 42.0501L102.956 42.9795C104.087 42.997 105.165 43.4611 105.955 44.2703C106.745 45.0796 107.182 46.1682 107.171 47.2985L107.158 48.3648Z" fill="white"/>
<path d="M30.0036 87.2117C31.3787 87.229 32.5075 86.129 32.5248 84.7549C32.542 83.3807 31.4412 82.2528 30.0661 82.2355C28.6909 82.2182 27.5622 83.3182 27.5449 84.6923C27.5277 86.0665 28.6284 87.1945 30.0036 87.2117Z" fill="white"/>
<path d="M38.1847 87.3145C39.5599 87.3318 40.6887 86.2318 40.7059 84.8577C40.7232 83.4835 39.6224 82.3556 38.2473 82.3383C36.8721 82.321 35.7433 83.421 35.7261 84.7951C35.7088 86.1693 36.8096 87.2972 38.1847 87.3145Z" fill="white"/>
<path d="M46.3659 87.4173C47.741 87.4346 48.8698 86.3346 48.8871 84.9605C48.9043 83.5863 47.8036 82.4583 46.4284 82.4411C45.0533 82.4238 43.9245 83.5238 43.9072 84.8979C43.89 86.2721 44.9907 87.4 46.3659 87.4173Z" fill="white"/>
<path d="M54.5472 87.52C55.9223 87.5373 57.0511 86.4373 57.0684 85.0632C57.0856 83.689 55.9848 82.5611 54.6097 82.5438C53.2345 82.5265 52.1058 83.6265 52.0885 85.0006C52.0712 86.3748 53.172 87.5027 54.5472 87.52Z" fill="white"/>
<path d="M80.988 106.694C82.363 106.711 83.492 105.611 83.509 104.237C83.527 102.863 82.426 101.735 81.051 101.717C79.676 101.7 78.547 102.8 78.53 104.174C78.512 105.548 79.613 106.676 80.988 106.694Z" fill="white"/>
<path d="M89.169 106.797C90.545 106.814 91.673 105.714 91.691 104.34C91.708 102.966 90.607 101.838 89.232 101.82C87.857 101.803 86.728 102.903 86.711 104.277C86.694 105.651 87.794 106.779 89.169 106.797Z" fill="white"/>
<path d="M97.351 106.899C98.726 106.917 99.855 105.817 99.872 104.442C99.889 103.068 98.788 101.94 97.413 101.923C96.038 101.906 94.909 103.006 94.892 104.38C94.875 105.754 95.975 106.882 97.351 106.899Z" fill="white"/>
<path d="M106.62 136.77L22.2403 135.71C20.2579 135.686 18.3468 136.449 16.9275 137.832C15.5082 139.215 14.6968 141.105 14.6719 143.086L14.1559 184.167C14.131 186.148 14.8946 188.058 16.2788 189.476C17.6629 190.894 19.5542 191.705 21.5366 191.73L105.916 192.79C107.899 192.815 109.81 192.052 111.229 190.669C112.648 189.286 113.46 187.396 113.485 185.415L114.001 144.333C114.025 142.352 113.262 140.443 111.878 139.024C110.494 137.606 108.602 136.795 106.62 136.77ZM20.0886 140.779C20.2556 140.751 24.2152 140.129 27.4622 142.137C30.709 144.145 31.9183 147.965 31.968 148.126L32.0951 148.538L31.6696 148.608C31.0628 148.695 30.4498 148.732 29.8369 148.719C27.8917 148.732 25.9786 148.224 24.2959 147.249C21.049 145.242 19.84 141.422 19.7902 141.261L19.6631 140.849L20.0886 140.779ZM37.9261 179.151L22.8763 178.962C21.7786 178.948 20.7314 178.499 19.965 177.714C19.1986 176.928 18.7758 175.871 18.7895 174.774C18.8033 173.677 19.2526 172.631 20.0385 171.865C20.8244 171.099 21.8825 170.677 22.9802 170.691L38.03 170.88C39.1276 170.893 40.1748 171.342 40.9413 172.128C41.7077 172.913 42.1305 173.97 42.1167 175.067C42.1029 176.164 41.6537 177.211 40.8678 177.976C40.0819 178.742 39.0237 179.165 37.9261 179.151ZM106.412 179.259C106.394 180.455 105.902 181.594 105.046 182.429C104.189 183.264 103.037 183.726 101.84 183.714L90.553 183.572C89.357 183.554 88.216 183.063 87.381 182.207C86.546 181.351 86.083 180.199 86.095 179.004L86.18 172.236C86.198 171.041 86.69 169.901 87.546 169.067C88.403 168.232 89.555 167.77 90.751 167.782L102.039 167.923C103.235 167.942 104.376 168.433 105.211 169.289C106.046 170.145 106.509 171.296 106.497 172.492L106.412 179.259Z" fill="#005792"/>
<path d="M94.267 177.712L89.728 177.655C89.404 177.651 89.092 177.775 88.86 178.002C88.628 178.228 88.495 178.537 88.491 178.86C88.487 179.184 88.612 179.496 88.838 179.728C89.064 179.96 89.373 180.093 89.698 180.097L94.236 180.154C94.56 180.158 94.872 180.033 95.104 179.807C95.336 179.581 95.469 179.272 95.473 178.948C95.477 178.624 95.352 178.312 95.126 178.08C94.9 177.848 94.591 177.716 94.267 177.712Z" fill="#3F3D56"/>
<path d="M102.645 177.817L98.107 177.76C97.783 177.756 97.47 177.881 97.238 178.107C97.006 178.333 96.874 178.642 96.87 178.966C96.865 179.289 96.99 179.602 97.217 179.834C97.443 180.065 97.752 180.198 98.076 180.202L102.614 180.259C102.938 180.263 103.251 180.138 103.483 179.912C103.715 179.686 103.848 179.377 103.852 179.053C103.856 178.73 103.731 178.417 103.505 178.186C103.278 177.954 102.969 177.821 102.645 177.817Z" fill="#3F3D56"/>
<path d="M94.309 174.265L89.771 174.208C89.447 174.204 89.134 174.329 88.902 174.555C88.67 174.781 88.538 175.09 88.534 175.414C88.53 175.738 88.654 176.05 88.881 176.282C89.107 176.514 89.416 176.646 89.74 176.65L94.279 176.707C94.603 176.711 94.915 176.586 95.147 176.36C95.379 176.134 95.512 175.825 95.516 175.502C95.52 175.178 95.395 174.865 95.169 174.634C94.942 174.402 94.633 174.269 94.309 174.265Z" fill="#3F3D56"/>
<path d="M102.688 174.37L98.149 174.313C97.825 174.309 97.513 174.434 97.281 174.66C97.049 174.886 96.916 175.195 96.912 175.519C96.908 175.843 97.033 176.155 97.259 176.387C97.485 176.619 97.795 176.751 98.119 176.755L102.657 176.812C102.981 176.816 103.293 176.692 103.525 176.466C103.758 176.239 103.89 175.931 103.894 175.607C103.898 175.283 103.773 174.971 103.547 174.739C103.321 174.507 103.012 174.374 102.688 174.37Z" fill="#3F3D56"/>
<path d="M94.352 170.888L89.813 170.831C89.489 170.827 89.177 170.952 88.945 171.178C88.713 171.404 88.58 171.713 88.576 172.037C88.572 172.361 88.697 172.673 88.923 172.905C89.149 173.137 89.459 173.269 89.783 173.273L94.321 173.33C94.645 173.334 94.957 173.21 95.189 172.983C95.421 172.757 95.554 172.448 95.558 172.125C95.562 171.801 95.437 171.489 95.211 171.257C94.985 171.025 94.676 170.892 94.352 170.888Z" fill="#3F3D56"/>
<path d="M102.73 170.994L98.192 170.937C97.868 170.933 97.555 171.057 97.323 171.283C97.091 171.509 96.959 171.818 96.955 172.142C96.95 172.466 97.075 172.778 97.302 173.01C97.528 173.242 97.837 173.374 98.161 173.379L102.699 173.436C103.023 173.44 103.336 173.315 103.568 173.089C103.8 172.863 103.933 172.554 103.937 172.23C103.941 171.906 103.816 171.594 103.59 171.362C103.363 171.13 103.054 170.998 102.73 170.994Z" fill="#3F3D56"/>
<path d="M164.868 152.98L153.862 152.841L153.724 163.84L164.73 163.978L164.868 152.98Z" fill="#E6E6E6"/>
<path d="M140.807 159.356L158.888 159.583L158.661 177.651L140.58 177.424L140.807 159.356ZM158.092 160.359L141.583 160.151L141.376 176.648L157.885 176.856L158.092 160.359Z" fill="#3F3D56"/>
<path d="M217.768 263.02L212.949 262.959L210.89 244.356L218.003 244.446L217.768 263.02Z" fill="#FFB8B8"/>
<path d="M209.525 261.54L218.818 261.657L218.745 267.504L203.6 267.314C203.619 265.763 204.254 264.283 205.365 263.201C206.477 262.118 207.973 261.52 209.525 261.54Z" fill="#2F2E41"/>
<path d="M241.746 263.321L236.927 263.26L234.868 244.658L241.98 244.747L241.746 263.321Z" fill="#FFB8B8"/>
<path d="M233.502 261.841L242.796 261.958L242.722 267.805L227.577 267.615C227.596 266.064 228.232 264.585 229.343 263.502C230.454 262.419 231.95 261.822 233.502 261.841Z" fill="#2F2E41"/>
<path d="M194.429 196.291C194.088 195.776 193.865 195.193 193.775 194.583C193.684 193.972 193.729 193.35 193.905 192.759C194.082 192.167 194.386 191.622 194.796 191.161C195.206 190.7 195.713 190.334 196.28 190.09L213.228 145.178L221.234 149.675L201.988 192.556C202.335 193.535 202.312 194.607 201.921 195.57C201.53 196.532 200.8 197.318 199.868 197.779C198.936 198.239 197.868 198.342 196.865 198.068C195.863 197.793 194.996 197.161 194.429 196.291Z" fill="#FFB8B8"/>
<path d="M240.012 205.343C239.481 205.029 239.024 204.603 238.675 204.094C238.326 203.585 238.093 203.006 237.992 202.397C237.892 201.788 237.926 201.165 238.092 200.571C238.258 199.977 238.553 199.427 238.955 198.959L234.48 151.168L243.648 151.702L245.168 198.674C245.909 199.402 246.359 200.376 246.43 201.412C246.501 202.448 246.189 203.474 245.554 204.296C244.919 205.118 244.004 205.679 242.982 205.872C241.961 206.064 240.904 205.876 240.012 205.342V205.343Z" fill="#FFB8B8"/>
<path d="M226.234 136.983C231.566 137.05 235.943 132.785 236.01 127.457C236.077 122.129 231.809 117.755 226.477 117.688C221.145 117.621 216.768 121.886 216.701 127.214C216.634 132.542 220.903 136.916 226.234 136.983Z" fill="#FFB8B8"/>
<path d="M240.087 194.487L210.981 194.122L211.019 193.896C211.076 193.558 216.633 160.009 212.984 148.964C212.617 147.879 212.666 146.696 213.119 145.644C213.573 144.592 214.4 143.745 215.441 143.266H215.442C220.887 140.787 231.317 137.781 239.992 145.503C241.269 146.658 242.258 148.094 242.884 149.697C243.509 151.3 243.753 153.026 243.595 154.739L240.087 194.487Z" fill="#00204A"/>
<path d="M216.938 164.981L203.868 162.16L210.193 147.692C210.578 146.288 211.505 145.094 212.77 144.372C214.035 143.65 215.535 143.458 216.942 143.84C218.348 144.222 219.545 145.145 220.271 146.407C220.996 147.67 221.191 149.169 220.813 150.575L216.938 164.981Z" fill="#00204A"/>
<path d="M233.659 170.124L233.098 152.069C232.543 148.67 234.527 145.487 237.522 145.001C240.518 144.516 243.408 146.905 243.965 150.33L246.714 167.228L233.659 170.124Z" fill="#00204A"/>
<path d="M239.146 192.315C243.605 210.197 243.831 232.864 242.257 257.566L235.978 256.702L225.171 209.424L218.28 257.265L211.21 256.784C209.422 230.821 207.643 208.53 211.213 193.928L239.146 192.315Z" fill="#2F2E41"/>
<path d="M232.623 134.871C230.798 136.766 227.466 135.695 227.264 133.073C227.249 132.869 227.252 132.664 227.276 132.462C227.412 131.303 228.096 130.258 227.95 129.031C227.918 128.726 227.808 128.434 227.631 128.183C226.22 126.244 222.816 128.982 221.483 127.226C220.666 126.15 221.663 124.483 221.041 123.284C220.219 121.701 217.718 122.445 216.166 121.564C214.44 120.584 214.578 117.92 215.742 116.314C217.163 114.354 219.623 113.33 222.041 113.208C224.46 113.086 226.851 113.769 229.096 114.676C231.647 115.706 234.172 117.118 235.721 119.39C237.604 122.153 237.743 125.838 236.743 129.028C236.135 130.969 234.114 133.324 232.623 134.871Z" fill="#2F2E41"/>
</svg>
