<svg width="340" height="394" viewBox="0 0 340 394" fill="none" xmlns="http://www.w3.org/2000/svg">
<g filter="url(#filter0_d)">
<rect x="34" y="53" width="272" height="333" rx="34" fill="white"/>
</g>
<path d="M100.92 35L100.884 19.88L93.468 32.336H90.84L83.46 20.204V35H77.988V9.8H82.812L92.244 25.46L101.532 9.8H106.32L106.392 35H100.92ZM121.191 35.288C119.151 35.288 117.315 34.868 115.683 34.028C114.075 33.164 112.815 31.976 111.903 30.464C110.991 28.952 110.535 27.236 110.535 25.316C110.535 23.396 110.991 21.68 111.903 20.168C112.815 18.656 114.075 17.48 115.683 16.64C117.315 15.776 119.151 15.344 121.191 15.344C123.231 15.344 125.055 15.776 126.663 16.64C128.271 17.48 129.531 18.656 130.443 20.168C131.355 21.68 131.811 23.396 131.811 25.316C131.811 27.236 131.355 28.952 130.443 30.464C129.531 31.976 128.271 33.164 126.663 34.028C125.055 34.868 123.231 35.288 121.191 35.288ZM121.191 30.68C122.631 30.68 123.807 30.2 124.719 29.24C125.655 28.256 126.123 26.948 126.123 25.316C126.123 23.684 125.655 22.388 124.719 21.428C123.807 20.444 122.631 19.952 121.191 19.952C119.751 19.952 118.563 20.444 117.627 21.428C116.691 22.388 116.223 23.684 116.223 25.316C116.223 26.948 116.691 28.256 117.627 29.24C118.563 30.2 119.751 30.68 121.191 30.68ZM147.013 15.344C148.813 15.344 150.445 15.764 151.909 16.604C153.397 17.42 154.561 18.584 155.401 20.096C156.241 21.584 156.661 23.324 156.661 25.316C156.661 27.308 156.241 29.06 155.401 30.572C154.561 32.06 153.397 33.224 151.909 34.064C150.445 34.88 148.813 35.288 147.013 35.288C144.349 35.288 142.321 34.448 140.929 32.768V35H135.565V8.288H141.181V17.684C142.597 16.124 144.541 15.344 147.013 15.344ZM146.041 30.68C147.481 30.68 148.657 30.2 149.569 29.24C150.505 28.256 150.973 26.948 150.973 25.316C150.973 23.684 150.505 22.388 149.569 21.428C148.657 20.444 147.481 19.952 146.041 19.952C144.601 19.952 143.413 20.444 142.477 21.428C141.565 22.388 141.109 23.684 141.109 25.316C141.109 26.948 141.565 28.256 142.477 29.24C143.413 30.2 144.601 30.68 146.041 30.68ZM160.42 15.632H166.036V35H160.42V15.632ZM163.228 12.932C162.196 12.932 161.356 12.632 160.708 12.032C160.06 11.432 159.736 10.688 159.736 9.8C159.736 8.912 160.06 8.168 160.708 7.568C161.356 6.968 162.196 6.668 163.228 6.668C164.26 6.668 165.1 6.956 165.748 7.532C166.396 8.108 166.72 8.828 166.72 9.692C166.72 10.628 166.396 11.408 165.748 12.032C165.1 12.632 164.26 12.932 163.228 12.932ZM171.248 8.288H176.864V35H171.248V8.288ZM201.048 25.388C201.048 25.46 201.012 25.964 200.94 26.9H186.288C186.552 28.1 187.176 29.048 188.16 29.744C189.144 30.44 190.368 30.788 191.832 30.788C192.84 30.788 193.728 30.644 194.496 30.356C195.288 30.044 196.02 29.564 196.692 28.916L199.68 32.156C197.856 34.244 195.192 35.288 191.688 35.288C189.504 35.288 187.572 34.868 185.892 34.028C184.212 33.164 182.916 31.976 182.004 30.464C181.092 28.952 180.636 27.236 180.636 25.316C180.636 23.42 181.08 21.716 181.968 20.204C182.88 18.668 184.116 17.48 185.676 16.64C187.26 15.776 189.024 15.344 190.968 15.344C192.864 15.344 194.58 15.752 196.116 16.568C197.652 17.384 198.852 18.56 199.716 20.096C200.604 21.608 201.048 23.372 201.048 25.388ZM191.004 19.592C189.732 19.592 188.664 19.952 187.8 20.672C186.936 21.392 186.408 22.376 186.216 23.624H195.756C195.564 22.4 195.036 21.428 194.172 20.708C193.308 19.964 192.252 19.592 191.004 19.592ZM226.431 15.344C228.231 15.344 229.863 15.764 231.327 16.604C232.815 17.42 233.979 18.584 234.819 20.096C235.659 21.584 236.079 23.324 236.079 25.316C236.079 27.308 235.659 29.06 234.819 30.572C233.979 32.06 232.815 33.224 231.327 34.064C229.863 34.88 228.231 35.288 226.431 35.288C223.959 35.288 222.015 34.508 220.599 32.948V41.984H214.983V15.632H220.347V17.864C221.739 16.184 223.767 15.344 226.431 15.344ZM225.459 30.68C226.899 30.68 228.075 30.2 228.987 29.24C229.923 28.256 230.391 26.948 230.391 25.316C230.391 23.684 229.923 22.388 228.987 21.428C228.075 20.444 226.899 19.952 225.459 19.952C224.019 19.952 222.831 20.444 221.895 21.428C220.983 22.388 220.527 23.684 220.527 25.316C220.527 26.948 220.983 28.256 221.895 29.24C222.831 30.2 224.019 30.68 225.459 30.68ZM247.334 15.344C250.334 15.344 252.638 16.064 254.246 17.504C255.854 18.92 256.658 21.068 256.658 23.948V35H251.402V32.588C250.346 34.388 248.378 35.288 245.498 35.288C244.01 35.288 242.714 35.036 241.61 34.532C240.53 34.028 239.702 33.332 239.126 32.444C238.55 31.556 238.262 30.548 238.262 29.42C238.262 27.62 238.934 26.204 240.278 25.172C241.646 24.14 243.746 23.624 246.578 23.624H251.042C251.042 22.4 250.67 21.464 249.926 20.816C249.182 20.144 248.066 19.808 246.578 19.808C245.546 19.808 244.526 19.976 243.518 20.312C242.534 20.624 241.694 21.056 240.998 21.608L238.982 17.684C240.038 16.94 241.298 16.364 242.762 15.956C244.25 15.548 245.774 15.344 247.334 15.344ZM246.902 31.508C247.862 31.508 248.714 31.292 249.458 30.86C250.202 30.404 250.73 29.744 251.042 28.88V26.9H247.19C244.886 26.9 243.734 27.656 243.734 29.168C243.734 29.888 244.01 30.464 244.562 30.896C245.138 31.304 245.918 31.508 246.902 31.508ZM280.613 15.632L271.865 36.188C270.977 38.42 269.873 39.992 268.553 40.904C267.257 41.816 265.685 42.272 263.837 42.272C262.829 42.272 261.833 42.116 260.849 41.804C259.865 41.492 259.061 41.06 258.437 40.508L260.489 36.512C260.921 36.896 261.413 37.196 261.965 37.412C262.541 37.628 263.105 37.736 263.657 37.736C264.425 37.736 265.049 37.544 265.529 37.16C266.009 36.8 266.441 36.188 266.825 35.324L266.897 35.144L258.509 15.632H264.305L269.741 28.772L275.213 15.632H280.613Z" fill="url(#paint0_linear)"/>
<g clip-path="url(#clip0)">
<path d="M167.451 193.461L166.059 193.443L166.537 155.344C166.611 149.496 164.356 143.858 160.27 139.671C156.184 135.484 150.6 133.09 144.748 133.016L63.971 132.002C61.0731 131.965 58.1965 132.5 55.5053 133.574C52.8141 134.649 50.3611 136.242 48.2863 138.264C46.2115 140.286 44.5555 142.696 43.4129 145.358C42.2704 148.019 41.6636 150.879 41.6272 153.775L39.0017 362.789C38.9653 365.685 39.5001 368.56 40.5754 371.249C41.6507 373.938 43.2456 376.389 45.269 378.463C47.2924 380.536 49.7046 382.191 52.3679 383.333C55.0312 384.474 57.8936 385.081 60.7914 385.117L141.568 386.132C144.466 386.168 147.343 385.634 150.034 384.559C152.725 383.485 155.178 381.891 157.253 379.869C159.328 377.848 160.984 375.437 162.126 372.776C163.269 370.114 163.876 367.254 163.912 364.358L165.718 220.563L167.11 220.58L167.451 193.461Z" fill="#3F3D56"/>
<path d="M145.474 139.021L134.93 138.888C135.4 140.082 135.569 141.374 135.422 142.648C135.275 143.923 134.817 145.142 134.087 146.198C133.358 147.253 132.38 148.114 131.239 148.703C130.098 149.292 128.83 149.592 127.546 149.576L81.2706 148.994C79.9867 148.978 78.7265 148.647 77.601 148.029C76.4755 147.412 75.5193 146.527 74.8165 145.453C74.1137 144.379 73.686 143.149 73.5711 141.871C73.4561 140.593 73.6574 139.307 74.1572 138.125L64.309 138.001C59.9385 137.946 55.7251 139.629 52.5959 142.678C49.4667 145.727 47.6778 149.894 47.623 154.261L45.0013 362.969C44.9742 365.132 45.3735 367.278 46.1766 369.286C46.9796 371.295 48.1707 373.125 49.6817 374.674C51.1927 376.222 52.9942 377.458 54.9831 378.31C56.9721 379.163 59.1096 379.616 61.2737 379.643L142.439 380.663C146.81 380.718 151.023 379.035 154.152 375.986C157.282 372.937 159.07 368.77 159.125 364.403L161.747 155.695C161.774 153.533 161.375 151.386 160.572 149.378C159.769 147.369 158.577 145.539 157.066 143.99C155.555 142.442 153.754 141.206 151.765 140.354C149.776 139.501 147.639 139.048 145.475 139.021H145.474ZM142.487 235.82C142.469 236.95 142.005 238.027 141.195 238.816C140.385 239.605 139.296 240.042 138.165 240.031L117.534 239.772C116.403 239.755 115.325 239.291 114.535 238.481C113.745 237.672 113.308 236.583 113.319 235.453L113.332 234.387C113.35 233.257 113.814 232.179 114.624 231.39C115.434 230.601 116.523 230.164 117.655 230.175L138.285 230.434C139.416 230.451 140.494 230.916 141.284 231.725C142.074 232.534 142.511 233.623 142.5 234.753L142.487 235.82ZM145.036 217.01C145.018 218.14 144.554 219.217 143.744 220.006C142.934 220.796 141.845 221.232 140.714 221.221L66.7273 220.292C65.5963 220.275 64.5182 219.811 63.7285 219.001C62.9387 218.192 62.5016 217.103 62.5125 215.973L62.5259 214.907C62.5434 213.777 63.0077 212.699 63.8176 211.91C64.6274 211.121 65.7168 210.684 66.8479 210.695L140.834 211.624C141.965 211.642 143.043 212.106 143.833 212.915C144.623 213.724 145.06 214.813 145.049 215.943L145.036 217.01ZM145.272 198.171C145.255 199.301 144.79 200.379 143.98 201.168C143.171 201.957 142.081 202.394 140.95 202.383L66.964 201.453C65.833 201.436 64.7549 200.972 63.9651 200.163C63.1754 199.353 62.7382 198.265 62.7491 197.135L62.7625 196.068C62.78 194.938 63.2444 193.861 64.0542 193.072C64.864 192.282 65.9534 191.846 67.0845 191.856L141.071 192.786C142.202 192.803 143.28 193.267 144.07 194.077C144.859 194.886 145.296 195.975 145.286 197.105L145.272 198.171ZM145.509 179.333C145.491 180.463 145.027 181.54 144.217 182.329C143.407 183.118 142.318 183.555 141.187 183.544L67.2006 182.615C66.0696 182.597 64.9915 182.133 64.2018 181.324C63.412 180.515 62.9749 179.426 62.9857 178.296L62.9991 177.23C63.0166 176.099 63.481 175.022 64.2908 174.233C65.1006 173.444 66.1901 173.007 67.3212 173.018L141.307 173.947C142.438 173.965 143.516 174.429 144.306 175.238C145.096 176.047 145.533 177.136 145.522 178.266L145.509 179.333Z" fill="white"/>
<path d="M68.0036 201.212C69.3787 201.229 70.5075 200.129 70.5248 198.755C70.542 197.381 69.4412 196.253 68.0661 196.235C66.6909 196.218 65.5622 197.318 65.5449 198.692C65.5277 200.066 66.6284 201.194 68.0036 201.212Z" fill="white"/>
<path d="M76.1847 201.314C77.5599 201.332 78.6887 200.232 78.7059 198.858C78.7232 197.483 77.6224 196.356 76.2473 196.338C74.8721 196.321 73.7433 197.421 73.7261 198.795C73.7088 200.169 74.8096 201.297 76.1847 201.314Z" fill="white"/>
<path d="M84.3659 201.417C85.741 201.435 86.8698 200.335 86.8871 198.96C86.9043 197.586 85.8036 196.458 84.4284 196.441C83.0533 196.424 81.9245 197.524 81.9072 198.898C81.89 200.272 82.9907 201.4 84.3659 201.417Z" fill="white"/>
<path d="M92.5472 201.52C93.9223 201.537 95.0511 200.437 95.0684 199.063C95.0856 197.689 93.9848 196.561 92.6097 196.544C91.2345 196.526 90.1058 197.626 90.0885 199.001C90.0712 200.375 91.172 201.503 92.5472 201.52Z" fill="white"/>
<path d="M118.988 220.694C120.363 220.711 121.492 219.611 121.509 218.237C121.527 216.863 120.426 215.735 119.051 215.717C117.676 215.7 116.547 216.8 116.53 218.174C116.512 219.548 117.613 220.676 118.988 220.694Z" fill="white"/>
<path d="M127.169 220.797C128.545 220.814 129.673 219.714 129.691 218.34C129.708 216.966 128.607 215.838 127.232 215.82C125.857 215.803 124.728 216.903 124.711 218.277C124.694 219.651 125.794 220.779 127.169 220.797Z" fill="white"/>
<path d="M135.351 220.899C136.726 220.917 137.855 219.817 137.872 218.442C137.889 217.068 136.788 215.94 135.413 215.923C134.038 215.906 132.909 217.006 132.892 218.38C132.875 219.754 133.975 220.882 135.351 220.899Z" fill="white"/>
<path d="M144.62 250.77L60.2403 249.71C58.2579 249.686 56.3468 250.449 54.9275 251.832C53.5082 253.215 52.6968 255.105 52.6719 257.086L52.1559 298.167C52.131 300.148 52.8946 302.058 54.2788 303.476C55.6629 304.894 57.5542 305.705 59.5366 305.73L143.916 306.79C145.899 306.815 147.81 306.052 149.229 304.669C150.648 303.286 151.46 301.396 151.485 299.415L152.001 258.333C152.025 256.352 151.262 254.443 149.878 253.024C148.494 251.606 146.602 250.795 144.62 250.77ZM58.0886 254.779C58.2556 254.751 62.2152 254.129 65.4622 256.137C68.709 258.145 69.9183 261.965 69.968 262.126L70.0951 262.538L69.6696 262.608C69.0628 262.695 68.4498 262.732 67.8369 262.719C65.8917 262.732 63.9786 262.224 62.2959 261.249C59.049 259.242 57.84 255.422 57.7902 255.261L57.6631 254.849L58.0886 254.779ZM75.9261 293.151L60.8763 292.962C59.7786 292.948 58.7314 292.499 57.965 291.714C57.1986 290.928 56.7758 289.871 56.7895 288.774C56.8033 287.677 57.2526 286.631 58.0385 285.865C58.8244 285.099 59.8825 284.677 60.9802 284.691L76.03 284.88C77.1276 284.893 78.1748 285.342 78.9413 286.128C79.7077 286.913 80.1305 287.97 80.1167 289.067C80.1029 290.164 79.6537 291.211 78.8678 291.976C78.0819 292.742 77.0237 293.165 75.9261 293.151ZM144.412 293.259C144.394 294.455 143.902 295.594 143.046 296.429C142.189 297.264 141.037 297.726 139.84 297.714L128.553 297.572C127.357 297.554 126.216 297.063 125.381 296.207C124.546 295.351 124.083 294.199 124.095 293.004L124.18 286.236C124.198 285.041 124.69 283.901 125.546 283.067C126.403 282.232 127.555 281.77 128.751 281.782L140.039 281.923C141.235 281.942 142.376 282.433 143.211 283.289C144.046 284.145 144.509 285.296 144.497 286.492L144.412 293.259Z" fill="#005792"/>
<path d="M132.267 291.712L127.728 291.655C127.404 291.651 127.092 291.775 126.86 292.002C126.628 292.228 126.495 292.537 126.491 292.86C126.487 293.184 126.612 293.496 126.838 293.728C127.064 293.96 127.373 294.093 127.698 294.097L132.236 294.154C132.56 294.158 132.872 294.033 133.104 293.807C133.336 293.581 133.469 293.272 133.473 292.948C133.477 292.624 133.352 292.312 133.126 292.08C132.9 291.848 132.591 291.716 132.267 291.712Z" fill="#3F3D56"/>
<path d="M140.645 291.817L136.107 291.76C135.783 291.756 135.47 291.881 135.238 292.107C135.006 292.333 134.874 292.642 134.87 292.966C134.865 293.289 134.99 293.602 135.217 293.834C135.443 294.065 135.752 294.198 136.076 294.202L140.614 294.259C140.938 294.263 141.251 294.138 141.483 293.912C141.715 293.686 141.848 293.377 141.852 293.053C141.856 292.73 141.731 292.417 141.505 292.186C141.278 291.954 140.969 291.821 140.645 291.817Z" fill="#3F3D56"/>
<path d="M132.309 288.265L127.771 288.208C127.447 288.204 127.134 288.329 126.902 288.555C126.67 288.781 126.538 289.09 126.534 289.414C126.53 289.738 126.654 290.05 126.881 290.282C127.107 290.514 127.416 290.646 127.74 290.65L132.279 290.707C132.603 290.711 132.915 290.586 133.147 290.36C133.379 290.134 133.512 289.825 133.516 289.502C133.52 289.178 133.395 288.865 133.169 288.634C132.942 288.402 132.633 288.269 132.309 288.265Z" fill="#3F3D56"/>
<path d="M140.688 288.37L136.149 288.313C135.825 288.309 135.513 288.434 135.281 288.66C135.049 288.886 134.916 289.195 134.912 289.519C134.908 289.843 135.033 290.155 135.259 290.387C135.485 290.619 135.795 290.751 136.119 290.755L140.657 290.812C140.981 290.816 141.293 290.692 141.525 290.466C141.758 290.239 141.89 289.931 141.894 289.607C141.898 289.283 141.773 288.971 141.547 288.739C141.321 288.507 141.012 288.374 140.688 288.37Z" fill="#3F3D56"/>
<path d="M132.352 284.888L127.813 284.831C127.489 284.827 127.177 284.952 126.945 285.178C126.713 285.404 126.58 285.713 126.576 286.037C126.572 286.361 126.697 286.673 126.923 286.905C127.149 287.137 127.459 287.269 127.783 287.273L132.321 287.33C132.645 287.334 132.957 287.21 133.189 286.983C133.421 286.757 133.554 286.448 133.558 286.125C133.562 285.801 133.437 285.489 133.211 285.257C132.985 285.025 132.676 284.892 132.352 284.888Z" fill="#3F3D56"/>
<path d="M140.73 284.994L136.192 284.937C135.868 284.933 135.555 285.057 135.323 285.283C135.091 285.509 134.959 285.818 134.955 286.142C134.95 286.466 135.075 286.778 135.302 287.01C135.528 287.242 135.837 287.374 136.161 287.379L140.699 287.436C141.023 287.44 141.336 287.315 141.568 287.089C141.8 286.863 141.933 286.554 141.937 286.23C141.941 285.906 141.816 285.594 141.59 285.362C141.363 285.13 141.054 284.998 140.73 284.994Z" fill="#3F3D56"/>
<path d="M202.868 266.98L191.862 266.841L191.724 277.84L202.73 277.978L202.868 266.98Z" fill="#E6E6E6"/>
<path d="M178.807 273.356L196.888 273.583L196.661 291.651L178.58 291.424L178.807 273.356ZM196.092 274.359L179.583 274.151L179.376 290.648L195.885 290.856L196.092 274.359Z" fill="#3F3D56"/>
<path d="M255.768 377.02L250.949 376.959L248.89 358.356L256.003 358.446L255.768 377.02Z" fill="#FFB8B8"/>
<path d="M247.525 375.54L256.818 375.657L256.745 381.504L241.6 381.314C241.619 379.763 242.254 378.283 243.365 377.201C244.477 376.118 245.973 375.52 247.525 375.54Z" fill="#2F2E41"/>
<path d="M279.746 377.321L274.927 377.26L272.868 358.658L279.98 358.747L279.746 377.321Z" fill="#FFB8B8"/>
<path d="M271.502 375.841L280.796 375.958L280.722 381.805L265.577 381.615C265.596 380.064 266.232 378.585 267.343 377.502C268.454 376.419 269.95 375.822 271.502 375.841Z" fill="#2F2E41"/>
<path d="M232.429 310.291C232.088 309.776 231.865 309.193 231.775 308.583C231.684 307.972 231.729 307.35 231.905 306.759C232.082 306.167 232.386 305.622 232.796 305.161C233.206 304.7 233.713 304.334 234.28 304.09L251.228 259.178L259.234 263.675L239.988 306.556C240.335 307.535 240.312 308.607 239.921 309.57C239.53 310.532 238.8 311.318 237.868 311.779C236.936 312.239 235.868 312.342 234.865 312.068C233.863 311.793 232.996 311.161 232.429 310.291Z" fill="#FFB8B8"/>
<path d="M278.012 319.343C277.481 319.029 277.024 318.603 276.675 318.094C276.326 317.585 276.093 317.006 275.992 316.397C275.892 315.788 275.926 315.165 276.092 314.571C276.258 313.977 276.553 313.427 276.955 312.959L272.48 265.168L281.648 265.702L283.168 312.674C283.909 313.402 284.359 314.376 284.43 315.412C284.501 316.448 284.189 317.474 283.554 318.296C282.919 319.118 282.004 319.679 280.982 319.872C279.961 320.064 278.904 319.876 278.012 319.342V319.343Z" fill="#FFB8B8"/>
<path d="M264.234 250.983C269.566 251.05 273.943 246.785 274.01 241.457C274.077 236.129 269.809 231.755 264.477 231.688C259.145 231.621 254.768 235.886 254.701 241.214C254.634 246.542 258.903 250.916 264.234 250.983Z" fill="#FFB8B8"/>
<path d="M278.087 308.487L248.981 308.122L249.019 307.896C249.076 307.558 254.633 274.009 250.984 262.964C250.617 261.879 250.666 260.696 251.119 259.644C251.573 258.592 252.4 257.745 253.441 257.266H253.442C258.887 254.787 269.317 251.781 277.992 259.503C279.269 260.658 280.258 262.094 280.884 263.697C281.509 265.3 281.753 267.026 281.595 268.739L278.087 308.487Z" fill="#00204A"/>
<path d="M254.938 278.981L241.868 276.16L248.193 261.692C248.578 260.288 249.505 259.094 250.77 258.372C252.035 257.65 253.535 257.458 254.942 257.84C256.348 258.222 257.545 259.145 258.271 260.407C258.996 261.67 259.191 263.169 258.813 264.575L254.938 278.981Z" fill="#00204A"/>
<path d="M271.659 284.124L271.098 266.069C270.543 262.67 272.527 259.487 275.522 259.001C278.518 258.516 281.408 260.905 281.965 264.33L284.714 281.228L271.659 284.124Z" fill="#00204A"/>
<path d="M277.146 306.315C281.605 324.197 281.831 346.864 280.257 371.566L273.978 370.702L263.171 323.424L256.28 371.265L249.21 370.784C247.422 344.821 245.643 322.53 249.213 307.928L277.146 306.315Z" fill="#2F2E41"/>
<path d="M270.623 248.871C268.798 250.766 265.466 249.695 265.264 247.073C265.249 246.869 265.252 246.664 265.276 246.462C265.412 245.303 266.096 244.258 265.95 243.031C265.918 242.726 265.808 242.434 265.631 242.183C264.22 240.244 260.816 242.982 259.483 241.226C258.666 240.15 259.663 238.483 259.041 237.284C258.219 235.701 255.718 236.445 254.166 235.564C252.44 234.584 252.578 231.92 253.742 230.314C255.163 228.354 257.623 227.33 260.041 227.208C262.46 227.086 264.851 227.769 267.096 228.676C269.647 229.706 272.172 231.118 273.721 233.39C275.604 236.153 275.743 239.838 274.743 243.028C274.135 244.969 272.114 247.324 270.623 248.871Z" fill="#2F2E41"/>
</g>
<defs>
<filter id="filter0_d" x="30" y="53" width="280" height="341" filterUnits="userSpaceOnUse" color-interpolation-filters="sRGB">
<feFlood flood-opacity="0" result="BackgroundImageFix"/>
<feColorMatrix in="SourceAlpha" type="matrix" values="0 0 0 0 0 0 0 0 0 0 0 0 0 0 0 0 0 0 127 0" result="hardAlpha"/>
<feOffset dy="4"/>
<feGaussianBlur stdDeviation="2"/>
<feColorMatrix type="matrix" values="0 0 0 0 0 0 0 0 0 0 0 0 0 0 0 0 0 0 0.25 0"/>
<feBlend mode="normal" in2="BackgroundImageFix" result="effect1_dropShadow"/>
<feBlend mode="normal" in="SourceGraphic" in2="effect1_dropShadow" result="shape"/>
</filter>
<linearGradient id="paint0_linear" x1="187.904" y1="-6.63013e-07" x2="191.385" y2="43.9334" gradientUnits="userSpaceOnUse">
<stop stop-color="#005792"/>
<stop offset="1" stop-color="#4B8BDE" stop-opacity="0.57"/>
</linearGradient>
<clipPath id="clip0">
<rect width="340" height="269" fill="white" transform="translate(0 117)"/>
</clipPath>
</defs>
</svg>
