<svg width="345" height="394" viewBox="0 0 345 394" fill="none" xmlns="http://www.w3.org/2000/svg">
<g filter="url(#filter0_d)">
<rect x="23" y="53" width="272" height="333" rx="34" fill="white"/>
</g>
<path d="M101.058 35L96.1977 27.98H95.9097H90.8337V35H85.0017V9.8H95.9097C98.1417 9.8 100.074 10.172 101.706 10.916C103.362 11.66 104.634 12.716 105.522 14.084C106.41 15.452 106.854 17.072 106.854 18.944C106.854 20.816 106.398 22.436 105.486 23.804C104.598 25.148 103.326 26.18 101.67 26.9L107.322 35H101.058ZM100.95 18.944C100.95 17.528 100.494 16.448 99.5817 15.704C98.6697 14.936 97.3377 14.552 95.5857 14.552H90.8337V23.336H95.5857C97.3377 23.336 98.6697 22.952 99.5817 22.184C100.494 21.416 100.95 20.336 100.95 18.944ZM130.05 25.388C130.05 25.46 130.014 25.964 129.942 26.9H115.29C115.554 28.1 116.178 29.048 117.162 29.744C118.146 30.44 119.37 30.788 120.834 30.788C121.842 30.788 122.73 30.644 123.498 30.356C124.29 30.044 125.022 29.564 125.694 28.916L128.682 32.156C126.858 34.244 124.194 35.288 120.69 35.288C118.506 35.288 116.574 34.868 114.894 34.028C113.214 33.164 111.918 31.976 111.006 30.464C110.094 28.952 109.638 27.236 109.638 25.316C109.638 23.42 110.082 21.716 110.97 20.204C111.882 18.668 113.118 17.48 114.678 16.64C116.262 15.776 118.026 15.344 119.97 15.344C121.866 15.344 123.582 15.752 125.118 16.568C126.654 17.384 127.854 18.56 128.718 20.096C129.606 21.608 130.05 23.372 130.05 25.388ZM120.006 19.592C118.734 19.592 117.666 19.952 116.802 20.672C115.938 21.392 115.41 22.376 115.218 23.624H124.758C124.566 22.4 124.038 21.428 123.174 20.708C122.31 19.964 121.254 19.592 120.006 19.592ZM139.945 16.064H144.913V20.384H140.089V35H134.473V20.384H131.485V16.064H134.473V15.2C134.473 12.992 135.121 11.24 136.417 9.944C137.737 8.648 139.585 8 141.961 8C142.801 8 143.593 8.096 144.337 8.288C145.105 8.456 145.741 8.708 146.245 9.044L144.769 13.112C144.121 12.656 143.365 12.428 142.501 12.428C140.797 12.428 139.945 13.364 139.945 15.236V16.064ZM167.223 15.632V35H161.895V32.696C161.151 33.536 160.263 34.184 159.231 34.64C158.199 35.072 157.083 35.288 155.883 35.288C153.339 35.288 151.323 34.556 149.835 33.092C148.347 31.628 147.603 29.456 147.603 26.576V15.632H153.219V25.748C153.219 28.868 154.527 30.428 157.143 30.428C158.487 30.428 159.567 29.996 160.383 29.132C161.199 28.244 161.607 26.936 161.607 25.208V15.632H167.223ZM184.198 15.344C186.598 15.344 188.53 16.064 189.994 17.504C191.482 18.944 192.226 21.08 192.226 23.912V35H186.61V24.776C186.61 23.24 186.274 22.1 185.602 21.356C184.93 20.588 183.958 20.204 182.686 20.204C181.27 20.204 180.142 20.648 179.302 21.536C178.462 22.4 178.042 23.696 178.042 25.424V35H172.426V15.632H177.79V17.9C178.534 17.084 179.458 16.46 180.562 16.028C181.666 15.572 182.878 15.344 184.198 15.344ZM217.256 8.288V35H211.892V32.768C210.5 34.448 208.484 35.288 205.844 35.288C204.02 35.288 202.364 34.88 200.876 34.064C199.412 33.248 198.26 32.084 197.42 30.572C196.58 29.06 196.16 27.308 196.16 25.316C196.16 23.324 196.58 21.572 197.42 20.06C198.26 18.548 199.412 17.384 200.876 16.568C202.364 15.752 204.02 15.344 205.844 15.344C208.316 15.344 210.248 16.124 211.64 17.684V8.288H217.256ZM206.816 30.68C208.232 30.68 209.408 30.2 210.344 29.24C211.28 28.256 211.748 26.948 211.748 25.316C211.748 23.684 211.28 22.388 210.344 21.428C209.408 20.444 208.232 19.952 206.816 19.952C205.376 19.952 204.188 20.444 203.252 21.428C202.316 22.388 201.848 23.684 201.848 25.316C201.848 26.948 202.316 28.256 203.252 29.24C204.188 30.2 205.376 30.68 206.816 30.68ZM228.969 35.288C227.361 35.288 225.789 35.096 224.253 34.712C222.717 34.304 221.493 33.8 220.581 33.2L222.453 29.168C223.317 29.72 224.361 30.176 225.585 30.536C226.809 30.872 228.009 31.04 229.185 31.04C231.561 31.04 232.749 30.452 232.749 29.276C232.749 28.724 232.425 28.328 231.777 28.088C231.129 27.848 230.133 27.644 228.789 27.476C227.205 27.236 225.897 26.96 224.865 26.648C223.833 26.336 222.933 25.784 222.165 24.992C221.421 24.2 221.049 23.072 221.049 21.608C221.049 20.384 221.397 19.304 222.093 18.368C222.813 17.408 223.845 16.664 225.189 16.136C226.557 15.608 228.165 15.344 230.013 15.344C231.381 15.344 232.737 15.5 234.081 15.812C235.449 16.1 236.577 16.508 237.465 17.036L235.593 21.032C233.889 20.072 232.029 19.592 230.013 19.592C228.813 19.592 227.913 19.76 227.313 20.096C226.713 20.432 226.413 20.864 226.413 21.392C226.413 21.992 226.737 22.412 227.385 22.652C228.033 22.892 229.065 23.12 230.481 23.336C232.065 23.6 233.361 23.888 234.369 24.2C235.377 24.488 236.253 25.028 236.997 25.82C237.741 26.612 238.113 27.716 238.113 29.132C238.113 30.332 237.753 31.4 237.033 32.336C236.313 33.272 235.257 34.004 233.865 34.532C232.497 35.036 230.865 35.288 228.969 35.288Z" fill="url(#paint0_linear)"/>
<path d="M278.108 337.287C278.108 339.296 267.557 345.151 255.025 345.151C242.492 345.151 232.727 339.296 232.727 337.287C232.727 335.279 242.885 335.925 255.43 335.925C267.974 335.925 278.108 335.275 278.108 337.287Z" fill="#504F60"/>
<path opacity="0.2" d="M278.108 337.287C278.108 339.295 267.557 345.151 255.025 345.151C242.492 345.151 232.727 339.295 232.727 337.287" fill="black"/>
<path d="M151.898 300.434C153.932 300.723 156.042 300.907 157.99 300.206C158.297 300.1 158.635 299.866 158.604 299.525C158.582 299.401 158.535 299.285 158.466 299.185C157.732 297.963 157.115 296.659 156.625 295.294C156.606 295.223 156.566 295.161 156.512 295.117C156.448 295.091 156.379 295.091 156.315 295.117C155.416 295.379 154.64 296.022 153.747 296.298C153.292 296.437 152.817 296.476 152.349 296.414C151.944 296.363 151.391 295.992 151.023 296.039C151.232 297.527 151.741 298.916 151.898 300.434Z" fill="#6C63FF"/>
<path d="M190.366 296.666C191.707 295.645 193.096 294.572 193.888 292.996C193.944 292.902 193.977 292.793 193.983 292.68C193.969 292.568 193.93 292.463 193.869 292.373C193.115 291.043 192.145 289.881 191.007 288.945C190.413 289.41 189.877 289.96 189.412 290.579C189.074 290.974 188.142 291.6 188.132 292.203C188.132 292.543 188.488 292.938 188.654 293.224C188.878 293.592 189.09 293.966 189.292 294.348C189.409 294.535 190.473 296.591 190.366 296.666Z" fill="#6C63FF"/>
<path d="M159.871 304.992C159.895 305.343 159.808 305.692 159.626 305.979C159.482 306.139 159.305 306.256 159.11 306.32C156.266 307.45 152.974 306.041 150.137 307.154C149.554 307.382 149.001 307.712 148.416 307.93C147.717 308.163 146.996 308.305 146.268 308.352C145.265 308.458 144.255 308.526 143.249 308.556C142.485 308.616 141.716 308.542 140.973 308.335C140.601 308.229 140.253 308.038 139.953 307.774C139.652 307.509 139.405 307.177 139.227 306.8C139.073 306.461 139.042 306.07 139.141 305.707C139.186 305.583 139.249 305.468 139.328 305.367C139.521 305.127 139.747 304.924 139.997 304.764L141.043 304.015C141.534 303.63 142.067 303.317 142.629 303.082C143.044 302.933 143.482 302.868 143.903 302.742C145.372 302.266 146.495 300.972 147.538 299.729L148.962 298.044C149.095 297.859 149.263 297.709 149.456 297.605C149.653 297.532 149.863 297.51 150.069 297.541C151.452 297.65 152.787 298.147 153.95 298.984C154.247 299.231 154.568 299.441 154.907 299.61C155.742 299.971 156.812 299.699 157.582 299.243C157.947 299.025 157.868 298.902 158.021 298.514C158.174 298.126 158.549 297.878 158.874 298.232C158.972 298.354 159.042 298.501 159.076 298.661C159.383 299.784 159.267 300.992 159.267 302.17C159.258 302.354 159.278 302.539 159.328 302.715C159.406 302.892 159.5 303.061 159.607 303.219C159.629 303.26 159.649 303.304 159.665 303.348C159.853 303.869 159.924 304.434 159.871 304.992V304.992Z" fill="#514E7F"/>
<path d="M159.871 304.992C159.895 305.343 159.808 305.692 159.626 305.979C159.482 306.139 159.305 306.256 159.11 306.32C156.266 307.45 152.974 306.041 150.137 307.154C149.554 307.382 149.001 307.712 148.416 307.93C147.717 308.163 146.996 308.305 146.268 308.352C145.265 308.458 144.255 308.526 143.249 308.556C142.485 308.616 141.716 308.542 140.973 308.335C140.601 308.229 140.253 308.038 139.953 307.774C139.652 307.509 139.405 307.177 139.227 306.8C139.073 306.461 139.042 306.07 139.141 305.707C139.186 305.583 139.249 305.468 139.328 305.367C139.494 305.751 139.614 306.262 139.718 306.446C139.859 306.718 140.051 306.954 140.28 307.138C140.51 307.322 140.772 307.449 141.049 307.511C141.465 307.54 141.881 307.481 142.277 307.338C144.854 306.63 147.593 306.619 150.069 305.547C150.919 305.176 151.729 304.682 152.622 304.458C153.514 304.233 154.462 304.294 155.383 304.209C156.837 304.08 158.245 303.593 159.678 303.338C159.863 303.864 159.929 304.432 159.871 304.992V304.992Z" fill="#464353"/>
<path d="M196.879 296.458C196.744 297.656 196.06 298.688 195.308 299.563C194.557 300.438 193.707 301.224 193.109 302.231C192.372 303.481 192.041 305.03 191.084 306.085C190.716 306.469 190.303 306.795 189.857 307.055C189.356 307.383 188.827 307.653 188.277 307.862C186.847 308.369 185.307 308.253 183.813 308.131C183.328 308.126 182.848 308.023 182.395 307.828C182.19 307.712 181.993 307.577 181.806 307.426C181.432 307.17 181.117 306.82 180.886 306.405C180.773 306.179 180.741 305.914 180.797 305.663C180.882 305.386 181.029 305.138 181.224 304.941C181.56 304.553 181.921 304.193 182.303 303.862C182.829 303.486 183.302 303.027 183.709 302.5C183.958 302.084 184.142 301.624 184.252 301.139C184.469 300.289 184.602 299.416 184.647 298.535C184.646 297.949 184.7 297.365 184.81 296.792C185.037 295.893 185.638 295.09 185.571 294.16C185.543 294.027 185.554 293.888 185.601 293.762C185.673 293.664 185.772 293.595 185.884 293.568C186.353 293.361 186.847 293.233 187.35 293.19C187.603 293.171 187.856 293.214 188.091 293.316C188.327 293.419 188.539 293.578 188.712 293.782C188.921 294.062 189.059 294.463 189.366 294.572C189.518 294.618 189.677 294.625 189.832 294.593C190.587 294.508 191.384 294.402 191.98 293.861C192.255 293.587 192.476 293.253 192.629 292.88C192.782 292.507 192.864 292.102 192.869 291.692C192.869 291.383 192.743 291.059 193.176 291.012C193.501 290.964 193.759 291.352 193.925 291.59C194.523 292.479 195.136 293.408 195.36 294.491C195.448 294.453 195.54 294.433 195.633 294.433C195.825 294.431 196.014 294.48 196.184 294.577C196.355 294.673 196.501 294.814 196.612 294.988C196.856 295.427 196.951 295.948 196.879 296.458Z" fill="#514E7F"/>
<path d="M196.879 296.458C196.744 297.656 196.06 298.688 195.308 299.563C194.557 300.438 193.707 301.224 193.109 302.231C192.372 303.481 192.041 305.03 191.084 306.085C190.716 306.469 190.303 306.795 189.857 307.055C189.356 307.383 188.827 307.653 188.277 307.862C186.847 308.369 185.307 308.253 183.813 308.131C183.328 308.126 182.848 308.023 182.395 307.828C182.19 307.712 181.993 307.578 181.806 307.426C181.432 307.17 181.117 306.821 180.886 306.405C181.174 306.252 181.487 306.168 181.806 306.16C182.469 306.201 182.954 306.895 183.589 307.11C184.494 307.413 185.396 306.705 186.313 306.463C186.911 306.306 187.54 306.347 188.132 306.122C188.626 305.911 189.082 305.604 189.479 305.217C190.024 304.785 190.509 304.266 190.918 303.678C191.258 303.09 191.541 302.464 191.762 301.809C192.246 300.556 192.816 299.345 193.468 298.187C193.564 298.004 193.68 297.835 193.814 297.684C193.958 297.537 194.121 297.435 194.284 297.306C194.897 296.792 195.152 295.944 195.367 295.113C195.425 294.861 195.506 294.616 195.609 294.382C195.8 294.38 195.989 294.429 196.16 294.526C196.33 294.622 196.477 294.763 196.588 294.936C196.852 295.386 196.955 295.928 196.879 296.458V296.458Z" fill="#464353"/>
<path d="M132.548 190.325C133.312 190.959 133.94 191.773 134.389 192.707C134.819 193.64 137.294 200.877 137.15 201.929C137.957 201.027 141.138 200.881 141.955 199.979C142.295 199.601 144.133 197.715 144.409 197.276C144.685 196.837 146.734 195.914 146.958 195.451C147.796 193.787 141.019 187.479 141.887 185.834C141.935 185.759 141.96 185.668 141.958 185.576C141.938 185.498 141.898 185.428 141.844 185.375C141.289 184.745 140.552 184.354 139.884 183.887C139.215 183.421 138.571 182.771 138.39 181.913C137.752 182.239 137.166 182.678 136.656 183.213C135.413 184.396 134.191 185.602 132.99 186.832C132.521 187.315 131.613 187.959 131.395 188.65C131.137 189.392 132.1 189.919 132.548 190.325Z" fill="#A1616A"/>
<path d="M143.519 187.645C142.479 188.421 141.508 189.303 140.617 190.28C139.776 191.203 138.979 192.272 138.776 193.562C138.69 194.069 138.703 194.583 138.632 195.097C138.325 197.327 136.589 198.961 135.822 201.047C135.6 201.692 135.436 202.359 135.334 203.039C135.118 204.328 135 205.636 134.981 206.947C134.963 208.217 136.086 209.091 136.497 210.276C136.908 211.461 137.018 212.679 137.227 213.895C137.62 216.189 138.341 218.402 139.068 220.601C140.58 225.237 145.483 238.054 146.995 242.693C151.631 241.403 163.97 238.438 168.075 235.718C169.443 234.813 158.579 224.597 160.043 223.893C160.126 223.878 160.206 223.842 160.275 223.788C160.344 223.733 160.401 223.662 160.441 223.579C160.48 223.496 160.502 223.404 160.505 223.31C160.507 223.216 160.49 223.123 160.454 223.038C158.991 215.937 154.413 210.102 152.336 203.189C151.615 200.789 150.321 198.74 149.339 196.459C148.449 194.392 147.974 192.108 146.909 190.144C146.708 189.739 146.446 189.377 146.133 189.072C145.867 188.846 145.58 188.653 145.277 188.497C144.67 188.17 144.105 187.976 143.519 187.645Z" fill="#514E7F"/>
<path d="M132.794 189.518C136.801 189.518 140.049 185.913 140.049 181.467C140.049 177.021 136.801 173.416 132.794 173.416C128.787 173.416 125.538 177.021 125.538 181.467C125.538 185.913 128.787 189.518 132.794 189.518Z" fill="#A1616A"/>
<path d="M140.175 185.249C140.537 184.879 140.991 184.639 141.478 184.561C141.965 184.484 142.461 184.571 142.903 184.813C143.393 185.096 143.823 185.668 143.712 186.267L147.311 186.328C147.884 186.311 148.456 186.369 149.017 186.502C149.581 186.638 150.084 186.988 150.44 187.492C150.483 187.557 150.532 187.635 150.606 187.645C150.666 187.647 150.724 187.625 150.772 187.584C151.325 187.276 151.949 187.158 152.563 187.244C154.508 187.383 156.306 188.462 157.831 189.811C158.106 190.02 158.319 190.315 158.444 190.658C158.57 191.111 158.42 191.679 158.751 192.003C158.751 195.747 159.911 199.247 160.684 202.896C160.822 203.546 161.383 204.121 161.773 204.632C162.255 205.198 162.647 205.849 162.936 206.559C163.592 208.451 162.687 210.678 163.325 212.577C163.595 213.381 164.117 214.041 164.553 214.739C165.127 215.545 165.49 216.51 165.602 217.53C165.629 217.986 165.577 218.446 165.602 218.892C165.643 219.505 165.746 220.112 165.909 220.699C166.17 221.798 166.445 222.895 166.731 223.991C167.197 225.761 167.805 227.671 169.234 228.614C165.783 229.264 162.144 229.901 158.856 228.57C158.397 228.396 157.961 228.155 157.561 227.852C156.374 226.912 155.8 225.305 155.288 223.787C154.717 222.085 154.137 220.352 154.021 218.541C154.022 217.965 153.948 217.392 153.803 216.839C153.468 215.852 152.576 215.256 151.766 214.708C150.851 214.152 150.022 213.437 149.311 212.591C148.958 212.165 148.688 211.662 148.517 211.115C148.346 210.569 148.278 209.989 148.317 209.411C148.379 208.85 148.578 208.308 148.597 207.743C148.615 207.178 148.388 206.532 147.9 206.382C145.387 205.538 144.188 202.236 143.63 199.39C143.389 197.919 143.281 196.425 143.307 194.93L143.274 192.027C142.927 191.677 142.648 191.252 142.454 190.778C142.26 190.305 142.155 189.793 142.145 189.273C142.178 188.969 142.173 188.662 142.129 188.36C142.008 187.991 141.81 187.659 141.553 187.39C140.998 186.758 140.533 186.036 140.175 185.249V185.249Z" fill="#464353"/>
<path d="M132.447 194.454C132.364 195.352 132.548 196.275 132.367 197.157C132.297 197.497 132.174 197.837 132.085 198.154C131.813 199.423 131.931 200.756 132.42 201.943C132.908 203.117 133.492 204.24 134.165 205.296C134.393 205.656 134.58 206.046 134.724 206.457C134.84 206.888 134.912 207.332 134.938 207.781C135.116 209.584 135.401 211.371 135.791 213.132C136.135 214.657 140.037 227.695 140.945 228.903C141.11 229.171 141.36 229.359 141.645 229.431C141.85 229.44 142.054 229.393 142.24 229.295L144.081 228.512C144.237 228.459 144.382 228.371 144.507 228.253C144.68 228.03 144.773 227.744 144.771 227.45C144.903 225.789 140.991 212.659 140.494 211.09C138.991 206.351 136.991 201.783 136.012 196.877C135.739 195.516 135.595 193.419 134.696 192.333C134.325 191.884 134.45 192.074 134.006 192.309C133.781 192.417 133.563 192.544 133.355 192.687C133.095 192.888 132.878 193.151 132.721 193.456C132.564 193.762 132.47 194.103 132.447 194.454Z" fill="#464353"/>
<path d="M138.034 203.444C138.528 206.341 139.037 209.231 139.543 212.128L146.747 210.034C146.805 209.197 146.403 208.421 146.133 207.651C145.476 205.823 145.461 203.788 144.93 201.909C144.528 200.479 143.829 199.165 143.452 197.725C143.234 196.888 143.123 196.023 142.909 195.175C142.678 194.343 142.395 193.53 142.062 192.741C141.658 191.598 141.13 190.514 140.491 189.511C139.571 189.892 138.589 190.335 138.064 191.257C137.795 191.777 137.642 192.361 137.617 192.959C137.491 194.753 138.077 196.557 137.883 198.341C137.684 200.04 137.735 201.763 138.034 203.444Z" fill="#00204A"/>
<path d="M146.866 241.979C147.271 243.681 146.685 245.471 146.207 247.156C145.486 249.694 144.995 252.306 144.74 254.952C144.709 255.625 144.587 256.289 144.378 256.923C144.151 257.491 143.765 257.971 143.501 258.512C142.777 259.935 142.795 261.671 142.952 263.299C143.056 264.371 143.212 265.44 143.406 266.495C143.642 267.785 143.933 269.133 143.593 270.393C144.163 270.253 144.55 271.074 144.513 271.717C144.476 272.36 144.289 273.079 144.568 273.633C145.274 273.919 145.28 274.995 145.259 275.829C145.27 277.275 145.435 278.715 145.75 280.118C146.817 285.815 147.95 291.495 149.149 297.159C151.741 298.051 154.769 298.981 157.242 297.745C157.702 297.517 158.162 297.153 158.267 296.601C158.293 296.304 158.26 296.004 158.168 295.723L156.996 290.991C156.711 289.847 156.426 288.666 156.576 287.492C156.69 286.617 157.033 285.674 156.647 284.901C156.515 284.636 156.306 284.428 156.153 284.176C155.539 283.179 155.861 281.844 155.91 280.636C155.93 280.364 155.913 280.092 155.861 279.826C155.777 279.515 155.66 279.217 155.512 278.937C154.543 276.851 154.078 274.522 154.162 272.177C154.198 271.877 154.161 271.573 154.054 271.295C153.98 271.18 153.913 271.06 153.855 270.934C153.809 270.715 153.832 270.486 153.919 270.284C153.568 269.988 153.25 269.645 152.974 269.263C153.145 269.145 153.288 268.986 153.395 268.798C153.502 268.61 153.569 268.398 153.591 268.177C153.613 267.956 153.589 267.732 153.521 267.523C153.454 267.313 153.345 267.124 153.201 266.968C153.327 266.94 153.442 266.874 153.536 266.778C153.629 266.681 153.696 266.558 153.73 266.421C153.764 266.285 153.764 266.141 153.728 266.005C153.693 265.869 153.624 265.746 153.53 265.651C153.379 265.535 153.18 265.484 153.073 265.31C152.907 265.059 153.042 264.708 153.177 264.439L153.892 263.006C154.426 261.94 154.545 260.623 155.119 259.602C155.941 258.114 156.478 256.456 157.009 254.816L159.073 248.494L160.463 249.832C160.926 250.224 161.314 250.715 161.604 251.275C161.802 251.829 161.927 252.411 161.976 253.005C162.485 256.436 164.43 259.411 165.151 262.791C165.31 263.544 165.418 264.333 165.807 264.977C165.947 265.174 166.072 265.384 166.182 265.603C166.283 265.938 166.336 266.288 166.338 266.641C166.402 267.333 166.6 268.001 166.918 268.6C167.235 269.199 167.666 269.715 168.179 270.114C168.863 270.634 169.713 270.992 170.084 271.816C170.158 272.071 170.261 272.314 170.391 272.541C170.722 272.983 171.437 273.034 171.578 273.589C171.658 273.899 171.511 274.27 171.667 274.542C171.756 274.668 171.874 274.766 172.008 274.825L174.005 275.931C176.238 277.17 177.38 280.016 179.027 282.089C179.596 282.765 180.1 283.504 180.53 284.295C181.242 285.708 181.57 287.481 182.773 288.38C183.096 288.566 183.39 288.809 183.644 289.098C184.022 289.65 183.883 290.423 183.917 291.117C183.951 291.811 184.43 292.639 185.025 292.428C184.816 293.269 184.816 294.157 185.025 294.998C187.638 294.849 190.129 293.729 192.099 291.818C192.682 291.253 193.244 290.532 193.25 289.674C193.259 289.526 193.229 289.378 193.164 289.248C193.046 289.081 192.89 288.95 192.713 288.87C190.845 287.747 190.283 285.143 189.338 283.029C188.513 281.163 187.292 279.557 186.27 277.824C184.049 274.096 182.534 269.586 179.174 267.125C178.435 266.584 177.576 266.104 177.205 265.208C176.999 264.708 176.975 264.136 176.812 263.619C176.649 263.101 176.26 262.597 175.763 262.597C176.039 261.848 175.984 260.936 176.002 260.126C176.021 259.766 175.984 259.406 175.892 259.06C175.764 258.689 175.598 258.335 175.398 258.005C174.521 256.359 174.083 254.47 174.134 252.559C174.158 251.575 174.315 250.56 174.048 249.621C173.913 249.148 173.677 248.715 173.514 248.259C173.269 247.433 173.14 246.569 173.13 245.699L172.946 242.428C172.919 241.338 172.791 240.255 172.566 239.194C171.952 236.655 171.339 226.017 169.237 224.818C167.136 223.62 163.525 231.807 161.16 231.967C160.113 232.015 159.079 232.237 158.092 232.624C156.518 233.278 155.199 234.496 153.913 235.688L149.563 239.742C148.643 240.583 147.882 241.386 146.866 241.979Z" fill="#464353"/>
<path d="M125.986 172.528C126.943 171.078 128.588 170.308 130.208 170.244C131.827 170.179 133.423 170.744 134.874 171.544C135.302 171.814 135.76 172.022 136.236 172.164C137.003 172.337 137.856 172.106 138.549 172.504C139.47 173.045 139.647 174.424 139.568 175.568C139.488 176.711 139.295 177.981 139.844 178.972C140.039 179.254 140.216 179.551 140.375 179.86C140.611 180.449 140.473 181.13 140.332 181.753C139.973 181.413 139.77 180.899 139.451 180.504C139.132 180.109 138.577 179.843 138.181 180.139C137.785 180.436 137.791 180.973 137.77 181.457C137.748 181.94 137.638 182.519 137.227 182.675C137.055 182.719 136.876 182.704 136.712 182.633C136.548 182.562 136.406 182.438 136.307 182.277C135.604 181.324 135.886 179.802 135.19 178.842C134.794 178.298 134.134 178.032 133.769 177.46C133.481 177.011 133.407 176.439 133.156 175.956C132.904 175.472 132.318 175.118 131.929 175.452C131.796 175.593 131.685 175.757 131.6 175.939C131.357 176.325 131.004 176.609 130.598 176.745C130.191 176.881 129.756 176.86 129.361 176.688C129.059 176.482 128.733 176.325 128.391 176.221C128.168 176.209 127.946 176.266 127.75 176.386C127.554 176.507 127.393 176.685 127.284 176.902C127.064 177.335 126.957 177.828 126.977 178.325C126.977 179.006 127.087 179.731 126.738 180.276C126.605 180.481 126.438 180.656 126.247 180.793C125.735 181.157 125.02 181.402 124.547 180.987C124.387 180.822 124.268 180.613 124.201 180.382C124.135 180.151 124.123 179.904 124.167 179.666C124.259 179.192 124.38 178.726 124.529 178.271C124.799 177.215 124.446 176.027 124.741 175.033C125.049 174.138 125.468 173.295 125.986 172.528V172.528Z" fill="#464353"/>
<path d="M129.873 196.544C129.827 196.792 129.851 197.05 129.941 197.283C130.032 197.441 130.156 197.573 130.303 197.667C131.334 198.38 132.508 198.802 133.72 198.896C133.885 198.899 134.047 198.946 134.193 199.032C134.481 199.243 134.5 199.713 134.392 200.088C134.249 200.441 134.175 200.824 134.174 201.211C134.263 201.922 135.024 202.232 135.665 202.338C136.564 202.464 137.549 202.399 138.261 201.776C138.743 201.288 139.11 200.677 139.331 199.996C141.092 195.506 141.709 190.542 143.492 186.066C143.627 185.774 143.717 185.458 143.758 185.133C143.777 184.97 143.756 184.805 143.698 184.654C143.64 184.503 143.546 184.373 143.427 184.275C143.096 184.047 142.58 184.177 142.356 183.819C142.246 183.639 142.258 183.394 142.16 183.203C141.955 182.798 141.415 182.863 141.046 182.628C140.758 182.458 140.559 182.107 140.236 182.039C140.078 182.029 139.92 182.06 139.775 182.13C139.63 182.2 139.501 182.306 139.399 182.441C138.353 183.523 137.804 185.058 137.221 186.509C136.331 188.731 135.289 190.875 134.104 192.922C134.242 192.684 133.441 190.879 133.128 190.801C132.579 190.679 131.876 191.747 131.579 192.146C130.645 193.402 130.053 194.928 129.873 196.544Z" fill="#00204A"/>
<path opacity="0.1" d="M141.019 182.944C140.798 182.948 140.582 183.007 140.385 183.117C140.188 183.227 140.015 183.384 139.881 183.578C139.552 184.051 139.488 184.677 139.405 185.28C139.126 187.189 138.512 189.018 137.598 190.665" fill="black"/>
<path opacity="0.1" d="M142.583 184.303C142.279 184.31 141.982 184.405 141.721 184.579C141.46 184.753 141.245 184.999 141.096 185.293C140.892 185.829 140.766 186.396 140.721 186.975C140.458 188.258 139.951 189.464 139.233 190.512" fill="black"/>
<path d="M215.495 250.853V246.625C215.494 243.513 214.379 240.528 212.396 238.328C210.412 236.127 207.722 234.891 204.917 234.891H54.4398C51.6348 234.891 48.9447 236.127 46.961 238.328C44.9773 240.528 43.8625 243.513 43.8617 246.625V254.421L215.495 250.853Z" fill="#33323D"/>
<path d="M96.3012 229.935C96.3012 229.935 95.8717 259.503 100.596 269.232C105.321 278.961 107.346 321.284 107.346 321.284C107.346 321.284 156.874 326.969 191.387 314.476C225.901 301.983 299.341 296.873 299.341 296.873L286.965 204.319C286.965 204.319 225.825 199.968 191.044 218.374C156.263 236.781 96.3012 229.935 96.3012 229.935Z" fill="#8DD070"/>
<path opacity="0.1" d="M96.3012 229.935C96.3012 229.935 95.8717 259.503 100.596 269.232C105.321 278.961 107.346 321.284 107.346 321.284C107.346 321.284 156.874 326.969 191.387 314.476C225.901 301.983 299.341 296.873 299.341 296.873L286.965 204.319C286.965 204.319 225.825 199.968 191.044 218.374C156.263 236.781 96.3012 229.935 96.3012 229.935Z" fill="black"/>
<path d="M107.263 240.736C107.263 240.736 105.714 265.133 109.601 272.929C113.488 280.724 113.669 315.525 113.669 315.525C113.669 315.525 158.242 317.819 189.949 305.843C221.655 293.868 288.284 286.099 288.284 286.099L280.712 210.409C280.712 210.409 225.582 209.779 193.406 226.636C161.23 243.493 107.263 240.736 107.263 240.736Z" fill="#8DD070"/>
<path opacity="0.1" d="M192.917 291.985C199.259 291.108 203.026 278.163 201.332 263.07C199.638 247.977 193.123 236.452 186.781 237.329C180.439 238.205 176.671 251.151 178.366 266.244C180.06 281.337 186.575 292.861 192.917 291.985Z" fill="black"/>
<path opacity="0.2" d="M253.445 159.231C253.445 159.231 194.047 175.911 166.037 205.272C138.028 234.633 79.0627 248.535 79.0627 248.535C79.0627 248.535 86.8306 276.82 94.0156 284.472C101.201 292.125 114.828 331.721 114.828 331.721C114.828 331.721 163.537 320.263 192.928 296.611C222.318 272.959 290.815 243.088 290.815 243.088L253.445 159.231Z" fill="black"/>
<path d="M78.1699 244.3C78.1699 244.3 85.9348 272.588 93.1136 280.241C100.293 287.893 113.926 327.487 113.926 327.487C113.926 327.487 162.641 316.032 192.035 292.38C221.428 268.728 289.919 238.867 289.919 238.867L252.549 155C252.549 155 193.155 171.68 165.145 201.041C137.135 230.401 78.1699 244.3 78.1699 244.3Z" fill="#8DD070"/>
<path opacity="0.1" d="M78.1699 244.3C78.1699 244.3 85.9348 272.588 93.1136 280.241C100.293 287.893 113.926 327.487 113.926 327.487C113.926 327.487 162.641 316.032 192.035 292.38C221.428 268.728 289.919 238.867 289.919 238.867L252.549 155C252.549 155 193.155 171.68 165.145 201.041C137.135 230.401 78.1699 244.3 78.1699 244.3Z" fill="black"/>
<path d="M91.5797 250.85C91.5797 250.85 96.8534 274.6 102.71 280.694C108.567 286.787 118.356 319.841 118.356 319.841C118.356 319.841 161.411 306.844 188.277 284.649C215.142 262.454 276.414 232.406 276.414 232.406L248.279 162.921C248.279 162.921 195.637 181.089 169.673 208.091C143.709 235.092 91.5797 250.85 91.5797 250.85Z" fill="#8DD070"/>
<path opacity="0.1" d="M187.283 270.46C193.077 267.467 193.083 253.863 187.297 240.075C181.51 226.287 172.123 217.536 166.329 220.53C160.535 223.524 160.529 237.128 166.316 250.916C172.102 264.703 181.49 273.454 187.283 270.46Z" fill="black"/>
<path opacity="0.1" d="M219.557 255.003V372.445C219.557 373.779 219.32 375.099 218.86 376.332C218.4 377.564 217.726 378.683 216.875 379.626C216.025 380.569 215.016 381.317 213.905 381.827C212.795 382.337 211.604 382.6 210.402 382.599H53.0193C50.5927 382.598 48.2658 381.528 46.5502 379.624C44.8346 377.72 43.8709 375.137 43.8709 372.445V243.163C48.3807 245.022 48.3807 245.022 53.0193 244.865H210.402C212.827 244.865 215.153 245.933 216.869 247.833C218.585 249.734 219.552 252.312 219.557 255.003V255.003Z" fill="black"/>
<path d="M219.557 256.497V373.939C219.556 376.633 218.591 379.215 216.875 381.12C215.158 383.024 212.83 384.094 210.402 384.094H53.0193C50.5927 384.093 48.2658 383.023 46.5502 381.118C44.8346 379.214 43.8709 376.632 43.8709 373.939V244.654C48.3807 246.509 48.3807 246.509 53.0193 246.356H210.402C212.828 246.356 215.154 247.424 216.87 249.325C218.587 251.227 219.553 253.806 219.557 256.497V256.497Z" fill="#504F60"/>
<path opacity="0.1" d="M219.109 299.917V337.474H186.283C181.833 337.408 177.587 335.4 174.462 331.886C171.337 328.371 169.585 323.633 169.585 318.695C169.585 313.758 171.337 309.02 174.462 305.505C177.587 301.991 181.833 299.983 186.283 299.917H219.109Z" fill="black"/>
<path d="M219.557 298.916V336.48H186.73C182.281 336.414 178.035 334.406 174.91 330.892C171.785 327.377 170.033 322.639 170.033 317.701C170.033 312.764 171.785 308.026 174.91 304.511C178.035 300.997 182.281 298.989 186.73 298.923L219.557 298.916Z" fill="#33323D"/>
<path opacity="0.1" d="M188.304 326.019C191.949 326.019 194.903 322.741 194.903 318.697C194.903 314.653 191.949 311.375 188.304 311.375C184.66 311.375 181.705 314.653 181.705 318.697C181.705 322.741 184.66 326.019 188.304 326.019Z" fill="black"/>
<path d="M188.752 325.025C192.397 325.025 195.351 321.747 195.351 317.703C195.351 313.659 192.397 310.381 188.752 310.381C185.108 310.381 182.153 313.659 182.153 317.703C182.153 321.747 185.108 325.025 188.752 325.025Z" fill="#00204A"/>
<path d="M276.537 298.592C276.798 301.728 274.659 304.771 275.282 307.841C275.417 308.498 275.672 309.118 275.764 309.782C276.021 311.606 275.043 313.332 274.107 314.857L266.069 327.943C265.747 328.518 265.362 329.046 264.922 329.515C263.388 331.034 261.081 330.877 259.062 331.33C257.643 331.649 256.303 332.307 255.135 333.257C255.086 333.303 255.055 333.368 255.049 333.439C255.042 333.51 255.06 333.581 255.098 333.638C255.432 334.142 255.874 334.545 256.384 334.811C256.894 335.077 257.456 335.197 258.019 335.159C258.231 335.469 258.019 335.922 257.712 336.143C257.28 336.484 256.688 336.565 256.602 337.376C256.571 337.658 256.623 337.945 256.749 338.193C257.073 338.743 257.577 339.132 258.154 339.278C260.937 340.221 263.943 338.564 266.026 336.307C268.109 334.05 269.603 331.201 271.647 328.903C272.779 327.633 274.064 326.544 275.23 325.311C277.555 322.854 279.362 319.865 281.108 316.873C281.633 315.97 282.16 315.045 282.381 314C282.602 312.954 282.498 311.899 282.746 310.888C283.071 309.561 283.946 308.505 284.673 307.392C286.1 305.213 287.051 302.548 286.863 299.866C286.676 297.183 285.176 294.531 282.894 293.619C282.186 293.304 281.406 293.251 280.669 293.469C279.734 293.789 279.043 294.647 278.405 295.467L276.871 297.425C276.489 297.854 276.186 298.363 275.982 298.923C275.883 299.204 275.86 299.51 275.914 299.805C275.969 300.1 276.099 300.372 276.288 300.587" fill="#FBBEBE"/>
<path opacity="0.05" d="M276.537 298.592C276.798 301.728 274.659 304.771 275.282 307.841C275.417 308.498 275.672 309.118 275.764 309.782C276.021 311.606 275.043 313.332 274.107 314.857L266.069 327.943C265.747 328.518 265.362 329.046 264.922 329.515C263.388 331.034 261.081 330.877 259.062 331.33C257.643 331.649 256.303 332.307 255.135 333.257C255.086 333.303 255.055 333.368 255.049 333.439C255.042 333.51 255.06 333.581 255.098 333.638C255.432 334.142 255.874 334.545 256.384 334.811C256.894 335.077 257.456 335.197 258.019 335.159C258.231 335.469 258.019 335.922 257.712 336.143C257.28 336.484 256.688 336.565 256.602 337.376C256.571 337.658 256.623 337.945 256.749 338.193C257.073 338.743 257.577 339.132 258.154 339.278C260.937 340.221 263.943 338.564 266.026 336.307C268.109 334.05 269.603 331.201 271.647 328.903C272.779 327.633 274.064 326.544 275.23 325.311C277.555 322.854 279.362 319.865 281.108 316.873C281.633 315.97 282.16 315.045 282.381 314C282.602 312.954 282.498 311.899 282.746 310.888C283.071 309.561 283.946 308.505 284.673 307.392C286.1 305.213 287.051 302.548 286.863 299.866C286.676 297.183 285.176 294.531 282.894 293.619C282.186 293.304 281.406 293.251 280.669 293.469C279.734 293.789 279.043 294.647 278.405 295.467L276.871 297.425C276.489 297.854 276.186 298.363 275.982 298.923C275.883 299.204 275.86 299.51 275.914 299.805C275.969 300.1 276.099 300.372 276.288 300.587" fill="black"/>
<path d="M282.621 379.304C280.866 380.492 278.678 380.564 276.638 380.288C276.31 380.244 275.92 380.216 275.718 380.499C275.411 380.907 275.773 381.52 276.147 381.837C277.351 382.839 278.764 383.485 280.255 383.712C281.586 383.922 282.93 384.021 284.274 384.009C287.956 384.08 291.637 384.148 295.26 383.563C295.475 383.545 295.684 383.477 295.874 383.365C296.107 383.183 296.27 382.909 296.328 382.599C296.576 381.551 296.098 380.427 295.374 379.699C294.65 378.971 293.72 378.565 292.812 378.174L289.621 376.795C288.873 376.472 287.673 375.614 286.86 375.682C285.333 375.805 283.888 378.48 282.621 379.304Z" fill="#3F3D56"/>
<path opacity="0.05" d="M282.621 379.304C280.866 380.492 278.678 380.564 276.638 380.288C276.31 380.244 275.92 380.216 275.718 380.499C275.411 380.907 275.773 381.52 276.147 381.837C277.351 382.839 278.764 383.485 280.255 383.712C281.586 383.922 282.93 384.021 284.274 384.009C287.956 384.08 291.637 384.148 295.26 383.563C295.475 383.545 295.684 383.477 295.874 383.365C296.107 383.183 296.27 382.909 296.328 382.599C296.576 381.551 296.098 380.427 295.374 379.699C294.65 378.971 293.72 378.565 292.812 378.174L289.621 376.795C288.873 376.472 287.673 375.614 286.86 375.682C285.333 375.805 283.888 378.48 282.621 379.304Z" fill="black"/>
<path d="M284.857 332.307C283.529 334.268 282.154 336.531 282.482 338.958C282.66 340.266 283.32 341.42 283.805 342.628C284.461 344.269 284.805 346.032 285.142 347.789C285.639 350.355 286.139 352.929 286.443 355.537C286.79 358.481 285.161 367.002 285.01 369.967C284.974 370.681 284.897 371.454 284.449 371.968C284.274 372.172 284.041 372.336 283.961 372.601C283.914 372.857 283.953 373.123 284.069 373.35C284.817 375.223 286.348 376.618 288.057 377.415C289.766 378.211 293.886 379.587 295.748 379.658C295.993 379.688 296.242 379.652 296.472 379.553C296.72 379.385 296.915 379.136 297.03 378.841C298.365 376.009 297.083 365.94 297.101 362.743C297.119 360.078 297.687 357.429 297.583 354.767C297.497 352.629 296.969 350.539 296.794 348.408C296.487 344.916 297.064 341.406 297.644 337.954C298.086 335.306 298.531 332.657 299.098 330.043C299.445 328.447 299.847 326.836 300.632 325.451C301.246 324.351 302.108 323.432 302.823 322.387C304.807 319.501 305.688 315.865 305.277 312.263C305.234 311.923 300.675 313.547 300.273 313.741C298.633 314.511 297.125 315.588 295.812 316.924C294.757 318.04 293.926 319.531 293.002 320.78C291.695 322.548 290.405 324.329 289.131 326.122C287.676 328.171 286.252 330.233 284.857 332.307Z" fill="#464353"/>
<path opacity="0.05" d="M284.857 332.188C283.529 334.148 282.154 336.416 282.482 338.839C282.66 340.15 283.32 341.304 283.805 342.512C284.461 344.15 284.805 345.917 285.142 347.67C285.639 350.24 286.139 352.813 286.443 355.417C286.79 358.365 285.161 366.882 285.01 369.847C284.974 370.562 284.897 371.338 284.449 371.853C284.274 372.053 284.041 372.217 283.961 372.482C283.914 372.738 283.952 373.004 284.069 373.231C284.817 375.107 286.348 376.499 288.057 377.316C289.766 378.133 293.886 378.845 295.748 378.913C295.994 378.943 296.242 378.906 296.472 378.807C296.72 378.642 296.916 378.394 297.03 378.099C298.365 375.267 297.083 365.844 297.101 362.644C297.119 359.976 297.687 357.331 297.583 354.665C297.497 352.527 296.969 350.437 296.794 348.31C296.487 344.814 297.064 341.304 297.644 337.852C298.086 335.207 298.531 332.559 299.098 329.941C299.445 328.344 299.847 326.734 300.632 325.349C301.246 324.249 302.108 323.33 302.823 322.285C304.807 319.399 305.689 315.763 305.277 312.161C305.234 311.821 300.675 313.445 300.273 313.639C298.634 314.412 297.125 315.489 295.812 316.825C294.757 317.938 293.926 319.429 293.002 320.678C291.695 322.446 290.405 324.228 289.131 326.023C287.676 328.056 286.252 330.111 284.857 332.188Z" fill="black"/>
<path d="M270.076 289.122C274.188 289.122 277.522 285.423 277.522 280.86C277.522 276.298 274.188 272.599 270.076 272.599C265.964 272.599 262.63 276.298 262.63 280.86C262.63 285.423 265.964 289.122 270.076 289.122Z" fill="#FBBEBE"/>
<path d="M276.782 280.513C277.47 281.731 278.372 282.782 279.434 283.604C280.496 284.427 281.697 285.003 282.964 285.299L282.403 287.563C281.433 291.451 280.344 295.563 277.638 298.259C277.945 296.941 277.552 295.536 276.884 294.392C276.215 293.248 275.276 292.349 274.356 291.461L270.07 287.342C269.946 287.23 269.842 287.094 269.763 286.94C269.657 286.65 269.657 286.325 269.763 286.035C270.309 284.149 271.868 282.971 273.138 281.698C273.775 281.039 274.344 280.304 274.834 279.506C275.69 278.151 276.221 279.512 276.782 280.513Z" fill="#FBBEBE"/>
<path d="M260.268 272.554L260.099 271.002C261.274 271.343 262.391 270.233 263.142 269.086C263.894 267.938 264.591 266.587 265.735 266.107C267.125 265.528 268.597 266.447 269.926 267.224C271.413 268.139 273.045 268.729 274.733 268.96C275.002 268.97 275.269 269.018 275.528 269.103C276.393 269.443 276.804 270.648 276.93 271.741C277.055 272.834 277.022 273.994 277.448 274.968C277.755 275.707 278.325 276.255 278.675 276.983C279.596 278.937 278.706 281.609 279.666 283.526L277.279 281.099C277.061 280.877 276.755 280.646 276.512 280.833C276.322 280.983 276.307 281.306 276.23 281.565C276 282.321 275.147 282.545 274.53 282.246C273.914 281.946 273.463 281.296 272.997 280.704C271.941 279.322 270.683 278.106 269.211 277.518C268.565 277.25 267.876 277.137 267.188 277.188C266.501 277.238 265.831 277.451 265.223 277.81C264.109 278.508 263.293 280.135 261.928 280.193C260.056 280.272 259.277 276.404 258.412 274.876C258.728 274.612 258.951 274.232 259.041 273.804C259.131 273.376 259.082 272.926 258.903 272.534C259.028 272.476 260.24 272.316 260.268 272.554Z" fill="#464353"/>
<path d="M168.173 224.253C167.575 224.844 167.021 225.488 166.519 226.18C166.014 226.882 165.744 227.757 165.758 228.655C165.761 228.915 165.836 229.169 165.973 229.38C166.043 229.481 166.14 229.556 166.25 229.593C166.36 229.63 166.478 229.628 166.587 229.588C166.71 229.518 166.815 229.415 166.893 229.288C167.218 228.856 167.562 228.442 167.924 228.049C168.056 227.903 168.231 227.749 168.409 227.804C168.489 227.835 168.56 227.888 168.618 227.957C168.824 228.155 168.974 228.415 169.05 228.706C169.158 229.227 168.885 229.748 168.575 230.156C168.265 230.565 167.9 230.956 167.774 231.47C167.726 231.606 167.726 231.756 167.774 231.892C167.833 231.99 167.916 232.068 168.013 232.117C168.453 232.385 168.94 232.543 169.44 232.58C169.941 232.616 170.442 232.53 170.909 232.328C171.523 232.052 172.069 231.579 172.701 231.334C172.975 231.251 173.24 231.137 173.492 230.994C173.673 230.86 173.828 230.688 173.949 230.488C174.07 230.287 174.153 230.062 174.195 229.826C174.275 229.353 174.29 228.87 174.241 228.393C174.165 226.544 173.808 224.722 173.186 223.004C173.15 222.893 173.088 222.795 173.008 222.718C172.915 222.656 172.809 222.624 172.701 222.626C171.916 222.534 170.627 222.088 169.869 222.412C169.604 222.573 169.376 222.799 169.201 223.072C169.059 223.246 168.173 224.025 168.173 224.253Z" fill="#A1616A"/>
<path d="M167.924 223.484C167.924 222.653 167.004 220.648 168.467 220.516C168.467 219.627 167.335 219.076 167.547 218.133C167.614 217.82 167.854 217.564 167.881 217.244C167.973 216.335 166.495 215.842 166.74 214.97C166.832 214.63 167.157 214.432 167.228 214.095C167.394 213.309 166.126 212.958 166.102 212.152C166.102 211.879 166.24 211.624 166.228 211.352C166.228 211.011 165.961 210.753 165.814 210.456C165.43 209.697 165.617 208.523 164.918 208.131C165.381 208.176 165.531 207.413 165.341 206.947C165.151 206.48 164.761 206.075 164.758 205.558C164.781 205.37 164.781 205.18 164.758 204.993C164.629 204.496 163.896 204.455 163.773 203.972C163.758 203.786 163.752 203.6 163.758 203.413C163.709 203.029 163.353 202.784 163.019 202.675C162.671 202.609 162.337 202.477 162.031 202.283C161.816 202.103 161.568 201.803 161.337 201.943C161.252 202.001 161.209 202.11 161.144 202.191C160.868 202.549 160.34 202.392 159.994 202.13C158.969 201.357 158.46 199.972 158.242 198.62C158.024 197.269 158.03 195.873 157.757 194.535C157.674 194.118 157.563 193.709 157.426 193.31C157.309 192.97 156.935 192.435 156.911 192.091C156.855 191.308 158.316 191.843 158.871 191.921C159.41 191.979 159.943 192.093 160.463 192.261C161.018 192.494 161.562 192.759 162.092 193.055C164.307 194.141 166.982 194.273 168.762 196.098C169.348 196.697 169.842 197.483 170.603 197.756C170.952 197.83 171.296 197.929 171.633 198.052C172.477 198.491 172.609 199.734 173.069 200.632C173.214 200.87 173.34 201.12 173.446 201.381C173.535 201.689 173.577 202.011 173.569 202.334L173.634 204.693C173.738 208.645 173.842 212.608 173.462 216.536C173.339 217.833 173.155 219.168 173.502 220.414C173.594 220.754 173.723 221.074 173.809 221.418C173.884 221.821 173.923 222.231 173.925 222.643L173.974 224.172C173.991 224.291 173.967 224.412 173.907 224.512C173.855 224.558 173.795 224.591 173.731 224.608C173.667 224.625 173.6 224.626 173.535 224.611C171.618 224.42 169.679 223.222 167.869 223.947" fill="#464353"/>
<path d="M255.427 340.926C267.958 340.926 278.117 339.297 278.117 337.287C278.117 335.277 267.958 333.648 255.427 333.648C242.895 333.648 232.737 335.277 232.737 337.287C232.737 339.297 242.895 340.926 255.427 340.926Z" fill="#504F60"/>
<path d="M274.948 337.464C274.549 335.568 274.3 333.903 274.3 333.903C274.3 333.903 274.392 331.84 273.558 330.292V329.774V325.962C273.796 325.269 274.086 324.601 274.426 323.963C275.04 322.765 274.426 318.374 274.426 318.374C274.426 318.374 272.134 312.182 272.69 308.253C273.245 304.325 267.984 290.811 267.984 290.811C268.016 289.507 268.182 288.212 268.478 286.95C268.534 286.685 268.556 286.412 268.545 286.14C268.545 286.106 268.545 286.076 268.545 286.041C268.545 286.007 268.545 286.062 268.545 286.072C268.465 283.482 266.618 278.627 266.618 278.627L266.867 269.375C266.867 269.375 268.045 263.928 266.124 256.592C265.453 254.036 265.023 251.99 264.75 250.411C264.719 250.234 264.689 250.07 264.664 249.897C268.619 249.216 271.641 248.671 271.641 248.671C271.641 248.671 269.346 238.02 267.796 236.154C266.247 234.289 265.008 228.43 265.008 228.43C265.008 228.43 264.201 220.911 265.505 218.711C266.809 216.512 266.993 212.72 266.993 212.72C266.993 212.72 269.965 210.337 270.34 209.258C270.714 208.179 271.331 205.796 271.331 204.533C271.331 203.27 270.959 202.15 271.082 201.47C271.205 200.789 270.214 198.273 270.711 197.075C270.84 196.707 270.906 196.316 270.907 195.921C270.908 195.91 270.908 195.898 270.907 195.887C270.907 195.887 270.907 195.887 270.907 195.887C270.912 194.838 270.825 193.792 270.647 192.762C269.787 191.956 268.783 191.361 267.701 191.016L267.637 190.73L267.468 189.981C267.374 189.912 267.277 189.848 267.177 189.79V189.518L267.149 188.435L267.615 186.005C268.536 181.777 263.446 181.147 263.446 181.147C263.138 180.498 262.624 179.999 262.004 179.745C260.983 179.346 261.836 186.103 262.311 186.553C262.67 186.893 263.781 188.997 264.317 190.039L264.403 190.209C264.319 190.293 264.241 190.384 264.17 190.481L264.363 191.948L264.394 192.173C264.057 192.638 263.783 193.155 263.581 193.708C263.581 193.708 264.502 194.838 264.327 196.091C264.152 197.344 264.612 198.934 264.633 199.019C264.578 198.947 263.925 198.164 263.271 198.355C262.618 198.545 260.792 199.155 260.792 199.155C260.792 199.155 259.43 199.42 259.565 199.754C259.7 200.088 258.645 201.551 258.645 201.551L254.982 197.698C254.945 197.582 254.905 197.466 254.874 197.357C254.725 196.802 254.622 196.232 254.568 195.655C254.967 195.55 255.359 195.412 255.74 195.243C256.125 195.097 256.472 194.849 256.752 194.522C257.123 194.035 257.194 193.375 257.344 192.769C257.633 191.584 258.265 190.532 258.703 189.405C259.446 187.501 259.686 185.402 259.393 183.353C259.337 182.721 259.145 182.114 258.832 181.583C258.234 180.67 257.148 180.299 256.359 179.571C255.571 178.842 255.062 177.729 254.141 177.188C253.31 176.694 252.301 176.752 251.362 176.923C249.528 177.258 247.767 177.969 246.168 179.019C245.634 179.36 245.045 179.779 244.431 179.653C243.904 179.547 243.511 179.081 243.18 178.631C243.183 178.613 243.189 178.595 243.195 178.577C243.18 178.56 243.167 178.542 243.155 178.522C242.767 179.478 242.572 180.517 242.585 181.566C242.585 181.729 242.585 181.906 242.603 182.053V182.223C242.603 182.27 242.603 182.318 242.603 182.362C242.603 182.435 242.593 182.507 242.575 182.577C242.498 182.785 242.381 182.972 242.232 183.125C242.119 183.267 242.017 183.418 241.925 183.578C241.925 183.523 241.956 183.469 241.974 183.411C241.74 183.79 241.608 184.235 241.594 184.694C241.576 185.028 241.675 185.357 241.87 185.613C242.053 185.811 242.254 185.989 242.468 186.144C242.395 186.594 242.358 187.049 242.357 187.506C242.364 188.86 242.686 190.188 243.291 191.364C243.896 192.539 244.765 193.521 245.812 194.215C245.855 194.328 245.895 194.443 245.935 194.556C246.404 195.917 246.757 197.517 246.6 198.981C246.6 199.087 246.573 199.196 246.557 199.301C246.542 199.407 246.465 199.414 246.426 199.471C246.426 199.471 240.373 199.539 238.949 198.11C237.526 196.68 235.353 201.606 235.353 201.606C235.353 201.606 233.184 202.072 232.749 201.606C232.313 201.139 229.776 201.541 229.776 201.541C228.737 200.515 227.384 199.968 225.993 200.009C225.151 199.299 224.221 198.726 223.232 198.307V198.307L223.165 198.28C222.728 198.103 222.262 198.038 221.8 198.089C221.8 198.089 218.824 195.366 217.955 193.895C217.087 192.425 212.955 186.995 212.936 186.971V186.709L212.89 185.92C212.768 185.941 212.643 185.952 212.519 185.954C212.498 185.875 212.467 185.783 212.436 185.678C212.198 184.908 211.905 184.16 211.559 183.441C211.559 183.441 211.559 182.444 211.82 182.192C212.08 181.94 211.712 178.281 211.712 178.281C211.712 178.281 209.031 171.326 206.629 176.517C206.629 176.517 202.088 179.877 205.899 183.792C205.899 183.792 207.433 184.609 207.635 185.256C207.776 185.674 208.292 186.849 208.638 187.639L208.795 187.979L208.752 188.02L208.807 188.674L208.832 188.925C208.114 189.378 207.626 189.828 207.746 190.165C207.957 190.741 208.102 191.345 208.178 191.962C208.178 191.962 213.449 199.288 214.13 202.416C214.13 202.416 228.264 211.736 232.911 212.4L232.089 217.047C231.969 218.308 231.908 219.575 231.905 220.842C231.967 221.84 231.347 226.367 231.347 226.367C231.347 226.367 230.54 233.026 229.859 233.958C229.178 234.891 229.301 238.884 229.301 238.884C229.14 240.796 228.832 242.689 228.38 244.542C227.699 247.071 228.193 250.203 228.193 250.203C228.193 250.203 225.84 256.194 231.479 252.133C231.479 252.133 234.24 251.942 237.437 251.82C237.437 251.936 237.437 252.055 237.437 252.16C237.437 252.616 237.437 253.11 237.415 253.627C237.372 257.059 237.354 261.797 237.495 265.365C237.743 271.69 239.48 284.207 239.48 284.207V290.508C239.368 291.099 239.312 291.701 239.314 292.305C239.277 294.522 239.809 296.705 240.848 298.599L241.284 302.793C241.284 302.793 242.302 305.557 242.321 307.218C242.317 307.352 242.302 307.486 242.278 307.617C242.238 307.828 242.222 308.044 242.229 308.26C242.17 310.166 243.204 314.728 243.204 314.728C243.204 314.728 243.266 319.32 243.885 319.589C244.416 319.817 243.177 322.234 242.808 322.928C242.799 322.886 242.791 322.843 242.787 322.799L242.71 322.935C242.582 323.307 242.517 323.702 242.517 324.1C242.482 324.413 242.528 324.731 242.65 325.017C242.771 325.302 242.964 325.544 243.204 325.713C244.382 326.513 245.014 327.177 244.014 327.442C243.646 327.506 243.282 327.591 242.922 327.698C242.922 327.647 242.885 327.592 242.87 327.544C242.729 327.606 242.611 327.719 242.537 327.865C242.462 328.012 242.436 328.182 242.462 328.348C242.471 328.888 242.596 329.418 242.827 329.893C243.818 332.358 244.505 333.297 244.505 333.297L244.981 333.24C244.91 333.441 244.818 333.632 244.704 333.808C244.523 334.094 244.284 334.327 244.005 334.489C243.745 334.661 243.456 334.772 243.155 334.812C242.819 334.824 242.489 334.915 242.187 335.078C241.884 335.241 241.616 335.473 241.4 335.759C240.787 336.647 240.394 337.856 241.615 338.918L246.048 340.62C246.048 340.62 253.675 341.719 253.27 339.82C252.865 337.92 252.62 336.259 252.62 336.259C252.652 335.099 252.442 333.947 252.006 332.892C251.926 332.72 251.836 332.554 251.736 332.395L252.006 332.365C252.006 332.365 252.564 328.167 253.307 327.371C253.479 327.187 253.518 327.03 253.479 326.935C253.555 326.707 253.359 326.574 253.11 326.496L253.055 326.663C252.812 326.604 252.565 326.573 252.316 326.571C252.316 326.571 252.067 324.375 252.874 323.575C252.939 323.484 252.987 323.379 253.014 323.267C253.041 323.154 253.046 323.037 253.031 322.922C253.037 322.62 253.008 322.32 252.945 322.026C252.937 322.045 252.928 322.063 252.917 322.081C252.512 320.086 251.138 316.917 251.138 316.917C251.138 316.917 251.076 314.922 251.573 314.122C252.07 313.322 251.509 303.27 251.509 303.27C251.509 303.27 251.696 298.412 251.138 296.148C250.579 293.885 251.819 291.219 251.819 291.219C251.819 291.219 251.819 291.168 251.819 291.076V291.042L251.748 290.276C251.747 290.292 251.747 290.308 251.748 290.324C251.623 289.037 251.386 286.705 251.211 285.63C250.963 284.098 251.276 276.779 251.276 276.779L252.389 273.647L254.374 279.043L256.482 286.232C256.482 286.232 257.525 287.75 257.55 289.296C257.55 289.371 257.55 289.446 257.55 289.52C257.533 289.68 257.524 289.84 257.525 290C257.488 290.909 257.712 291.807 258.166 292.564C258.166 292.564 258.725 295.968 259.593 296.822C260.461 297.677 260.461 299.352 260.461 299.352C260.461 299.352 261.513 304.281 261.995 305.139C262.412 305.867 262.434 307.862 262.431 308.485C262.431 308.597 262.431 308.662 262.431 308.662C262.431 308.662 262.578 310.425 262.572 311.903C262.572 312.086 262.572 312.263 262.572 312.43C262.573 312.418 262.573 312.405 262.572 312.393C262.572 312.796 262.528 313.199 262.443 313.591L262.425 313.659C262.425 313.574 262.425 313.492 262.446 313.411C262.23 314.414 262.127 315.443 262.139 316.474C262.112 318.244 262.354 320.341 263.32 321.58C264.995 323.711 266.048 323.446 266.048 323.446C266.048 323.446 265.244 326.108 264.25 326.642C264.212 326.662 264.177 326.687 264.146 326.717C264.146 326.663 264.127 326.612 264.121 326.561C264.01 326.693 263.926 326.85 263.873 327.022C263.82 327.193 263.8 327.374 263.814 327.555C263.744 328.726 264.409 330.618 265.041 331.5C265.276 331.755 265.564 331.942 265.879 332.045C265.829 332.084 265.777 332.119 265.723 332.15C265.612 332.217 265.499 332.278 265.382 332.331C265.221 332.407 265.05 332.456 264.876 332.477C264.539 332.487 264.209 332.577 263.906 332.74C263.604 332.903 263.336 333.136 263.121 333.423C262.507 334.308 262.115 335.517 263.336 336.579L267.769 338.281C267.769 338.281 275.347 339.36 274.948 337.464Z" fill="url(#paint1_linear)"/>
<path d="M245.83 340.609L241.535 338.907C240.351 337.845 240.728 336.637 241.327 335.748C241.533 335.465 241.791 335.234 242.084 335.071C242.377 334.907 242.698 334.816 243.026 334.802C243.317 334.761 243.597 334.651 243.845 334.479C244.118 334.315 244.351 334.081 244.526 333.798C244.84 333.246 245.009 332.608 245.014 331.956C245.014 331.956 249.727 330.424 251.015 331.956C251.245 332.234 251.437 332.547 251.586 332.886C252.014 333.943 252.223 335.093 252.199 336.252C252.199 336.252 252.439 337.913 252.828 339.813C253.218 341.712 245.83 340.609 245.83 340.609Z" fill="#2D293D"/>
<path d="M266.827 338.261L262.532 336.559C261.348 335.496 261.725 334.288 262.323 333.403C262.528 333.119 262.785 332.887 263.078 332.723C263.371 332.56 263.692 332.469 264.02 332.457C264.19 332.437 264.355 332.388 264.511 332.31C264.624 332.257 264.735 332.197 264.842 332.13C266.042 331.398 266.011 329.601 266.011 329.601C266.011 329.601 270.72 328.069 272.012 329.601C272.185 329.808 272.336 330.036 272.463 330.281C273.27 331.83 273.181 333.897 273.181 333.897C273.181 333.897 273.42 335.561 273.794 337.457C274.169 339.353 266.827 338.261 266.827 338.261Z" fill="#2D293D"/>
<path opacity="0.1" d="M251.018 331.953C251.248 332.23 251.44 332.543 251.589 332.882L244.533 333.791C244.846 333.239 245.015 332.602 245.02 331.949C245.02 331.949 249.73 330.421 251.018 331.953Z" fill="black"/>
<path opacity="0.1" d="M272.469 330.288V331.755C271.371 333.76 266.06 333.321 264.517 332.317C264.63 332.264 264.741 332.204 264.848 332.137C266.048 331.405 266.017 329.607 266.017 329.607C266.017 329.607 270.726 328.076 272.018 329.607C272.191 329.815 272.342 330.043 272.469 330.288V330.288Z" fill="black"/>
<path d="M273.306 323.963C272.978 324.603 272.698 325.271 272.469 325.962V331.221C271.266 333.417 265.029 332.685 264.186 331.486C263.342 330.288 262.461 327.17 263.409 326.629C264.357 326.088 265.149 323.432 265.149 323.432C265.149 323.432 264.127 323.698 262.507 321.567C260.888 319.436 261.369 314.711 261.67 313.581C261.971 312.451 261.67 308.655 261.67 308.655C261.67 308.655 261.731 305.99 261.253 305.125C260.774 304.26 259.752 299.338 259.752 299.338C259.752 299.338 259.752 297.673 258.912 296.809C258.071 295.944 257.531 292.547 257.531 292.547C257.04 291.698 256.828 290.686 256.933 289.684C257.111 288.019 255.911 286.222 255.911 286.222L253.871 279.029L251.951 273.637L250.871 276.765C250.871 276.765 250.564 284.088 250.813 285.616C251.061 287.144 251.426 291.209 251.426 291.209C251.426 291.209 250.227 293.871 250.767 296.135C251.307 298.398 251.11 303.263 251.11 303.263C251.11 303.263 251.65 313.312 251.168 314.112C250.687 314.912 250.748 316.91 250.748 316.91C250.748 316.91 253.202 322.765 252.429 323.565C251.656 324.365 251.889 326.561 251.889 326.561C251.889 326.561 253.568 326.561 252.85 327.361C252.132 328.161 251.589 332.354 251.589 332.354L244.333 333.297C244.333 333.297 243.671 332.368 242.71 329.893C241.75 327.419 242.888 327.698 243.855 327.429C244.821 327.16 244.21 326.499 243.069 325.699C241.928 324.899 242.591 323.102 242.591 323.102C242.591 323.102 244.33 319.841 243.729 319.575C243.128 319.31 243.069 314.714 243.069 314.714C243.069 314.714 241.87 309.268 242.17 307.79C242.471 306.313 241.21 302.8 241.21 302.8L240.79 298.606C239.506 296.226 239.038 293.413 239.471 290.681V284.213C239.471 284.213 237.789 271.7 237.55 265.375C237.397 261.324 237.44 255.796 237.489 252.348C237.519 250.414 237.55 249.131 237.55 249.131L263.468 246.135C263.468 246.135 263.443 247.463 263.937 250.407C264.204 251.987 264.618 254.033 265.269 256.589C267.128 263.911 265.989 269.368 265.989 269.368L265.747 278.624C265.747 278.624 268.027 284.813 267.548 286.944C267.259 288.209 267.096 289.506 267.063 290.811C267.063 290.811 272.162 304.325 271.622 308.253C271.082 312.182 273.3 318.374 273.3 318.374C273.3 318.374 273.908 322.765 273.306 323.963Z" fill="#464353"/>
<path opacity="0.05" d="M258.488 289.282L266.379 288.115C266.379 288.115 261.909 293.177 258.488 289.282Z" fill="black"/>
<path opacity="0.1" d="M265.238 279.56C265.238 279.56 265.508 282.658 263.799 283.822C263.799 283.822 266.858 283.291 265.238 279.56Z" fill="black"/>
<path opacity="0.1" d="M264.753 269.709C264.753 269.709 258.157 275.734 255.758 275.233C253.359 274.733 264.753 269.709 264.753 269.709Z" fill="black"/>
<path opacity="0.1" d="M248.708 292.108C248.708 292.108 243.698 293.371 243.548 295.604C243.397 297.837 248.708 292.108 248.708 292.108Z" fill="black"/>
<path opacity="0.05" d="M249.809 319.872C249.809 319.872 242.732 321.335 244.741 322.333C246.751 323.33 250.052 324.13 250.052 324.13C250.052 324.13 252.337 324.263 249.809 319.872Z" fill="black"/>
<g opacity="0.05">
<path opacity="0.05" d="M243.312 323.919C243.134 323.796 242.983 323.629 242.871 323.433C242.759 323.236 242.688 323.013 242.664 322.782L242.591 322.922C242.591 322.922 241.931 324.719 243.072 325.516C243.201 325.608 243.327 325.699 243.44 325.788C243.652 325.744 243.879 325.71 244.097 325.648C245.063 325.383 244.453 324.719 243.312 323.919Z" fill="black"/>
<path opacity="0.05" d="M252.429 323.385C252.626 323.187 252.62 322.677 252.5 322.023C252.193 322.537 252.104 323.34 252.098 323.95C252.172 323.738 252.285 323.546 252.429 323.385V323.385Z" fill="black"/>
<path opacity="0.05" d="M251.34 290.266C251.08 291.053 250.919 291.877 250.862 292.714C250.998 292.136 251.182 291.573 251.411 291.032L251.34 290.266Z" fill="black"/>
<path opacity="0.05" d="M267.551 286.773C267.598 286.534 267.62 286.29 267.615 286.045C267.526 286.542 267.465 287.001 267.419 287.407C267.459 287.199 267.502 287.001 267.551 286.773Z" fill="black"/>
<path opacity="0.05" d="M251.172 313.935C251.27 313.771 251.325 313.22 251.35 312.454C251.127 313.047 251.01 313.681 251.003 314.323C251.045 314.186 251.101 314.056 251.172 313.935V313.935Z" fill="black"/>
<path opacity="0.05" d="M252.644 326.489C252.272 327.824 251.996 329.19 251.819 330.574L244.563 331.503C244.563 331.503 243.901 330.574 242.94 328.099C242.863 327.908 242.794 327.713 242.735 327.514C242.299 327.735 242.121 328.236 242.698 329.696C243.658 332.16 244.324 333.1 244.324 333.1L251.58 332.167C251.58 332.167 252.12 327.973 252.837 327.173C253.206 326.789 252.979 326.588 252.644 326.489Z" fill="black"/>
<path opacity="0.05" d="M243.072 314.534C243.072 314.534 243.131 319.126 243.732 319.392C244.039 318.633 244.238 317.911 243.968 317.792C243.355 317.526 243.309 312.931 243.309 312.931C243.309 312.931 242.109 307.484 242.41 306.007C242.71 304.529 241.449 301.016 241.449 301.016L241.029 296.822C239.745 294.442 239.277 291.629 239.71 288.898V282.43C239.71 282.43 238.029 269.916 237.789 263.591C237.636 259.54 237.679 254.012 237.728 250.564C237.728 249.941 237.746 249.389 237.756 248.923L237.55 248.947C237.55 248.947 237.516 250.227 237.489 252.164C237.44 255.612 237.394 261.14 237.55 265.188C237.789 271.513 239.468 284.03 239.468 284.03V290.497C239.037 293.228 239.506 296.04 240.79 298.419L241.207 302.613C241.207 302.613 242.468 306.139 242.167 307.607C241.867 309.074 243.072 314.534 243.072 314.534Z" fill="black"/>
<path opacity="0.05" d="M264.431 329.71C263.842 328.763 263.449 327.683 263.281 326.547C262.541 327.289 263.391 330.169 264.201 331.313C265.038 332.511 271.278 333.243 272.484 331.044V329.778C270.849 331.558 265.222 330.843 264.431 329.71Z" fill="black"/>
<path opacity="0.05" d="M273.549 322.186C273.22 322.826 272.939 323.494 272.708 324.185V325.128C272.846 324.787 273.039 324.331 273.322 323.793C273.512 323.269 273.601 322.707 273.586 322.142C273.586 322.142 273.558 322.173 273.549 322.186Z" fill="black"/>
<path opacity="0.05" d="M264.799 323.238C265.027 322.725 265.225 322.197 265.391 321.655C265.391 321.655 264.37 321.921 262.75 319.79C261.572 318.241 261.504 315.313 261.673 313.4C261.366 314.534 260.891 319.259 262.51 321.39C263.569 322.782 264.37 323.15 264.799 323.238Z" fill="black"/>
<path opacity="0.05" d="M261.67 308.475C261.776 309.786 261.816 311.103 261.79 312.42C261.82 312.212 261.861 312.006 261.912 311.804C262.219 310.67 261.912 306.878 261.912 306.878C261.912 306.878 261.974 304.213 261.492 303.348C261.01 302.483 260.007 297.554 260.007 297.554C260.007 297.554 260.007 295.89 259.166 295.025C258.326 294.16 257.786 290.763 257.786 290.763C257.29 289.916 257.073 288.904 257.172 287.9C257.353 286.236 256.154 284.438 256.154 284.438L254.114 277.249L252.193 271.857L251.11 274.988C251.11 274.988 251.11 275.383 251.073 276.01L251.951 273.467L253.871 278.849L255.911 286.038C255.911 286.038 257.111 287.835 256.93 289.5C256.831 290.504 257.048 291.516 257.544 292.363C257.544 292.363 258.083 295.767 258.924 296.625C259.765 297.483 259.762 299.154 259.762 299.154C259.762 299.154 260.783 304.08 261.262 304.941C261.74 305.802 261.67 308.475 261.67 308.475Z" fill="black"/>
</g>
<path d="M266.707 185.994L266.256 188.425L266.284 189.508L266.302 190.304L263.799 190.59L263.52 190.015C263.001 188.973 261.925 186.856 261.578 186.529C261.115 186.1 260.289 179.339 261.271 179.741C261.875 180 262.372 180.499 262.664 181.14C262.664 181.14 267.594 181.767 266.707 185.994Z" fill="#FFCDD3"/>
<path opacity="0.1" d="M266.302 190.304L263.799 190.59L263.52 190.015C263.857 189.589 264.316 189.307 264.819 189.215C265.323 189.123 265.839 189.228 266.281 189.511L266.302 190.304Z" fill="black"/>
<path d="M266.934 191.621L263.633 192.469L263.563 191.924L263.376 190.457C263.376 190.457 264.683 188.524 266.572 189.974L266.738 190.719L266.934 191.621Z" fill="#6C63FF"/>
<path d="M213.461 186.26L209.936 188.357L209.629 187.622C209.295 186.842 208.795 185.668 208.657 185.239C208.448 184.592 206.979 183.775 206.979 183.775C203.297 179.864 207.684 176.5 207.684 176.5C210.01 171.309 212.593 178.264 212.593 178.264C212.593 178.264 212.955 181.93 212.7 182.175C212.446 182.42 212.446 183.424 212.446 183.424C212.781 184.144 213.066 184.892 213.295 185.661C213.403 186.032 213.461 186.26 213.461 186.26Z" fill="#FFCDD3"/>
<path opacity="0.1" d="M213.461 186.26L209.936 188.357L209.629 187.622C210.126 187.159 211.89 185.579 212.47 185.644C212.747 185.682 213.026 185.69 213.305 185.668C213.403 186.032 213.461 186.26 213.461 186.26Z" fill="black"/>
<path d="M213.82 187.441L209.859 189.606L209.78 188.663L209.724 188.01C209.724 188.01 212.019 185.828 212.697 185.913C213.04 185.968 213.388 185.968 213.731 185.913L213.777 186.703L213.82 187.441Z" fill="#6C63FF"/>
<path d="M257.108 202.14C257.108 202.14 239.842 204.302 243.069 203.138C245.315 202.324 246.208 200.755 246.395 198.985C246.548 197.511 246.205 195.921 245.754 194.559C245.348 193.351 244.834 192.192 244.22 191.097C244.22 191.097 257.412 183.043 254.776 190.365C254.37 191.473 254.118 192.643 254.028 193.834C253.949 195.018 254.064 196.209 254.368 197.347C254.866 199.195 255.814 200.853 257.108 202.14V202.14Z" fill="#FFCDD3"/>
<path opacity="0.1" d="M254.767 190.355C254.361 191.463 254.108 192.632 254.019 193.824C252.776 194.985 251.414 194.906 249.662 194.906C248.318 194.906 246.827 195.267 245.754 194.549C245.348 193.341 244.834 192.181 244.22 191.087C244.22 191.087 257.409 183.033 254.767 190.355Z" fill="black"/>
<path d="M249.429 195.417C253.372 195.417 256.568 191.871 256.568 187.496C256.568 183.121 253.372 179.574 249.429 179.574C245.486 179.574 242.29 183.121 242.29 187.496C242.29 191.871 245.486 195.417 249.429 195.417Z" fill="#FFCDD3"/>
<path opacity="0.1" d="M257.108 202.14C257.108 202.14 239.842 204.302 243.069 203.138C245.315 202.324 246.208 200.755 246.395 198.985C247.254 197.963 248.981 197.204 250.076 196.809C251.089 196.432 252.182 196.411 253.206 196.751C253.608 196.886 253.991 197.083 254.344 197.337C254.847 199.191 255.804 200.854 257.108 202.14V202.14Z" fill="black"/>
<path opacity="0.1" d="M266.934 191.621L263.633 192.469L263.563 191.924C263.916 191.386 264.411 190.981 264.979 190.765C265.547 190.55 266.161 190.534 266.738 190.719L266.934 191.621Z" fill="black"/>
<path opacity="0.1" d="M213.82 187.441L209.859 189.606L209.78 188.663C211.062 187.898 212.396 187.241 213.768 186.699L213.82 187.441Z" fill="black"/>
<path opacity="0.1" d="M263.937 250.414C257.246 251.599 247.735 253.11 246.226 252.599C244.971 252.177 240.971 252.222 237.489 252.354C237.519 250.421 237.55 249.137 237.55 249.137L263.468 246.142C263.468 246.142 263.443 247.469 263.937 250.414Z" fill="black"/>
<path d="M270.607 248.671C270.607 248.671 248.588 252.865 246.226 252.075C243.864 251.285 231.73 252.14 231.73 252.14C226.269 256.201 228.549 250.21 228.549 250.21C228.549 250.21 228.07 247.081 228.73 244.552C229.173 242.695 229.476 240.8 229.635 238.888C229.635 238.888 229.515 234.891 230.175 233.958C230.834 233.026 231.617 226.371 231.617 226.371C231.617 226.371 232.215 221.843 232.157 220.846C232.098 219.848 232.335 217.05 232.335 217.05L233.117 212.39C228.616 211.726 214.937 202.406 214.937 202.406C214.277 199.277 209.178 191.955 209.178 191.955C209.104 191.339 208.963 190.736 208.758 190.158C208.399 189.092 213.798 186.961 213.798 186.961C213.798 186.961 217.817 192.408 218.658 193.885C219.499 195.363 222.376 198.079 222.376 198.079C222.823 198.028 223.275 198.093 223.695 198.27L223.766 198.294C224.73 198.714 225.635 199.287 226.45 199.996C227.803 199.96 229.116 200.509 230.11 201.527C230.11 201.527 232.565 201.126 232.991 201.592C233.418 202.059 235.51 201.592 235.51 201.592C235.51 201.592 237.608 196.666 238.989 198.096C240.369 199.526 246.226 199.458 246.226 199.458C247.005 198.307 248.904 197.483 250.092 197.075C251.104 196.699 252.197 196.678 253.221 197.017C253.662 197.163 254.078 197.394 254.448 197.698L258.01 201.558C258.01 201.558 259.028 200.091 258.909 199.761C258.789 199.431 260.108 199.162 260.108 199.162C260.108 199.162 261.848 198.562 262.507 198.362C263.167 198.161 263.771 198.954 263.827 199.025C263.805 198.94 263.354 197.323 263.52 196.098C263.685 194.872 262.799 193.715 262.799 193.715C264.897 187.989 269.637 192.782 269.637 192.782C269.637 192.782 270.177 195.911 269.699 197.109C269.22 198.307 270.177 200.836 270.057 201.504C269.938 202.171 270.3 203.301 270.3 204.567C270.3 205.834 269.686 208.227 269.34 209.292C268.993 210.358 266.1 212.754 266.1 212.754C266.1 212.754 265.919 216.55 264.658 218.745C263.397 220.941 264.189 228.451 264.189 228.451C264.189 228.451 265.388 234.309 266.888 236.175C268.389 238.04 270.607 248.671 270.607 248.671Z" fill="#3F3D56"/>
<path opacity="0.1" d="M238.51 204.867C238.51 204.867 237.851 202.671 237.249 202.484C236.652 202.24 236.071 201.951 235.51 201.619L235.896 200.799C235.896 200.799 238.148 201.48 238.51 202.219C238.872 202.957 238.51 204.867 238.51 204.867Z" fill="black"/>
<path opacity="0.1" d="M226.45 200.009C226.331 200.69 220.99 201.272 220.99 201.272L223.689 198.27L223.757 198.297C224.725 198.719 225.632 199.296 226.45 200.009V200.009Z" fill="black"/>
<path d="M211.001 191.404C211.265 191.404 211.479 191.166 211.479 190.873C211.479 190.579 211.265 190.342 211.001 190.342C210.736 190.342 210.522 190.579 210.522 190.873C210.522 191.166 210.736 191.404 211.001 191.404Z" fill="#575988"/>
<path d="M211.614 192.469C211.878 192.469 212.093 192.231 212.093 191.938C212.093 191.645 211.878 191.407 211.614 191.407C211.35 191.407 211.135 191.645 211.135 191.938C211.135 192.231 211.35 192.469 211.614 192.469Z" fill="#575988"/>
<path d="M212.215 193.453C212.48 193.453 212.694 193.215 212.694 192.922C212.694 192.629 212.48 192.391 212.215 192.391C211.951 192.391 211.737 192.629 211.737 192.922C211.737 193.215 211.951 193.453 212.215 193.453Z" fill="#575988"/>
<path d="M212.844 194.515C213.109 194.515 213.323 194.277 213.323 193.984C213.323 193.691 213.109 193.453 212.844 193.453C212.58 193.453 212.366 193.691 212.366 193.984C212.366 194.277 212.58 194.515 212.844 194.515Z" fill="#575988"/>
<path d="M269.398 194.358C269.613 194.358 269.788 194.165 269.788 193.926C269.788 193.687 269.613 193.494 269.398 193.494C269.183 193.494 269.008 193.687 269.008 193.926C269.008 194.165 269.183 194.358 269.398 194.358Z" fill="#575988"/>
<path d="M269.459 195.342C269.674 195.342 269.849 195.149 269.849 194.91C269.849 194.671 269.674 194.478 269.459 194.478C269.244 194.478 269.07 194.671 269.07 194.91C269.07 195.149 269.244 195.342 269.459 195.342Z" fill="#575988"/>
<path d="M269.511 196.323C269.727 196.323 269.901 196.129 269.901 195.89C269.901 195.651 269.727 195.458 269.511 195.458C269.296 195.458 269.122 195.651 269.122 195.89C269.122 196.129 269.296 196.323 269.511 196.323Z" fill="#575988"/>
<path opacity="0.1" d="M238.532 222.909C238.474 222.83 252 241.781 262.498 230.83C262.507 230.834 245.919 233.329 238.532 222.909Z" fill="black"/>
<path opacity="0.1" d="M230.77 232.76C230.77 232.76 238.863 233.005 239.71 235.589V238.278C239.479 238.42 239.22 238.495 238.957 238.495C238.693 238.495 238.434 238.42 238.204 238.278C237.387 237.788 232.494 235.031 230.77 236.358V232.76Z" fill="black"/>
<path d="M230.92 232.76C230.92 232.76 238.661 232.995 239.471 235.46V238.02C239.25 238.156 239.002 238.227 238.75 238.227C238.497 238.227 238.249 238.156 238.029 238.02C237.249 237.557 232.571 234.925 230.92 236.192V232.76Z" fill="#3F3D56"/>
<path opacity="0.1" d="M235.188 213.261C236.015 215.385 237.068 217.391 238.326 219.236C239.694 221.275 241.352 223.053 243.235 224.502C243.235 224.502 235.323 214.494 235.188 213.261Z" fill="black"/>
<path opacity="0.1" d="M232.54 202.828C232.54 202.828 233.89 209.296 237.369 211.491L232.54 202.828Z" fill="black"/>
<path opacity="0.1" d="M230.469 203.481C230.436 203.362 229.27 208.588 234.955 211.491C234.955 211.491 232.54 210.582 230.469 203.481Z" fill="black"/>
<path opacity="0.1" d="M265.808 199.145C265.719 199.145 268.613 201.187 269.401 202.14C269.401 202.14 267.517 199.008 265.808 199.145Z" fill="black"/>
<path d="M247.499 194.675C247.5 194.848 247.534 195.018 247.597 195.176C247.661 195.334 247.753 195.475 247.869 195.592C247.984 195.708 248.12 195.796 248.267 195.851C248.415 195.906 248.571 195.926 248.726 195.911C250.902 196.06 253.169 196.166 255.169 195.23C255.544 195.081 255.881 194.834 256.151 194.508C256.507 194.021 256.577 193.361 256.721 192.755C257.004 191.57 257.605 190.519 258.037 189.392C258.769 187.488 259.015 185.398 258.746 183.349C258.69 182.722 258.503 182.117 258.2 181.583C257.623 180.667 256.571 180.296 255.807 179.568C255.043 178.839 254.552 177.726 253.66 177.185C252.856 176.688 251.871 176.749 250.966 176.919C249.186 177.255 247.48 177.965 245.941 179.013C245.422 179.353 244.855 179.772 244.26 179.646C243.738 179.537 243.358 179.05 243.032 178.594C242.614 179.683 242.438 180.868 242.52 182.049C242.543 182.222 242.537 182.399 242.505 182.57C242.43 182.777 242.316 182.964 242.17 183.118C241.633 183.799 241.299 184.905 241.83 185.606C242.06 185.909 242.416 186.076 242.64 186.386C243.042 186.941 242.907 187.748 242.897 188.456C242.875 188.703 242.932 188.951 243.057 189.157C243.173 189.277 243.315 189.362 243.469 189.403C243.624 189.444 243.785 189.44 243.937 189.392C244.241 189.29 244.56 189.257 244.876 189.293C245.209 189.413 245.496 189.653 245.692 189.974C246.683 191.407 247.076 192.966 247.499 194.675Z" fill="#2D293D"/>
<g opacity="0.1">
<path opacity="0.1" d="M256.405 193.906C256.136 194.231 255.799 194.479 255.424 194.627C253.411 195.557 251.147 195.451 248.981 195.308C248.749 195.311 248.519 195.254 248.309 195.141C247.978 194.927 247.852 194.478 247.751 194.069C247.327 192.367 246.938 190.805 245.932 189.385C245.738 189.058 245.45 188.812 245.116 188.687C244.8 188.654 244.481 188.688 244.177 188.786C244.024 188.835 243.863 188.839 243.709 188.798C243.555 188.758 243.413 188.674 243.296 188.554C243.171 188.348 243.115 188.1 243.137 187.853C243.137 187.138 243.281 186.338 242.879 185.783C242.655 185.474 242.299 185.307 242.069 185C241.919 184.775 241.827 184.508 241.803 184.228C241.778 183.949 241.823 183.668 241.931 183.414C241.548 184.095 241.385 184.949 241.83 185.535C242.06 185.838 242.416 186.005 242.64 186.314C243.042 186.873 242.907 187.676 242.897 188.384C242.874 188.631 242.929 188.879 243.054 189.085C243.17 189.206 243.313 189.291 243.468 189.332C243.623 189.373 243.784 189.369 243.937 189.32C244.241 189.219 244.561 189.185 244.876 189.222C245.209 189.342 245.496 189.581 245.692 189.902C246.696 191.322 247.088 192.881 247.512 194.59C247.561 195.01 247.75 195.395 248.042 195.669C248.253 195.781 248.484 195.837 248.717 195.832C250.892 195.982 253.16 196.091 255.16 195.152C255.535 195.004 255.873 194.756 256.142 194.43C256.277 194.238 256.381 194.022 256.448 193.79C256.451 193.834 256.43 193.872 256.405 193.906Z" fill="black"/>
<path opacity="0.1" d="M242.52 182.362C242.617 182.246 242.691 182.11 242.738 181.961C242.766 181.788 242.766 181.612 242.738 181.44C242.678 180.469 242.792 179.495 243.072 178.574L243.032 178.522C242.613 179.61 242.437 180.795 242.52 181.974C242.529 182.103 242.529 182.233 242.52 182.362V182.362Z" fill="black"/>
</g>
<path opacity="0.1" d="M246.226 199.475C246.226 199.475 255.144 200.789 255.945 199.301Z" fill="black"/>
<path opacity="0.1" d="M263.563 195.38C263.563 195.38 268.52 195.38 269.61 197.449Z" fill="black"/>
<path d="M291.3 379.253C289.829 380.712 287.918 381.504 285.946 381.473C285.443 381.473 284.747 381.578 284.743 382.136C284.756 382.3 284.806 382.457 284.891 382.592C285.513 383.744 286.496 384.601 287.652 384.999C288.726 385.36 289.873 385.299 290.993 385.234L294.26 385.047C294.874 385.009 295.487 384.975 296.101 384.89C296.714 384.805 297.383 384.666 298.024 384.55C299.6 384.301 301.193 384.219 302.783 384.305C303.206 384.322 303.703 384.305 303.955 383.964C304.206 383.624 304.077 382.974 303.982 382.463C303.786 381.411 303.982 380.308 303.801 379.253C303.494 377.401 302.049 375.982 300.466 375.311C298.994 374.692 296.386 373.98 294.993 375.015C293.524 376.101 292.625 377.915 291.3 379.253Z" fill="#3F3D56"/>
<path d="M294.545 317.21C294.834 318.731 296.162 319.895 296.199 321.448C296.233 322.694 295.432 323.739 294.855 324.804C294.312 325.908 293.853 327.06 293.484 328.249C292.398 331.345 291.05 334.32 289.459 337.134C288.692 338.496 287.833 339.949 288.008 341.532C288.13 342.272 288.365 342.984 288.704 343.636L291.005 348.708C291.509 349.721 291.903 350.796 292.18 351.911C292.379 352.875 292.398 353.872 292.514 354.852C292.876 357.964 294.193 361.095 293.413 364.112C293.346 364.37 293.107 364.683 292.919 364.503C293.68 366.079 294.291 367.665 294.232 369.453C294.202 370.389 293.944 371.366 294.254 372.237C294.386 372.601 294.616 372.942 294.613 373.333C294.613 373.592 294.506 373.834 294.481 374.086C294.417 374.804 295.012 375.403 295.628 375.631C296.245 375.859 296.917 375.842 297.54 376.05C298.736 376.448 299.592 377.592 300.608 378.385C301.649 379.181 302.877 379.625 304.142 379.662C304.322 379.683 304.504 379.642 304.663 379.546C304.753 379.458 304.826 379.351 304.876 379.23C304.925 379.109 304.951 378.977 304.952 378.845C305.007 378.209 304.921 377.568 304.701 376.978C304.48 376.387 304.132 375.867 303.688 375.461C303.493 375.325 303.331 375.138 303.218 374.916C303.161 374.72 303.146 374.511 303.175 374.307C303.361 371.517 303.315 368.714 303.04 365.933C302.916 365.051 302.876 364.158 302.921 363.267C302.985 362.525 303.188 361.79 303.114 361.051C303.04 360.313 302.7 359.639 302.5 358.927C302.145 357.661 302.243 356.299 302.194 354.975C302.132 352.674 301.657 350.413 301.184 348.167C300.997 347.285 300.792 346.362 300.23 345.709C299.752 345.154 298.979 344.623 299.16 343.884C299.26 343.612 299.409 343.365 299.598 343.159C299.82 342.85 299.983 342.493 300.077 342.112C300.171 341.73 300.194 341.331 300.144 340.94C300.346 340.997 300.56 340.974 300.748 340.876C300.937 340.778 301.089 340.611 301.178 340.402C304.915 338.444 307.928 334.53 309.271 330.189C309.351 329.867 309.473 329.56 309.633 329.277C309.98 328.739 310.581 328.508 311.115 328.212C312.79 327.276 313.947 325.522 315.008 323.807C315.622 322.813 316.235 321.785 316.512 320.614C316.657 319.856 316.726 319.083 316.717 318.309L316.812 314.309C316.833 314.046 316.81 313.781 316.745 313.526C316.654 313.289 316.521 313.074 316.355 312.893C315.335 311.696 313.995 310.894 312.532 310.606C311.551 310.412 310.548 310.449 309.554 310.357C307.627 310.18 305.725 309.516 303.798 309.676C300.77 309.925 298.073 312.253 296.647 315.228C296.147 316.277 295.619 317.189 294.545 317.21Z" fill="#464353"/>
<path d="M277.733 291.202C277.774 291.82 277.699 292.44 277.512 293.023C277.276 293.582 276.684 294.017 276.166 293.789C276.322 293.398 275.908 292.952 275.521 292.999C275.331 293.048 275.155 293.147 275.007 293.288C274.859 293.43 274.744 293.608 274.672 293.81C274.415 294.381 274.329 295.029 274.426 295.658C274.549 296.441 274.957 297.193 274.85 297.98C274.764 298.633 274.331 299.283 274.561 299.889C274.71 300.166 274.898 300.416 275.116 300.628C275.42 301.042 275.568 301.57 275.531 302.102C275.494 302.634 275.274 303.13 274.917 303.488L280.722 303.617C280.51 304.693 280.945 305.792 281.442 306.749C282.834 309.379 284.757 311.615 287.058 313.282C289.36 314.949 291.978 316.002 294.708 316.359C294.56 316.454 294.434 316.585 294.337 316.742C294.241 316.898 294.177 317.076 294.15 317.264C294.124 317.451 294.135 317.643 294.183 317.825C294.231 318.007 294.315 318.174 294.429 318.316C294.901 318.837 295.702 318.772 296.294 318.435C296.886 318.098 297.349 317.54 297.889 317.107C298.843 316.358 300.006 316.01 301.169 316.127C301.896 316.205 302.602 316.467 303.332 316.508C305.479 316.634 307.32 314.919 309.388 314.217C310.894 313.703 312.603 313.703 313.867 312.658C314.413 312.209 314.861 311.47 314.702 310.742C314.57 310.323 314.361 309.939 314.088 309.615C313.361 308.57 312.931 307.314 312.41 306.126C311.377 303.774 309.954 301.658 308.216 299.889C306.904 298.617 305.514 297.448 304.056 296.39C303.703 296.101 303.327 295.849 302.933 295.638C302.424 295.389 301.859 295.27 301.399 294.957C300.718 294.48 300.325 293.639 299.801 292.962C298.65 291.471 296.883 290.787 295.466 289.616C294.515 288.829 293.674 287.795 292.539 287.417C291.987 287.23 291.401 287.216 290.849 287.032C289.594 286.61 288.68 285.374 287.449 284.874C286.477 284.479 285.403 284.581 284.382 284.442C283.23 284.284 282.13 283.819 281.176 283.087C280.868 282.809 280.523 282.586 280.154 282.426C278.599 281.902 278.473 285.116 278.313 286.229C278.108 287.883 277.733 289.527 277.733 291.202Z" fill="#00204A"/>
<path d="M279.249 301.98C279.51 305.118 277.374 308.158 277.997 311.232C278.129 311.886 278.384 312.509 278.476 313.172C278.737 314.994 277.755 316.719 276.819 318.244L268.781 331.333C268.459 331.908 268.073 332.436 267.634 332.906C266.1 334.421 263.793 334.268 261.774 334.717C260.356 335.04 259.017 335.697 257.847 336.644C257.795 336.689 257.76 336.755 257.751 336.828C257.742 336.902 257.759 336.976 257.798 337.035C258.131 337.539 258.573 337.942 259.083 338.208C259.592 338.473 260.154 338.593 260.716 338.557C260.927 338.863 260.716 339.319 260.424 339.541C259.995 339.881 259.4 339.959 259.314 340.773C259.285 341.056 259.336 341.341 259.461 341.59C259.786 342.138 260.289 342.526 260.866 342.672C263.649 343.619 266.655 341.958 268.738 339.701C270.821 337.444 272.315 334.594 274.359 332.3C275.491 331.027 276.776 329.941 277.942 328.709C280.267 326.248 282.078 323.262 283.82 320.27C284.345 319.368 284.875 318.442 285.093 317.397C285.311 316.352 285.21 315.293 285.458 314.282C285.784 312.958 286.658 311.899 287.385 310.789C288.812 308.611 289.766 305.945 289.575 303.26C289.385 300.574 287.888 297.925 285.606 297.013C284.898 296.701 284.118 296.648 283.381 296.863C282.446 297.183 281.755 298.041 281.117 298.865L279.583 300.819C279.21 301.251 278.917 301.762 278.721 302.32C278.622 302.601 278.599 302.908 278.653 303.204C278.708 303.5 278.838 303.772 279.028 303.988" fill="#FBBEBE"/>
<path d="M283.323 289.105C282.268 289.173 281.105 289.289 280.359 290.126C280.047 290.511 279.794 290.95 279.611 291.427C278.887 293.064 278.181 294.776 278.129 296.601C278.086 298.058 278.467 299.484 278.666 300.924C278.832 302.123 278.411 303.345 278.332 304.556C279.642 304.111 281.372 303.505 282.559 302.752C283.369 302.238 284.151 301.653 285.035 301.326C286.296 300.86 288.41 301.666 289.609 302.313C289.674 301.38 289.042 299.753 289.109 298.817C289.118 298.423 289.182 298.033 289.296 297.66C289.476 297.265 289.688 296.89 289.931 296.54C290.388 295.716 290.598 294.753 290.531 293.789C290.465 292.824 290.125 291.908 289.56 291.171C288.496 289.844 286.83 289.347 285.241 289.129C284.24 289 283.231 288.962 282.225 289.013" fill="#00204A"/>
<defs>
<filter id="filter0_d" x="19" y="53" width="280" height="341" filterUnits="userSpaceOnUse" color-interpolation-filters="sRGB">
<feFlood flood-opacity="0" result="BackgroundImageFix"/>
<feColorMatrix in="SourceAlpha" type="matrix" values="0 0 0 0 0 0 0 0 0 0 0 0 0 0 0 0 0 0 127 0" result="hardAlpha"/>
<feOffset dy="4"/>
<feGaussianBlur stdDeviation="2"/>
<feColorMatrix type="matrix" values="0 0 0 0 0 0 0 0 0 0 0 0 0 0 0 0 0 0 0.25 0"/>
<feBlend mode="normal" in2="BackgroundImageFix" result="effect1_dropShadow"/>
<feBlend mode="normal" in="SourceGraphic" in2="effect1_dropShadow" result="shape"/>
</filter>
<linearGradient id="paint0_linear" x1="173.625" y1="-6.63013e-07" x2="176.259" y2="44.0518" gradientUnits="userSpaceOnUse">
<stop stop-color="#005792"/>
<stop offset="1" stop-color="#4B8BDE" stop-opacity="0.57"/>
</linearGradient>
<linearGradient id="paint1_linear" x1="239.661" y1="340.926" x2="239.661" y2="174.58" gradientUnits="userSpaceOnUse">
<stop stop-color="#808080" stop-opacity="0.25"/>
<stop offset="0.54" stop-color="#808080" stop-opacity="0.12"/>
<stop offset="1" stop-color="#808080" stop-opacity="0.1"/>
</linearGradient>
</defs>
</svg>
